<svg xmlns="http://www.w3.org/2000/svg" viewBox="0 0 512 512" style="height: 512px; width: 512px;"><g class="" transform="translate(0,0)" style=""><path d="M256 21.97c-33.27 0-58.38 9.265-74.06 23.185C166.27 59.075 160 76.738 160 96.03c0 19.29 6.27 36.953 21.94 50.873 15.68 13.92 40.79 23.185 74.06 23.185 33.27 0 58.38-9.265 74.06-23.185 15.67-13.92 21.94-31.584 21.94-50.874 0-19.29-6.27-36.954-21.94-50.874-15.68-13.92-40.79-23.185-74.06-23.185zm-96 74.06v98.157c0 19.29 6.27 36.954 21.94 50.874 15.68 13.92 40.79 23.185 74.06 23.185 33.27 0 58.38-9.265 74.06-23.185 15.67-13.92 21.94-31.584 21.94-50.873V96.03c-4.57 11.213-12.582 21.283-23.19 29.564-18.288 14.274-43.694 22.594-72.81 22.594-29.116 0-54.522-8.32-72.81-22.594-10.608-8.28-18.62-18.35-23.19-29.564zm0 122.626v98.156c0 19.29 6.27 36.954 21.94 50.874 15.68 13.92 40.79 23.185 74.06 23.185 33.27 0 58.38-9.265 74.06-23.185 15.67-13.92 21.94-31.584 21.94-50.874v-98.155c-4.57 11.213-12.582 21.283-23.19 29.564-18.288 14.274-43.694 22.594-72.81 22.594-29.116 0-54.522-8.32-72.81-22.594-10.608-8.28-18.62-18.35-23.19-29.564zm0 122.625V439.5c0 19.29 6.27 36.953 21.94 50.873 15.68 13.92 40.79 23.185 74.06 23.185 33.27 0 58.38-9.265 74.06-23.185 15.67-13.92 21.94-31.584 21.94-50.874V341.28c-4.57 11.213-12.582 21.283-23.19 29.563-18.288 14.275-43.694 22.594-72.81 22.594-29.116 0-54.522-8.32-72.81-22.593-10.608-8.28-18.62-18.35-23.19-29.563z" fill="#5C7CFA" fill-opacity="1"></path></g></svg>
