<?xml version="1.0" encoding="UTF-8" standalone="no"?><!DOCTYPE svg PUBLIC "-//W3C//DTD SVG 1.1//EN" "http://www.w3.org/Graphics/SVG/1.1/DTD/svg11.dtd"><svg width="100%" height="100%" viewBox="0 0 512 512" version="1.1" xmlns="http://www.w3.org/2000/svg" xmlns:xlink="http://www.w3.org/1999/xlink" xml:space="preserve" xmlns:serif="http://www.serif.com/" style="fill-rule:evenodd;clip-rule:evenodd;stroke-linejoin:round;stroke-miterlimit:2;"><g><path d="M169.5,38.97l-0.001,-0.002l9.03,2.405l254.845,68.25l9.03,2.44l-2.436,9.03l-4.312,16.062l34.78,9.314l-3.375,12.593l27.063,7.25l-4.845,18.063l-27.06,-7.25l-2.844,10.625l-34.78,-9.314l-12.25,45.72l34.78,9.314l-3.28,12.31l27.03,7.25l-4.845,18.063l-27.03,-7.25l-2.904,10.876l-34.814,-9.313l-12.5,46.656l34.814,9.313l-3,11.157l27.03,7.25l-4.812,18.03l-27.033,-7.25l-3.25,12.094l-34.81,-9.312l-12,44.75l34.81,9.312l-2.875,10.75l27.032,7.25l-4.844,18.032l-27.032,-7.25l-3.342,12.5l-34.813,-9.313l-4.468,16.655l-2.408,9.032l-9.03,-2.408l-254.845,-68.28l-9.03,-2.407l2.405,-9.03l4.47,-16.688l-34.906,-9.345l3.343,-12.53l-26.75,-7.155l4.813,-18.032l26.78,7.188l2.875,-10.75l34.906,9.345l12,-44.75l-34.907,-9.344l3.25,-12.095l-26.78,-7.187l4.845,-18.032l26.78,7.188l2.969,-11.125l34.907,9.345l12.53,-46.69l-34.936,-9.344l2.906,-10.907l-26.75,-7.156l4.845,-18.062l26.75,7.157l3.31,-12.282l34.94,9.343l12.25,-45.718l-34.94,-9.343l2.874,-10.655l-26.78,-7.19l4.845,-18.03l26.75,7.156l3.375,-12.53l34.936,9.344l4.313,-16.093l2.406,-9Zm13.188,22.874l-84.938,316.906l236.814,63.44l84.966,-316.91l-236.842,-63.436Zm136.065,354.131l-0.033,0.121l-9,-2.406l-184.376,-49.41l0.032,-0.12l74.634,-278.537l194.529,52.124l-74.634,278.537l-1.152,-0.309Zm51.018,-262.633l-148.272,-39.735l-7.72,-2.064l-2.09,7.746l-61.925,231.135l19.563,5.245l0.001,0.003l58.894,-219.812l136.428,36.577l5.121,-19.095Z" style="fill:#ae3ec9;"/></g></svg>