<svg xmlns="http://www.w3.org/2000/svg" viewBox="0 0 512 512" style="height: 512px; width: 512px;"><defs><filter id="shadow-1" height="300%" width="300%" x="-100%" y="-100%"><feFlood flood-color="rgba(0, 0, 0, 1)" result="flood"></feFlood><feComposite in="flood" in2="SourceGraphic" operator="atop" result="composite"></feComposite><feGaussianBlur in="composite" stdDeviation="15" result="blur"></feGaussianBlur><feOffset dx="0" dy="0" result="offset"></feOffset><feComposite in="SourceGraphic" in2="offset" operator="over"></feComposite></filter></defs><path d="M0 0h512v512H0z" fill="#ffffff" fill-opacity="0"></path><g class="" transform="translate(0,0)" style=""><path d="M230.218 16c-14.245 0-51.563 11.946-51.563 26.718v26.718h-51.093C99.072 69.436 76 93.326 76 122.874V442.56C76 472.11 99.072 496 127.563 496h256.875c28.49-.002 51.562-23.892 51.562-53.44V122.874c0-29.547-23.072-53.437-51.563-53.437h-51.093V42.718c0-14.774-37.317-26.718-51.562-26.718H230.22zM256 122.875V256h102.657L256 442.563V309.438H153.343L256 122.875z" fill="#2e94e7" fill-opacity="1" filter="url(#shadow-1)"></path></g></svg>