<svg viewBox="0 0 512 512" version="1.1" xmlns="http://www.w3.org/2000/svg" xml:space="preserve" style="height: 512px; width: 512px;">
    <g>
        <path d="M105.616,355.057c0.181,-0.168 0.39,-0.339 0.626,-0.511l-7.53,-15.169l-22.536,11.131l-8.709,-17.679l22.514,-11.132l-6.799,-13.642l-22.492,11.132l-8.72,-17.68l22.471,-11.131l-6.745,-13.642l-22.481,11.131l-8.72,-17.679l22.46,-11.132l-6.756,-13.641l-22.492,11.131l-8.709,-17.647l19.775,-9.789c-15.017,1.833 -30.241,-5.271 -37.193,-19.317c-8.916,-18.018 -0.502,-39.932 17.735,-48.968c5.707,-2.816 11.819,-4.114 17.81,-4.005c13.183,0.229 25.734,7.225 31.867,19.611c6.952,14.035 3.372,30.448 -7.192,41.285l19.753,-9.778l4.682,9.44l63.734,-40.357l20.299,60.187l40.489,-65.972l32.085,102.662l34.595,-93.647l52.384,53.224l41.362,-64.792l50.092,49.721l5.13,-10.422l19.644,9.713c-10.586,-10.805 -14.188,-27.24 -7.094,-41.275c6.002,-12.386 18.553,-19.382 31.758,-19.611c6.002,-0.109 12.223,1.19 17.898,4.005c18.334,9.036 26.737,30.95 17.789,49.023c-7.094,13.969 -22.264,21.063 -37.324,19.317l19.862,9.713l-8.731,17.679l-22.59,-11.131l-6.657,13.641l22.481,11.132l-8.731,17.679l-22.481,-11.131l-6.766,13.642l22.372,11.131l-8.731,17.68l-22.372,-11.132l-6.875,13.642l22.481,11.132l-8.512,17.679l-22.591,-11.131l-7.639,15.387c0.198,0.146 0.377,0.29 0.539,0.435c-5.66,-3.29 -13.278,-7.722 -17.622,-10.25l7.152,-14.303l-22.482,-11.132l8.731,-17.679l22.481,11.131l6.766,-13.641l-22.481,-11.132l8.731,-17.68l22.372,11.132l6.766,-13.642l-22.372,-11.131l8.731,-17.68l22.372,11.132l6.766,-13.642l-22.372,-11.132l1.419,-2.892l-50.202,-9.178l-34.813,87.154l-38.852,-61.289l-59.587,94.138l-26.083,-98.013l-50.965,49.121l-22.482,-76.328l-48.237,12.518l2.401,4.769l-22.449,11.121l6.767,13.653l22.448,-11.088l8.731,17.636l-22.449,11.131l6.734,13.642l22.481,-11.132l8.731,17.68l-22.481,11.132l6.766,13.641l22.481,-11.131l8.731,17.679l-22.481,11.132l7.093,14.296c0.258,-0.103 0.517,-0.205 0.776,-0.305c-5.42,3.05 -12.798,7.199 -18.536,10.42Z" style="fill:#5D8EC8;fill-rule:nonzero;"/>
    </g>
</svg>
