<?xml version="1.0" encoding="UTF-8" standalone="no"?>
<!DOCTYPE svg PUBLIC "-//W3C//DTD SVG 1.1//EN" "http://www.w3.org/Graphics/SVG/1.1/DTD/svg11.dtd">
<svg width="100%" height="100%" viewBox="0 0 262 276" version="1.1" xmlns="http://www.w3.org/2000/svg" xmlns:xlink="http://www.w3.org/1999/xlink" xml:space="preserve" xmlns:serif="http://www.serif.com/" style="fill-rule:evenodd;clip-rule:evenodd;stroke-linejoin:round;stroke-miterlimit:2;">
    <path d="M142.012,27.956c-1.614,-0 -3.244,-0.092 -4.89,-0.118c-4.692,-0.08 -8.91,-0.036 -13.22,-2.266c-4.44,-2.296 -8,-6.536 -8.814,-11.47c-0.388,-2.358 -0.066,-4.84 0.87,-7.042c1.002,-2.408 2.724,-4.482 5.034,-5.698c1.83,-0.966 3.88,-1.362 5.956,-1.362c1.616,-0 3.246,0.24 4.804,0.64c3.562,0.922 6.864,2.61 10.26,4.034c3.132,1.322 6.392,2.436 9.164,4.404c2.768,1.964 5.042,4.99 5.114,8.386c0.022,0.922 -0.128,1.822 -0.414,2.68c-0.938,2.802 -3.31,5.156 -6.048,6.4c-2.568,1.168 -5.172,1.412 -7.816,1.412Zm-13.53,-26.304c-2.218,0 -5.592,0.854 -7.576,1.79c-1.242,0.586 -2.318,1.718 -2.452,3.084c-0.172,1.782 1.224,3.304 2.606,4.442c1.7,1.4 3.538,2.628 5.48,3.666c1.526,0.814 3.206,1.52 4.914,1.52c0.28,-0 0.56,-0.018 0.842,-0.06c2.278,-0.33 4.21,-2.146 4.89,-4.344c1.756,-5.68 -3.302,-10.044 -8.622,-10.098l-0.082,0Z" style="fill:url(#_Radial1);"/>
    <path d="M103.49,43.59c-0.494,-0.124 -0.98,-0.266 -1.46,-0.444c-2.18,-0.822 -4.168,-2.504 -4.746,-4.762c-0.58,-2.26 0.7,-5.006 2.974,-5.52c0.374,-0.082 0.756,-0.106 1.142,-0.106c0.24,-0 0.482,0.01 0.724,0.018c0.242,0.01 0.484,0.018 0.726,0.018c0.202,0 0.404,-0.006 0.604,-0.024l-0.2,0.286c1.23,1.266 2.496,2.574 3.11,4.226c1.014,2.696 -0.55,5.184 -2.874,6.308Zm-2.438,-8.538c-0.766,0 -1.512,0.216 -1.728,0.826c-0.416,1.174 1.788,3.254 2.892,3.254l0.004,-0c0.86,-0.006 1.612,-0.776 1.692,-1.63c0.078,-0.856 -0.452,-1.706 -1.212,-2.106c-0.372,-0.196 -1.016,-0.344 -1.648,-0.344Zm3.696,-4.834c-7.144,-0.75 -16.758,-5.882 -18.068,-13.334l-0.012,-0.078c-0.7,0.89 -0.978,1.922 -0.98,2.988c0.002,-1.066 0.28,-2.098 0.98,-2.988l0.176,-0.228c1.036,-1.184 2.64,-1.718 4.228,-1.718c0.34,0 0.68,0.024 1.014,0.072c1.894,0.264 3.624,1.172 5.276,2.146c4.998,2.944 9.316,7.572 7.386,13.14Zm-12.616,-13.972c-1.204,0 -2.18,0.486 -1.928,1.958c0.094,0.554 0.384,1.056 0.706,1.516c1.262,1.796 3.142,3.15 5.246,3.776c0.348,0.102 0.708,0.186 1.07,0.186c0.092,0 0.184,-0.006 0.276,-0.016c0.45,-0.06 0.898,-0.302 1.102,-0.71c0.278,-0.554 0.042,-1.22 -0.22,-1.782c-0.702,-1.514 -1.606,-2.994 -2.96,-3.968c-0.656,-0.472 -2.088,-0.96 -3.292,-0.96Z" style="fill:url(#_Radial2);"/>
    <path d="M50.198,76.794c-3.964,0 -8.264,-1.72 -10.92,-3.956c-2.76,-2.318 -4.77,-5.892 -4.176,-9.444c0.178,-1.052 0.566,-2.032 1.102,-2.932c0.966,-1.644 2.43,-3.046 4.01,-4.154c2.07,-1.454 4.486,-2.564 6.996,-2.564c0.084,-0 0.17,-0 0.254,0.004c4.318,0.144 7.964,3.688 9.36,7.778c0.472,1.388 0.916,3.476 1.042,5.648c0.21,3.554 -0.406,7.324 -3.01,8.624c-1.396,0.692 -2.998,0.996 -4.658,0.996Zm-4.212,-21.292c-1.67,0 -3.328,0.654 -4.558,2.054c-0.988,1.124 -1.472,2.784 -0.902,4.168c0.442,1.066 1.442,1.832 2.536,2.202c0.63,0.216 1.278,0.31 1.93,0.31c1.806,-0 3.65,-0.724 5.264,-1.616c0.756,-0.418 1.548,-0.944 1.812,-1.766c0.272,-0.85 -0.108,-1.778 -0.624,-2.508c-1.304,-1.84 -3.39,-2.844 -5.458,-2.844Z" style="fill:url(#_Radial3);"/>
    <path d="M41.226,90.542c-1.054,0 -2.076,-0.244 -2.972,-0.966c-0.928,-0.752 -1.606,-1.744 -2.322,-2.712c-0.118,0.458 -0.174,0.932 -0.176,1.408c0.002,-0.476 0.058,-0.95 0.176,-1.408c0.386,-1.52 1.458,-2.886 3.396,-3.61c0.594,-0.222 1.22,-0.328 1.846,-0.328c2.32,0 4.66,1.436 5.504,3.624c0.35,0.902 0.422,1.872 0.264,2.824c-1.086,0.266 -2.166,0.588 -3.254,0.838c-0.812,0.184 -1.646,0.33 -2.462,0.33Zm-0.704,-6.84c-0.592,-0 -1.206,0.31 -1.74,1.088c-1.088,1.588 0.018,3.944 1.826,3.944c0.246,0 0.502,-0.044 0.768,-0.138c3.012,-1.062 1.22,-4.894 -0.854,-4.894Z" style="fill:url(#_Radial4);"/>
    <path d="M22.726,153.458c-0.6,-0.3 -1.302,-0.472 -1.966,-0.55c-1.386,-0.172 -2.896,-0.18 -4.002,-1.03c-1.474,-1.13 -1.61,-3.452 -0.652,-5.04c0.32,-0.538 0.742,-1.002 1.23,-1.404l-0.072,0l0.072,0c2.116,0.074 4.29,2.932 5.062,4.65c0.456,1.042 0.594,2.28 0.328,3.374Zm-4.574,-9.622c-3.59,-0.066 -7.194,-0.352 -10.462,-1.774c-2.522,-1.094 -4.168,-2.646 -5.404,-5.042c-0.266,-0.52 -0.958,-1.866 -1.574,-3.31c-0.448,0.758 -0.714,1.614 -0.712,2.51c-0.002,-0.896 0.264,-1.752 0.712,-2.51c1.03,-1.738 3.032,-2.98 5.084,-3.104c0.086,-0.004 0.172,-0.006 0.26,-0.006c3.526,0 8.65,3.86 10.686,6.478c1.458,1.888 2.138,4.562 1.41,6.758Zm-12.06,-12.646c-0.326,0 -0.636,0.054 -0.922,0.174c-2.846,1.2 -1.726,5.054 0.408,6.254c0.856,0.484 1.84,0.69 2.83,0.69c0.45,-0 0.902,-0.042 1.344,-0.122c0.934,-0.17 1.944,-0.588 2.298,-1.464c0.384,-0.962 -0.184,-2.044 -0.89,-2.8c-1.012,-1.082 -3.266,-2.732 -5.068,-2.732Z" style="fill:url(#_Radial5);"/>
    <path d="M121.9,271.658c-1.456,0 -2.956,-0.238 -4.246,-0.902c-1.288,-0.672 -1.744,-1.844 -2.618,-2.732c-0.126,0.516 -0.192,1.052 -0.192,1.59c0,-0.538 0.066,-1.074 0.192,-1.59c0.55,-2.242 2.274,-4.102 5.05,-4.102c0.474,0 0.978,0.054 1.512,0.168c3.012,0.654 5.206,3.94 4.592,6.958l-0.028,0.124c-1.194,0.22 -2.396,0.418 -3.604,0.47c-0.218,0.01 -0.438,0.016 -0.658,0.016Zm-2.032,-6.68c-0.432,0 -0.838,0.076 -1.182,0.254c-1.644,0.85 -0.374,2.876 0.728,3.574c0.658,0.418 1.442,0.706 2.208,0.706c0.364,0 0.724,-0.066 1.062,-0.212c0.592,-0.254 1.096,-0.792 1.156,-1.432c0.062,-0.636 -0.312,-1.24 -0.776,-1.678c-0.69,-0.648 -2.03,-1.212 -3.196,-1.212Z" style="fill:url(#_Radial6);"/>
    <path d="M244.274,242.274c-0.782,0 -1.562,-0.064 -2.332,-0.196c-3.866,-0.664 -7.264,-3.16 -8.856,-6.764c-1.166,-2.632 -2.64,-6.87 -1.588,-9.624c1.408,-3.674 5.47,-5.932 9.002,-7.048c-0.896,-0.38 -1.81,-0.766 -2.546,-1.402c-0.736,-0.636 -1.286,-1.564 -1.222,-2.532c0.07,-1 0.784,-1.878 1.672,-2.344l0.45,-0.192c0.68,-0.262 1.424,-0.35 2.158,-0.35c0.108,0 0.216,0.002 0.324,0.006c1.552,0.058 3.174,0.472 4.268,1.58c1.094,1.108 1.452,3.024 0.472,4.232c8.286,0.494 14.598,7.808 11.418,16.008c-0.122,0.316 -0.258,0.63 -0.408,0.944c-2.26,4.756 -7.546,7.682 -12.812,7.682Zm2.98,-23.094c-0.33,0 -0.662,0.016 -0.994,0.044c-2.866,0.244 -6.04,3.782 -5.22,6.706c0.532,1.89 2.336,3.242 4.26,3.632c0.488,0.098 0.982,0.144 1.476,0.144c1.454,0 2.916,-0.392 4.266,-0.958c1.612,-0.674 3.264,-1.808 3.568,-3.526c0.246,-1.388 -0.484,-2.79 -1.47,-3.796c-1.576,-1.612 -3.666,-2.24 -5.826,-2.246l-0.06,0Zm-5.348,-6.312c-0.496,0 -0.908,0.206 -1,0.852c-0.16,1.108 1.092,1.498 2.032,1.498c0.134,0 0.264,-0.008 0.382,-0.024c0.304,-0.038 0.61,-0.128 0.848,-0.326c0.234,-0.196 0.378,-0.522 0.3,-0.816c-0.102,-0.386 -0.518,-0.588 -0.888,-0.74c-0.442,-0.18 -1.114,-0.444 -1.674,-0.444Z" style="fill:url(#_Radial7);"/>
    <path d="M245.382,162.436c-0.956,-0.178 -1.894,-0.534 -2.73,-1.042c-0.638,-0.392 -1.252,-0.916 -1.468,-1.632c-0.284,-0.978 0.288,-2.044 1.116,-2.644l0.042,-0.022l-0.012,0.014c0.092,-0.01 0.184,-0.014 0.276,-0.014c1.996,0 3.642,2.25 3.198,4.234c-0.092,0.414 -0.236,0.786 -0.422,1.106Zm-4.07,-5.542c-2.248,-0 -4.502,-0.782 -6.19,-2.272c-1.244,-1.086 -2.152,-2.53 -2.66,-4.096c-0.306,-0.942 -0.1,-3.082 -0.75,-3.952c-1.302,1.18 -2.038,2.8 -2.042,4.48c0.004,-1.68 0.74,-3.3 2.042,-4.48c0.264,-0.244 0.558,-0.474 0.874,-0.674c1.176,-0.754 2.564,-1.116 3.958,-1.116c2.162,-0 4.338,0.872 5.764,2.51c2.252,2.588 2.346,6.794 0.258,9.518c-0.416,0.054 -0.834,0.082 -1.254,0.082Zm-4.206,-10.816c-1.66,0 -3.248,0.848 -3.306,2.726c-0.034,1.046 0.71,1.994 1.626,2.5c0.914,0.508 1.98,0.66 3.018,0.788c0.224,0.026 0.452,0.052 0.678,0.052c0.228,-0 0.452,-0.026 0.664,-0.104c0.57,-0.208 0.956,-0.756 1.15,-1.33c0.38,-1.104 0.142,-2.398 -0.602,-3.298c-0.716,-0.864 -1.992,-1.334 -3.228,-1.334Z" style="fill:url(#_Radial8);"/>
    <path d="M259.012,173.528c-0.628,-0 -1.256,-0.024 -1.876,-0.108c-1.48,-0.208 -2.98,-0.836 -3.824,-2.06c-0.552,-0.792 -0.322,-2.088 -0.48,-2.858c-1.244,0.568 -1.816,1.648 -1.816,2.846c0,-1.198 0.572,-2.278 1.816,-2.846c0.586,-0.266 1.32,-0.424 2.218,-0.424c0.218,0 0.446,0.01 0.686,0.028c1.938,0.15 3.924,0.916 5.082,2.476c0.608,0.822 0.916,1.886 0.858,2.91l-0.08,0c-0.07,-0.002 -0.14,-0.002 -0.21,-0.002c-0.394,0 -0.79,0.01 -1.184,0.018c-0.398,0.01 -0.794,0.02 -1.19,0.02Zm-3.784,-4.666c-0.506,-0 -0.934,0.176 -1.094,0.67c-0.478,1.482 1.804,2.01 2.798,2.01l0.038,0c0.42,-0.008 0.902,-0.08 1.126,-0.434c0.162,-0.254 0.136,-0.594 -0.002,-0.86c-0.136,-0.266 -0.37,-0.472 -0.618,-0.642c-0.45,-0.308 -1.448,-0.744 -2.248,-0.744Z" style="fill:url(#_Radial9);"/>
    <path d="M155.876,20.144c-0.938,2.802 -3.31,5.156 -6.048,6.4c-4.134,1.88 -8.36,1.366 -12.706,1.294c-4.692,-0.078 -8.91,-0.036 -13.22,-2.266c-4.44,-2.296 -8,-6.536 -8.814,-11.47c-0.388,-2.358 -0.066,-4.84 0.87,-7.042l0.164,0.266c1.088,1.83 1.222,4.132 2.402,6.012c1.218,1.944 2.84,3.646 4.72,4.954c4.398,3.068 9.918,4.168 15.278,4.134c5.356,-0.036 10.648,-1.13 15.916,-2.094c0.472,-0.086 0.958,-0.172 1.438,-0.188Z" style="fill:url(#_Radial10);"/>
    <path d="M100.816,44.206c-0.242,-0 -0.486,-0.014 -0.728,-0.044c-3.176,-0.408 -5.708,-2.89 -7.388,-5.614c-0.96,-1.564 -1.772,-3.32 -1.774,-4.95c-0.002,-1.438 0.626,-2.78 2.338,-3.808c-0.13,0.078 -0.278,0.114 -0.438,0.114c-1.774,0.002 -5.176,-4.404 -5.696,-5.34c-0.126,-0.228 -0.256,-0.474 -0.372,-0.716c-0.614,-1.258 -1.072,-2.684 -1.07,-4.054c0.002,-1.066 0.28,-2.098 0.98,-2.988l0.012,0.078c1.31,7.452 10.924,12.584 18.068,13.334c-0.286,0.83 -0.708,1.68 -1.294,2.552c-0.2,0.018 -0.402,0.024 -0.604,0.024c-0.242,0 -0.484,-0.008 -0.726,-0.018c-0.242,-0.008 -0.484,-0.018 -0.724,-0.018c-0.386,-0 -0.768,0.024 -1.142,0.106c-2.274,0.514 -3.554,3.26 -2.974,5.52c0.578,2.258 2.566,3.94 4.746,4.762c0.48,0.178 0.966,0.32 1.46,0.444c-0.824,0.396 -1.742,0.616 -2.674,0.616Z" style="fill:url(#_Radial11);"/>
    <path d="M54.856,75.798c-4.724,2.346 -11.81,0.214 -15.578,-2.96c-2.76,-2.318 -4.77,-5.892 -4.176,-9.444c0.178,-1.052 0.566,-2.032 1.102,-2.932c0.65,1.544 1.408,3.582 1.9,4.16c1.66,1.924 3.934,3.362 6.394,4.012c4.418,1.158 9.072,0.228 13.368,-1.458c0.21,3.552 -0.406,7.322 -3.01,8.622Z" style="fill:url(#_Radial12);"/>
    <path d="M41.272,94.376c-3.27,0 -5.518,-3.098 -5.516,-6.104c0.002,-0.476 0.058,-0.95 0.176,-1.408c0.716,0.968 1.394,1.96 2.322,2.712c0.896,0.722 1.918,0.966 2.972,0.966c0.816,0 1.65,-0.146 2.462,-0.33c1.088,-0.25 2.168,-0.572 3.254,-0.838c-0.314,1.974 -1.622,3.818 -3.488,4.562c-0.764,0.304 -1.496,0.44 -2.182,0.44Z" style="fill:url(#_Radial13);"/>
    <path d="M18.702,156.362c-0.22,-0 -0.44,-0.012 -0.658,-0.03c-2.652,-0.23 -5.212,-1.716 -6.53,-4.032c-0.588,-1.028 -0.878,-2.282 -0.878,-3.542c0,-1.57 0.45,-3.154 1.33,-4.336l-0.168,-0c-2.896,-0 -5.79,-0.892 -8.184,-2.526c-1.864,-1.28 -3.502,-3.196 -3.608,-5.448c-0.004,-0.076 -0.006,-0.152 -0.006,-0.228c-0.002,-0.896 0.264,-1.752 0.712,-2.51c0.616,1.444 1.308,2.79 1.574,3.31c1.236,2.396 2.882,3.948 5.404,5.042c3.268,1.422 6.872,1.708 10.462,1.774c-0.194,0.57 -0.486,1.114 -0.888,1.598l0.072,0c-0.488,0.402 -0.91,0.866 -1.23,1.404c-0.958,1.588 -0.822,3.91 0.652,5.04c1.106,0.85 2.616,0.858 4.002,1.03c0.664,0.078 1.366,0.25 1.966,0.55c-0.2,0.88 -0.656,1.666 -1.408,2.188c-0.756,0.526 -1.686,0.716 -2.616,0.716Z" style="fill:url(#_Radial14);"/>
    <path d="M241.54,164.398c-0.856,0 -1.726,-0.17 -2.506,-0.466c-1.432,-0.544 -2.538,-1.108 -3.196,-2.594c-0.126,-0.278 -0.418,-1.588 -0.416,-2.606c0,-0.67 0.126,-1.214 0.508,-1.256c-0.118,0.014 -0.24,0.02 -0.36,0.02c-2.166,0 -4.508,-2.118 -5.36,-3.982c-0.368,-0.804 -0.542,-1.638 -0.54,-2.46c0.004,-1.68 0.74,-3.3 2.042,-4.48c0.65,0.87 0.444,3.01 0.75,3.952c0.508,1.566 1.416,3.01 2.66,4.096c1.688,1.49 3.942,2.272 6.19,2.272c0.42,-0 0.838,-0.028 1.254,-0.082l0.328,-0.052c-0.186,0.094 -0.372,0.2 -0.544,0.33l-0.008,0.006l-0.042,0.022c-0.828,0.6 -1.4,1.666 -1.116,2.644c0.216,0.716 0.83,1.24 1.468,1.632c0.836,0.508 1.774,0.864 2.73,1.042c-0.776,1.396 -2.28,1.962 -3.842,1.962Z" style="fill:url(#_Radial15);"/>
    <path d="M257.744,176.906c-0.884,0 -1.796,-0.188 -2.624,-0.47c-2.59,-0.88 -4.102,-3.14 -4.104,-5.088c0,-1.198 0.572,-2.278 1.816,-2.846c0.158,0.77 -0.072,2.066 0.48,2.858c0.844,1.224 2.344,1.852 3.824,2.06c0.62,0.084 1.248,0.108 1.876,0.108c0.396,-0 0.792,-0.01 1.19,-0.02c0.394,-0.008 0.79,-0.018 1.184,-0.018c0.07,0 0.14,0 0.21,0.002l0.08,0c-0.05,0.908 -0.386,1.794 -1.058,2.416c-0.776,0.72 -1.804,0.998 -2.874,0.998Z" style="fill:url(#_Radial16);"/>
    <path d="M257.494,233.648c-0.122,0.316 -0.258,0.63 -0.406,0.944c-2.596,5.462 -9.182,8.508 -15.146,7.486c-3.866,-0.664 -7.264,-3.16 -8.856,-6.764c-1.166,-2.632 -2.64,-6.87 -1.588,-9.624c1.408,-3.674 5.47,-5.932 9.002,-7.048c-0.896,-0.38 -1.81,-0.766 -2.546,-1.402c-0.736,-0.636 -1.286,-1.564 -1.222,-2.532c0.06,-0.856 0.842,-1.356 1.578,-1.672c0.284,1.344 1.278,2.454 2.442,3.184c1.162,0.732 2.494,1.138 3.808,1.54c-0.804,-0.246 -2.21,0.78 -2.904,1.08c-0.786,0.334 -1.474,0.468 -2.156,1.022c-1.606,1.306 -2.694,3.364 -2.826,5.428c-0.264,4.012 2.524,7.836 6.184,9.502c3.66,1.674 7.972,1.424 11.768,0.086c0.98,-0.35 1.938,-0.766 2.868,-1.23Z" style="fill:url(#_Radial17);"/>
    <path d="M120.456,275.624c-0.416,0 -0.834,-0.05 -1.244,-0.156c-2.97,-0.762 -4.372,-3.332 -4.368,-5.854c0,-0.538 0.066,-1.074 0.192,-1.59c0.874,0.888 1.33,2.06 2.618,2.732c1.29,0.664 2.79,0.902 4.246,0.902c0.22,0 0.44,-0.006 0.658,-0.016c1.208,-0.052 2.41,-0.25 3.604,-0.47c-0.586,2.54 -3.13,4.452 -5.706,4.452Z" style="fill:url(#_Radial18);"/>
    <path d="M131.454,16.154c-1.708,-0 -3.388,-0.706 -4.914,-1.52c-1.942,-1.038 -3.78,-2.266 -5.48,-3.666c-1.382,-1.138 -2.778,-2.66 -2.606,-4.442c0.134,-1.366 1.21,-2.498 2.452,-3.084c1.984,-0.936 5.358,-1.79 7.576,-1.79l0.082,0c5.32,0.054 10.378,4.418 8.622,10.098c-0.68,2.198 -2.612,4.014 -4.89,4.344c-0.282,0.042 -0.562,0.06 -0.842,0.06Z" style="fill:url(#_Radial19);"/>
    <path d="M97.226,23.682c-0.362,0 -0.722,-0.084 -1.07,-0.186c-2.104,-0.626 -3.984,-1.98 -5.246,-3.776c-0.322,-0.46 -0.612,-0.962 -0.706,-1.516c-0.252,-1.472 0.724,-1.958 1.928,-1.958c1.204,0 2.636,0.488 3.292,0.96c1.354,0.974 2.258,2.454 2.96,3.968c0.262,0.562 0.498,1.228 0.22,1.782c-0.204,0.408 -0.652,0.65 -1.102,0.71c-0.092,0.01 -0.184,0.016 -0.276,0.016Z" style="fill:url(#_Radial20);"/>
    <path d="M102.216,39.132c-1.104,-0 -3.308,-2.08 -2.892,-3.254c0.216,-0.61 0.962,-0.826 1.728,-0.826c0.632,0 1.276,0.148 1.648,0.344c0.76,0.4 1.29,1.25 1.212,2.106c-0.08,0.854 -0.832,1.624 -1.692,1.63l-0.004,-0Z" style="fill:url(#_Radial21);"/>
    <path d="M44.992,64.236c-0.652,-0 -1.3,-0.094 -1.93,-0.31c-1.094,-0.37 -2.094,-1.136 -2.536,-2.202c-0.57,-1.384 -0.086,-3.044 0.902,-4.168c1.23,-1.4 2.888,-2.054 4.558,-2.054c2.068,0 4.154,1.004 5.458,2.844c0.516,0.73 0.896,1.658 0.624,2.508c-0.264,0.822 -1.056,1.348 -1.812,1.766c-1.614,0.892 -3.458,1.616 -5.264,1.616Z" style="fill:url(#_Radial22);"/>
    <path d="M40.608,88.734c-1.808,0 -2.914,-2.356 -1.826,-3.944c0.534,-0.778 1.148,-1.088 1.74,-1.088c2.074,-0 3.866,3.832 0.854,4.894c-0.266,0.094 -0.522,0.138 -0.768,0.138Z" style="fill:url(#_Radial23);"/>
    <path d="M239.122,152.144c-0.226,-0 -0.454,-0.026 -0.678,-0.052c-1.038,-0.128 -2.104,-0.28 -3.018,-0.788c-0.916,-0.506 -1.66,-1.454 -1.626,-2.5c0.058,-1.878 1.646,-2.726 3.306,-2.726c1.236,0 2.512,0.47 3.228,1.334c0.744,0.9 0.982,2.194 0.602,3.298c-0.194,0.574 -0.58,1.122 -1.15,1.33c-0.212,0.078 -0.436,0.104 -0.664,0.104Z" style="fill:url(#_Radial24);"/>
    <path d="M256.932,171.542c-0.994,0 -3.276,-0.528 -2.798,-2.01c0.16,-0.494 0.588,-0.67 1.094,-0.67c0.8,-0 1.798,0.436 2.248,0.744c0.248,0.17 0.482,0.376 0.618,0.642c0.138,0.266 0.164,0.606 0.002,0.86c-0.224,0.354 -0.706,0.426 -1.126,0.434l-0.038,0Z" style="fill:url(#_Radial25);"/>
    <path d="M246.776,229.706c-0.494,0 -0.988,-0.046 -1.476,-0.144c-1.924,-0.39 -3.728,-1.742 -4.26,-3.632c-0.82,-2.924 2.354,-6.462 5.22,-6.706c0.332,-0.028 0.664,-0.044 0.994,-0.044l0.06,0c2.16,0.006 4.25,0.634 5.826,2.246c0.986,1.006 1.716,2.408 1.47,3.796c-0.304,1.718 -1.956,2.852 -3.568,3.526c-1.35,0.566 -2.812,0.958 -4.266,0.958Z" style="fill:url(#_Radial26);"/>
    <path d="M242.938,215.218c-0.94,0 -2.192,-0.39 -2.032,-1.498c0.092,-0.646 0.504,-0.852 1,-0.852c0.56,0 1.232,0.264 1.674,0.444c0.37,0.152 0.786,0.354 0.888,0.74c0.078,0.294 -0.066,0.62 -0.3,0.816c-0.238,0.198 -0.544,0.288 -0.848,0.326c-0.118,0.016 -0.248,0.024 -0.382,0.024Z" style="fill:url(#_Radial27);"/>
    <path d="M121.622,269.512c-0.766,0 -1.55,-0.288 -2.208,-0.706c-1.102,-0.698 -2.372,-2.724 -0.728,-3.574c0.344,-0.178 0.75,-0.254 1.182,-0.254c1.166,0 2.506,0.564 3.196,1.212c0.464,0.438 0.838,1.042 0.776,1.678c-0.06,0.64 -0.564,1.178 -1.156,1.432c-0.338,0.146 -0.698,0.212 -1.062,0.212Z" style="fill:url(#_Radial28);"/>
    <path d="M8.408,138.308c-0.99,-0 -1.974,-0.206 -2.83,-0.69c-2.134,-1.2 -3.254,-5.054 -0.408,-6.254c0.286,-0.12 0.596,-0.174 0.922,-0.174c1.802,0 4.056,1.65 5.068,2.732c0.706,0.756 1.274,1.838 0.89,2.8c-0.354,0.876 -1.364,1.294 -2.298,1.464c-0.442,0.08 -0.894,0.122 -1.344,0.122Z" style="fill:url(#_Radial29);"/>
    <path d="M158.254,241.75l-0.098,0c-5.714,-0.008 -11.488,-0.83 -16.944,-2.524c-1.424,-0.444 -13.02,-4.654 -13.02,-5.02c-2.134,4.524 -6.914,6.294 -11.968,6.294c-4.78,0 -9.804,-1.584 -13.062,-3.926c-1.666,-1.202 -3.16,-2.626 -4.572,-4.112c-0.438,-0.468 -3.354,-4.4 -3.796,-4.4c-0.006,0 -0.01,0 -0.014,0.002c-2.766,0.58 -5.59,0.864 -8.414,0.864c-7.878,0 -15.766,-2.214 -22.43,-6.418c-9.058,-5.714 -14.448,-15.764 -16.98,-26.168c3.684,-1.156 7.542,-1.738 11.404,-1.738c2.756,0 5.514,0.298 8.208,0.894c-4.698,-3.44 -10.494,-4.97 -16.18,-6.236c-5.676,-1.27 -11.504,-2.38 -16.616,-5.168c-3.638,-1.98 -6.906,-4.992 -8.708,-8.652c-0.278,-2.48 -0.086,-5.02 0.594,-7.428c0.446,-1.592 1.386,-2.36 2.804,-2.36c0.264,0 0.544,0.026 0.842,0.08l0.142,0.022l-0.142,-0.022c2.246,0.938 4.976,1.372 7.164,2.152c3.19,1.136 6.328,2.446 9.308,4.052c4.312,2.34 8.266,5.308 12.556,7.68c4.004,2.222 8.444,3.954 13,3.954c0.326,0 0.652,-0.01 0.978,-0.028c-0.044,-0.03 -0.086,-0.058 -0.128,-0.088c7.11,3.346 13.864,7.69 17.616,14.472c1.938,3.51 3.768,7.844 7.678,8.746c0.482,0.11 0.954,0.16 1.42,0.16c4.544,-0 8.434,-4.83 13.18,-5.66c0.522,-0.092 1.036,-0.134 1.544,-0.134c4.926,0 9.234,4.08 13.214,7.326c9.496,7.752 21.742,12.008 33.99,12.008c2.448,0 4.9,-0.17 7.328,-0.518c1.53,-0.218 3.1,-0.5 4.636,-0.5c1.018,0 2.022,0.124 2.984,0.472c3.074,1.108 4.92,4.154 7.13,6.564c0.328,0.358 0.664,0.694 1.016,1.016l-0.044,-0.28l0.044,0.28c0.09,1.314 -1.646,1.872 -2.656,2.936l-0.284,0.266c-2.768,-0.02 -5.534,-0.508 -8.142,-1.436c1.572,3.508 -0.422,7.836 -3.604,9.996c-3.162,2.132 -7.16,2.58 -10.978,2.58Zm8.872,-11.854c-0.81,0 -1.586,0.5 -2.306,0.926c-4.142,2.444 -7.704,1.196 -11.968,2.15c-2.924,0.654 -4.348,3.322 -1.772,5.292c1.31,1.006 3.372,1.472 5.64,1.472c5.448,0 12.098,-2.688 12.454,-7.058c0.096,-1.166 -0.52,-2.506 -1.67,-2.744c-0.126,-0.026 -0.252,-0.038 -0.378,-0.038Zm-53.47,-24.934c-6.732,0 -9.644,11.088 -1.596,11.23c0.04,0.002 0.078,0.002 0.118,0.002c2.126,0 4.2,-0.974 5.694,-2.486c0.6,-0.61 1.118,-1.316 1.472,-2.092c0.2,-0.432 0.348,-0.884 0.432,-1.354c0.234,-1.312 -0.078,-2.752 -0.986,-3.726c-1.238,-1.328 -3.238,-1.55 -5.054,-1.574l-0.08,0Zm-52.208,-7.578c-0.898,0 -1.846,0.11 -2.75,0.222c-2.502,0.314 -8.496,-0.7 -6.51,3.628c1.324,2.888 3.348,5.454 5.85,7.414c0.818,0.642 1.782,1.244 2.8,1.244c0.112,0 0.222,-0.006 0.336,-0.022c1.646,-0.218 2.58,-1.946 3.25,-3.466c0.73,-1.652 1.474,-3.38 1.4,-5.184c-0.132,-3.134 -2.098,-3.836 -4.376,-3.836Zm-28.768,-28.686c-3.902,-0 -7.14,3.364 -2.104,6.402c0.978,0.592 2.12,0.974 3.252,0.974c0.44,0 0.878,-0.058 1.304,-0.184c1.522,-0.448 2.786,-1.91 2.686,-3.494c-0.074,-1.194 -0.89,-2.258 -1.922,-2.856c-1.016,-0.588 -2.142,-0.842 -3.216,-0.842Zm165.468,55.072c-0.45,0 -0.9,-0.016 -1.348,-0.046c-5.098,-0.342 -10.044,-2.666 -13.562,-6.382c-4.298,-4.542 -6.544,-11.026 -11.762,-14.466c-0.5,-0.328 -1.158,-0.598 -1.736,-0.598c-0.414,-0 -0.786,0.138 -1.032,0.49c-0.486,0.694 -0.028,1.618 0.236,2.416c0.702,2.118 -0.106,4.52 -1.602,6.172c-1.5,1.644 -3.588,2.646 -5.704,3.33c-2.762,0.896 -5.618,1.308 -8.488,1.308c-7.448,0 -14.982,-2.778 -21.154,-7.098c-8.552,-5.984 -14.872,-14.614 -20.408,-23.458c-1.546,5.11 -6.44,9.872 -11.926,9.872c-1.084,-0 -2.192,-0.186 -3.302,-0.592c-2.088,-0.764 -3.732,-2.366 -5.446,-3.782c-3.784,-3.124 -8.146,-5.462 -12.198,-8.23c-4.06,-2.766 -7.922,-6.098 -10.088,-10.502c-2.16,-4.412 -1.924,-10.754 1.122,-14.6c-2.16,-13.94 -13.056,-26.138 -26.668,-29.848c-3.338,-0.916 -6.914,-1.396 -9.766,-3.354c-1.83,-1.252 -3.19,-3.104 -3.956,-5.176c-0.084,-1.216 -0.064,-2.424 0.08,-3.604c0.722,-5.928 3.968,-11.632 9.044,-14.778c2.62,-1.622 5.728,-2.48 8.81,-2.48c2.476,-0 4.934,0.554 7.114,1.708c0.292,0.15 0.586,0.314 0.864,0.492l0.192,0.122c-0.314,-2.13 -0.32,-3.598 1.238,-5.084c1.25,-1.2 2.98,-1.866 4.712,-1.872c0.032,-0 0.064,-0.002 0.098,-0.002c0.388,-0 0.776,0.042 1.16,0.116c-0.384,-0.074 -0.772,-0.116 -1.16,-0.116c-0.034,-0 -0.066,0.002 -0.098,0.002c2.708,1.792 5.926,3.08 8.894,4.452c6.392,2.976 12.284,7.022 17.36,11.912c-1.624,-5.126 -6.328,-8.588 -10.89,-11.438c-4.554,-2.86 -9.474,-5.722 -12.062,-10.44c-1.486,-2.716 -1.714,-5.396 -1.722,-8.408c0,-0.422 -0.008,-1.294 0.028,-2.308c-1.66,1.536 -2.944,3.466 -3.602,5.634c-0.278,0.91 -0.408,1.83 -0.41,2.74c0.002,-0.91 0.132,-1.83 0.41,-2.74c0.658,-2.168 1.942,-4.098 3.602,-5.634c1.316,-1.224 2.868,-2.196 4.54,-2.846c1.88,-0.734 3.89,-1.074 5.908,-1.074c1.542,0 3.088,0.198 4.588,0.574c0.486,0.128 0.964,0.264 1.438,0.422c0.02,-1.18 0.278,-2.282 0.764,-3.204c0.7,-1.366 1.908,-2.352 3.604,-2.674l-0.18,-0.372l0,-0.006c-0.664,-1.524 -0.598,-3.218 -0.034,-4.792c0.578,-1.608 1.666,-3.096 3.036,-4.168c-0.27,-0.064 -0.542,-0.142 -0.814,-0.228c-3.346,-1.05 -6.642,-3.546 -4.346,-7.214c0.17,-0.272 0.364,-0.514 0.586,-0.73c1.086,-1.086 2.744,-1.572 4.324,-1.652c0.156,-0.006 0.312,-0.01 0.468,-0.01c1.866,0 3.77,0.512 5.182,1.72c1.888,1.614 2.23,3.852 1.488,5.626c1.02,-0.114 2.058,-0.158 3.09,-0.158c0.578,-0 1.156,0.014 1.728,0.038c12.54,0.5 24.916,4.646 35.226,11.818c0,-0.216 0.008,-0.43 0.03,-0.646c0.084,-1.034 0.414,-2.08 0.936,-3c0.686,-1.21 1.694,-2.218 2.938,-2.726c0.76,-0.314 1.576,-0.464 2.394,-0.464c1.448,0 2.904,0.472 4.056,1.346c0.242,0.184 0.47,0.384 0.686,0.606c0.43,0.448 0.94,0.652 1.444,0.652c0.918,0 1.812,-0.674 2.146,-1.752c0.096,-0.316 0.142,-0.636 0.142,-0.954c0,0.318 -0.046,0.638 -0.142,0.954c-0.334,1.078 -1.228,1.752 -2.146,1.752c-0.504,0 -1.014,-0.204 -1.444,-0.652c-0.216,-0.222 -0.444,-0.422 -0.686,-0.606c-0.55,1.914 -2.738,3.144 -4.794,3.144l-0.092,-0c-1.578,-0.028 -3.066,-0.586 -4.502,-1.3c-0.522,0.92 -0.852,1.966 -0.936,3c-0.078,0.94 1.63,2.746 2.206,3.402c0.862,0.984 1.804,1.868 2.886,2.608c2.314,1.588 5.056,2.554 7.858,2.742c0.066,0.004 0.134,0.006 0.202,0.006c0.278,0 0.562,-0.05 0.724,-0.262c0.332,-0.43 -0.116,-1 -0.374,-1.48c-0.568,-1.054 -0.094,-2.44 0.818,-3.216c0.912,-0.778 2.146,-1.052 3.34,-1.152c0.374,-0.032 0.75,-0.046 1.124,-0.046c2.914,0 5.824,0.918 8.2,2.604c2.682,1.906 4.662,4.78 5.486,7.964c0.22,0.854 0.36,1.752 0.174,2.614c-0.188,0.862 -0.756,1.682 -1.59,1.968c0.044,-0.014 0.094,-0.022 0.15,-0.022c0.644,0 1.956,0.966 2.35,1.256c0.8,0.586 1.302,1.208 1.758,2.062c0.946,1.764 2.426,3.214 3.558,4.884c2.408,3.548 4.178,7.534 5.12,11.72c0.682,-0.05 1.364,-0.072 2.048,-0.072c10.476,-0 20.846,5.636 26.43,14.522c1.48,2.352 2.652,4.926 4.462,7.036c2.216,2.58 5.234,4.31 8.192,5.984c0.33,0.186 0.702,0.38 1.102,0.578c-0.4,0.266 -0.83,0.494 -1.28,0.68c0.91,1.236 0.178,2.782 -0.45,4.19c-0.616,1.364 -1.974,2.372 -3.468,2.56c-0.678,-0.638 -1.668,-0.906 -2.678,-0.906c-0.556,0 -1.116,0.082 -1.634,0.226c-1.73,0.486 -3.31,1.478 -5.09,1.722c-0.304,0.042 -0.604,0.064 -0.898,0.064c-4.21,0 -7.516,-4.124 -9.748,-7.886c-2.386,-4.03 -5.39,-8.692 -10.066,-8.9c-0.108,-0.004 -0.212,-0.006 -0.318,-0.006c-5.998,-0 -9.812,7.486 -15.82,8.45c-0.458,0.074 -0.91,0.108 -1.358,0.108c-4.782,0 -8.996,-3.93 -13.676,-5.572c-4.462,-1.55 -9.338,-0.994 -14.036,-1.442c-6.716,-0.646 -13.376,-3.784 -17.794,-8.75c-1.262,-2.322 -1.802,-5.104 -1.63,-7.762c0.284,-4.312 2.49,-11.708 6.758,-13.764c1.9,-0.916 4.06,-1.086 6.162,-1.242c3.13,-0.232 6.304,-0.458 9.456,-0.458c4.45,0 8.856,0.45 13.018,1.972c-6.166,-5.284 -13.992,-8.276 -21.898,-10.124c-4.818,-1.124 -9.766,-1.876 -14.32,-3.812c-4.552,-1.936 -8.786,-5.298 -10.392,-9.976c0.124,5.448 3.058,10.76 7.606,13.762c0.858,0.568 1.844,1.146 2.144,2.132c0.094,0.302 0.094,0.572 0.016,0.81c-0.478,1.452 -3.834,1.748 -6.362,1.748c-1.204,-0.002 -2.222,-0.068 -2.65,-0.108c-0.54,-0.052 -1.47,-0.4 -2.144,-0.4c-0.15,0 -0.288,0.016 -0.406,0.058c-1.528,-0.966 -3.188,-1.718 -4.928,-2.21c-3.854,-1.086 -8.008,-0.956 -11.768,-2.352c-6.042,-2.238 -10.232,-8.644 -9.96,-15.064c-0.486,0.922 -0.744,2.024 -0.764,3.204c-0.474,-0.158 -0.952,-0.294 -1.438,-0.422c-0.586,2.416 0.056,5.248 1.544,7.428c2.33,3.426 6.378,5.276 10.39,6.314c4.01,1.042 8.184,1.442 12.102,2.794c3.918,1.358 7.708,3.91 9.174,7.786c2.06,5.442 -0.972,11.69 0.594,17.288c1.336,4.79 5.728,8.044 10.132,10.338c4.41,2.296 9.214,4.098 12.754,7.578c2.138,2.11 3.976,4.912 6.908,5.536c0.426,0.09 0.852,0.13 1.28,0.13c2.294,0 4.588,-1.112 6.926,-1.196c0.098,-0.004 0.198,-0.006 0.296,-0.006c2.612,-0 5.092,1.218 7.54,2.436c2.448,1.218 4.86,2.434 7.336,2.434c0.666,0 1.338,-0.088 2.016,-0.288c3.454,-1.022 5.39,-4.56 7.2,-7.678c1.802,-3.112 4.398,-6.444 8.002,-6.492l0.088,-0c2.736,-0 5.104,1.982 6.696,4.216c1.616,2.26 2.718,4.864 4.482,7c2.8,3.376 7.642,5.246 12.32,5.246c3.518,0 6.944,-1.058 9.336,-3.33l-0.264,-0.378c7.986,5.742 11.426,15.58 10.36,25.388c-0.164,1.494 -0.458,2.988 -0.902,4.426c-0.578,1.894 -1.43,3.698 -2.61,5.292c-2.066,2.81 -5.21,4.912 -8.678,5.268l0.264,0.272c3.54,3.532 4.898,9.36 4.534,14.336c-0.344,4.826 -2.84,9.444 -6.65,12.404l-0.22,0.172l-0.46,0.336c0.128,5.104 -2.316,9.968 -6.004,13.534c-2.062,0.676 -4.226,1.032 -6.396,1.032Zm-4.248,-6.682c-2.608,0 -2.406,1.412 -0.236,3.022c1.544,1.148 3.33,1.864 5.228,1.864c0.384,-0 0.774,-0.028 1.166,-0.09c2.884,-0.45 5.444,-2.584 6.402,-5.342c0.304,-0.876 0.45,-1.876 0.05,-2.714c-0.474,-0.996 -1.584,-1.462 -2.71,-1.462c-0.466,0 -0.936,0.08 -1.364,0.234c-1.462,0.53 -2.594,1.684 -3.782,2.688c-1.128,0.952 -2.472,1.828 -3.932,1.828c-0.08,0 -0.16,-0.002 -0.24,-0.008c-0.208,-0.014 -0.402,-0.02 -0.582,-0.02Zm18.296,-24.436c-0.396,0 -0.804,0.078 -1.188,0.172c-2.772,0.676 -7.438,2.302 -5.332,5.744c0.88,1.44 3.188,3.398 5.028,3.4c0.786,0 1.488,-0.36 1.954,-1.272c0.718,-1.408 1.228,-2.922 1.502,-4.478c0.21,-1.2 0.156,-2.688 -0.896,-3.304c-0.324,-0.192 -0.69,-0.262 -1.068,-0.262Zm-138.176,-32.532c-0.748,-0 -1.644,0.642 -2.51,2.192c-1.822,3.25 -0.922,7.74 1.466,10.46c0.402,0.46 0.922,0.91 1.522,0.91c0.028,0 0.056,-0.002 0.086,-0.004c0.72,-0.048 1.24,-0.768 1.342,-1.484c0.104,-0.714 -0.098,-1.432 -0.246,-2.138c-0.374,-1.81 -0.376,-3.698 -0.01,-5.508c0.508,-2.496 -0.35,-4.428 -1.65,-4.428Zm145.266,-0.462c-2.51,0 -5.698,2.916 -6.698,4.47c-0.804,1.248 -1.192,3.158 0.012,4.024c0.35,0.25 0.742,0.35 1.154,0.35c0.802,-0 1.672,-0.376 2.412,-0.758c1.96,-1.014 7.674,-4.57 5.002,-7.312c-0.532,-0.546 -1.18,-0.774 -1.882,-0.774Zm-164.878,-59.586c2.494,8.186 5.26,16.494 10.816,22.97c5.342,6.22 13.27,10.848 15.464,18.74c1.574,5.67 -0.142,12.212 2.902,17.238c2.898,4.768 8.946,6.348 14.402,7.522c-7.514,-5.304 -12.676,-13.828 -13.906,-22.944c-0.444,-3.3 -1.314,-7.522 -0.71,-10.826c0.26,-1.408 0.984,-2.796 2.218,-3.522c0.648,-0.382 1.394,-0.552 2.146,-0.552c0.554,-0 1.112,0.092 1.638,0.262c2.05,0.666 3.908,2.488 5.412,3.98c3.732,3.712 5.482,9.796 10.538,11.696c1.664,0.624 3.458,0.936 5.246,0.936c0.802,0 1.602,-0.062 2.39,-0.188c2.57,-0.406 4.658,-2.08 7.26,-2.458c0.366,-0.052 0.74,-0.08 1.114,-0.08c1.658,0 3.33,0.538 4.418,1.764c2.304,2.604 1.982,6.988 3.684,10.018c1.906,3.396 6.23,5.574 10.096,5.574c0.234,-0 0.466,-0.008 0.696,-0.024c-4.54,-1.216 -8.594,-4.804 -9.374,-9.436c-0.52,-3.134 0.156,-6.45 -0.886,-9.446c-1.23,-3.532 -4.146,-5.02 -7.272,-7.078c-1.364,4.112 -4.954,7.414 -9.172,8.408c-0.93,0.222 -1.884,0.328 -2.838,0.328c-3.368,0 -6.748,-1.336 -9.13,-3.724c-3.06,-3.066 -4.412,-7.3 -3.412,-11.512c-2.322,-2.05 -5.568,-2.674 -8.664,-2.88c-3.096,-0.208 -6.256,-0.086 -9.23,-0.974c-4.478,-1.33 -7.974,-4.762 -11.276,-8.072c-3.06,-3.074 -6.128,-6.148 -9.194,-9.228c-1.452,-1.454 -2.926,-2.94 -3.926,-4.734c-0.222,-0.402 -0.422,-0.828 -0.586,-1.266c-0.278,-0.178 -0.572,-0.342 -0.864,-0.492Zm14.474,31.246c-0.04,0 -0.082,0 -0.124,0.004c-3.176,0.224 -1.536,3.926 -0.366,5.398c1.56,1.964 2.48,3.71 3.308,5.816c0.33,0.838 0.644,1.734 0.978,2.724c0.22,0.65 0.5,1.37 1.13,1.648c0.17,0.074 0.348,0.108 0.526,0.108c0.586,0 1.188,-0.362 1.62,-0.798c1.95,-1.964 1.916,-5.268 0.676,-7.742c-1.24,-2.472 -3.432,-4.31 -5.566,-6.072c-0.638,-0.528 -1.362,-1.086 -2.182,-1.086Zm19.878,0.26c-1.236,0 -2.278,0.746 -2.592,2.684c-0.35,2.15 -0.18,4.382 0.488,6.456c0.54,1.68 1.446,3.298 2.866,4.348c0.898,0.662 2.024,1.056 3.13,1.056c0.644,0 1.28,-0.132 1.858,-0.424c2.154,-1.082 2.86,-3.972 2.194,-6.286c-0.666,-2.318 -2.364,-4.172 -4.048,-5.894c-1.098,-1.12 -2.602,-1.94 -3.896,-1.94Zm17.27,-8.58c-1.092,0 -2.332,0.488 -3.252,1.342c-2.59,2.398 -3.566,7.3 -1.82,10.364c0.958,1.682 2.804,2.89 4.726,2.89c0.142,0 0.286,-0.006 0.428,-0.02c2.068,-0.2 3.94,-2.036 3.906,-4.114c-0.02,-1.442 -0.854,-2.728 -1.28,-4.104c-0.32,-1.032 -0.412,-2.136 -0.266,-3.208c0.302,-2.21 -0.926,-3.15 -2.442,-3.15Zm96.666,4.822c-2.468,0 -3.272,4.878 -2.266,6.528c1.236,2.026 4.628,2.966 7.152,2.966c0.414,-0 0.804,-0.024 1.158,-0.074c1.078,-0.152 2.34,-0.76 2.348,-1.85c0.002,-0.728 -0.578,-1.312 -1.114,-1.804c-1.632,-1.494 -3.262,-2.988 -4.894,-4.48c-0.676,-0.618 -1.44,-1.274 -2.358,-1.286l-0.026,0Zm-36.45,-9.012c-3.18,-0 -7.992,1.45 -8.858,4.562c-0.468,1.688 0.49,3.78 2.204,4.138c0.2,0.042 0.398,0.062 0.596,0.062c0.942,0 1.874,-0.424 2.742,-0.84c1.108,-0.528 2.216,-1.056 3.324,-1.586c2.994,-1.43 5.486,-5.916 0.744,-6.306c-0.238,-0.02 -0.49,-0.03 -0.752,-0.03Zm-119.214,-18.434c-3.226,0 -7.078,1.35 -8.59,2.8c-1.892,1.818 -2.494,4.75 -1.808,7.282c0.686,2.534 2.522,4.658 4.748,6.05c2.836,1.772 7.534,2.996 11.252,2.996c0.598,-0 1.172,-0.032 1.708,-0.098c1.304,-0.162 2.59,-1.242 2.49,-2.55c-0.084,-1.106 -1.054,-1.898 -1.822,-2.698c-3.598,-3.76 -0.854,-8.11 -3.476,-12.044c-0.844,-1.25 -2.56,-1.738 -4.502,-1.738Zm93.45,-3.67c-7.088,0 -14.51,2.592 -16.114,8.528c-0.712,2.644 0.27,5.786 2.628,7.18c1.008,0.594 2.168,0.838 3.344,0.838c0.816,0 1.64,-0.116 2.426,-0.316c1.922,-0.484 3.698,-1.406 5.524,-2.174c3.378,-1.426 6.966,-2.344 10.612,-2.714c2.188,-0.224 4.83,-0.522 5.77,-2.514c1,-2.126 -0.77,-4.532 -2.684,-5.896c-2.656,-1.892 -7.014,-2.932 -11.506,-2.932Zm22.782,4.284c-0.624,0 -1.22,0.138 -1.742,0.456c-0.8,0.488 -1.194,1.296 -1.28,2.178c-0.148,1.548 0.654,3.33 1.894,4.068c1.004,0.6 2.186,0.832 3.35,0.948c0.272,0.028 0.554,0.046 0.834,0.046c0.674,0 1.342,-0.114 1.874,-0.508c1.088,-0.802 1.156,-2.462 0.62,-3.702c-0.74,-1.716 -3.322,-3.486 -5.55,-3.486Zm-72.58,-9.166c-1.972,0 -3.842,0.332 -5.056,1.298c-3.424,2.724 1.218,6.97 3.424,8.634c2.65,2 5.41,4.052 8.652,4.764c0.62,0.136 1.258,0.22 1.892,0.22c0.63,0 1.258,-0.082 1.856,-0.282c4.62,-1.534 4.812,-8.61 1.378,-11.358c-0.452,-0.36 -0.936,-0.668 -1.446,-0.932c-1.156,-0.602 -2.432,-0.994 -3.7,-1.33c-1.708,-0.456 -4.442,-1.014 -7,-1.014Zm-30.8,3.834c-1.288,0 -2.164,0.938 -1.414,3.2c0.462,1.396 2.288,3.374 3.906,3.374c0.592,-0 1.158,-0.266 1.618,-0.924c0.604,-0.866 0.392,-2.074 -0.102,-3.006c-0.854,-1.614 -2.658,-2.644 -4.008,-2.644Zm12.744,-19.962c-1.736,0 -3.882,1.464 -4.54,2.77c-0.53,1.044 -0.626,2.272 -0.44,3.426c0.366,2.29 1.85,4.374 3.892,5.474c0.782,0.42 1.69,0.692 2.572,0.692c0.604,-0 1.198,-0.128 1.732,-0.424c1.46,-0.806 2.072,-2.662 1.896,-4.32c-0.174,-1.658 -0.982,-3.172 -1.774,-4.638c-0.548,-1.016 -1.142,-2.082 -2.134,-2.674c-0.356,-0.212 -0.768,-0.306 -1.204,-0.306Zm77.016,-2.314c0.146,0.104 0.372,0.308 0.586,0.652c0.736,1.184 1.528,2.424 2.768,3.064c0.436,0.228 0.944,0.344 1.446,0.344c0.918,0 1.81,-0.39 2.194,-1.204c0.656,-1.392 -0.614,-3.072 -2.108,-3.432c-0.338,-0.082 -0.678,-0.118 -1.018,-0.118c-1.17,0 -2.35,0.418 -3.466,0.832c-0.18,-0.052 -0.312,-0.1 -0.402,-0.138c-0.09,-0.064 -0.15,-0.09 -0.162,-0.09c-0.016,0 0.028,0.034 0.162,0.09Zm-53.626,-6.25c7.892,0 15.782,1.458 23.15,4.288c1.212,0.466 2.444,0.976 3.746,1.006l0.1,0c1.27,0 2.618,-0.57 3.16,-1.714c0.502,-1.056 0.194,-2.36 -0.49,-3.306c-0.684,-0.95 -1.688,-1.61 -2.692,-2.21c-7.028,-4.202 -15.086,-6.394 -23.254,-6.568c-0.918,-0.02 -1.844,-0.064 -2.762,-0.064c-1.76,0 -3.496,0.158 -5.112,0.938c-3.104,1.498 -5.422,5.45 -0.984,7.158c1.096,0.42 2.28,0.484 3.464,0.484c0.362,-0 0.726,-0.006 1.086,-0.01c0.196,-0.002 0.392,-0.002 0.588,-0.002Zm-37.798,106.638c-0.306,-0.2 -0.612,-0.4 -0.918,-0.598c-1.694,-1.102 -3.274,-1.358 -5.146,-2.008c-2.238,-0.774 -4.984,-2.518 -7.408,-2.518c-4.876,-1.194 -10.31,-1.744 -13.864,-5.292c-1.8,-1.794 -2.852,-4.124 -3.402,-6.626c-0.028,0.4 -0.042,0.8 -0.042,1.2c0,-0.4 0.014,-0.8 0.042,-1.2c0.298,-4.562 2.352,-9.066 5.692,-12.378l0.504,-0.494c-1.744,-0.742 -3.022,-2.436 -3.338,-4.288c-0.064,-0.366 -0.092,-0.744 -0.078,-1.116c0.092,-2.266 1.694,-4.396 3.846,-5.11l-0.086,-0.152c2.454,1.652 5.342,2.796 8.094,3.94c4.298,1.78 8.83,4.06 10.896,8.228c2.408,4.87 0.716,10.668 0.908,16.102c0.158,4.416 1.732,8.72 4.3,12.31Zm-22.292,-26.95c-0.588,0 -1.262,0.128 -2.028,0.416c-4.698,1.754 -5.252,8.766 -2.732,12.348c0.848,1.206 2.208,2.232 3.634,2.232c0.224,-0 0.45,-0.026 0.676,-0.08c1.834,-0.44 2.736,-2.46 3.378,-4.23c1.132,-3.132 1.562,-10.686 -2.928,-10.686Zm187.248,-24.038c-5.346,-0 -9.248,-3.026 -13.108,-6.994c-3.136,-3.222 -5.888,-6.81 -9.162,-9.89c-1.858,-1.748 -3.934,-2.32 -5.84,-3.796c-2.116,-1.636 -3.676,-4.294 -4.468,-6.808c-0.352,-1.122 -0.58,-2.296 -1.136,-3.332c-0.554,-1.036 -1.54,-1.946 -2.714,-2.002c-0.042,-0.002 -0.082,-0.002 -0.122,-0.002c-1.006,0 -1.918,0.59 -2.824,1.046c-1.408,0.704 -3,1.088 -4.574,1.088c-1.598,-0 -3.176,-0.396 -4.524,-1.252c-2.678,-1.7 -4.102,-5.362 -2.828,-8.266c0.948,-2.164 3.352,-3.5 5.698,-3.5c1.018,0 2.022,0.25 2.894,0.792c1.52,1.394 3.394,2.396 5.236,3.362c0.608,0.322 1.216,0.452 1.824,0.452c1.572,0 3.152,-0.868 4.776,-1.574c1.016,-0.436 2.068,-0.628 3.13,-0.628c3.264,-0 6.624,1.81 9.338,3.858c10.39,7.838 17.58,19.784 19.648,32.632c0.248,1.558 0.42,3.138 0.428,4.718l0,0.074l0,-0.074c-0.572,0.066 -1.13,0.096 -1.672,0.096Zm-26.616,-38.506c-2.316,0 -4.506,0.968 -5.14,3.47c-1.096,4.314 2.826,7.46 6.42,8.57c1.884,0.58 3.834,0.934 5.802,1.05c0.232,0.014 0.468,0.022 0.704,0.022c0.988,0 1.984,-0.154 2.726,-0.778c1.072,-0.902 1.252,-2.546 0.792,-3.87c-0.458,-1.322 -1.428,-2.396 -2.386,-3.418c-1.314,-1.398 -2.674,-2.786 -4.31,-3.788c-1.262,-0.772 -2.966,-1.258 -4.608,-1.258Zm-20.108,-3.124c-0.472,0 -0.92,0.102 -1.294,0.32c-0.616,0.362 -1.034,1.046 -1.026,2.134c0.012,2.05 1.53,3.616 3.138,3.616c0.798,0 1.618,-0.386 2.288,-1.29c1.886,-2.546 -0.88,-4.78 -3.106,-4.78Zm2.114,-10.116c0.406,-0.798 1.008,-1.494 1.766,-1.962c-0.05,0.05 -0.098,0.098 -0.148,0.148c-0.584,0.574 -1.162,1.152 -1.618,1.814Zm-2.878,-1.18c-2.842,0 -5.766,-0.78 -8.144,-1.978c-4.004,-2.016 -7.116,-5.428 -10.804,-7.972c-3.58,-2.474 -7.686,-4.112 -11.218,-6.656c-2.668,-1.924 -5.054,-4.598 -6.02,-7.664c-0.084,0.586 -0.128,1.178 -0.128,1.766c0,-0.588 0.044,-1.18 0.128,-1.766c0.316,-2.224 1.246,-4.376 2.702,-6.072c3.008,-3.49 7.692,-5.128 12.34,-5.128c1,0 1.996,0.076 2.974,0.224c5.536,0.836 10.556,3.718 15.052,7.05c4.196,3.116 8.172,6.828 10.268,11.618c2.092,4.79 1.936,10.854 -1.524,14.778c-0.284,0.326 -0.6,0.638 -0.914,0.95c-1.462,0.59 -3.074,0.85 -4.712,0.85Zm-20.66,-19.396c0.956,0 1.902,0.076 2.832,0.31c1.858,0.47 3.502,1.542 5.296,2.218c0.888,0.334 1.87,0.554 2.82,0.554c0.97,0 1.908,-0.23 2.684,-0.806c1.956,-1.456 2,-4.408 1.242,-6.728c-2.108,-6.446 -7.94,-9.492 -14.014,-9.492c-3.542,0 -7.166,1.036 -10.182,3.036c-2.692,1.784 -4.312,5.62 -2.588,8.348c1.35,2.136 4.138,2.816 6.68,2.816c0.086,-0 0.172,-0 0.258,-0.002c1.654,-0.028 3.326,-0.254 4.972,-0.254Z" style="fill:url(#_Radial30);"/>
    <path d="M190.764,228.408c-2.35,0 -4.698,-0.42 -6.89,-1.28l0.044,0.28c-0.352,-0.322 -0.688,-0.658 -1.016,-1.016c-2.21,-2.41 -4.056,-5.456 -7.13,-6.564c-0.962,-0.348 -1.966,-0.472 -2.984,-0.472c-1.536,0 -3.106,0.282 -4.636,0.5c-2.428,0.348 -4.88,0.518 -7.328,0.518c-12.248,0 -24.494,-4.256 -33.99,-12.008c-3.98,-3.246 -8.288,-7.326 -13.214,-7.326c-0.508,0 -1.022,0.042 -1.544,0.134c-4.746,0.83 -8.636,5.66 -13.18,5.66c-0.466,-0 -0.938,-0.05 -1.42,-0.16c-3.91,-0.902 -5.74,-5.236 -7.678,-8.746c-3.752,-6.782 -10.506,-11.126 -17.616,-14.472c-4.646,-3.218 -9.234,-6.578 -13.962,-9.688c-2.568,-3.59 -4.142,-7.894 -4.3,-12.31c-0.192,-5.434 1.5,-11.232 -0.908,-16.102c-2.066,-4.168 -6.598,-6.448 -10.896,-8.228c-2.752,-1.144 -5.64,-2.288 -8.094,-3.94c-2.416,-4.082 -4.352,-9.108 -4.662,-13.962c0.766,2.072 2.126,3.924 3.956,5.176c2.852,1.958 6.428,2.438 9.766,3.354c13.612,3.71 24.508,15.908 26.668,29.848c-3.046,3.846 -3.282,10.188 -1.122,14.6c2.166,4.404 6.028,7.736 10.088,10.502c4.052,2.768 8.414,5.106 12.198,8.23c1.714,1.416 3.358,3.018 5.446,3.782c1.11,0.406 2.218,0.592 3.302,0.592c5.486,-0 10.38,-4.762 11.926,-9.872c5.536,8.844 11.856,17.474 20.408,23.458c6.172,4.32 13.706,7.098 21.154,7.098c2.87,0 5.726,-0.412 8.488,-1.308c2.116,-0.684 4.204,-1.686 5.704,-3.33c1.496,-1.652 2.304,-4.054 1.602,-6.172c-0.264,-0.798 -0.722,-1.722 -0.236,-2.416c0.246,-0.352 0.618,-0.49 1.032,-0.49c0.578,-0 1.236,0.27 1.736,0.598c5.218,3.44 7.464,9.924 11.762,14.466c3.518,3.716 8.464,6.04 13.562,6.382c0.448,0.03 0.898,0.046 1.348,0.046c2.17,0 4.334,-0.356 6.396,-1.032c-0.844,0.822 -1.752,1.574 -2.71,2.246c-3.216,2.252 -7.146,3.424 -11.07,3.424Z" style="fill:url(#_Radial31);"/>
    <path d="M48.794,149.096c-4.268,-2.43 -8.822,-4.924 -13.734,-4.82c-0.564,0.016 -1.216,0.06 -1.886,0.072l0.504,-0.494c-1.744,-0.742 -3.022,-2.436 -3.338,-4.288c0.874,0.852 1.866,1.508 2.576,1.738c0.47,0.15 0.964,0.272 1.458,0.372c2.636,0.536 5.468,0.442 8.028,1.356c2.846,1.024 5.22,3.276 6.392,6.064Z" style="fill:url(#_Radial32);"/>
    <path d="M71.332,183.572c-4.556,0 -8.996,-1.732 -13,-3.954c-4.29,-2.372 -8.244,-5.34 -12.556,-7.68c-2.98,-1.606 -6.118,-2.916 -9.308,-4.052c-2.188,-0.78 -4.918,-1.214 -7.164,-2.152l0.142,0.022c-1.37,-2.436 -2.006,-5.126 -2.006,-7.83c0,-0.4 0.014,-0.8 0.042,-1.2c0.55,2.502 1.602,4.832 3.402,6.626c3.554,3.548 8.988,4.098 13.864,5.292c2.424,-0 5.17,1.744 7.408,2.518c1.872,0.65 3.452,0.906 5.146,2.008c0.306,0.198 0.612,0.398 0.918,0.598c4.728,3.11 9.316,6.47 13.962,9.688c0.042,0.03 0.084,0.058 0.128,0.088c-0.326,0.018 -0.652,0.028 -0.978,0.028Z" style="fill:url(#_Radial33);"/>
    <path d="M125.626,249.562c-1.142,0 -2.294,-0.134 -3.426,-0.3c-7.164,-1.05 -13.85,-3.16 -20.27,-6.504c-1.816,2.43 -5.162,3.046 -8.184,3.246c-1.192,0.078 -2.392,0.118 -3.596,0.118c-23.866,0 -49.852,-15.334 -56.528,-39.04c-0.42,-1.494 -0.62,-3.068 -0.62,-4.662c0.002,-4.034 1.29,-8.184 3.544,-11.398c-4.246,-1.85 -7.778,-5.282 -9.758,-9.466c-0.908,-1.924 -1.488,-3.996 -1.724,-6.114c1.802,3.66 5.07,6.672 8.708,8.652c5.112,2.788 10.94,3.898 16.616,5.168c5.686,1.266 11.482,2.796 16.18,6.236c-2.694,-0.596 -5.452,-0.894 -8.208,-0.894c-3.862,0 -7.72,0.582 -11.404,1.738c2.532,10.404 7.922,20.454 16.98,26.168c6.664,4.204 14.552,6.418 22.43,6.418c2.824,0 5.648,-0.284 8.414,-0.864c0.004,-0.002 0.008,-0.002 0.014,-0.002c0.442,0 3.358,3.932 3.796,4.4c1.412,1.486 2.906,2.91 4.572,4.112c3.258,2.342 8.282,3.926 13.062,3.926c5.054,0 9.834,-1.77 11.968,-6.294c0,0.366 11.596,4.576 13.02,5.02c5.456,1.694 11.23,2.516 16.944,2.524l0.098,0c3.818,0 7.816,-0.448 10.978,-2.58c3.182,-2.16 5.176,-6.488 3.604,-9.996c2.608,0.928 5.374,1.416 8.142,1.436c-0.856,0.76 -2,1.182 -3.144,1.182c-0.288,-0 -0.576,-0.026 -0.86,-0.082c0.642,1.054 0.924,2.234 0.924,3.456c0.002,3.666 -2.524,7.72 -5.464,9.972c-3.912,3.004 -9.058,3.804 -13.986,4.154c-1.606,0.114 -3.24,0.182 -4.878,0.182c-7.17,-0 -14.408,-1.306 -19.888,-5.766c-0.606,2.002 -3.246,4.99 -5.262,5.52c-0.914,0.242 -1.852,0.334 -2.794,0.334Z" style="fill:url(#_Radial34);"/>
    <path d="M84.71,213.548c2.796,4.636 7.468,7.916 12.502,9.906c5.036,1.99 10.452,2.8 15.83,3.396c-3.192,-0.164 -6.414,-0.326 -9.566,0.196c-2.032,0.354 -3.546,1.422 -5.332,2.314c-1.902,0.952 -4.07,1.482 -6.118,2.132c0.84,-1.038 1.192,-2.454 0.934,-3.764c-0.464,-2.362 -3.428,-4.654 -4.852,-6.584c-0.888,-1.206 -1.754,-2.44 -2.368,-3.808c-0.49,-1.092 -0.466,-2.852 -1.03,-3.788Z" style="fill:url(#_Radial35);"/>
    <path d="M97.992,166.542c-5.456,-1.174 -11.504,-2.754 -14.402,-7.522c-3.044,-5.026 -1.328,-11.568 -2.902,-17.238c-2.194,-7.892 -10.122,-12.52 -15.464,-18.74c-5.556,-6.476 -8.322,-14.784 -10.816,-22.97c0.292,0.15 0.586,0.314 0.864,0.492c0.164,0.438 0.364,0.864 0.586,1.266c1,1.794 2.474,3.28 3.926,4.734c3.066,3.08 6.134,6.154 9.194,9.228c3.302,3.31 6.798,6.742 11.276,8.072c2.974,0.888 6.134,0.766 9.23,0.974c3.096,0.206 6.342,0.83 8.664,2.88c-1,4.212 0.352,8.446 3.412,11.512c2.382,2.388 5.762,3.724 9.13,3.724c0.954,0 1.908,-0.106 2.838,-0.328c4.218,-0.994 7.808,-4.296 9.172,-8.408c3.126,2.058 6.042,3.546 7.272,7.078c1.042,2.996 0.366,6.312 0.886,9.446c0.78,4.632 4.834,8.22 9.374,9.436c-0.23,0.016 -0.462,0.024 -0.696,0.024c-3.866,-0 -8.19,-2.178 -10.096,-5.574c-1.702,-3.03 -1.38,-7.414 -3.684,-10.018c-1.088,-1.226 -2.76,-1.764 -4.418,-1.764c-0.374,0 -0.748,0.028 -1.114,0.08c-2.602,0.378 -4.69,2.052 -7.26,2.458c-0.788,0.126 -1.588,0.188 -2.39,0.188c-1.788,0 -3.582,-0.312 -5.246,-0.936c-5.056,-1.9 -6.806,-7.984 -10.538,-11.696c-1.504,-1.492 -3.362,-3.314 -5.412,-3.98c-0.526,-0.17 -1.084,-0.262 -1.638,-0.262c-0.752,-0 -1.498,0.17 -2.146,0.552c-1.234,0.726 -1.958,2.114 -2.218,3.522c-0.604,3.304 0.266,7.526 0.71,10.826c1.23,9.116 6.392,17.64 13.906,22.944Z" style="fill:url(#_Radial36);"/>
    <path d="M174.672,208.488c-0.82,-1.066 -1.49,-1.852 -2.97,-1.942c-0.22,-0.014 -2.01,0.28 -2.086,0.076c-0.934,-2.502 -1.872,-5.016 -3.214,-7.322c-3.144,-5.4 -9.168,-8.99 -15.384,-8.846c-2.856,0.066 -5.742,0.472 -8.554,-0.04c-5.834,-1.064 -10.04,-5.662 -14.456,-9.224c-2.188,-1.762 -4.144,-3.2 -6.9,-3.712c-3.21,-0.596 -6.454,-1.906 -9.182,-3.742c-2.612,-1.762 -5.31,-4.796 -5.324,-8.122c3.106,2.496 6.256,5.34 10.156,6.51c5.476,1.64 11.212,1.658 16.87,1.73c6.876,0.086 14.326,0.738 19.448,5.326c-2.912,-0.838 -6.25,0.028 -8.386,2.18c1.102,2.548 3.62,4.198 6.176,5.278c3.414,1.446 7,2.448 10.352,4.04c1.47,0.7 2.872,1.562 4.42,2.118c1.674,0.602 3.432,0.952 5.2,1.13c1.498,0.156 3.014,0.19 4.492,0.488c1.478,0.294 2.946,0.878 4,1.958c1.416,1.456 1.882,3.604 1.868,5.636c-0.014,2.028 -0.438,4.034 -0.524,6.064c-0.164,3.876 0.956,7.796 3.144,11.002c-2.642,-1.996 -5.108,-4.284 -6.904,-7.062c-0.758,-1.17 -1.394,-2.42 -2.242,-3.524Z" style="fill:url(#_Radial37);"/>
    <path d="M224.368,171.124c-5.276,1.18 -9.812,2.316 -15.222,1.05c-3.648,-0.856 -7.356,-2.032 -11.064,-1.498c-3.728,0.538 -7.032,2.754 -10.736,3.434c-4.604,0.846 -9.326,-0.774 -13.444,-3.002c-4.12,-2.226 -7.9,-5.076 -12.166,-7.006c-4.036,-1.824 -8.458,-2.788 -12.886,-2.808c4.114,4.05 9.52,6.484 14.882,8.628c5.358,2.142 10.876,4.112 15.566,7.48c2.638,1.892 5.39,4.322 6.718,7.366c1.406,3.22 1.428,7.052 2.858,10.368c1.408,3.266 3.73,6.038 6.884,7.734c3.004,1.62 6.584,1.964 9.416,3.876c0.95,0.64 4.116,3.4 5.374,2.458l0.68,-0.508c-2.814,-1.918 -4.944,-4.226 -7.118,-6.77c-1.986,-2.326 -4.676,-3.878 -6.61,-6.272c-2.184,-2.706 -3.578,-6.484 -2.572,-9.94c2.42,-8.298 12.552,-4.126 18.416,-3.758c2.838,0.18 5.434,-1.344 7.554,-3.238c2.118,-1.894 3.434,-4.75 3.47,-7.594Z" style="fill:url(#_Radial38);"/>
    <path d="M219.872,133.624c-0.4,-0.198 -0.772,-0.392 -1.102,-0.578c-2.958,-1.674 -5.976,-3.404 -8.192,-5.984c-1.81,-2.11 -2.982,-4.684 -4.462,-7.036c-5.584,-8.886 -15.954,-14.522 -26.43,-14.522c-0.684,-0 -1.366,0.022 -2.048,0.072c-0.942,-4.186 -2.712,-8.172 -5.12,-11.72c-1.132,-1.67 -2.612,-3.12 -3.558,-4.884c-0.456,-0.854 -0.958,-1.476 -1.758,-2.062c-0.394,-0.29 -1.706,-1.256 -2.35,-1.256c-0.056,0 -0.106,0.008 -0.15,0.022c0.834,-0.286 1.402,-1.106 1.59,-1.968c0.186,-0.862 0.046,-1.76 -0.174,-2.614c-0.824,-3.184 -2.804,-6.058 -5.486,-7.964c-2.376,-1.686 -5.286,-2.604 -8.2,-2.604c-0.374,0 -0.75,0.014 -1.124,0.046c-1.194,0.1 -2.428,0.374 -3.34,1.152c-0.912,0.776 -1.386,2.162 -0.818,3.216c0.258,0.48 0.706,1.05 0.374,1.48c-0.162,0.212 -0.446,0.262 -0.724,0.262c-0.068,0 -0.136,-0.002 -0.202,-0.006c-2.802,-0.188 -5.544,-1.154 -7.858,-2.742c-1.082,-0.74 -2.024,-1.624 -2.886,-2.608c-0.576,-0.656 -2.284,-2.462 -2.206,-3.402c0.084,-1.034 0.414,-2.08 0.936,-3c1.436,0.714 2.924,1.272 4.502,1.3l0.092,-0c2.056,-0 4.244,-1.23 4.794,-3.144c0.242,0.184 0.47,0.384 0.686,0.606c0.43,0.448 0.94,0.652 1.444,0.652c0.918,0 1.812,-0.674 2.146,-1.752c0.096,-0.316 0.142,-0.636 0.142,-0.954c0.002,-1.382 -0.836,-2.754 -1.88,-3.722c-1.28,-1.194 -2.882,-2.01 -4.162,-3.204c-2.028,-1.892 -2.976,-4.594 -2.974,-7.356c0,-0.588 0.044,-1.18 0.128,-1.766c0.966,3.066 3.352,5.74 6.02,7.664c3.532,2.544 7.638,4.182 11.218,6.656c3.688,2.544 6.8,5.956 10.804,7.972c2.378,1.198 5.302,1.978 8.144,1.978c1.638,0 3.25,-0.26 4.712,-0.85c0.062,-0.024 0.126,-0.05 0.186,-0.076c-0.086,0.044 -0.172,0.094 -0.254,0.144c-0.758,0.468 -1.36,1.164 -1.766,1.962c-0.238,0.466 -0.41,0.968 -0.508,1.48c-0.284,1.49 0.014,3.048 0.65,4.422c0.636,1.374 1.6,2.574 2.664,3.652c-0.278,-0.282 -0.582,-0.524 -0.904,-0.724c-0.872,-0.542 -1.876,-0.792 -2.894,-0.792c-2.346,0 -4.75,1.336 -5.698,3.5c-1.274,2.904 0.15,6.566 2.828,8.266c1.348,0.856 2.926,1.252 4.524,1.252c1.574,-0 3.166,-0.384 4.574,-1.088c0.906,-0.456 1.818,-1.046 2.824,-1.046c0.04,0 0.08,0 0.122,0.002c1.174,0.056 2.16,0.966 2.714,2.002c0.556,1.036 0.784,2.21 1.136,3.332c0.792,2.514 2.352,5.172 4.468,6.808c1.906,1.476 3.982,2.048 5.84,3.796c3.274,3.08 6.026,6.668 9.162,9.89c3.86,3.968 7.762,6.994 13.108,6.994c0.542,-0 1.1,-0.03 1.672,-0.096l0,0.074c0.002,1.528 -0.156,3.04 -0.558,4.51c-0.694,2.546 -2.222,4.948 -4.418,6.356Z" style="fill:url(#_Radial39);"/>
    <path d="M205.838,145.018c-4.678,0 -9.52,-1.87 -12.32,-5.246c-1.764,-2.136 -2.866,-4.74 -4.482,-7c-1.592,-2.234 -3.96,-4.216 -6.696,-4.216l-0.088,-0c-3.604,0.048 -6.2,3.38 -8.002,6.492c-1.81,3.118 -3.746,6.656 -7.2,7.678c-0.678,0.2 -1.35,0.288 -2.016,0.288c-2.476,0 -4.888,-1.216 -7.336,-2.434c-2.448,-1.218 -4.928,-2.436 -7.54,-2.436c-0.098,-0 -0.198,0.002 -0.296,0.006c-2.338,0.084 -4.632,1.196 -6.926,1.196c-0.428,0 -0.854,-0.04 -1.28,-0.13c-2.932,-0.624 -4.77,-3.426 -6.908,-5.536c-3.54,-3.48 -8.344,-5.282 -12.754,-7.578c-4.404,-2.294 -8.796,-5.548 -10.132,-10.338c-1.566,-5.598 1.466,-11.846 -0.594,-17.288c-1.466,-3.876 -5.256,-6.428 -9.174,-7.786c-3.918,-1.352 -8.092,-1.752 -12.102,-2.794c-4.012,-1.038 -8.06,-2.888 -10.39,-6.314c-1.488,-2.18 -2.13,-5.012 -1.544,-7.428c0.486,0.128 0.964,0.264 1.438,0.422c0.02,-1.18 0.278,-2.282 0.764,-3.204c-0.272,6.42 3.918,12.826 9.96,15.064c3.76,1.396 7.914,1.266 11.768,2.352c1.74,0.492 3.4,1.244 4.928,2.21c-0.192,0.07 -0.33,0.204 -0.386,0.432c-0.24,0.994 1.652,2.09 2.188,2.562c4.768,4.182 5.934,10.096 7.64,15.924c1.456,4.966 3.958,10.238 8.77,12.146c-1.524,-0.966 -2.714,-2.328 -3.57,-3.9c4.418,4.966 11.078,8.104 17.794,8.75c4.698,0.448 9.574,-0.108 14.036,1.442c4.68,1.642 8.894,5.572 13.676,5.572c0.448,0 0.9,-0.034 1.358,-0.108c6.008,-0.964 9.822,-8.45 15.82,-8.45c0.106,-0 0.21,0.002 0.318,0.006c4.676,0.208 7.68,4.87 10.066,8.9c2.232,3.762 5.538,7.886 9.748,7.886c0.294,0 0.594,-0.022 0.898,-0.064c1.78,-0.244 3.36,-1.236 5.09,-1.722c0.518,-0.144 1.078,-0.226 1.634,-0.226c1.01,0 2,0.268 2.678,0.906l0.236,0.256l0.264,0.378c-2.392,2.272 -5.818,3.33 -9.336,3.33Z" style="fill:url(#_Radial40);"/>
    <path d="M125.128,122.062c-4.812,-1.908 -7.314,-7.18 -8.77,-12.146c-1.706,-5.828 -2.872,-11.742 -7.64,-15.924c-0.536,-0.472 -2.428,-1.568 -2.188,-2.562c0.056,-0.228 0.194,-0.362 0.386,-0.432c0.118,-0.042 0.256,-0.058 0.406,-0.058c0.674,0 1.604,0.348 2.144,0.4c0.428,0.04 1.446,0.106 2.65,0.108c2.528,-0 5.884,-0.296 6.362,-1.748c0.078,-0.238 0.078,-0.508 -0.016,-0.81c-0.3,-0.986 -1.286,-1.564 -2.144,-2.132c-4.548,-3.002 -7.482,-8.314 -7.606,-13.762c1.606,4.678 5.84,8.04 10.392,9.976c4.554,1.936 9.502,2.688 14.32,3.812c7.906,1.848 15.732,4.84 21.898,10.124c-4.162,-1.522 -8.568,-1.972 -13.018,-1.972c-3.152,0 -6.326,0.226 -9.456,0.458c-2.102,0.156 -4.262,0.326 -6.162,1.242c-4.268,2.056 -6.474,9.452 -6.758,13.764c-0.172,2.658 0.368,5.44 1.63,7.762c0.856,1.572 2.046,2.934 3.57,3.9Z" style="fill:url(#_Radial41);"/>
    <path d="M94.96,73.444c-2.16,-0.778 -4.318,-1.55 -6.484,-2.322c-1.36,-0.486 -2.754,-0.994 -3.89,-1.894c-0.328,-0.266 -0.63,-0.566 -0.902,-0.902l0,-0.006c-0.664,-1.524 -0.598,-3.218 -0.034,-4.792c0.828,1.868 1.736,3.568 3.496,5.106c2.3,2.03 5.076,3.432 7.814,4.81Z" style="fill:url(#_Radial42);"/>
    <path d="M91.65,56.838c-2.016,0.364 -3.854,1.644 -5.778,2.294c-3.346,-1.05 -6.642,-3.546 -4.346,-7.214c0.17,-0.272 0.364,-0.514 0.586,-0.73c0.644,0.328 1.052,1.146 1.65,1.81c2.04,2.28 4.756,3.824 7.888,3.84Z" style="fill:url(#_Radial43);"/>
    <path d="M87.668,110.094c-5.076,-4.89 -10.968,-8.936 -17.36,-11.912c-2.968,-1.372 -6.186,-2.66 -8.894,-4.452c0.032,-0 0.064,-0.002 0.098,-0.002c0.388,-0 0.776,0.042 1.16,0.116c-2.272,-2.114 -3.664,-4.994 -3.662,-7.97c0.002,-0.91 0.132,-1.83 0.41,-2.74c0.658,-2.168 1.942,-4.098 3.602,-5.634c-0.036,1.014 -0.028,1.886 -0.028,2.308c0.008,3.012 0.236,5.692 1.722,8.408c2.588,4.718 7.508,7.58 12.062,10.44c4.562,2.85 9.266,6.312 10.89,11.438Z" style="fill:url(#_Radial44);"/>
    <path d="M165.976,53.54c-0.95,0 -1.932,-0.22 -2.82,-0.554c-1.794,-0.676 -3.438,-1.748 -5.296,-2.218c-0.93,-0.234 -1.876,-0.31 -2.832,-0.31c-1.646,0 -3.318,0.226 -4.972,0.254c-0.086,0.002 -0.172,0.002 -0.258,0.002c-2.542,-0 -5.33,-0.68 -6.68,-2.816c-1.724,-2.728 -0.104,-6.564 2.588,-8.348c3.016,-2 6.64,-3.036 10.182,-3.036c6.074,0 11.906,3.046 14.014,9.492c0.758,2.32 0.714,5.272 -1.242,6.728c-0.776,0.576 -1.714,0.806 -2.684,0.806Z" style="fill:url(#_Radial45);"/>
    <path d="M177.27,87.22c-1.608,0 -3.126,-1.566 -3.138,-3.616c-0.008,-1.088 0.41,-1.772 1.026,-2.134c0.374,-0.218 0.822,-0.32 1.294,-0.32c2.226,0 4.992,2.234 3.106,4.78c-0.67,0.904 -1.49,1.29 -2.288,1.29Z" style="fill:url(#_Radial46);"/>
    <path d="M204.346,97.386c-0.236,0 -0.472,-0.008 -0.704,-0.022c-1.968,-0.116 -3.918,-0.47 -5.802,-1.05c-3.594,-1.11 -7.516,-4.256 -6.42,-8.57c0.634,-2.502 2.824,-3.47 5.14,-3.47c1.642,0 3.346,0.486 4.608,1.258c1.636,1.002 2.996,2.39 4.31,3.788c0.958,1.022 1.928,2.096 2.386,3.418c0.46,1.324 0.28,2.968 -0.792,3.87c-0.742,0.624 -1.738,0.778 -2.726,0.778Z" style="fill:url(#_Radial47);"/>
    <path d="M123.014,72.424l-0.1,0c-1.302,-0.03 -2.534,-0.54 -3.746,-1.006c-7.368,-2.83 -15.258,-4.288 -23.15,-4.288c-0.196,0 -0.392,0 -0.588,0.002c-0.36,0.004 -0.724,0.01 -1.086,0.01c-1.184,-0 -2.368,-0.064 -3.464,-0.484c-4.438,-1.708 -2.12,-5.66 0.984,-7.158c1.616,-0.78 3.352,-0.938 5.112,-0.938c0.918,0 1.844,0.044 2.762,0.064c8.168,0.174 16.226,2.366 23.254,6.568c1.004,0.6 2.008,1.26 2.692,2.21c0.684,0.946 0.992,2.25 0.49,3.306c-0.542,1.144 -1.89,1.714 -3.16,1.714Z" style="fill:url(#_Radial48);"/>
    <path d="M130.34,113.25c-1.176,0 -2.336,-0.244 -3.344,-0.838c-2.358,-1.394 -3.34,-4.536 -2.628,-7.18c1.604,-5.936 9.026,-8.528 16.114,-8.528c4.492,0 8.85,1.04 11.506,2.932c1.914,1.364 3.684,3.77 2.684,5.896c-0.94,1.992 -3.582,2.29 -5.77,2.514c-3.646,0.37 -7.234,1.288 -10.612,2.714c-1.826,0.768 -3.602,1.69 -5.524,2.174c-0.786,0.2 -1.61,0.316 -2.426,0.316Z" style="fill:url(#_Radial49);"/>
    <path d="M166.32,108.684c-0.28,0 -0.562,-0.018 -0.834,-0.046c-1.164,-0.116 -2.346,-0.348 -3.35,-0.948c-1.24,-0.738 -2.042,-2.52 -1.894,-4.068c0.086,-0.882 0.48,-1.69 1.28,-2.178c0.522,-0.318 1.118,-0.456 1.742,-0.456c2.228,0 4.81,1.77 5.55,3.486c0.536,1.24 0.468,2.9 -0.62,3.702c-0.532,0.394 -1.2,0.508 -1.874,0.508Z" style="fill:url(#_Radial50);"/>
    <path d="M154.444,77.44c-0.502,0 -1.01,-0.116 -1.446,-0.344c-1.24,-0.64 -2.032,-1.88 -2.768,-3.064c-0.214,-0.344 -0.44,-0.548 -0.586,-0.652c0.09,0.038 0.222,0.086 0.402,0.138c1.116,-0.414 2.296,-0.832 3.466,-0.832c0.34,0 0.68,0.036 1.018,0.118c1.494,0.36 2.764,2.04 2.108,3.432c-0.384,0.814 -1.276,1.204 -2.194,1.204Zm-4.8,-4.06c-0.134,-0.056 -0.178,-0.09 -0.162,-0.09c0.012,0 0.072,0.026 0.162,0.09Z" style="fill:url(#_Radial51);"/>
    <path d="M74.112,88.056c-0.882,-0 -1.79,-0.272 -2.572,-0.692c-2.042,-1.1 -3.526,-3.184 -3.892,-5.474c-0.186,-1.154 -0.09,-2.382 0.44,-3.426c0.658,-1.306 2.804,-2.77 4.54,-2.77c0.436,0 0.848,0.094 1.204,0.306c0.992,0.592 1.586,1.658 2.134,2.674c0.792,1.466 1.6,2.98 1.774,4.638c0.176,1.658 -0.436,3.514 -1.896,4.32c-0.534,0.296 -1.128,0.424 -1.732,0.424Z" style="fill:url(#_Radial52);"/>
    <path d="M99.596,106.738c-0.634,0 -1.272,-0.084 -1.892,-0.22c-3.242,-0.712 -6.002,-2.764 -8.652,-4.764c-2.206,-1.664 -6.848,-5.91 -3.424,-8.634c1.214,-0.966 3.084,-1.298 5.056,-1.298c2.558,0 5.292,0.558 7,1.014c1.268,0.336 2.544,0.728 3.7,1.33c0.51,0.264 0.994,0.572 1.446,0.932c3.434,2.748 3.242,9.824 -1.378,11.358c-0.598,0.2 -1.226,0.282 -1.856,0.282Z" style="fill:url(#_Radial53);"/>
    <path d="M207.582,137.314c-2.524,-0 -5.916,-0.94 -7.152,-2.966c-1.006,-1.65 -0.202,-6.528 2.266,-6.528l0.026,0c0.918,0.012 1.682,0.668 2.358,1.286c1.632,1.492 3.262,2.986 4.894,4.48c0.536,0.492 1.116,1.076 1.114,1.804c-0.008,1.09 -1.27,1.698 -2.348,1.85c-0.354,0.05 -0.744,0.074 -1.158,0.074Z" style="fill:url(#_Radial54);"/>
    <path d="M52.634,119.502c-3.718,-0 -8.416,-1.224 -11.252,-2.996c-2.226,-1.392 -4.062,-3.516 -4.748,-6.05c-0.686,-2.532 -0.084,-5.464 1.808,-7.282c1.512,-1.45 5.364,-2.8 8.59,-2.8c1.942,0 3.658,0.488 4.502,1.738c2.622,3.934 -0.122,8.284 3.476,12.044c0.768,0.8 1.738,1.592 1.822,2.698c0.1,1.308 -1.186,2.388 -2.49,2.55c-0.536,0.066 -1.11,0.098 -1.708,0.098Z" style="fill:url(#_Radial55);"/>
    <path d="M74.334,147.016c-0.178,0 -0.356,-0.034 -0.526,-0.108c-0.63,-0.278 -0.91,-0.998 -1.13,-1.648c-0.334,-0.99 -0.648,-1.886 -0.978,-2.724c-0.828,-2.106 -1.748,-3.852 -3.308,-5.816c-1.17,-1.472 -2.81,-5.174 0.366,-5.398c0.042,-0.004 0.084,-0.004 0.124,-0.004c0.82,0 1.544,0.558 2.182,1.086c2.134,1.762 4.326,3.6 5.566,6.072c1.24,2.474 1.274,5.778 -0.676,7.742c-0.432,0.436 -1.034,0.798 -1.62,0.798Z" style="fill:url(#_Radial56);"/>
    <path d="M92.652,146.122c-1.106,0 -2.232,-0.394 -3.13,-1.056c-1.42,-1.05 -2.326,-2.668 -2.866,-4.348c-0.668,-2.074 -0.838,-4.306 -0.488,-6.456c0.314,-1.938 1.356,-2.684 2.592,-2.684c1.294,0 2.798,0.82 3.896,1.94c1.684,1.722 3.382,3.576 4.048,5.894c0.666,2.314 -0.04,5.204 -2.194,6.286c-0.578,0.292 -1.214,0.424 -1.858,0.424Z" style="fill:url(#_Radial57);"/>
    <path d="M105.684,137.594c-1.922,0 -3.768,-1.208 -4.726,-2.89c-1.746,-3.064 -0.77,-7.966 1.82,-10.364c0.92,-0.854 2.16,-1.342 3.252,-1.342c1.516,0 2.744,0.94 2.442,3.15c-0.146,1.072 -0.054,2.176 0.266,3.208c0.426,1.376 1.26,2.662 1.28,4.104c0.034,2.078 -1.838,3.914 -3.906,4.114c-0.142,0.014 -0.286,0.02 -0.428,0.02Z" style="fill:url(#_Radial58);"/>
    <path d="M62.376,102.23c-1.618,-0 -3.444,-1.978 -3.906,-3.374c-0.75,-2.262 0.126,-3.2 1.414,-3.2c1.35,0 3.154,1.03 4.008,2.644c0.494,0.932 0.706,2.14 0.102,3.006c-0.46,0.658 -1.026,0.924 -1.618,0.924Z" style="fill:url(#_Radial59);"/>
    <path d="M34.802,161.814c-1.426,-0 -2.786,-1.026 -3.634,-2.232c-2.52,-3.582 -1.966,-10.594 2.732,-12.348c0.766,-0.288 1.44,-0.416 2.028,-0.416c4.49,0 4.06,7.554 2.928,10.686c-0.642,1.77 -1.544,3.79 -3.378,4.23c-0.226,0.054 -0.452,0.08 -0.676,0.08Z" style="fill:url(#_Radial60);"/>
    <path d="M74.498,173.682c-0.6,0 -1.12,-0.45 -1.522,-0.91c-2.388,-2.72 -3.288,-7.21 -1.466,-10.46c0.866,-1.55 1.762,-2.192 2.51,-2.192c1.3,-0 2.158,1.932 1.65,4.428c-0.366,1.81 -0.364,3.698 0.01,5.508c0.148,0.706 0.35,1.424 0.246,2.138c-0.102,0.716 -0.622,1.436 -1.342,1.484c-0.03,0.002 -0.058,0.004 -0.086,0.004Z" style="fill:url(#_Radial61);"/>
    <path d="M160.188,127.57c-0.198,0 -0.396,-0.02 -0.596,-0.062c-1.714,-0.358 -2.672,-2.45 -2.204,-4.138c0.866,-3.112 5.678,-4.562 8.858,-4.562c0.262,-0 0.514,0.01 0.752,0.03c4.742,0.39 2.25,4.876 -0.744,6.306c-1.108,0.53 -2.216,1.058 -3.324,1.586c-0.868,0.416 -1.8,0.84 -2.742,0.84Z" style="fill:url(#_Radial62);"/>
    <path d="M33.828,176.074c-1.132,0 -2.274,-0.382 -3.252,-0.974c-5.036,-3.038 -1.798,-6.402 2.104,-6.402c1.074,-0 2.2,0.254 3.216,0.842c1.032,0.598 1.848,1.662 1.922,2.856c0.1,1.584 -1.164,3.046 -2.686,3.494c-0.426,0.126 -0.864,0.184 -1.304,0.184Z" style="fill:url(#_Radial63);"/>
    <path d="M60.838,209.892c-1.018,0 -1.982,-0.602 -2.8,-1.244c-2.502,-1.96 -4.526,-4.526 -5.85,-7.414c-1.986,-4.328 4.008,-3.314 6.51,-3.628c0.904,-0.112 1.852,-0.222 2.75,-0.222c2.278,0 4.244,0.702 4.376,3.836c0.074,1.804 -0.67,3.532 -1.4,5.184c-0.67,1.52 -1.604,3.248 -3.25,3.466c-0.114,0.016 -0.224,0.022 -0.336,0.022Z" style="fill:url(#_Radial64);"/>
    <path d="M112.178,216.194c-0.04,0 -0.078,0 -0.118,-0.002c-8.048,-0.142 -5.136,-11.23 1.596,-11.23l0.08,0c1.816,0.024 3.816,0.246 5.054,1.574c0.908,0.974 1.22,2.414 0.986,3.726c-0.084,0.47 -0.232,0.922 -0.432,1.354c-0.354,0.776 -0.872,1.482 -1.472,2.092c-1.494,1.512 -3.568,2.486 -5.694,2.486Z" style="fill:url(#_Radial65);"/>
    <path d="M213.754,168.502c-0.412,-0 -0.804,-0.1 -1.154,-0.35c-1.204,-0.866 -0.816,-2.776 -0.012,-4.024c1,-1.554 4.188,-4.47 6.698,-4.47c0.702,0 1.35,0.228 1.882,0.774c2.672,2.742 -3.042,6.298 -5.002,7.312c-0.74,0.382 -1.61,0.758 -2.412,0.758Z" style="fill:url(#_Radial66);"/>
    <path d="M210.704,201.968c-1.84,-0.002 -4.148,-1.96 -5.028,-3.4c-2.106,-3.442 2.56,-5.068 5.332,-5.744c0.384,-0.094 0.792,-0.172 1.188,-0.172c0.378,0 0.744,0.07 1.068,0.262c1.052,0.616 1.106,2.104 0.896,3.304c-0.274,1.556 -0.784,3.07 -1.502,4.478c-0.466,0.912 -1.168,1.272 -1.954,1.272Z" style="fill:url(#_Radial67);"/>
    <path d="M198.892,221.974c-1.898,-0 -3.684,-0.716 -5.228,-1.864c-2.17,-1.61 -2.372,-3.022 0.236,-3.022c0.18,0 0.374,0.006 0.582,0.02c0.08,0.006 0.16,0.008 0.24,0.008c1.46,0 2.804,-0.876 3.932,-1.828c1.188,-1.004 2.32,-2.158 3.782,-2.688c0.428,-0.154 0.898,-0.234 1.364,-0.234c1.126,0 2.236,0.466 2.71,1.462c0.4,0.838 0.254,1.838 -0.05,2.714c-0.958,2.758 -3.518,4.892 -6.402,5.342c-0.392,0.062 -0.782,0.09 -1.166,0.09Z" style="fill:url(#_Radial68);"/>
    <path d="M156.72,239.736c-2.268,0 -4.33,-0.466 -5.64,-1.472c-2.576,-1.97 -1.152,-4.638 1.772,-5.292c4.264,-0.954 7.826,0.294 11.968,-2.15c0.72,-0.426 1.496,-0.926 2.306,-0.926c0.126,0 0.252,0.012 0.378,0.038c1.15,0.238 1.766,1.578 1.67,2.744c-0.356,4.37 -7.006,7.058 -12.454,7.058Z" style="fill:url(#_Radial69);"/>
    <defs>
        <radialGradient id="_Radial1" cx="0" cy="0" r="1" gradientUnits="userSpaceOnUse" gradientTransform="matrix(39.4374,0,0,39.4374,126.752,5.112)"><stop offset="0" style="stop-color:#ffd15b;stop-opacity:1"/><stop offset="0.7" style="stop-color:#be167a;stop-opacity:1"/><stop offset="0.8" style="stop-color:#c3217b;stop-opacity:1"/><stop offset="0.9" style="stop-color:#da597b;stop-opacity:1"/><stop offset="1" style="stop-color:#fbaa7b;stop-opacity:1"/></radialGradient>
        <radialGradient id="_Radial2" cx="0" cy="0" r="1" gradientUnits="userSpaceOnUse" gradientTransform="matrix(41.9106,0,0,41.9106,102.23,10.71)"><stop offset="0" style="stop-color:#ffd15b;stop-opacity:1"/><stop offset="0.7" style="stop-color:#be167a;stop-opacity:1"/><stop offset="0.8" style="stop-color:#c3217b;stop-opacity:1"/><stop offset="0.9" style="stop-color:#da597b;stop-opacity:1"/><stop offset="1" style="stop-color:#fbaa7b;stop-opacity:1"/></radialGradient>
        <radialGradient id="_Radial3" cx="0" cy="0" r="1" gradientUnits="userSpaceOnUse" gradientTransform="matrix(21.0124,0,0,21.0124,47.954,58.658)"><stop offset="0" style="stop-color:#ffd15b;stop-opacity:1"/><stop offset="0.7" style="stop-color:#be167a;stop-opacity:1"/><stop offset="0.8" style="stop-color:#c3217b;stop-opacity:1"/><stop offset="0.9" style="stop-color:#da597b;stop-opacity:1"/><stop offset="1" style="stop-color:#fbaa7b;stop-opacity:1"/></radialGradient>
        <radialGradient id="_Radial4" cx="0" cy="0" r="1" gradientUnits="userSpaceOnUse" gradientTransform="matrix(13.4913,0,0,13.4913,40.53,85.432)"><stop offset="0" style="stop-color:#ffd15b;stop-opacity:1"/><stop offset="0.7" style="stop-color:#be167a;stop-opacity:1"/><stop offset="0.8" style="stop-color:#c3217b;stop-opacity:1"/><stop offset="0.9" style="stop-color:#da597b;stop-opacity:1"/><stop offset="1" style="stop-color:#fbaa7b;stop-opacity:1"/></radialGradient>
        <radialGradient id="_Radial5" cx="0" cy="0" r="1" gradientUnits="userSpaceOnUse" gradientTransform="matrix(30.1808,0,0,30.1808,6.82003,136.302)"><stop offset="0" style="stop-color:#ffd15b;stop-opacity:1"/><stop offset="0.7" style="stop-color:#be167a;stop-opacity:1"/><stop offset="0.8" style="stop-color:#c3217b;stop-opacity:1"/><stop offset="0.9" style="stop-color:#da597b;stop-opacity:1"/><stop offset="1" style="stop-color:#fbaa7b;stop-opacity:1"/></radialGradient>
        <radialGradient id="_Radial6" cx="0" cy="0" r="1" gradientUnits="userSpaceOnUse" gradientTransform="matrix(12.1362,0,0,12.1362,119.45,266.06)"><stop offset="0" style="stop-color:#ffd15b;stop-opacity:1"/><stop offset="0.7" style="stop-color:#be167a;stop-opacity:1"/><stop offset="0.8" style="stop-color:#c3217b;stop-opacity:1"/><stop offset="0.9" style="stop-color:#da597b;stop-opacity:1"/><stop offset="1" style="stop-color:#fbaa7b;stop-opacity:1"/></radialGradient>
        <radialGradient id="_Radial7" cx="0" cy="0" r="1" gradientUnits="userSpaceOnUse" gradientTransform="matrix(25.8102,0,0,25.8102,242.06,219.176)"><stop offset="0" style="stop-color:#ffd15b;stop-opacity:1"/><stop offset="0.7" style="stop-color:#be167a;stop-opacity:1"/><stop offset="0.8" style="stop-color:#c3217b;stop-opacity:1"/><stop offset="0.9" style="stop-color:#da597b;stop-opacity:1"/><stop offset="1" style="stop-color:#fbaa7b;stop-opacity:1"/></radialGradient>
        <radialGradient id="_Radial8" cx="0" cy="0" r="1" gradientUnits="userSpaceOnUse" gradientTransform="matrix(19.3799,0,0,19.3799,235.732,149.932)"><stop offset="0" style="stop-color:#ffd15b;stop-opacity:1"/><stop offset="0.7" style="stop-color:#be167a;stop-opacity:1"/><stop offset="0.8" style="stop-color:#c3217b;stop-opacity:1"/><stop offset="0.9" style="stop-color:#da597b;stop-opacity:1"/><stop offset="1" style="stop-color:#fbaa7b;stop-opacity:1"/></radialGradient>
        <radialGradient id="_Radial9" cx="0" cy="0" r="1" gradientUnits="userSpaceOnUse" gradientTransform="matrix(10.3978,0,0,10.3978,254.23,169.402)"><stop offset="0" style="stop-color:#ffd15b;stop-opacity:1"/><stop offset="0.7" style="stop-color:#be167a;stop-opacity:1"/><stop offset="0.8" style="stop-color:#c3217b;stop-opacity:1"/><stop offset="0.9" style="stop-color:#da597b;stop-opacity:1"/><stop offset="1" style="stop-color:#fbaa7b;stop-opacity:1"/></radialGradient>
        <radialGradient id="_Radial10" cx="0" cy="0" r="1" gradientUnits="userSpaceOnUse" gradientTransform="matrix(28.4104,0,0,28.4104,137.522,8.52)"><stop offset="0" style="stop-color:#d81770;stop-opacity:1"/><stop offset="0.7" style="stop-color:#6f0669;stop-opacity:1"/><stop offset="1" style="stop-color:#aa0b7c;stop-opacity:1"/></radialGradient>
        <radialGradient id="_Radial11" cx="0" cy="0" r="1" gradientUnits="userSpaceOnUse" gradientTransform="matrix(144.099,0,0,144.099,99.736,113.178)"><stop offset="0" style="stop-color:#d81770;stop-opacity:1"/><stop offset="0.7" style="stop-color:#6f0669;stop-opacity:1"/><stop offset="1" style="stop-color:#aa0b7c;stop-opacity:1"/></radialGradient>
        <radialGradient id="_Radial12" cx="0" cy="0" r="1" gradientUnits="userSpaceOnUse" gradientTransform="matrix(144.099,0,0,144.099,99.734,113.178)"><stop offset="0" style="stop-color:#d81770;stop-opacity:1"/><stop offset="0.7" style="stop-color:#6f0669;stop-opacity:1"/><stop offset="1" style="stop-color:#aa0b7c;stop-opacity:1"/></radialGradient>
        <radialGradient id="_Radial13" cx="0" cy="0" r="1" gradientUnits="userSpaceOnUse" gradientTransform="matrix(144.099,0,0,144.099,99.736,113.178)"><stop offset="0" style="stop-color:#d81770;stop-opacity:1"/><stop offset="0.7" style="stop-color:#6f0669;stop-opacity:1"/><stop offset="1" style="stop-color:#aa0b7c;stop-opacity:1"/></radialGradient>
        <radialGradient id="_Radial14" cx="0" cy="0" r="1" gradientUnits="userSpaceOnUse" gradientTransform="matrix(30.1808,0,0,30.1808,6.82003,136.302)"><stop offset="0" style="stop-color:#d81770;stop-opacity:1"/><stop offset="0.7" style="stop-color:#6f0669;stop-opacity:1"/><stop offset="1" style="stop-color:#aa0b7c;stop-opacity:1"/></radialGradient>
        <radialGradient id="_Radial15" cx="0" cy="0" r="1" gradientUnits="userSpaceOnUse" gradientTransform="matrix(144.098,0,0,144.098,99.736,113.18)"><stop offset="0" style="stop-color:#d81770;stop-opacity:1"/><stop offset="0.7" style="stop-color:#6f0669;stop-opacity:1"/><stop offset="1" style="stop-color:#aa0b7c;stop-opacity:1"/></radialGradient>
        <radialGradient id="_Radial16" cx="0" cy="0" r="1" gradientUnits="userSpaceOnUse" gradientTransform="matrix(144.098,0,0,144.098,99.736,113.178)"><stop offset="0" style="stop-color:#d81770;stop-opacity:1"/><stop offset="0.7" style="stop-color:#6f0669;stop-opacity:1"/><stop offset="1" style="stop-color:#aa0b7c;stop-opacity:1"/></radialGradient>
        <radialGradient id="_Radial17" cx="0" cy="0" r="1" gradientUnits="userSpaceOnUse" gradientTransform="matrix(142.493,0,0,142.493,99.736,116.892)"><stop offset="0" style="stop-color:#d81770;stop-opacity:1"/><stop offset="0.7" style="stop-color:#6f0669;stop-opacity:1"/><stop offset="1" style="stop-color:#aa0b7c;stop-opacity:1"/></radialGradient>
        <radialGradient id="_Radial18" cx="0" cy="0" r="1" gradientUnits="userSpaceOnUse" gradientTransform="matrix(144.099,0,0,144.099,99.734,113.18)"><stop offset="0" style="stop-color:#d81770;stop-opacity:1"/><stop offset="0.7" style="stop-color:#6f0669;stop-opacity:1"/><stop offset="1" style="stop-color:#aa0b7c;stop-opacity:1"/></radialGradient>
        <radialGradient id="_Radial19" cx="0" cy="0" r="1" gradientUnits="userSpaceOnUse" gradientTransform="matrix(39.4374,0,0,39.4374,126.752,5.112)"><stop offset="0" style="stop-color:#ffe075;stop-opacity:1"/><stop offset="0.7" style="stop-color:#db5d8f;stop-opacity:1"/><stop offset="0.8" style="stop-color:#dd6491;stop-opacity:1"/><stop offset="0.9" style="stop-color:#ea8b91;stop-opacity:1"/><stop offset="1" style="stop-color:#fdc490;stop-opacity:1"/></radialGradient>
        <radialGradient id="_Radial20" cx="0" cy="0" r="1" gradientUnits="userSpaceOnUse" gradientTransform="matrix(41.9106,0,0,41.9106,102.23,10.71)"><stop offset="0" style="stop-color:#ffe075;stop-opacity:1"/><stop offset="0.7" style="stop-color:#db5d8f;stop-opacity:1"/><stop offset="0.8" style="stop-color:#dd6491;stop-opacity:1"/><stop offset="0.9" style="stop-color:#ea8b91;stop-opacity:1"/><stop offset="1" style="stop-color:#fdc490;stop-opacity:1"/></radialGradient>
        <radialGradient id="_Radial21" cx="0" cy="0" r="1" gradientUnits="userSpaceOnUse" gradientTransform="matrix(41.9106,0,0,41.9106,102.23,10.71)"><stop offset="0" style="stop-color:#ffe075;stop-opacity:1"/><stop offset="0.7" style="stop-color:#db5d8f;stop-opacity:1"/><stop offset="0.8" style="stop-color:#dd6491;stop-opacity:1"/><stop offset="0.9" style="stop-color:#ea8b91;stop-opacity:1"/><stop offset="1" style="stop-color:#fdc490;stop-opacity:1"/></radialGradient>
        <radialGradient id="_Radial22" cx="0" cy="0" r="1" gradientUnits="userSpaceOnUse" gradientTransform="matrix(21.0124,0,0,21.0124,47.954,58.658)"><stop offset="0" style="stop-color:#ffe075;stop-opacity:1"/><stop offset="0.7" style="stop-color:#db5d8f;stop-opacity:1"/><stop offset="0.8" style="stop-color:#dd6491;stop-opacity:1"/><stop offset="0.9" style="stop-color:#ea8b91;stop-opacity:1"/><stop offset="1" style="stop-color:#fdc490;stop-opacity:1"/></radialGradient>
        <radialGradient id="_Radial23" cx="0" cy="0" r="1" gradientUnits="userSpaceOnUse" gradientTransform="matrix(13.4913,0,0,13.4913,40.53,85.432)"><stop offset="0" style="stop-color:#ffe075;stop-opacity:1"/><stop offset="0.7" style="stop-color:#db5d8f;stop-opacity:1"/><stop offset="0.8" style="stop-color:#dd6491;stop-opacity:1"/><stop offset="0.9" style="stop-color:#ea8b91;stop-opacity:1"/><stop offset="1" style="stop-color:#fdc490;stop-opacity:1"/></radialGradient>
        <radialGradient id="_Radial24" cx="0" cy="0" r="1" gradientUnits="userSpaceOnUse" gradientTransform="matrix(19.3799,0,0,19.3799,235.732,149.932)"><stop offset="0" style="stop-color:#ffe075;stop-opacity:1"/><stop offset="0.7" style="stop-color:#db5d8f;stop-opacity:1"/><stop offset="0.8" style="stop-color:#dd6491;stop-opacity:1"/><stop offset="0.9" style="stop-color:#ea8b91;stop-opacity:1"/><stop offset="1" style="stop-color:#fdc490;stop-opacity:1"/></radialGradient>
        <radialGradient id="_Radial25" cx="0" cy="0" r="1" gradientUnits="userSpaceOnUse" gradientTransform="matrix(10.3978,0,0,10.3978,254.23,169.402)"><stop offset="0" style="stop-color:#ffe075;stop-opacity:1"/><stop offset="0.7" style="stop-color:#db5d8f;stop-opacity:1"/><stop offset="0.8" style="stop-color:#dd6491;stop-opacity:1"/><stop offset="0.9" style="stop-color:#ea8b91;stop-opacity:1"/><stop offset="1" style="stop-color:#fdc490;stop-opacity:1"/></radialGradient>
        <radialGradient id="_Radial26" cx="0" cy="0" r="1" gradientUnits="userSpaceOnUse" gradientTransform="matrix(25.8102,0,0,25.8102,242.06,219.176)"><stop offset="0" style="stop-color:#ffe075;stop-opacity:1"/><stop offset="0.7" style="stop-color:#db5d8f;stop-opacity:1"/><stop offset="0.8" style="stop-color:#dd6491;stop-opacity:1"/><stop offset="0.9" style="stop-color:#ea8b91;stop-opacity:1"/><stop offset="1" style="stop-color:#fdc490;stop-opacity:1"/></radialGradient>
        <radialGradient id="_Radial27" cx="0" cy="0" r="1" gradientUnits="userSpaceOnUse" gradientTransform="matrix(25.8102,0,0,25.8102,242.06,219.176)"><stop offset="0" style="stop-color:#ffe075;stop-opacity:1"/><stop offset="0.7" style="stop-color:#db5d8f;stop-opacity:1"/><stop offset="0.8" style="stop-color:#dd6491;stop-opacity:1"/><stop offset="0.9" style="stop-color:#ea8b91;stop-opacity:1"/><stop offset="1" style="stop-color:#fdc490;stop-opacity:1"/></radialGradient>
        <radialGradient id="_Radial28" cx="0" cy="0" r="1" gradientUnits="userSpaceOnUse" gradientTransform="matrix(12.1362,0,0,12.1362,119.45,266.06)"><stop offset="0" style="stop-color:#ffe075;stop-opacity:1"/><stop offset="0.7" style="stop-color:#db5d8f;stop-opacity:1"/><stop offset="0.8" style="stop-color:#dd6491;stop-opacity:1"/><stop offset="0.9" style="stop-color:#ea8b91;stop-opacity:1"/><stop offset="1" style="stop-color:#fdc490;stop-opacity:1"/></radialGradient>
        <radialGradient id="_Radial29" cx="0" cy="0" r="1" gradientUnits="userSpaceOnUse" gradientTransform="matrix(30.1808,0,0,30.1808,6.82003,136.302)"><stop offset="0" style="stop-color:#ffe075;stop-opacity:1"/><stop offset="0.7" style="stop-color:#db5d8f;stop-opacity:1"/><stop offset="0.8" style="stop-color:#dd6491;stop-opacity:1"/><stop offset="0.9" style="stop-color:#ea8b91;stop-opacity:1"/><stop offset="1" style="stop-color:#fdc490;stop-opacity:1"/></radialGradient>
        <radialGradient id="_Radial30" cx="0" cy="0" r="1" gradientUnits="userSpaceOnUse" gradientTransform="matrix(202.926,0,0,202.926,94.258,88.536)"><stop offset="0" style="stop-color:#ffd15b;stop-opacity:1"/><stop offset="0.7" style="stop-color:#be167a;stop-opacity:1"/><stop offset="0.8" style="stop-color:#c3217b;stop-opacity:1"/><stop offset="0.9" style="stop-color:#da597b;stop-opacity:1"/><stop offset="1" style="stop-color:#fbaa7b;stop-opacity:1"/></radialGradient>
        <radialGradient id="_Radial31" cx="0" cy="0" r="1" gradientUnits="userSpaceOnUse" gradientTransform="matrix(144.099,0,0,144.099,99.736,113.178)"><stop offset="0" style="stop-color:#d81770;stop-opacity:1"/><stop offset="0.7" style="stop-color:#6f0669;stop-opacity:1"/><stop offset="1" style="stop-color:#aa0b7c;stop-opacity:1"/></radialGradient>
        <radialGradient id="_Radial32" cx="0" cy="0" r="1" gradientUnits="userSpaceOnUse" gradientTransform="matrix(144.1,0,0,144.1,99.736,113.178)"><stop offset="0" style="stop-color:#d81770;stop-opacity:1"/><stop offset="0.7" style="stop-color:#6f0669;stop-opacity:1"/><stop offset="1" style="stop-color:#aa0b7c;stop-opacity:1"/></radialGradient>
        <radialGradient id="_Radial33" cx="0" cy="0" r="1" gradientUnits="userSpaceOnUse" gradientTransform="matrix(144.099,0,0,144.099,99.736,113.178)"><stop offset="0" style="stop-color:#d81770;stop-opacity:1"/><stop offset="0.7" style="stop-color:#6f0669;stop-opacity:1"/><stop offset="1" style="stop-color:#aa0b7c;stop-opacity:1"/></radialGradient>
        <radialGradient id="_Radial34" cx="0" cy="0" r="1" gradientUnits="userSpaceOnUse" gradientTransform="matrix(144.098,0,0,144.098,99.736,113.18)"><stop offset="0" style="stop-color:#d81770;stop-opacity:1"/><stop offset="0.7" style="stop-color:#6f0669;stop-opacity:1"/><stop offset="1" style="stop-color:#aa0b7c;stop-opacity:1"/></radialGradient>
        <radialGradient id="_Radial35" cx="0" cy="0" r="1" gradientUnits="userSpaceOnUse" gradientTransform="matrix(144.098,0,0,144.098,99.736,113.18)"><stop offset="0" style="stop-color:#d81770;stop-opacity:1"/><stop offset="0.7" style="stop-color:#6f0669;stop-opacity:1"/><stop offset="1" style="stop-color:#aa0b7c;stop-opacity:1"/></radialGradient>
        <radialGradient id="_Radial36" cx="0" cy="0" r="1" gradientUnits="userSpaceOnUse" gradientTransform="matrix(144.099,0,0,144.099,99.736,113.178)"><stop offset="0" style="stop-color:#d81770;stop-opacity:1"/><stop offset="0.7" style="stop-color:#6f0669;stop-opacity:1"/><stop offset="1" style="stop-color:#aa0b7c;stop-opacity:1"/></radialGradient>
        <radialGradient id="_Radial37" cx="0" cy="0" r="1" gradientUnits="userSpaceOnUse" gradientTransform="matrix(144.099,0,0,144.099,99.736,113.178)"><stop offset="0" style="stop-color:#d81770;stop-opacity:1"/><stop offset="0.7" style="stop-color:#6f0669;stop-opacity:1"/><stop offset="1" style="stop-color:#aa0b7c;stop-opacity:1"/></radialGradient>
        <radialGradient id="_Radial38" cx="0" cy="0" r="1" gradientUnits="userSpaceOnUse" gradientTransform="matrix(144.099,0,0,144.099,99.736,113.178)"><stop offset="0" style="stop-color:#d81770;stop-opacity:1"/><stop offset="0.7" style="stop-color:#6f0669;stop-opacity:1"/><stop offset="1" style="stop-color:#aa0b7c;stop-opacity:1"/></radialGradient>
        <radialGradient id="_Radial39" cx="0" cy="0" r="1" gradientUnits="userSpaceOnUse" gradientTransform="matrix(144.099,0,0,144.099,99.734,113.178)"><stop offset="0" style="stop-color:#d81770;stop-opacity:1"/><stop offset="0.7" style="stop-color:#6f0669;stop-opacity:1"/><stop offset="1" style="stop-color:#aa0b7c;stop-opacity:1"/></radialGradient>
        <radialGradient id="_Radial40" cx="0" cy="0" r="1" gradientUnits="userSpaceOnUse" gradientTransform="matrix(144.099,0,0,144.099,99.736,113.178)"><stop offset="0" style="stop-color:#d81770;stop-opacity:1"/><stop offset="0.7" style="stop-color:#6f0669;stop-opacity:1"/><stop offset="1" style="stop-color:#aa0b7c;stop-opacity:1"/></radialGradient>
        <radialGradient id="_Radial41" cx="0" cy="0" r="1" gradientUnits="userSpaceOnUse" gradientTransform="matrix(144.099,0,0,144.099,99.736,113.178)"><stop offset="0" style="stop-color:#d81770;stop-opacity:1"/><stop offset="0.7" style="stop-color:#6f0669;stop-opacity:1"/><stop offset="1" style="stop-color:#aa0b7c;stop-opacity:1"/></radialGradient>
        <radialGradient id="_Radial42" cx="0" cy="0" r="1" gradientUnits="userSpaceOnUse" gradientTransform="matrix(144.099,0,0,144.099,99.736,113.178)"><stop offset="0" style="stop-color:#d81770;stop-opacity:1"/><stop offset="0.7" style="stop-color:#6f0669;stop-opacity:1"/><stop offset="1" style="stop-color:#aa0b7c;stop-opacity:1"/></radialGradient>
        <radialGradient id="_Radial43" cx="0" cy="0" r="1" gradientUnits="userSpaceOnUse" gradientTransform="matrix(144.1,0,0,144.1,99.736,113.18)"><stop offset="0" style="stop-color:#d81770;stop-opacity:1"/><stop offset="0.7" style="stop-color:#6f0669;stop-opacity:1"/><stop offset="1" style="stop-color:#aa0b7c;stop-opacity:1"/></radialGradient>
        <radialGradient id="_Radial44" cx="0" cy="0" r="1" gradientUnits="userSpaceOnUse" gradientTransform="matrix(144.099,0,0,144.099,99.736,113.178)"><stop offset="0" style="stop-color:#d81770;stop-opacity:1"/><stop offset="0.7" style="stop-color:#6f0669;stop-opacity:1"/><stop offset="1" style="stop-color:#aa0b7c;stop-opacity:1"/></radialGradient>
        <radialGradient id="_Radial45" cx="0" cy="0" r="1" gradientUnits="userSpaceOnUse" gradientTransform="matrix(202.926,0,0,202.926,94.258,88.536)"><stop offset="0" style="stop-color:#ffe075;stop-opacity:1"/><stop offset="0.7" style="stop-color:#db5d8f;stop-opacity:1"/><stop offset="0.8" style="stop-color:#dd6491;stop-opacity:1"/><stop offset="0.9" style="stop-color:#ea8b91;stop-opacity:1"/><stop offset="1" style="stop-color:#fdc490;stop-opacity:1"/></radialGradient>
        <radialGradient id="_Radial46" cx="0" cy="0" r="1" gradientUnits="userSpaceOnUse" gradientTransform="matrix(202.926,0,0,202.926,94.258,88.536)"><stop offset="0" style="stop-color:#ffe075;stop-opacity:1"/><stop offset="0.7" style="stop-color:#db5d8f;stop-opacity:1"/><stop offset="0.8" style="stop-color:#dd6491;stop-opacity:1"/><stop offset="0.9" style="stop-color:#ea8b91;stop-opacity:1"/><stop offset="1" style="stop-color:#fdc490;stop-opacity:1"/></radialGradient>
        <radialGradient id="_Radial47" cx="0" cy="0" r="1" gradientUnits="userSpaceOnUse" gradientTransform="matrix(202.926,0,0,202.926,94.258,88.536)"><stop offset="0" style="stop-color:#ffe075;stop-opacity:1"/><stop offset="0.7" style="stop-color:#db5d8f;stop-opacity:1"/><stop offset="0.8" style="stop-color:#dd6491;stop-opacity:1"/><stop offset="0.9" style="stop-color:#ea8b91;stop-opacity:1"/><stop offset="1" style="stop-color:#fdc490;stop-opacity:1"/></radialGradient>
        <radialGradient id="_Radial48" cx="0" cy="0" r="1" gradientUnits="userSpaceOnUse" gradientTransform="matrix(202.926,0,0,202.926,94.258,88.536)"><stop offset="0" style="stop-color:#ffe075;stop-opacity:1"/><stop offset="0.7" style="stop-color:#db5d8f;stop-opacity:1"/><stop offset="0.8" style="stop-color:#dd6491;stop-opacity:1"/><stop offset="0.9" style="stop-color:#ea8b91;stop-opacity:1"/><stop offset="1" style="stop-color:#fdc490;stop-opacity:1"/></radialGradient>
        <radialGradient id="_Radial49" cx="0" cy="0" r="1" gradientUnits="userSpaceOnUse" gradientTransform="matrix(202.926,0,0,202.926,94.258,88.536)"><stop offset="0" style="stop-color:#ffe075;stop-opacity:1"/><stop offset="0.7" style="stop-color:#db5d8f;stop-opacity:1"/><stop offset="0.8" style="stop-color:#dd6491;stop-opacity:1"/><stop offset="0.9" style="stop-color:#ea8b91;stop-opacity:1"/><stop offset="1" style="stop-color:#fdc490;stop-opacity:1"/></radialGradient>
        <radialGradient id="_Radial50" cx="0" cy="0" r="1" gradientUnits="userSpaceOnUse" gradientTransform="matrix(202.926,0,0,202.926,94.258,88.536)"><stop offset="0" style="stop-color:#ffe075;stop-opacity:1"/><stop offset="0.7" style="stop-color:#db5d8f;stop-opacity:1"/><stop offset="0.8" style="stop-color:#dd6491;stop-opacity:1"/><stop offset="0.9" style="stop-color:#ea8b91;stop-opacity:1"/><stop offset="1" style="stop-color:#fdc490;stop-opacity:1"/></radialGradient>
        <radialGradient id="_Radial51" cx="0" cy="0" r="1" gradientUnits="userSpaceOnUse" gradientTransform="matrix(202.926,0,0,202.926,94.258,88.536)"><stop offset="0" style="stop-color:#ffe075;stop-opacity:1"/><stop offset="0.7" style="stop-color:#db5d8f;stop-opacity:1"/><stop offset="0.8" style="stop-color:#dd6491;stop-opacity:1"/><stop offset="0.9" style="stop-color:#ea8b91;stop-opacity:1"/><stop offset="1" style="stop-color:#fdc490;stop-opacity:1"/></radialGradient>
        <radialGradient id="_Radial52" cx="0" cy="0" r="1" gradientUnits="userSpaceOnUse" gradientTransform="matrix(202.926,0,0,202.926,94.258,88.536)"><stop offset="0" style="stop-color:#ffe075;stop-opacity:1"/><stop offset="0.7" style="stop-color:#db5d8f;stop-opacity:1"/><stop offset="0.8" style="stop-color:#dd6491;stop-opacity:1"/><stop offset="0.9" style="stop-color:#ea8b91;stop-opacity:1"/><stop offset="1" style="stop-color:#fdc490;stop-opacity:1"/></radialGradient>
        <radialGradient id="_Radial53" cx="0" cy="0" r="1" gradientUnits="userSpaceOnUse" gradientTransform="matrix(202.926,0,0,202.926,94.258,88.536)"><stop offset="0" style="stop-color:#ffe075;stop-opacity:1"/><stop offset="0.7" style="stop-color:#db5d8f;stop-opacity:1"/><stop offset="0.8" style="stop-color:#dd6491;stop-opacity:1"/><stop offset="0.9" style="stop-color:#ea8b91;stop-opacity:1"/><stop offset="1" style="stop-color:#fdc490;stop-opacity:1"/></radialGradient>
        <radialGradient id="_Radial54" cx="0" cy="0" r="1" gradientUnits="userSpaceOnUse" gradientTransform="matrix(202.926,0,0,202.926,94.258,88.536)"><stop offset="0" style="stop-color:#ffe075;stop-opacity:1"/><stop offset="0.7" style="stop-color:#db5d8f;stop-opacity:1"/><stop offset="0.8" style="stop-color:#dd6491;stop-opacity:1"/><stop offset="0.9" style="stop-color:#ea8b91;stop-opacity:1"/><stop offset="1" style="stop-color:#fdc490;stop-opacity:1"/></radialGradient>
        <radialGradient id="_Radial55" cx="0" cy="0" r="1" gradientUnits="userSpaceOnUse" gradientTransform="matrix(202.926,0,0,202.926,94.258,88.536)"><stop offset="0" style="stop-color:#ffe075;stop-opacity:1"/><stop offset="0.7" style="stop-color:#db5d8f;stop-opacity:1"/><stop offset="0.8" style="stop-color:#dd6491;stop-opacity:1"/><stop offset="0.9" style="stop-color:#ea8b91;stop-opacity:1"/><stop offset="1" style="stop-color:#fdc490;stop-opacity:1"/></radialGradient>
        <radialGradient id="_Radial56" cx="0" cy="0" r="1" gradientUnits="userSpaceOnUse" gradientTransform="matrix(202.926,0,0,202.926,94.258,88.536)"><stop offset="0" style="stop-color:#ffe075;stop-opacity:1"/><stop offset="0.7" style="stop-color:#db5d8f;stop-opacity:1"/><stop offset="0.8" style="stop-color:#dd6491;stop-opacity:1"/><stop offset="0.9" style="stop-color:#ea8b91;stop-opacity:1"/><stop offset="1" style="stop-color:#fdc490;stop-opacity:1"/></radialGradient>
        <radialGradient id="_Radial57" cx="0" cy="0" r="1" gradientUnits="userSpaceOnUse" gradientTransform="matrix(202.926,0,0,202.926,94.258,88.536)"><stop offset="0" style="stop-color:#ffe075;stop-opacity:1"/><stop offset="0.7" style="stop-color:#db5d8f;stop-opacity:1"/><stop offset="0.8" style="stop-color:#dd6491;stop-opacity:1"/><stop offset="0.9" style="stop-color:#ea8b91;stop-opacity:1"/><stop offset="1" style="stop-color:#fdc490;stop-opacity:1"/></radialGradient>
        <radialGradient id="_Radial58" cx="0" cy="0" r="1" gradientUnits="userSpaceOnUse" gradientTransform="matrix(202.926,0,0,202.926,94.258,88.536)"><stop offset="0" style="stop-color:#ffe075;stop-opacity:1"/><stop offset="0.7" style="stop-color:#db5d8f;stop-opacity:1"/><stop offset="0.8" style="stop-color:#dd6491;stop-opacity:1"/><stop offset="0.9" style="stop-color:#ea8b91;stop-opacity:1"/><stop offset="1" style="stop-color:#fdc490;stop-opacity:1"/></radialGradient>
        <radialGradient id="_Radial59" cx="0" cy="0" r="1" gradientUnits="userSpaceOnUse" gradientTransform="matrix(202.926,0,0,202.926,94.258,88.536)"><stop offset="0" style="stop-color:#ffe075;stop-opacity:1"/><stop offset="0.7" style="stop-color:#db5d8f;stop-opacity:1"/><stop offset="0.8" style="stop-color:#dd6491;stop-opacity:1"/><stop offset="0.9" style="stop-color:#ea8b91;stop-opacity:1"/><stop offset="1" style="stop-color:#fdc490;stop-opacity:1"/></radialGradient>
        <radialGradient id="_Radial60" cx="0" cy="0" r="1" gradientUnits="userSpaceOnUse" gradientTransform="matrix(202.926,0,0,202.926,94.258,88.536)"><stop offset="0" style="stop-color:#ffe075;stop-opacity:1"/><stop offset="0.7" style="stop-color:#db5d8f;stop-opacity:1"/><stop offset="0.8" style="stop-color:#dd6491;stop-opacity:1"/><stop offset="0.9" style="stop-color:#ea8b91;stop-opacity:1"/><stop offset="1" style="stop-color:#fdc490;stop-opacity:1"/></radialGradient>
        <radialGradient id="_Radial61" cx="0" cy="0" r="1" gradientUnits="userSpaceOnUse" gradientTransform="matrix(202.926,0,0,202.926,94.258,88.536)"><stop offset="0" style="stop-color:#ffe075;stop-opacity:1"/><stop offset="0.7" style="stop-color:#db5d8f;stop-opacity:1"/><stop offset="0.8" style="stop-color:#dd6491;stop-opacity:1"/><stop offset="0.9" style="stop-color:#ea8b91;stop-opacity:1"/><stop offset="1" style="stop-color:#fdc490;stop-opacity:1"/></radialGradient>
        <radialGradient id="_Radial62" cx="0" cy="0" r="1" gradientUnits="userSpaceOnUse" gradientTransform="matrix(202.926,0,0,202.926,94.258,88.536)"><stop offset="0" style="stop-color:#ffe075;stop-opacity:1"/><stop offset="0.7" style="stop-color:#db5d8f;stop-opacity:1"/><stop offset="0.8" style="stop-color:#dd6491;stop-opacity:1"/><stop offset="0.9" style="stop-color:#ea8b91;stop-opacity:1"/><stop offset="1" style="stop-color:#fdc490;stop-opacity:1"/></radialGradient>
        <radialGradient id="_Radial63" cx="0" cy="0" r="1" gradientUnits="userSpaceOnUse" gradientTransform="matrix(202.926,0,0,202.926,94.258,88.536)"><stop offset="0" style="stop-color:#ffe075;stop-opacity:1"/><stop offset="0.7" style="stop-color:#db5d8f;stop-opacity:1"/><stop offset="0.8" style="stop-color:#dd6491;stop-opacity:1"/><stop offset="0.9" style="stop-color:#ea8b91;stop-opacity:1"/><stop offset="1" style="stop-color:#fdc490;stop-opacity:1"/></radialGradient>
        <radialGradient id="_Radial64" cx="0" cy="0" r="1" gradientUnits="userSpaceOnUse" gradientTransform="matrix(202.926,0,0,202.926,94.258,88.536)"><stop offset="0" style="stop-color:#ffe075;stop-opacity:1"/><stop offset="0.7" style="stop-color:#db5d8f;stop-opacity:1"/><stop offset="0.8" style="stop-color:#dd6491;stop-opacity:1"/><stop offset="0.9" style="stop-color:#ea8b91;stop-opacity:1"/><stop offset="1" style="stop-color:#fdc490;stop-opacity:1"/></radialGradient>
        <radialGradient id="_Radial65" cx="0" cy="0" r="1" gradientUnits="userSpaceOnUse" gradientTransform="matrix(202.926,0,0,202.926,94.258,88.536)"><stop offset="0" style="stop-color:#ffe075;stop-opacity:1"/><stop offset="0.7" style="stop-color:#db5d8f;stop-opacity:1"/><stop offset="0.8" style="stop-color:#dd6491;stop-opacity:1"/><stop offset="0.9" style="stop-color:#ea8b91;stop-opacity:1"/><stop offset="1" style="stop-color:#fdc490;stop-opacity:1"/></radialGradient>
        <radialGradient id="_Radial66" cx="0" cy="0" r="1" gradientUnits="userSpaceOnUse" gradientTransform="matrix(202.926,0,0,202.926,94.258,88.536)"><stop offset="0" style="stop-color:#ffe075;stop-opacity:1"/><stop offset="0.7" style="stop-color:#db5d8f;stop-opacity:1"/><stop offset="0.8" style="stop-color:#dd6491;stop-opacity:1"/><stop offset="0.9" style="stop-color:#ea8b91;stop-opacity:1"/><stop offset="1" style="stop-color:#fdc490;stop-opacity:1"/></radialGradient>
        <radialGradient id="_Radial67" cx="0" cy="0" r="1" gradientUnits="userSpaceOnUse" gradientTransform="matrix(202.926,0,0,202.926,94.258,88.536)"><stop offset="0" style="stop-color:#ffe075;stop-opacity:1"/><stop offset="0.7" style="stop-color:#db5d8f;stop-opacity:1"/><stop offset="0.8" style="stop-color:#dd6491;stop-opacity:1"/><stop offset="0.9" style="stop-color:#ea8b91;stop-opacity:1"/><stop offset="1" style="stop-color:#fdc490;stop-opacity:1"/></radialGradient>
        <radialGradient id="_Radial68" cx="0" cy="0" r="1" gradientUnits="userSpaceOnUse" gradientTransform="matrix(202.926,0,0,202.926,94.258,88.536)"><stop offset="0" style="stop-color:#ffe075;stop-opacity:1"/><stop offset="0.7" style="stop-color:#db5d8f;stop-opacity:1"/><stop offset="0.8" style="stop-color:#dd6491;stop-opacity:1"/><stop offset="0.9" style="stop-color:#ea8b91;stop-opacity:1"/><stop offset="1" style="stop-color:#fdc490;stop-opacity:1"/></radialGradient>
        <radialGradient id="_Radial69" cx="0" cy="0" r="1" gradientUnits="userSpaceOnUse" gradientTransform="matrix(202.926,0,0,202.926,94.258,88.536)"><stop offset="0" style="stop-color:#ffe075;stop-opacity:1"/><stop offset="0.7" style="stop-color:#db5d8f;stop-opacity:1"/><stop offset="0.8" style="stop-color:#dd6491;stop-opacity:1"/><stop offset="0.9" style="stop-color:#ea8b91;stop-opacity:1"/><stop offset="1" style="stop-color:#fdc490;stop-opacity:1"/></radialGradient>
    </defs>
</svg>
