<?xml version="1.0" encoding="UTF-8" standalone="no"?>
<!DOCTYPE svg PUBLIC "-//W3C//DTD SVG 1.1//EN" "http://www.w3.org/Graphics/SVG/1.1/DTD/svg11.dtd">
<svg width="100%" height="100%" viewBox="0 0 255 313" version="1.1" xmlns="http://www.w3.org/2000/svg" xmlns:xlink="http://www.w3.org/1999/xlink" xml:space="preserve" xmlns:serif="http://www.serif.com/" style="fill-rule:evenodd;clip-rule:evenodd;stroke-linejoin:round;stroke-miterlimit:2;">
    <path d="M130.317,232.265c-4.072,-0 -8.152,-0.194 -12.2,-0.626c0.444,-0.092 0.884,-0.196 1.322,-0.31c0.006,-0.002 0.012,-0.004 0.016,-0.006c0.02,-0.004 0.04,-0.01 0.06,-0.014c0.036,-0.01 0.072,-0.02 0.108,-0.03c3.682,-0.986 7.242,-2.772 9.724,-5.662c2.566,-2.982 3.788,-6.95 3.974,-10.882c0.022,-0.414 0.03,-0.828 0.03,-1.242c-0.002,-3.51 -0.72,-7.002 -1.66,-10.392c-0.1,-0.348 -0.192,-0.692 -0.3,-1.042c-1.114,-3.804 -2.63,-7.558 -5.254,-10.51c-2.46,-2.782 -5.67,-4.626 -9.194,-5.834c-3.454,-1.174 -7.208,-1.73 -10.848,-1.954c-0.554,-0.03 -1.12,-0.056 -1.684,-0.056c-1.162,-0 -2.322,0.106 -3.392,0.474c-0.428,0.142 -0.836,0.32 -1.23,0.556c-2.394,1.426 -3.468,4.36 -3.674,7.142c-0.208,2.774 0.3,5.606 1.472,8.124c0.608,1.3 1.388,2.522 2.338,3.6c0.04,0.046 0.08,0.092 0.12,0.136c2.634,2.922 6.514,4.732 10.442,4.736l0.016,-0c0.216,-0 0.432,-0.004 0.648,-0.016c3.16,-0.164 6.512,-1.774 7.606,-4.74c0.292,-0.792 0.406,-1.618 0.406,-2.454c0,-1.442 -0.336,-2.922 -0.67,-4.34c2.032,1.576 3.504,3.884 3.968,6.416c0.106,0.57 0.158,1.152 0.158,1.736c-0.002,1.988 -0.612,3.98 -1.796,5.578c-1.936,2.616 -5.168,3.982 -8.372,4.554c-0.084,0.016 -0.168,0.03 -0.252,0.044c-1.158,0.192 -2.336,0.292 -3.514,0.294l-0.018,-0c-0.926,-0.002 -1.85,-0.064 -2.764,-0.192c-0.014,-0.002 -0.028,-0.004 -0.042,-0.006c-0.086,-0.014 -0.172,-0.026 -0.258,-0.04c-1.796,-0.28 -3.546,-0.822 -5.17,-1.652c-5.412,-2.774 -8.158,-7.966 -10.074,-13.464c-1.086,-3.122 -1.508,-6.678 -1.836,-9.966c-0.36,-3.494 -0.352,-7.054 0.464,-10.486c0.092,-0.414 0.2,-0.824 0.322,-1.23c0.456,-1.554 1.086,-3.04 1.73,-4.526c0.506,-1.174 1.022,-2.34 1.48,-3.526c0.464,-1.196 0.806,-2.402 1.044,-3.612c1.142,-5.626 -0.016,-11.316 -2.96,-16.428c-0.152,-0.266 -0.308,-0.53 -0.472,-0.786l0,-0.008c-3.926,-6.456 -9.702,-11.776 -16.466,-15.15c-2.394,-1.188 -5.026,-2.154 -7.666,-2.154c-0.6,-0 -1.202,0.05 -1.8,0.158c-3.232,0.58 -6.242,3.362 -6.106,6.636c0.064,1.522 0.708,3.26 -0.258,4.44c-0.43,0.522 -1.084,0.754 -1.762,0.754c-0.596,0 -1.212,-0.18 -1.712,-0.498c-1.08,-0.67 -1.444,-3.92 -2.086,-5.024c0.706,-3.56 1.632,-7.078 2.78,-10.534c0.074,-0.226 0.15,-0.454 0.228,-0.68c0.01,0.084 0.02,0.166 0.028,0.246c0,-0.988 1.652,-2.888 2.202,-3.59c0.924,-1.158 2.16,-2.088 3.462,-2.81c0.012,-0.006 0.024,-0.014 0.036,-0.02c0.024,-0.012 0.048,-0.026 0.072,-0.038c0.006,-0.004 0.012,-0.008 0.02,-0.012c0.014,-0.008 0.03,-0.016 0.044,-0.024l0.002,-0c2.414,-1.302 4.952,-2.08 7.624,-2.082l0.016,-0c0.914,-0 1.844,0.092 2.79,0.284c0.032,0.006 0.066,0.012 0.098,0.02c5.728,1.214 10.596,4.996 14.528,9.336c8.03,8.852 12.942,20.484 13.684,32.418c0.096,1.592 0.308,3.272 0.31,4.876c0,0.182 -0.004,0.362 -0.008,0.542c-0.032,0.946 -0.214,1.828 -0.216,2.75c0,0.36 0.026,0.726 0.1,1.104c0.55,2.824 2.582,5.276 4.992,6.758c3.36,2.05 7.456,2.7 11.31,3.1c4.04,0.422 7.972,1.832 11.354,4.07c1.308,0.86 2.58,1.86 4.11,2.18c0.022,0.008 0.044,0.01 0.066,0.014c0.336,0.066 0.676,0.098 1.014,0.098l0.02,-0c1.172,-0.006 2.346,-0.366 3.406,-0.896c0.052,-0.026 0.104,-0.052 0.156,-0.078c1.43,-0.75 2.69,-1.776 4.02,-2.682c2.294,-1.574 4.84,-2.84 7.578,-3.362c0.022,-0.004 0.044,-0.008 0.064,-0.012c0.006,-0 0.01,-0.002 0.014,-0.002c0.76,-0.14 1.502,-0.204 2.228,-0.204l0.012,-0c3.266,0.004 6.228,1.308 9.118,3.012c0.024,0.018 0.05,0.03 0.076,0.046c0.002,-0 0.004,0.002 0.006,0.006c0.022,0.01 0.044,0.026 0.066,0.036c0.024,0.016 0.046,0.028 0.07,0.042c3.41,2.038 6.384,4.8 8.752,7.986c1.094,1.466 2.058,3.032 2.874,4.668c2.274,4.542 3.502,9.538 3.902,14.586c0.114,1.444 0.246,2.914 0.246,4.344c-0.002,3.232 -0.676,6.252 -3.734,8.254c-2.51,1.644 -5.426,2.738 -8.422,2.804c-0.088,-0 -0.178,0.002 -0.266,0.002l-0.018,-0c-2.802,-0.004 -5.638,-0.962 -7.694,-2.866c-0.076,-0.068 -0.15,-0.14 -0.222,-0.212c-1.682,-1.658 -2.714,-4.012 -2.712,-6.356c0,-0.628 0.074,-1.254 0.23,-1.866c0.002,-0.01 0.006,-0.022 0.008,-0.032c0.002,-0.008 0.006,-0.018 0.008,-0.028c0,-0.002 0,-0.004 0.002,-0.006c0.002,-0.012 0.006,-0.024 0.01,-0.036c0.298,-1.048 1.14,-2.146 2.116,-2.154l0.014,-0c0.144,-0 0.292,0.024 0.44,0.076c0.006,0.002 0.012,0.004 0.02,0.006c1.036,0.374 1.214,1.73 1.78,2.674c0.006,0.01 0.012,0.02 0.018,0.03c0.624,1.024 1.778,1.502 2.982,1.504l0.016,-0c1.04,-0.002 2.114,-0.358 2.912,-1.026c0.01,-0.006 0.018,-0.014 0.026,-0.022c1.724,-1.472 2.332,-3.88 2.446,-6.148c0.016,-0.312 0.024,-0.622 0.024,-0.934c0.004,-3.488 -0.962,-6.972 -2.726,-9.976l-0.008,-0.008c-0.708,-1.222 -1.55,-2.352 -2.516,-3.388c-1.908,-2.034 -4.446,-3.718 -7.236,-3.718l-0.072,-0c-3.252,0.036 -6.04,2.338 -8.094,4.862c-2.766,3.402 -4.724,7.536 -5.476,11.832l0,0.008c-0.242,1.332 -0.366,2.678 -0.364,4.022c0.002,1.476 0.158,2.952 0.478,4.408c1.138,5.124 4.54,9.78 9.06,12.318c1.386,0.788 2.882,1.372 4.446,1.708c0.346,0.082 0.694,0.144 1.046,0.192c-5.28,0.964 -10.65,1.53 -15.944,1.832c-2.584,0.148 -5.186,0.228 -7.79,0.228Zm-50.45,-14.772c-0.42,-0.318 -0.838,-0.642 -1.252,-0.974c-2.13,-1.702 -4.092,-3.64 -5.918,-5.738l0.002,-0c-0.226,-2.8 -0.346,-5.528 -0.346,-8.234c0.002,-4.22 0.298,-8.394 0.946,-12.728c0.466,-3.104 1.238,-6.164 1.444,-9.296c0.028,-0.412 0.042,-0.822 0.042,-1.224c0.002,-0.956 -0.076,-1.888 -0.226,-2.792c-0.402,-2.382 -1.288,-4.628 -2.546,-6.844c-1.012,-1.772 -2.694,-3.634 -4.6,-3.634c-0.262,-0 -0.528,0.034 -0.798,0.11c-1.558,0.444 -2.452,2.066 -2.946,3.61c-1.014,3.16 -1.552,5.984 -5.026,7.224c-0.65,0.228 -1.276,0.352 -1.87,0.352c-1.074,-0 -2.05,-0.404 -2.892,-1.318c-0.664,-0.736 -1.916,-3.642 -2.258,-4.874c-0.378,-2.484 -0.66,-4.984 -0.844,-7.49c0.012,0.01 0.024,0.02 0.036,0.03c0.008,0.006 0.016,0.012 0.024,0.02l0.002,-0c0.548,0.44 1.2,0.622 1.9,0.624l0.016,-0c1.746,-0.004 3.778,-1.132 5.212,-2.216c0.012,-0.01 0.024,-0.018 0.034,-0.028c0.004,-0 0.006,-0.002 0.008,-0.004c0.032,-0.026 0.066,-0.05 0.098,-0.076c0.006,-0.006 0.014,-0.01 0.02,-0.016c2.702,-2.102 4.238,-5.718 7.428,-6.97c0.014,-0.006 0.026,-0.01 0.04,-0.016c0.644,-0.246 1.3,-0.352 1.954,-0.352l0.016,-0c1.508,0.002 3.014,0.562 4.384,1.234c0.014,0.008 0.028,0.014 0.044,0.022c0,-0 0.002,-0 0.002,0.002c0.022,0.01 0.044,0.022 0.066,0.032c2.124,1.05 3.818,2.86 5.206,4.74c2.316,3.152 4.046,6.72 5.132,10.474c0.692,2.398 1.292,5.044 1.29,7.616c-0.002,1.148 -0.124,2.282 -0.41,3.376c-0.894,3.372 -2.954,6.296 -4.426,9.458c-1.48,3.166 -2.366,6.596 -2.63,10.072c-0.084,1.136 -0.142,2.346 -0.142,3.574c0,2.224 0.188,4.504 0.742,6.5c0.592,2.128 1.67,4.036 3.042,5.754Zm106.124,-1.074c0.234,-1.082 -0.152,-2.19 -0.34,-3.386l-0.128,-0.814c-0.258,-1.638 -0.53,-3.276 -0.83,-4.912c-1.23,-6.622 -2.954,-13.178 -6.134,-19.12c-0.164,-0.306 -0.336,-0.612 -0.508,-0.914c-2.166,-3.818 -4.934,-7.264 -7.136,-11.068c-0.206,-0.362 -0.528,-1.58 -0.942,-1.7l0.12,0.034c5.706,1.644 10.282,6.036 14.27,10.27c2.532,2.672 5.12,5.438 6.5,8.864c1.152,2.844 1.838,5.876 2.06,8.936c0.044,0.604 0.058,1.204 0.058,1.804c0,0.906 -0.03,1.81 -0.03,2.722c0,0.658 -0.022,1.266 -0.228,1.916c-0.042,0.118 -0.508,0.99 -0.77,1.422c-1.102,1.296 -2.264,2.54 -3.49,3.72c-0.804,0.774 -1.626,1.514 -2.472,2.226Zm11.5,-13.604c0.068,-0.586 0.086,-1.178 0.058,-1.772c-0.064,-1.408 -0.102,-2.794 -0.188,-4.176c-0.098,-1.55 -0.256,-3.104 -0.608,-4.676c-0.642,-2.93 -1.658,-5.776 -2.98,-8.472c-0.878,-1.794 -1.888,-3.522 -3.024,-5.168c-2.266,-3.326 -5.026,-6.328 -8.144,-8.88c-9.602,-7.858 -22.078,-11.604 -34.46,-12.392c-6.258,-0.392 -12.572,-0.092 -18.748,-1.144c-6.17,-1.056 -12.242,-3.766 -15.944,-8.814c-0.902,2.458 -0.772,5.162 0.078,7.642c0.652,1.88 1.708,3.646 3.068,5.09c3.144,3.368 7.606,5.228 12.118,6.15c3.876,0.786 7.83,1.186 11.776,1.294c3.59,0.094 6.864,-0.23 10.21,1.48c0.01,0.004 0.018,0.008 0.028,0.014c0.002,-0 0.004,0.002 0.006,0.004c0.006,0.002 0.012,0.006 0.018,0.008l0.024,0.012c1.112,0.584 2.138,1.42 2.856,2.442c0.068,0.094 0.132,0.192 0.192,0.29c0.386,0.616 0.606,1.262 0.774,1.962l-0.022,0.33l-0.08,0.092l-0.32,-0.006c-1.624,-0.48 -3.268,-1.13 -4.928,-1.466c-0.386,-0.08 -0.78,-0.116 -1.176,-0.116c-1.028,-0 -2.074,0.238 -3.048,0.552c-2.238,0.716 -4.262,1.974 -6.378,2.994c-1.848,0.902 -3.862,1.636 -5.898,1.636c-0.296,-0 -0.592,-0.012 -0.888,-0.046c-2.638,-0.294 -4.926,-1.896 -7.408,-2.854c-2.816,-1.078 -5.948,-1.336 -8.622,-2.804c-2.73,-1.5 -4.196,-4.624 -5.154,-7.476c-3.582,-10.676 -2.774,-23.036 -9.26,-32.252c-2.044,-2.904 -4.79,-5.436 -5.884,-8.818c-1.058,-3.252 -0.428,-6.82 -1.064,-10.18c-1.088,-5.756 -5.906,-10.318 -11.418,-12.284c-2.446,-0.87 -5.428,-1.524 -8.342,-1.524c-1.084,-0 -2.16,0.09 -3.196,0.294c1.262,-1.38 2.57,-2.706 3.924,-3.978c4.386,0.962 8.926,0.5 13.076,2.22c4.176,1.738 8.044,5.068 8.88,9.516c0.014,-0.328 0.026,-0.658 0.026,-0.988c0,-0.13 -0.002,-0.26 -0.006,-0.392c-0.034,-3.73 -1.028,-7.586 -3.174,-10.58c-2.392,-3.34 -5.93,-5.834 -9.872,-6.972c0.642,-0.442 1.286,-0.87 1.94,-1.292c0.882,0.022 2.632,0.334 3.23,0.454c0.004,-0 0.006,-0 0.01,0.002c0.004,-0 0.01,0.002 0.016,0.002c0.026,0.006 0.05,0.01 0.07,0.016c0.01,0.002 0.02,0.004 0.03,0.006c0.018,0.004 0.034,0.008 0.048,0.01l0.002,-0c1.094,0.266 2.074,0.83 3.126,1.232c2.158,0.822 4.21,1.93 6.09,3.274c2.346,1.666 4.44,3.69 6.17,5.99c1.192,1.586 2.47,3.048 2.468,4.92c0,0.466 -0.078,0.956 -0.258,1.48c-0.514,1.516 -1.472,2.918 -1.63,4.512c-0.016,0.158 -0.022,0.316 -0.024,0.474c-0.002,1.86 1.022,3.604 2.09,5.16c4.332,6.32 9.852,11.826 16.188,16.144c3.946,2.682 8.322,4.946 13.062,5.484c0.022,0.002 0.044,0.004 0.068,0.008c0.696,0.076 1.396,0.114 2.096,0.114l0.018,-0c4.05,-0.004 8.084,-1.262 11.478,-3.48c0.014,-0.01 0.032,-0.02 0.046,-0.03c0.094,-0.062 0.188,-0.124 0.28,-0.186c0.014,-0.01 0.028,-0.02 0.042,-0.03c1.91,-1.302 3.632,-2.932 4.754,-4.948c0.78,-1.41 1.246,-3.026 1.244,-4.63c0,-0.69 -0.086,-1.378 -0.272,-2.048c-0.586,-2.138 -2.052,-3.832 -3.81,-5.218c-0.916,-0.738 -1.91,-1.38 -2.902,-1.968c-5.914,-3.488 -12.478,-5.876 -19.248,-7.006c-0.568,-0.094 -1.164,-0.172 -1.746,-0.172c-0.862,-0 -1.694,0.17 -2.352,0.708c-0.994,0.816 -1.2,2.146 -1.014,3.468c0.078,0.572 0.228,1.144 0.428,1.666c1.022,2.682 2.86,5.034 5.206,6.67c1.272,0.894 2.738,1.588 4.29,1.688c0.106,0.006 0.214,0.01 0.322,0.01c1.46,-0 2.946,-0.582 3.812,-1.746c0.442,-0.598 0.674,-1.35 0.674,-2.094c0,-0.798 -0.268,-1.584 -0.832,-2.146c1.892,1.854 3.832,3.79 4.754,6.262c0.31,0.826 0.474,1.732 0.474,2.628c0.002,1.804 -0.658,3.576 -2.104,4.608c-0.45,0.314 -0.936,0.542 -1.458,0.708c-0.902,0.286 -1.888,0.374 -2.854,0.374c-0.114,-0 -0.23,-0 -0.344,-0.004c-4.154,-0.078 -8.328,-1.308 -11.66,-3.796c-3.332,-2.488 -5.742,-6.27 -6.256,-10.388c-0.388,-3.082 0.264,-6.234 -0.23,-9.302c-0.642,-3.982 -3.166,-7.428 -6.098,-10.194c-2.938,-2.768 -6.334,-4.998 -9.374,-7.652c0.494,0.33 0.994,0.644 1.502,0.944c6.134,3.654 13.226,5.476 20.034,7.722c7.37,2.432 14.844,4.798 21.528,8.738c4.576,2.688 8.774,6.17 11.862,10.502c1.48,2.088 2.294,4.282 3.36,6.542c0.86,1.828 1.35,3.446 1.346,5.236c0,0.828 -0.106,1.694 -0.33,2.636c-0.694,2.902 -2.032,5.656 -2.36,8.622c-0.052,0.472 -0.076,0.942 -0.076,1.412c0.004,4.536 2.368,8.928 5.58,12.188c3.79,3.846 8.688,6.528 13.472,8.908c3.502,1.738 7.356,2.824 10.524,5.112c4.432,3.216 6.834,8.27 8.172,13.45c0.974,3.758 1.912,8.01 1.912,12.094c0,1.726 -0.168,3.42 -0.568,5.036c-0.044,0.16 -0.086,0.324 -0.13,0.488c-0.87,1.644 -1.788,3.26 -2.766,4.836Zm-39.016,-49.238l0.044,0.02c-1.13,-2.416 -3.226,-4.854 -5.536,-6.184c-2.308,-1.33 -4.896,-2.102 -7.514,-2.616c-2.676,-0.526 -5.312,-0.708 -7.97,-0.708c-1.606,-0 -3.22,0.066 -4.856,0.164c-0.81,0.046 -1.618,0.092 -2.424,0.092c-0.946,-0 -1.89,-0.062 -2.832,-0.264c-0.522,-0.114 -4.826,-1.402 -4.826,-2.102c-0.086,0.38 -0.12,0.774 -0.1,1.16c0.028,0.736 0.236,1.48 0.622,2.116c2.21,3.66 7.672,5.01 11.562,5.49c4.01,0.494 8.064,0.272 12.104,0.4c4.026,0.13 8.13,0.622 11.726,2.432Zm-59.562,-35.96c-0.002,1.296 0.214,2.59 0.626,3.814c0.73,2.182 2.13,3.39 3.402,5.17c1.074,1.494 2.24,2.916 3.376,4.354c2.988,3.782 5.448,7.606 6.206,12.432c0.916,-1.004 1.214,-2.816 1.214,-4.732c0,-0.824 -0.056,-1.668 -0.142,-2.474c-0.136,-1.358 -0.364,-2.61 -0.558,-3.482c-0.778,-3.568 -2.436,-6.942 -4.86,-9.674c-2.704,-3.038 -6.222,-5.268 -8.902,-8.322c-0.092,0.358 -0.166,0.722 -0.214,1.088c-0.1,0.604 -0.148,1.216 -0.148,1.826Zm106.002,70.204c-0.024,-0.28 -0.048,-0.56 -0.074,-0.84c-0.336,-3.346 -0.95,-6.672 -1.952,-9.88c-1.008,-3.248 -2.416,-6.386 -4.254,-9.248c-1.116,-1.744 -2.388,-3.38 -3.824,-4.868c-3.318,-3.452 -7.602,-5.748 -11.076,-9.016c-3.31,-3.11 -6.556,-6.598 -7.95,-11.024c-1.166,-3.69 -0.924,-7.658 -1.21,-11.518c-0.2,-2.696 -0.672,-5.376 -1.378,-7.986c-1.616,-5.956 -4.456,-11.548 -8.072,-16.538c-1.816,-2.516 -3.84,-4.884 -6.02,-7.086c-0.988,-1 -1.638,-2.166 -2.704,-3.08c-1.336,-1.152 -2.766,-2.188 -4.252,-3.126c-6.628,-4.182 -14.324,-7.042 -21.83,-9.208c-6.556,-1.894 -13.306,-3.152 -20.106,-3.754c-3.046,-0.268 -6.1,-0.406 -9.158,-0.406c-0.336,-0 -0.672,0.002 -1.01,0.006c2.812,-1.122 5.684,-2.086 8.604,-2.896c1.35,-0.348 2.732,-0.472 4.124,-0.472c1.622,-0 3.26,0.168 4.89,0.344l0.222,0.028c4.648,0.514 9.302,1.308 13.87,2.296c9.376,2.022 17.418,7.714 25.404,12.776c3.076,1.944 6.228,3.982 8.238,7.006c-0.852,-3.38 -2.382,-6.542 -4.312,-9.458c-1.088,-1.638 -2.302,-3.196 -3.596,-4.668c-2.824,-3.212 -6.028,-6.058 -9.296,-8.802c-0.238,-0.2 -0.478,-0.396 -0.722,-0.586c3.598,0.706 7.15,1.652 10.628,2.844c1.62,0.556 3.22,1.164 4.802,1.824c9.36,7.446 17.228,16.754 23,27.226c3.746,6.8 6.658,14.134 11.448,20.248c2.722,3.474 5.976,6.47 8.994,9.68c1.93,2.06 4.096,4.54 5.134,7.322c0.124,0.338 0.23,0.682 0.32,1.03c0.216,3.496 0.214,7.026 0.014,10.556c-0.026,-0.06 -0.052,-0.122 -0.078,-0.182c-1.852,-4.34 -4.318,-8.472 -7.892,-11.526l-0.366,-0.314c-4.268,-3.496 -9.844,-6.648 -12.29,-11.798c-2.66,-5.584 -3.51,-11.696 -7.236,-16.786c-1.972,-2.704 -4.474,-4.962 -6.442,-7.672c-2.016,-2.782 -3.268,-6.034 -4.968,-9.016c-0.966,-1.688 -2.082,-3.288 -3.14,-4.912c-0.572,-0.886 -1.236,-1.708 -1.972,-2.458c-0.5,-0.508 -1.83,-1.21 -2.124,-1.802c0.086,0.184 0.178,0.364 0.266,0.55c2.644,5.456 4.924,11.174 6.204,17.074c0.458,2.122 1.122,4.26 2.36,6.07c1.388,2.03 3.504,2.902 5.212,4.568c2.316,2.258 2.76,5.32 2.966,8.372c0.066,0.878 0.1,1.752 0.166,2.602c0.264,3.812 0.894,7.714 2.758,11.096c1.91,3.446 5.414,6.114 8.11,8.93c7.378,7.716 12.604,17.46 14.956,27.87c0.058,-0.066 0.116,-0.134 0.174,-0.198c-0.998,3.704 -2.194,7.324 -3.56,10.806Z" style="fill:url(#_Radial1);"/>
    <path d="M111.605,232.305l-0.008,-0l0.008,-0Zm0.008,-0c2.64,-0 5.274,-0.31 7.826,-0.976c-0.438,0.114 -0.878,0.218 -1.322,0.31c-2.136,0.452 -4.316,0.666 -6.504,0.666Zm7.842,-0.982c0.02,-0.004 0.04,-0.01 0.06,-0.014c-0.02,0.004 -0.04,0.01 -0.06,0.014Zm40.432,-0.662c-1.902,-0 -3.818,-0.178 -5.78,-0.448c-0.018,-0.002 -0.038,-0.004 -0.056,-0.008c-0.352,-0.048 -0.7,-0.11 -1.046,-0.192c-1.564,-0.336 -3.06,-0.92 -4.446,-1.708c0.292,-0.556 0.544,-1.188 0.914,-1.666c0.696,-0.914 1.904,-1.302 3.052,-1.302c0.02,-0 0.038,-0 0.058,0.002c1.166,0.008 2.296,0.356 3.426,0.65c2.276,0.592 4.632,0.972 6.978,0.972c1.358,-0 2.714,-0.128 4.046,-0.414c3.632,-0.786 7.086,-2.862 9.008,-6.036c1.932,-3.18 2.168,-7.07 3.076,-10.68c0.358,-1.388 1.158,-3.018 2.588,-3.024c0.84,-0 1.654,0.604 2.452,0.604c0.16,-0 0.32,-0.024 0.478,-0.082l0.058,-0.022c-1.23,-6.622 -2.954,-13.178 -6.134,-19.12c-0.412,2.324 -1.958,3.25 -3.748,3.25c-1.664,-0 -3.536,-0.8 -4.904,-2.018c-2.28,-2.038 -3.688,-4.884 -5.748,-7.152c-3.032,-3.338 -7.536,-5.258 -12.036,-5.258c-0.924,-0 -1.846,0.084 -2.756,0.248c-3.462,0.638 -7.158,2.13 -10.388,3.496c-2.4,1.012 -4.292,1.964 -6.532,1.964c-0.946,-0 -1.952,-0.168 -3.086,-0.578c-3.31,-1.184 -6.2,-3.44 -9.602,-4.322c-3.038,-0.79 -6.25,-0.432 -9.366,-0.798c-10.304,-1.2 -8.752,-11.594 -8.622,-19.368c0.184,-11.152 -6.022,-21.276 -12.012,-30.686c-2.01,-3.146 -4.126,-6.406 -7.308,-8.372c-3.46,-2.142 -7.87,-3.142 -12.128,-3.142c-1.812,-0 -3.596,0.18 -5.266,0.532c-3.46,0.736 -5.992,2.26 -8.552,4.026l0,0.006c-0.156,0.408 -0.314,0.816 -0.464,1.23c-0.344,0.936 -0.908,2.082 -1.03,3.068c-0.024,0.188 -0.032,0.382 -0.032,0.58c0,-0.198 0.008,-0.392 0.032,-0.58c0.122,-0.986 0.686,-2.132 1.03,-3.068c0.15,-0.414 0.308,-0.822 0.464,-1.23l0,-0.006c1.716,-4.49 3.812,-8.824 6.25,-12.962c1.008,-1.702 2.086,-3.396 3.53,-4.742c1.458,-1.348 3.272,-2.138 5.23,-2.524c1.036,-0.204 2.112,-0.294 3.196,-0.294c2.914,-0 5.896,0.654 8.342,1.524c5.512,1.966 10.33,6.528 11.418,12.284c0.636,3.36 0.006,6.928 1.064,10.18c1.094,3.382 3.84,5.914 5.884,8.818c6.486,9.216 5.678,21.576 9.26,32.252c0.958,2.852 2.424,5.976 5.154,7.476c2.674,1.468 5.806,1.726 8.622,2.804c2.482,0.958 4.77,2.56 7.408,2.854c0.296,0.034 0.592,0.046 0.888,0.046c2.036,-0 4.05,-0.734 5.898,-1.636c2.116,-1.02 4.14,-2.278 6.378,-2.994c0.974,-0.314 2.02,-0.552 3.048,-0.552c0.396,-0 0.79,0.036 1.176,0.116c1.66,0.336 3.304,0.986 4.928,1.466l0.32,0.006l0.08,-0.092l0.022,-0.33l0.1,0.27c0.16,0.306 0.456,0.56 0.826,0.56c0.09,-0 0.182,-0.016 0.278,-0.046c0.368,-0.122 0.618,-0.484 0.696,-0.864c0.078,-0.378 0.014,-0.772 -0.084,-1.146c-0.442,-1.732 -1.516,-3.254 -2.836,-4.46c-4.756,-4.346 -11.166,-5.67 -17.384,-6.224c-4.492,-0.402 -9.046,-0.544 -13.408,-1.708c-3.446,-0.924 -6.82,-2.582 -9.258,-5.128c-0.85,-2.48 -0.98,-5.184 -0.078,-7.642c3.702,5.048 9.774,7.758 15.944,8.814c6.176,1.052 12.49,0.752 18.748,1.144c12.382,0.788 24.858,4.534 34.46,12.392c3.118,2.552 5.878,5.554 8.144,8.88c1.136,1.646 2.146,3.374 3.024,5.168c1.322,2.696 2.338,5.542 2.98,8.472c0.352,1.572 0.51,3.126 0.608,4.676c0.086,1.382 0.124,2.768 0.188,4.176c0.028,0.594 0.01,1.186 -0.058,1.772c-0.014,0.126 -0.03,0.254 -0.05,0.38c-0.422,2.79 -1.03,5.684 -3.282,7.38c-0.358,0.27 -0.75,0.514 -1.194,0.586c-0.07,0.01 -0.142,0.014 -0.214,0.014c-0.382,-0 -0.77,-0.146 -0.98,-0.458l0.164,-0.214c0.006,-0.01 0.012,-0.02 0.018,-0.03c0.262,-0.432 0.728,-1.304 0.77,-1.422c0.206,-0.65 0.228,-1.258 0.228,-1.916c0,-0.912 0.03,-1.816 0.03,-2.722c0,0.906 -0.03,1.81 -0.03,2.722c0,0.658 -0.022,1.266 -0.228,1.916c-0.044,0.122 -0.53,1.03 -0.788,1.452l0.016,-0c0.486,-0 0.86,-0.606 1.028,-1.116c0.972,-2.916 1.516,-5.97 1.616,-9.044c0.022,-0.574 0.028,-1.16 0.222,-1.702c0.242,-0.672 0.708,-1.022 1.374,-1.252c0.406,-0.134 0.842,-0.264 1.17,-0.522c-0.098,-1.55 -0.256,-3.104 -0.608,-4.676c-0.642,-2.93 -1.658,-5.776 -2.98,-8.472c-0.878,-1.794 -1.888,-3.522 -3.024,-5.168c-0.758,0.472 -0.85,1.53 -0.908,2.424c-0.066,0.93 -0.328,2.042 -1.224,2.294c-0.118,0.034 -0.238,0.05 -0.358,0.05c-0.382,-0 -0.768,-0.148 -1.128,-0.308c-2.902,-1.298 -5.376,-3.35 -7.908,-5.246c-1.844,-1.388 -3.666,-2.804 -5.784,-3.79c-1.418,-0.656 -2.954,-1.102 -4.51,-1.102c-0.192,-0 -0.386,0.008 -0.58,0.022c0.408,0.706 1.05,1.208 1.744,1.644l-0.12,-0.034c0.414,0.12 0.736,1.338 0.942,1.7c2.202,3.804 4.97,7.25 7.136,11.068c0.172,0.302 0.344,0.608 0.508,0.914c3.18,5.942 4.904,12.498 6.134,19.12c0.3,1.636 0.572,3.274 0.83,4.912l0.128,0.814c0.188,1.196 0.574,2.304 0.34,3.386c-0.068,0.316 -0.188,0.628 -0.384,0.94c-0.908,1.458 -1.98,2.824 -3.196,4.054c-4.31,4.376 -10.186,6.892 -16.128,8.458c-2.15,0.566 -4.264,0.79 -6.396,0.79Zm11.172,-65.044c-0.322,-0 -0.652,0.048 -0.882,0.262c-0.52,0.478 -0.162,1.362 0.34,1.858c2.016,1.988 5.426,1.65 7.754,3.262c0.422,0.292 0.904,0.66 1.38,0.66c0.12,-0 0.24,-0.024 0.358,-0.078c0.498,-0.234 0.612,-0.938 0.37,-1.432c-0.24,-0.492 -0.726,-0.814 -1.2,-1.09c-2.668,-1.544 -4.654,-3.294 -7.926,-3.438c-0.064,-0.002 -0.128,-0.004 -0.194,-0.004Zm-54.064,-12.086c-0.142,-0 -0.272,0.038 -0.344,0.156c-0.166,0.266 0.15,0.566 0.42,0.72c4.468,2.532 9.768,4.404 14.94,4.772c0.672,0.048 1.348,0.072 2.024,0.072c1.434,-0 2.868,-0.108 4.284,-0.33c-3.328,-1.794 -7.276,-1.13 -10.872,-1.77c-3.584,-0.636 -6.628,-2.552 -10.112,-3.564c-0.106,-0.032 -0.226,-0.056 -0.34,-0.056Zm-10.904,-2.336c-0.106,0 -0.222,0.026 -0.35,0.08c-1.196,0.518 -0.744,2.52 -0.184,3.292c0.178,0.246 0.444,0.48 0.734,0.48c0.038,-0 0.076,-0.004 0.112,-0.012c0.38,-0.082 0.542,-0.528 0.592,-0.912c0.096,-0.736 0.072,-2.928 -0.904,-2.928Zm-7.99,-19.796c-0.676,-0 -1.212,0.35 -1.158,1.342c0.088,1.626 1.894,3.254 2.674,4.65c1.86,3.72 2.69,7.648 4.248,11.498c0.144,0.358 0.366,0.77 0.75,0.794c0.012,-0 0.022,0.002 0.034,0.002c0.266,-0 0.502,-0.21 0.612,-0.458c0.112,-0.256 0.114,-0.546 0.114,-0.826c-0.022,-4.212 -0.918,-8.052 -2.718,-11.872c-0.676,-1.438 -1.748,-4.114 -3.284,-4.816c-0.41,-0.188 -0.866,-0.314 -1.272,-0.314Zm-21.908,-29.956c-0.632,-0 -1.16,0.218 -1.392,0.87c-0.248,0.7 0.024,1.502 0.502,2.072c0.476,0.57 1.134,0.956 1.776,1.33c4.044,2.356 8.088,4.71 12.132,7.066c0.322,0.188 0.69,0.378 1.046,0.378c0.116,-0 0.232,-0.02 0.344,-0.068c0.638,-0.272 0.644,-1.176 0.462,-1.846c-0.8,-2.942 -3.14,-5.274 -5.808,-6.748c-1.85,-1.022 -3.864,-1.686 -5.896,-2.236c-0.734,-0.198 -2.098,-0.818 -3.166,-0.818Zm-4.386,0.464c-0.618,-0 -1.44,0.474 -1.814,0.738c-0.512,0.36 -0.938,0.888 -1.034,1.508c-0.096,0.618 0.21,1.316 0.79,1.552c0.146,0.058 0.298,0.086 0.452,0.086c0.436,-0 0.88,-0.216 1.198,-0.53c0.43,-0.422 0.678,-0.99 0.918,-1.544c0.152,-0.352 0.308,-0.728 0.252,-1.108c-0.076,-0.52 -0.38,-0.702 -0.762,-0.702Zm40.108,125.612c-2.718,-0 -5.406,-0.62 -8.336,-1.544c-8.058,-2.54 -15.73,-7.736 -19.076,-15.494c-2.502,-5.792 -2.374,-12.384 -1.494,-18.634c0.888,-6.238 2.482,-12.41 2.76,-18.708c0.278,-6.306 -0.914,-12.978 -4.954,-17.818c-2.798,-3.35 -7.198,-5.512 -11.468,-5.512c-1.908,-0 -3.79,0.43 -5.492,1.38c-2.244,1.258 -3.976,3.238 -5.942,4.89c-1.788,1.502 -3.968,2.788 -6.26,2.788c-0.238,-0 -0.478,-0.014 -0.718,-0.042c-1.616,-0.194 -3.13,-1.352 -3.788,-2.782c-0.286,-2.688 0.078,-5.412 0.436,-8.094c0.192,-1.478 0.492,-2.802 1.044,-4.34c0.5,-1.4 1.008,-2.68 3.646,-4.826c0,-0 0,0.002 0.002,0.002c0.642,1.104 1.006,4.354 2.086,5.024c0.5,0.318 1.116,0.498 1.712,0.498c0.678,0 1.332,-0.232 1.762,-0.754c0.966,-1.18 0.322,-2.918 0.258,-4.44c-0.136,-3.274 2.874,-6.056 6.106,-6.636c0.598,-0.108 1.2,-0.158 1.8,-0.158c2.64,-0 5.272,0.966 7.666,2.154c6.764,3.374 12.54,8.694 16.466,15.15l0,0.008c0.164,0.256 0.32,0.52 0.472,0.786c2.944,5.112 4.102,10.802 2.96,16.428c-0.238,1.21 -0.58,2.416 -1.044,3.612c-0.458,1.186 -0.974,2.352 -1.48,3.526c-0.644,1.486 -1.274,2.972 -1.73,4.526c-0.122,0.406 -0.23,0.816 -0.322,1.23c-0.816,3.432 -0.824,6.992 -0.464,10.486c0.328,3.288 0.75,6.844 1.836,9.966c1.916,5.498 4.662,10.69 10.074,13.464c1.624,0.83 3.374,1.372 5.17,1.652c2.556,1.2 5.384,1.824 8.214,1.824c1.382,-0 2.762,-0.148 4.112,-0.45c1.666,-0.374 3.202,-1.266 4.848,-1.638c0.282,-0.064 0.536,-0.094 0.766,-0.094c3.504,-0 0.896,7.102 -0.452,8.452c-1.202,1.2 -2.732,2.036 -4.298,2.696c-2.41,1.006 -4.654,1.422 -6.878,1.422Zm-47.844,-92.526c-0.392,-0 -0.78,0.04 -1.156,0.136c-0.85,0.218 -1.69,0.966 -1.996,1.85c-0.13,0.372 -0.164,0.768 -0.064,1.158c0.248,0.976 1.124,1.686 2.064,2.048c0.94,0.362 1.958,0.444 2.952,0.608c3.614,0.594 6.97,2.306 9.918,4.476c2.702,1.992 5.11,4.362 7.432,6.778c2.29,2.384 4.078,5.418 6.012,8.106c0.132,0.186 0.288,0.386 0.51,0.434c0.036,0.006 0.072,0.01 0.106,0.01c0.45,-0 0.674,-0.662 0.68,-1.158c0.082,-6.088 -2.918,-10.622 -6.962,-14.82c-4.204,-4.366 -9.818,-7.506 -15.7,-8.916c-1.164,-0.28 -2.508,-0.71 -3.796,-0.71Zm-13.356,7.864c-0.342,-0 -0.626,0.372 -0.778,0.708c-0.864,1.908 -0.826,4.786 1.366,5.856c0.364,0.176 0.756,0.25 1.156,0.25c0.714,-0 1.458,-0.232 2.13,-0.51c0.414,-0.17 0.83,-0.362 1.162,-0.666c0.332,-0.302 0.57,-0.736 0.542,-1.184c-0.042,-0.658 -0.634,-1.154 -1.246,-1.4c-0.63,-0.316 -1.466,-0.33 -2.064,-0.684c-0.702,-0.414 -1.2,-1.348 -1.696,-1.982c-0.118,-0.152 -0.25,-0.314 -0.436,-0.368c-0.046,-0.014 -0.092,-0.02 -0.136,-0.02Zm112.392,82.484l-0.018,-0l0.018,-0Zm0,-0c0.088,-0 0.178,-0.002 0.266,-0.002c2.996,-0.066 5.912,-1.16 8.422,-2.804c3.058,-2.002 3.732,-5.022 3.734,-8.254c-0.002,3.232 -0.676,6.252 -3.734,8.254c-2.51,1.644 -5.426,2.738 -8.422,2.804c-0.088,-0 -0.176,0.002 -0.266,0.002Zm-7.712,-2.866c-0.076,-0.068 -0.15,-0.14 -0.222,-0.212c-1.682,-1.658 -2.714,-4.012 -2.712,-6.356c-0.002,2.344 1.03,4.698 2.712,6.356c0.072,0.072 0.146,0.144 0.222,0.212Zm4.702,-6.4l-0.008,-0l0.008,-0Zm0.008,-0c1.04,-0.002 2.114,-0.358 2.912,-1.026c-0.798,0.668 -1.872,1.024 -2.912,1.026Zm-51.43,-0.53l-0.008,-0l0.008,-0Zm0.01,-0c1.178,-0.002 2.356,-0.102 3.514,-0.294c-1.158,0.192 -2.336,0.292 -3.514,0.294Zm36.698,-0.104c-0.152,-0 -0.316,-0.008 -0.492,-0.026c-1.81,-0.194 -3.096,-1.846 -3.904,-3.468c-0.686,-1.372 -1.238,-2.86 -1.602,-4.39c-0.242,1.332 -0.366,2.678 -0.364,4.022c-0.002,-1.344 0.122,-2.69 0.364,-4.022l0,-0.008c0.752,-4.296 2.71,-8.43 5.476,-11.832c2.054,-2.524 4.842,-4.826 8.094,-4.862l0.072,-0c2.79,-0 5.328,1.684 7.236,3.718c0.966,1.036 1.808,2.166 2.516,3.388l0.008,0.008c1.764,3.004 2.73,6.488 2.726,9.976c0.004,-3.488 -0.962,-6.972 -2.726,-9.976c0.444,2.716 0.558,5.484 0.342,8.228c-0.092,1.18 -0.264,2.402 -0.936,3.376c-0.518,0.75 -1.416,1.296 -2.298,1.296c-0.262,-0 -0.522,-0.048 -0.77,-0.152c-1.414,-0.602 -1.844,-2.668 -3.332,-3.068c-0.162,-0.044 -0.326,-0.062 -0.488,-0.062c-0.65,-0 -1.3,0.304 -1.878,0.634c-1.916,1.116 -3.804,2.71 -4.996,4.598c-0.878,1.384 -1.238,2.622 -3.048,2.622Zm7.602,-22.578c-0.602,-0 -1.176,0.1 -1.682,0.314c-2.474,1.05 -7.1,4.182 -4.758,7.388c0.57,0.778 1.52,1.212 2.472,1.362c0.342,0.052 0.688,0.074 1.034,0.074c0.618,-0 1.238,-0.068 1.854,-0.134c1.458,-0.156 2.952,-0.322 4.266,-0.974c1.314,-0.652 2.432,-1.902 2.502,-3.37c0.13,-2.696 -3.03,-4.66 -5.688,-4.66Zm-47.082,22.49c-0.014,-0.002 -0.028,-0.004 -0.042,-0.006c0.014,0.002 0.028,0.004 0.042,0.006Zm51.204,-0.782c-0.006,-0.01 -0.012,-0.02 -0.018,-0.03c0.006,0.01 0.012,0.02 0.018,0.03Zm-4.416,-0.53c0.002,-0.01 0.006,-0.022 0.008,-0.032c-0.002,0.01 -0.006,0.022 -0.008,0.032Zm0.016,-0.06c0,-0.002 0,-0.004 0.002,-0.006c-0.002,0.002 -0.002,0.004 -0.002,0.006Zm0.012,-0.042c0.298,-1.048 1.14,-2.146 2.116,-2.154c-0.976,0.008 -1.818,1.106 -2.116,2.154Zm-19.368,-0.446c-0.002,-3.51 -0.72,-7.002 -1.66,-10.392c-0.1,-0.348 -0.192,-0.692 -0.3,-1.042c-0.414,1.036 -0.55,2.196 -0.93,3.252c-0.442,1.234 -1.464,2.454 -2.74,2.454c-0.064,-0 -0.126,-0.002 -0.19,-0.008c-1.48,-0.144 -2.274,-1.78 -2.732,-3.196c-0.55,-1.736 -1.016,-3.51 -1.81,-5.162c-1.208,-2.532 -2.922,-3.76 -5.412,-4.834c-0.312,-0.136 -0.668,-0.262 -1.002,-0.262c-0.21,-0 -0.41,0.05 -0.584,0.178c-0.28,0.192 -0.408,0.528 -0.522,0.844c-0.822,2.208 -1.23,4.152 -3.146,5.618c-1.974,1.498 -4.452,2.29 -6.922,2.29c-1.094,-0 -2.184,-0.156 -3.23,-0.474c-1.724,-0.528 -3.304,-1.494 -4.584,-2.758c-1.172,-2.518 -1.68,-5.35 -1.472,-8.124c0.206,-2.782 1.28,-5.716 3.674,-7.142c0.394,-0.236 0.802,-0.414 1.23,-0.556c1.07,-0.368 2.23,-0.474 3.392,-0.474c0.564,-0 1.13,0.026 1.684,0.056c3.64,0.224 7.394,0.78 10.848,1.954c3.524,1.208 6.734,3.052 9.194,5.834c2.624,2.952 4.14,6.706 5.254,10.51c0.108,0.35 0.2,0.694 0.3,1.042c0.94,3.39 1.658,6.882 1.66,10.392Zm-28.896,-28.062c-2.982,-0 -5.75,2.728 -5.204,5.964c0.29,1.714 1.684,3.19 3.38,3.576c0.36,0.082 0.722,0.118 1.086,0.118c1.348,-0 2.704,-0.498 3.984,-0.992c0.946,-0.362 1.976,-0.802 2.412,-1.716c0.374,-0.784 0.202,-1.724 -0.106,-2.538c-0.66,-1.748 -1.954,-3.302 -3.676,-4.03c-0.616,-0.262 -1.25,-0.382 -1.876,-0.382Zm7.708,1.26c-0.328,-0 -0.56,0.154 -0.608,0.548c-0.028,0.23 0.034,0.46 0.11,0.682c0.076,0.226 0.188,0.514 0.328,0.816c0.32,0.682 0.796,1.41 1.396,1.534c0.13,0.028 0.314,0.044 0.52,0.044c0.714,-0 1.718,-0.19 1.886,-0.73c0.1,-0.318 -0.072,-0.652 -0.266,-0.918c-0.328,-0.452 -2.332,-1.976 -3.366,-1.976Zm43.146,25.176c-0.008,-0.002 -0.014,-0.004 -0.02,-0.006c0.006,0.002 0.012,0.004 0.02,0.006Zm-0.46,-0.082l-0.002,-0l0.002,-0Zm-44.346,-3.312l-0.016,-0l0.016,-0Zm0,-0c0.216,-0 0.432,-0.004 0.648,-0.016c-0.216,0.012 -0.432,0.016 -0.648,0.016Zm-10.458,-4.736c-0.04,-0.044 -0.08,-0.09 -0.12,-0.136c0.04,0.046 0.08,0.092 0.12,0.136Zm101.864,-6.79c0.078,-0.3 0.136,-0.608 0.172,-0.908c0.23,-1.846 -0.042,-3.74 0.328,-5.556c0.294,-1.436 1.166,-2.894 2.432,-3.502c-0.336,-3.346 -0.95,-6.672 -1.952,-9.88c-1.008,-3.248 -2.416,-6.386 -4.254,-9.248l-0.322,-0.034c-0.224,0.05 -0.366,0.264 -0.53,0.43c-0.35,0.364 -0.854,0.522 -1.366,0.522c-0.292,-0 -0.586,-0.052 -0.858,-0.144c-0.748,-0.25 -1.37,-0.774 -1.986,-1.282c-4.282,-3.494 -8.894,-6.59 -13.762,-9.228c-4.392,-2.382 -8.71,-4.09 -11.962,-8.13c-2.046,-2.546 -3.432,-5.69 -3.734,-8.958c-0.3,-3.282 -1.042,-6.978 1.438,-9.702c0.594,-0.65 1.352,-1.158 1.874,-1.866c1.036,-1.416 0.958,-3.34 0.672,-5.07c-0.794,-4.76 -2.91,-8.772 -5.7,-12.634c-3.494,-4.854 -8.914,-8.078 -14.248,-10.61c-14.128,-6.698 -29.136,-11.56 -44.508,-14.42c0.686,0.914 1.452,1.774 2.288,2.566c-0.508,-0.3 -1.008,-0.614 -1.502,-0.944c3.04,2.654 6.436,4.884 9.374,7.652c2.932,2.766 5.456,6.212 6.098,10.194c0.494,3.068 -0.158,6.22 0.23,9.302c0.514,4.118 2.924,7.9 6.256,10.388c3.332,2.488 7.506,3.718 11.66,3.796c0.114,0.004 0.23,0.004 0.344,0.004c0.966,-0 1.952,-0.088 2.854,-0.374c0.522,-0.166 1.008,-0.394 1.458,-0.708c1.446,-1.032 2.106,-2.804 2.104,-4.608c0.002,1.804 -0.658,3.576 -2.104,4.608c-0.45,0.314 -0.936,0.542 -1.458,0.708l0.12,-0c1.114,-0 2.18,-0.28 2.954,-1.066c2.28,-2.31 2.024,-6.714 0.722,-9.444c-0.75,-1.582 -1.944,-2.946 -3.39,-3.932c-0.742,-0.508 -1.564,-0.93 -2.416,-1.216c-0.522,-0.18 -1.602,-0.208 -1.752,-0.9c0.272,1.25 0.858,3.71 0.086,4.918c-0.444,0.692 -1.21,0.93 -2.038,0.93c-1.014,-0 -2.118,-0.358 -2.838,-0.68c-2.01,-0.886 -3.518,-2.216 -4.948,-3.832c-0.722,-0.822 -1.374,-1.516 -1.838,-2.532c-0.042,-0.092 -0.128,-0.27 -0.228,-0.5c-0.186,-1.322 0.02,-2.652 1.014,-3.468c0.658,-0.538 1.49,-0.708 2.352,-0.708c0.582,-0 1.178,0.078 1.746,0.172c6.77,1.13 13.334,3.518 19.248,7.006c0.992,0.588 1.986,1.23 2.902,1.968c1.758,1.386 3.224,3.08 3.81,5.218c0.186,0.67 0.272,1.358 0.272,2.048c0,-0.69 -0.086,-1.378 -0.272,-2.048c-0.586,-2.138 -2.052,-3.832 -3.81,-5.218l-0.386,0.078c-1.308,0.4 -1.994,1.88 -2.066,3.24c-0.064,1.364 0.322,2.708 0.4,4.074c0.258,4.326 -2.766,8.444 -6.728,10.202c-1.824,0.808 -3.798,1.168 -5.794,1.168c-2.334,-0 -4.694,-0.494 -6.868,-1.346c-4.032,-1.588 -7.522,-4.304 -10.718,-7.236c-4.34,-3.982 -8.916,-8.586 -11.74,-13.814c-0.522,-0.964 -0.93,-2.302 -0.114,-3.03c0.814,-0.744 2.174,-0.216 3.174,-0.666c0.658,-0.3 1.072,-1 1.18,-1.716c0.108,-0.714 -0.044,-1.444 -0.256,-2.13c-0.68,-2.23 -1.96,-4.196 -3.418,-5.984l-0.352,-0.43c-1.516,-1.802 -2.966,-3.696 -4.718,-5.254c-3.382,-3.004 -7.306,-5.39 -11.532,-7.006c-1.746,-0.666 -3.64,-1.424 -5.492,-1.66l-0.328,-0.036c-0.666,0.872 -1.16,1.86 -1.394,2.932c0.014,-0.07 0.174,-0.098 0.42,-0.1c-0.246,0.002 -0.406,0.03 -0.42,0.1c0.234,-1.072 0.728,-2.06 1.394,-2.932c0.95,-1.264 2.274,-2.272 3.718,-2.93c2.752,-1.246 6.12,-1.274 9.08,-1.302l0.062,-0c0.338,-0.004 0.674,-0.006 1.01,-0.006c3.058,-0 6.112,0.138 9.158,0.406c6.8,0.602 13.55,1.86 20.106,3.754c7.506,2.166 15.202,5.026 21.83,9.208c1.486,0.938 2.916,1.974 4.252,3.126c1.066,0.914 1.716,2.08 2.704,3.08c2.18,2.202 4.204,4.57 6.02,7.086c3.616,4.99 6.456,10.582 8.072,16.538c0.706,2.61 1.178,5.29 1.378,7.986c0.286,3.86 0.044,7.828 1.21,11.518c1.394,4.426 4.64,7.914 7.95,11.024c3.474,3.268 7.758,5.564 11.076,9.016c1.436,1.488 2.708,3.124 3.824,4.868c1.838,2.862 3.246,6 4.254,9.248c1.002,3.208 1.616,6.534 1.952,9.88c0.026,0.28 0.05,0.56 0.074,0.84c0.022,0.256 0.042,0.512 0.062,0.768c0.158,2.144 0.158,3.68 -0.908,5.648c-0.464,0.864 -1.05,1.666 -1.738,2.372c-0.078,0.086 -0.236,0.202 -0.422,0.338Zm-33.28,-53.406c-0.144,-0 -0.288,0.026 -0.424,0.082c-1.696,0.698 -0.056,3.628 0.712,4.38c0.222,0.216 0.51,0.42 0.804,0.42c0.062,-0 0.124,-0.01 0.186,-0.03c0.374,-0.118 0.526,-0.56 0.582,-0.95c0.106,-0.732 0.056,-1.486 -0.146,-2.2c-0.136,-0.486 -0.354,-0.97 -0.73,-1.308c-0.268,-0.24 -0.63,-0.394 -0.984,-0.394Zm-0.144,-12.688c-0.986,-0 -1.778,1.24 -2.122,2.004c-1.094,2.434 -1.232,5.284 -0.374,7.81c0.194,0.57 0.546,1.21 1.148,1.256c0.02,0.002 0.042,0.002 0.064,0.002c0.496,-0 0.912,-0.452 1.052,-0.936c0.144,-0.506 0.068,-1.044 0.038,-1.568c-0.074,-1.32 0.16,-2.656 0.682,-3.87c0.366,-0.854 0.878,-1.674 0.962,-2.598c0.072,-0.812 -0.416,-2.028 -1.366,-2.098c-0.028,-0.002 -0.056,-0.002 -0.084,-0.002Zm-53.492,-31.834c-0.292,-0 -0.466,0.242 -0.324,0.936c0.412,2.03 0.826,4.058 1.24,6.088c0.148,0.72 0.294,1.456 0.228,2.188c-0.066,0.734 -0.382,1.48 -0.986,1.898c-0.688,0.472 -1.658,0.476 -2.238,1.076c-0.77,0.796 -0.414,2.114 0.084,3.102c1.416,2.808 3.564,5.168 5.684,7.492c0.936,1.026 2,2.264 3.256,2.916c0.264,0.136 1.576,0.678 2.228,0.678c0.22,-0 0.364,-0.062 0.366,-0.224l-0.254,-0.402c-0.916,-0.804 -1.782,-1.37 -2.556,-2.346c-1.262,-1.598 -2.44,-3.186 -3.058,-5.156c-0.926,-2.956 -0.48,-6.006 -0.32,-9.024c0.1,-1.906 0.088,-3.798 -0.458,-5.644c-0.306,-1.038 -0.826,-2.046 -1.59,-2.822c-0.352,-0.356 -0.926,-0.756 -1.302,-0.756Zm15.166,8.63c-0.478,-0 -0.96,0.074 -1.432,0.236c-1.96,0.678 -2.084,2.046 -0.732,3.63c0.486,0.57 0.98,1.146 1.602,1.558c0.476,0.314 1.042,0.526 1.606,0.526c0.174,-0 0.35,-0.02 0.52,-0.064c1.092,-0.278 1.734,-1.38 2.254,-2.38c0.19,-0.368 0.388,-0.768 0.334,-1.178c-0.06,-0.45 -0.406,-0.806 -0.762,-1.088c-0.952,-0.75 -2.16,-1.24 -3.39,-1.24Zm18.734,-13.622c-0.114,-0 -0.224,0.012 -0.332,0.036c-0.586,0.13 -1.072,0.7 -1.01,1.296c0.04,0.378 0.264,0.684 0.558,0.94c0.21,0.186 0.458,0.346 0.694,0.49c2.374,1.45 4.75,2.898 7.124,4.348c0.278,0.17 0.568,0.346 0.89,0.396c0.054,0.008 0.106,0.012 0.16,0.012c0.278,-0 0.562,-0.112 0.704,-0.346c0.298,-0.492 -0.166,-1.082 -0.594,-1.466c-1.494,-1.346 -3.004,-3.052 -4.758,-4.068c-0.876,-0.508 -2.286,-1.638 -3.436,-1.638Zm-33.204,-11.458c-0.938,-0 -1.868,0.104 -2.772,0.38c-0.372,0.114 -0.784,0.296 -0.9,0.668c-0.09,0.286 0.034,0.608 0.242,0.824c0.208,0.218 0.486,0.352 0.762,0.472c0.474,0.208 0.954,0.378 1.438,0.524c1.932,0.582 3.924,0.766 5.89,1.29c2.496,0.666 5.088,1.098 7.626,1.678c5.26,1.202 10.452,2.708 15.538,4.512c0.148,0.052 0.326,0.094 0.488,0.094c0.198,-0 0.374,-0.062 0.448,-0.242c0.846,-2.074 -5.746,-4.232 -6.88,-4.712c-2.918,-1.232 -5.912,-2.28 -8.96,-3.134c-2.656,-0.744 -5.354,-1.342 -8.076,-1.788c-1.572,-0.256 -3.22,-0.566 -4.844,-0.566Zm-56.948,107.736c-0.744,-0 -1.484,-0.052 -2.208,-0.216c-0.334,-0.072 -0.7,-0.244 -1.078,-0.4c-3.862,-5.592 -6.35,-11.466 -3.854,-18.638c0.006,0.026 0.014,0.054 0.022,0.082c0.342,1.232 1.594,4.138 2.258,4.874c0.842,0.914 1.818,1.318 2.892,1.318c0.594,-0 1.22,-0.124 1.87,-0.352c3.474,-1.24 4.012,-4.064 5.026,-7.224c0.494,-1.544 1.388,-3.166 2.946,-3.61c0.27,-0.076 0.536,-0.11 0.798,-0.11c1.906,-0 3.588,1.862 4.6,3.634c1.258,2.216 2.144,4.462 2.546,6.844c0.15,0.904 0.228,1.836 0.226,2.792c0.002,-0.956 -0.076,-1.888 -0.226,-2.792c-0.558,0.056 -1.002,0.552 -1.324,1.034c-1.33,1.968 -2.044,4.27 -3.038,6.422c-0.994,2.152 -2.38,4.276 -4.518,5.312c-1.494,0.73 -3.21,0.836 -4.876,0.944c-0.682,0.042 -1.374,0.086 -2.062,0.086Zm8.15,-21.66c-2.186,-0 -3.964,4.176 -3.18,5.952c0.274,0.624 0.924,1.022 1.594,1.136c0.238,0.04 0.508,0.06 0.798,0.06c1.378,-0 3.19,-0.464 3.836,-1.52c0.618,-1.012 0.15,-2.324 -0.42,-3.366c-0.41,-0.75 -0.894,-1.502 -1.62,-1.956c-0.34,-0.212 -0.68,-0.306 -1.008,-0.306Zm66.034,18.146l-0.004,-0l0.004,-0Zm0.016,-0c1.172,-0.006 2.346,-0.366 3.406,-0.896c-1.06,0.53 -2.234,0.89 -3.406,0.896Zm-1.034,-0.098c-0.022,-0.004 -0.044,-0.006 -0.066,-0.014c0.022,0.008 0.044,0.01 0.066,0.014Zm27.778,-4.038c-0.022,-0.01 -0.044,-0.026 -0.066,-0.036c0.022,0.01 0.044,0.026 0.066,0.036Zm-0.072,-0.042c-0.026,-0.016 -0.052,-0.028 -0.076,-0.046c0.024,0.018 0.05,0.03 0.076,0.046Zm-11.512,-2.84c0.022,-0.004 0.044,-0.008 0.064,-0.012c-0.02,0.004 -0.042,0.008 -0.064,0.012Zm0.078,-0.014c0.76,-0.14 1.502,-0.204 2.228,-0.204c-0.726,-0 -1.468,0.064 -2.228,0.204Zm2.24,-0.204l-0.008,-0l0.008,-0Zm60.006,-5.252c-0.266,-2.374 -1.288,-4.598 -2.01,-6.884c-0.772,-2.44 -1.708,-5.97 1.016,-7.336c1.116,-0.558 2.36,-0.872 2.918,-2.06c-0.172,-0.558 -0.38,-1.114 -0.616,-1.658c-1.852,-4.34 -4.318,-8.472 -7.892,-11.526c0.142,1.558 0.292,3.11 0.436,4.67c0.12,1.308 0.048,2.974 -1.166,3.488c-0.218,0.094 -0.446,0.136 -0.674,0.136c-0.678,-0 -1.38,-0.356 -1.978,-0.73c-3.56,-2.194 -6.264,-5.384 -9.188,-8.322c-5.04,-5.068 -6.85,-10.846 -7.536,-17.83c-0.342,-3.482 -0.886,-7.144 -3.074,-9.866c-2.188,-2.726 -5.77,-4.198 -7.528,-7.214c-1.294,-2.224 -1.388,-4.912 -1.882,-7.438c-0.808,-4.138 -2.802,-8.028 -5.682,-11.102c-0.088,-0.186 -0.18,-0.366 -0.266,-0.55c0.294,0.592 1.624,1.294 2.124,1.802c0.736,0.75 1.4,1.572 1.972,2.458c1.058,1.624 2.174,3.224 3.14,4.912c1.7,2.982 2.952,6.234 4.968,9.016c1.968,2.71 4.47,4.968 6.442,7.672c3.726,5.09 4.576,11.202 7.236,16.786c2.446,5.15 8.022,8.302 12.29,11.798l0.366,0.314c3.574,3.054 6.04,7.186 7.892,11.526c0.026,0.06 0.052,0.122 0.078,0.182c0.204,0.486 0.384,0.982 0.538,1.476c1.764,5.456 1.008,11.404 -1.924,16.28Zm-24.212,-47.448c-0.112,-0 -0.22,0.024 -0.32,0.076c-0.25,0.136 -0.384,0.426 -0.406,0.71c-0.152,1.954 0.632,4.57 1.574,6.262c0.174,0.312 0.444,0.658 0.788,0.658c0.026,-0 0.054,-0.002 0.082,-0.008c0.36,-0.056 0.538,-0.47 0.61,-0.828c0.382,-1.92 -0.38,-3.862 -1.126,-5.672c-0.138,-0.33 -0.28,-0.67 -0.54,-0.916c-0.176,-0.17 -0.424,-0.282 -0.662,-0.282Zm-12.72,-22.828c-1.328,-0 0.368,3.78 0.836,4.254c0.2,0.204 0.502,0.374 0.768,0.374c0.14,-0 0.268,-0.048 0.364,-0.162c0.18,-0.21 0.128,-0.528 0.056,-0.796c-0.288,-1.082 -0.726,-2.126 -1.296,-3.09c-0.158,-0.268 -0.372,-0.56 -0.684,-0.578c-0.016,-0.002 -0.03,-0.002 -0.044,-0.002Zm-19.858,67.43c-0.718,-1.022 -1.744,-1.858 -2.856,-2.442c1.112,0.584 2.132,1.408 2.856,2.442Zm-2.868,-2.448c-0.004,-0.002 -0.008,-0.004 -0.012,-0.006c0.004,0.002 0.008,0.004 0.012,0.006Zm-0.03,-0.014c-0.002,-0.002 -0.004,-0.004 -0.006,-0.004c0.002,-0 0.004,0.002 0.006,0.004Zm-97.99,-4.678l-0.006,-0l0.006,-0Zm0.01,-0c1.746,-0.006 3.778,-1.132 5.212,-2.216c-1.434,1.084 -3.466,2.212 -5.212,2.216Zm-1.916,-0.624l-0.002,-0l0.002,-0Zm7.162,-1.62c0.004,-0 0.006,-0.002 0.008,-0.004c-0.002,0.002 -0.004,0.004 -0.008,0.004Zm0.106,-0.08c0.006,-0.006 0.014,-0.01 0.02,-0.016c-0.006,0.006 -0.014,0.01 -0.02,0.016Zm13.954,-6.064c-0.022,-0.01 -0.044,-0.022 -0.066,-0.032c0.022,0.01 0.044,0.022 0.066,0.032Zm-0.068,-0.034c-0.016,-0.008 -0.03,-0.014 -0.044,-0.022c0.014,0.008 0.028,0.014 0.044,0.022Zm-6.398,-0.904c0.644,-0.246 1.298,-0.352 1.954,-0.352c-0.654,-0 -1.31,0.106 -1.954,0.352Zm1.97,-0.352l-0.012,-0l0.012,-0Zm90.952,-1.042l-0.044,-0.02c-1.616,-1.488 -3.632,-2.588 -5.72,-3.29c-3.446,-1.158 -7.136,-1.358 -10.768,-1.444c-3.638,-0.084 -7.306,-0.072 -10.86,-0.822c-1.996,-0.422 -4.19,-1.094 -5.884,-2.244c-0.822,-0.552 -1.566,-1.224 -2.21,-1.974c-0.108,-0.128 -0.328,-0.372 -0.572,-0.664c-0.02,-0.386 0.014,-0.78 0.1,-1.16c0,0.7 4.304,1.988 4.826,2.102c0.942,0.202 1.886,0.264 2.832,0.264c0.806,-0 1.614,-0.046 2.424,-0.092c1.636,-0.098 3.25,-0.164 4.856,-0.164c2.658,-0 5.294,0.182 7.97,0.708c2.618,0.514 5.206,1.286 7.514,2.616c2.31,1.33 4.406,3.768 5.536,6.184Zm-22.456,-8.24c-1.1,-0 -1.898,0.204 -1.822,0.816c0.124,0.994 1.658,1.29 3.314,1.29c1.674,-0 3.474,-0.3 4.08,-0.484c0.184,-0.056 0.396,-0.15 0.43,-0.34c0.044,-0.258 -0.274,-0.418 -0.53,-0.482c-0.63,-0.158 -3.522,-0.8 -5.472,-0.8Zm76.742,2.2c-0.436,-2.324 -0.872,-4.648 -1.3,-6.972c-0.222,-1.172 -1.138,-3.46 -0.752,-4.604c0.266,-0.78 1.188,-1.208 1.916,-1.716c-0.714,-3.524 -1.822,-6.964 -3.138,-10.302c-2.002,-5.056 -4.74,-9.782 -7.858,-14.236c0.102,2.01 -0.006,4.018 -0.3,6.006c-0.142,0.944 -0.378,1.966 -1.136,2.552c-0.394,0.306 -0.876,0.442 -1.372,0.442c-0.602,-0 -1.224,-0.2 -1.732,-0.534c-0.932,-0.6 -1.558,-1.558 -2.16,-2.488c-0.728,-1.13 -1.456,-2.26 -2.186,-3.39c-4.54,-7.062 -9.11,-14.164 -14.608,-20.534c-2.702,-3.138 -5.634,-6.092 -8.858,-8.708c-0.792,-0.644 -1.624,-1.23 -2.452,-1.816c-1.424,-0.364 -2.874,-0.694 -4.34,-1.066c1.466,0.372 2.916,0.702 4.34,1.066c2.158,0.558 4.276,1.194 6.328,2.216c10.16,5.048 18.51,13.178 25.444,22.15c1.038,1.344 2.052,2.71 3.032,4.104c3.118,4.454 5.856,9.18 7.858,14.236c1.316,3.338 2.424,6.778 3.138,10.302c0.2,0.966 0.372,1.938 0.502,2.91c0.478,3.54 1.036,7.092 -0.366,10.382Zm-28.956,-54.92c-0.132,-0 -0.256,0.032 -0.364,0.112c-0.368,0.274 -0.232,0.848 -0.038,1.262c0.546,1.164 1.428,2.09 1.996,3.222c0.91,1.812 2.112,3.474 3.55,4.898c0.25,0.246 0.562,0.502 0.896,0.502c0.052,-0 0.104,-0.006 0.156,-0.02c0.544,-0.134 0.632,-0.868 0.558,-1.424c-0.47,-3.536 -2.93,-6.716 -6.058,-8.342c-0.214,-0.11 -0.464,-0.21 -0.696,-0.21Zm-70.112,46.018c0,-0.824 -0.056,-1.668 -0.142,-2.474c-0.296,0.342 -0.772,0.54 -1.244,0.54c-0.108,0 -0.216,-0.01 -0.32,-0.032c-0.738,-0.15 -1.332,-0.716 -1.716,-1.358c-0.388,-0.644 -0.61,-1.374 -0.88,-2.074c-1.31,-3.304 -3.84,-5.942 -6.056,-8.716c-1.544,-1.938 -2.996,-4.054 -3.732,-6.442c-0.15,-0.478 -0.18,-1.722 -0.586,-2.308c-0.1,0.604 -0.148,1.216 -0.148,1.826c0,-0.61 0.048,-1.222 0.148,-1.826c0.048,-0.366 0.122,-0.73 0.214,-1.088c2.68,3.054 6.198,5.284 8.902,8.322c2.424,2.732 4.082,6.106 4.86,9.674c0.194,0.872 0.422,2.124 0.558,3.482c0.086,0.806 0.142,1.65 0.142,2.474Zm-9.856,-18.236c-0.174,0 -0.334,0.05 -0.474,0.162c-1.474,1.168 3.06,4.884 3.792,5.418c0.164,0.12 0.346,0.24 0.548,0.24l0.022,-0c0.292,-0.014 0.514,-0.302 0.55,-0.592c0.038,-0.29 -0.066,-0.578 -0.182,-0.846c-0.358,-0.822 -2.796,-4.382 -4.256,-4.382Zm35.282,16.178l-0.002,-0l0.002,-0Zm0.016,-0c4.048,-0.004 8.084,-1.262 11.478,-3.48c-3.394,2.218 -7.428,3.476 -11.478,3.48Zm-2.114,-0.114c-0.024,-0.004 -0.046,-0.006 -0.068,-0.008c0.022,0.002 0.044,0.004 0.068,0.008Zm13.638,-3.396c0.094,-0.062 0.188,-0.124 0.28,-0.186c-0.092,0.062 -0.186,0.124 -0.28,0.186Zm-89.692,-11.69c0.024,-0.012 0.048,-0.026 0.072,-0.038c-0.024,0.012 -0.048,0.026 -0.072,0.038Zm0.092,-0.05c0.014,-0.008 0.03,-0.016 0.044,-0.024c-0.014,0.008 -0.03,0.016 -0.044,0.024Zm0.046,-0.024c2.416,-1.302 4.952,-2.08 7.624,-2.082c-2.672,0.002 -5.21,0.78 -7.624,2.082Zm10.528,-1.778c-0.032,-0.008 -0.066,-0.014 -0.098,-0.02c0.032,0.006 0.066,0.012 0.098,0.02Zm-2.888,-0.304l-0.004,-0l0.004,-0Zm28.632,-12.69c0,-0.13 -0.002,-0.26 -0.006,-0.392c-0.184,-0.672 -0.428,-1.33 -0.678,-1.972c-0.544,-1.438 -1.13,-2.888 -2.11,-4.076c-1.672,-2.024 -4.274,-2.988 -6.784,-3.746c-1.66,-0.5 -3.34,-0.952 -5.026,-1.344c-1.496,-0.35 -3.004,-0.658 -4.526,-0.924c-0.858,-0.15 -1.716,-0.422 -2.582,-0.586c-0.24,0.582 -0.384,1.19 -0.384,1.782c0,-0.592 0.144,-1.2 0.384,-1.782c0.536,-1.33 1.572,-2.53 2.552,-3.174c1.286,-0.85 3.41,-1.88 5.1,-1.88c0.312,-0 0.61,0.036 0.884,0.114c0.042,0.012 0.084,0.024 0.124,0.036c3.942,1.138 7.48,3.632 9.872,6.972c2.146,2.994 3.14,6.85 3.174,10.58c0.004,0.132 0.006,0.262 0.006,0.392Zm-8.976,-14.552c-0.43,-0 -0.73,0.214 -0.556,0.908c0.082,0.326 0.296,0.602 0.516,0.856c0.704,0.816 1.532,1.54 2.51,1.99c0.214,0.098 0.466,0.174 0.7,0.174c0.202,-0 0.392,-0.058 0.528,-0.212c0.262,-0.298 0.15,-0.766 -0.026,-1.124c-0.48,-0.984 -1.292,-1.702 -2.264,-2.18c-0.334,-0.164 -0.946,-0.412 -1.408,-0.412Zm76.952,7.332c-0.852,-3.38 -2.382,-6.542 -4.312,-9.458c-0.814,-0.192 -1.694,-0.108 -2.546,-0.15c-3.546,-0.172 -6.57,-2.474 -9.53,-4.434c-3.168,-2.094 -6.55,-3.874 -10.06,-5.32c-6.228,-2.566 -12.884,-4.096 -19.612,-4.488c-0.734,-0.044 -1.462,-0.062 -2.188,-0.062c-2.614,0 -5.192,0.228 -7.822,0.29l-0.314,-0.006c-0.408,0.528 -0.7,1.122 -0.83,1.78c0.13,-0.658 0.422,-1.252 0.83,-1.78c0.63,-0.822 1.53,-1.474 2.488,-1.882c1.572,-0.678 3.318,-0.828 5.026,-0.972c3.904,-0.322 7.8,-0.644 11.698,-0.972c2.03,-0.17 4.072,-0.336 6.108,-0.336c1.24,-0 2.478,0.062 3.708,0.222c3.584,0.466 6.658,1.894 9.43,4.054c0.244,0.19 0.484,0.386 0.722,0.586c3.268,2.744 6.472,5.59 9.296,8.802c1.294,1.472 2.508,3.03 3.596,4.668c1.93,2.916 3.46,6.078 4.312,9.458Zm-26.682,-25.852c-0.492,-0 -0.92,0.112 -1.216,0.388c-0.36,0.34 -0.476,0.914 -0.274,1.366c0.218,0.484 0.72,0.766 1.192,1.01c2.72,1.41 5.478,2.748 8.268,4.01c0.312,0.142 0.636,0.284 0.978,0.292l0.026,-0c0.336,-0 0.69,-0.16 0.822,-0.466c0.176,-0.412 -0.104,-0.87 -0.386,-1.22c-1.316,-1.626 -2.992,-2.958 -4.864,-3.892c-0.894,-0.446 -3.032,-1.488 -4.546,-1.488Zm-49.002,14.326c-0.014,-0.002 -0.03,-0.006 -0.048,-0.01c0.018,0.004 0.034,0.008 0.048,0.01Zm-0.078,-0.016c-0.02,-0.006 -0.044,-0.01 -0.07,-0.016c0.026,0.006 0.05,0.01 0.07,0.016Zm-0.086,-0.018c-0.004,-0.002 -0.006,-0.002 -0.01,-0.002c0.004,-0 0.006,-0 0.01,0.002Zm-0.01,-0.002c-0.598,-0.12 -2.348,-0.432 -3.23,-0.454c-0.034,-0 -0.066,-0.002 -0.096,-0.002c0.844,-0 2.706,0.332 3.326,0.456Z" style="fill:url(#_Radial2);"/>
    <path d="M72.699,210.781c-1.788,-0.45 -3.968,-2.116 -4.54,-2.544c-1.616,-1.218 -3.674,-2.738 -4.654,-4.55c-0.314,-0.578 -0.614,-1.164 -0.9,-1.756c-1.546,-3.17 -2.812,-6.464 -5.012,-9.332c-0.744,-0.964 -1.46,-1.93 -2.138,-2.91c0.378,0.156 0.744,0.328 1.078,0.4c0.724,0.164 1.464,0.216 2.208,0.216c0.688,-0 1.38,-0.044 2.062,-0.086c1.666,-0.108 3.382,-0.214 4.876,-0.944c2.138,-1.036 3.524,-3.16 4.518,-5.312c0.994,-2.152 1.708,-4.454 3.038,-6.422c0.322,-0.482 0.766,-0.978 1.324,-1.034c0.15,0.904 0.228,1.836 0.226,2.792c0,0.402 -0.014,0.812 -0.042,1.224c-0.206,3.132 -0.978,6.192 -1.444,9.296c-0.648,4.334 -0.944,8.508 -0.946,12.728c0,2.706 0.12,5.434 0.346,8.234Z" style="fill:url(#_Radial3);"/>
    <path d="M111.605,232.305l0.008,-0l-0.008,-0Zm-0.008,-0c-3.12,-0 -6.25,-0.434 -9.27,-1.226c-5.64,-1.48 -10.91,-4.182 -15.692,-7.514c-2.478,-1.726 -4.896,-3.722 -6.768,-6.072c1.872,2.35 4.29,4.346 6.768,6.072c4.782,3.332 10.052,6.034 15.692,7.514c3.02,0.792 6.15,1.226 9.27,1.226Z" style="fill-rule:nonzero;"/>
    <path d="M119.439,231.329c0.006,-0.002 0.012,-0.004 0.016,-0.006c-0.004,0.002 -0.01,0.004 -0.016,0.006Zm0.076,-0.02c0.036,-0.01 0.072,-0.02 0.108,-0.03c3.682,-0.986 7.242,-2.772 9.724,-5.662c2.566,-2.982 3.788,-6.95 3.974,-10.882c0.022,-0.414 0.03,-0.828 0.03,-1.242c0,0.414 -0.008,0.828 -0.03,1.242c-0.186,3.932 -1.408,7.9 -3.974,10.882c-2.482,2.89 -6.042,4.676 -9.724,5.662c-0.036,0.01 -0.072,0.02 -0.108,0.03Zm-10.84,-15.764l0.01,-0l-0.01,-0Zm-0.008,-0c-0.926,-0.002 -1.85,-0.064 -2.764,-0.192c0.914,0.128 1.838,0.19 2.764,0.192Zm-2.806,-0.198c-0.086,-0.014 -0.172,-0.026 -0.258,-0.04c0.086,0.014 0.172,0.026 0.258,0.04Zm6.338,-0.096c0.084,-0.014 0.168,-0.028 0.252,-0.044c-0.084,0.016 -0.168,0.03 -0.252,0.044Zm-1.712,-6.778c-3.928,-0.004 -7.808,-1.814 -10.442,-4.736c2.634,2.922 6.514,4.732 10.442,4.736Zm-57.74,-44.156l0.01,-0l-0.01,-0Zm-0.006,-0c-0.7,-0.002 -1.352,-0.184 -1.9,-0.624c0.548,0.44 1.2,0.622 1.9,0.624Zm-1.902,-0.624c-0.008,-0.008 -0.016,-0.014 -0.024,-0.02c-0.012,-0.01 -0.024,-0.02 -0.036,-0.03c0.012,0.01 0.024,0.02 0.036,0.03c0.008,0.006 0.016,0.012 0.024,0.02Zm7.13,-1.592c0.012,-0.01 0.024,-0.018 0.034,-0.028c-0.01,0.01 -0.022,0.018 -0.034,0.028Zm0.042,-0.032c0.032,-0.026 0.066,-0.05 0.098,-0.076c-0.032,0.026 -0.066,0.05 -0.098,0.076Zm0.118,-0.092c2.702,-2.102 4.238,-5.718 7.428,-6.97c0.014,-0.006 0.026,-0.01 0.04,-0.016c-0.014,0.006 -0.026,0.01 -0.04,0.016c-3.19,1.252 -4.726,4.868 -7.428,6.97Zm13.868,-6.08c0,-0.002 -0.002,-0.002 -0.002,-0.002c0,-0 0.002,-0 0.002,0.002Zm-0.046,-0.024c-1.37,-0.672 -2.876,-1.232 -4.384,-1.234c1.508,0.002 3.014,0.562 4.384,1.234Zm-4.4,-1.234l0.004,-0l-0.004,-0Z" style="fill:url(#_Radial4);"/>
    <path d="M111.613,232.305l-0.016,-0c-3.12,-0 -6.25,-0.434 -9.27,-1.226c-5.64,-1.48 -10.91,-4.182 -15.692,-7.514c-2.478,-1.726 -4.896,-3.722 -6.768,-6.072c-1.372,-1.718 -2.45,-3.626 -3.042,-5.754c-0.554,-1.996 -0.742,-4.276 -0.742,-6.5c0,-1.228 0.058,-2.438 0.142,-3.574c0.264,-3.476 1.15,-6.906 2.63,-10.072c1.472,-3.162 3.532,-6.086 4.426,-9.458c0.286,-1.094 0.408,-2.228 0.41,-3.376c0.002,-2.572 -0.598,-5.218 -1.29,-7.616c-1.086,-3.754 -2.816,-7.322 -5.132,-10.474c-1.388,-1.88 -3.082,-3.69 -5.206,-4.74c-0.022,-0.01 -0.044,-0.022 -0.066,-0.032c0,-0.002 -0.002,-0.002 -0.002,-0.002c-0.016,-0.008 -0.03,-0.014 -0.044,-0.022c-1.37,-0.672 -2.876,-1.232 -4.384,-1.234l-0.016,-0c-0.656,-0 -1.31,0.106 -1.954,0.352c-0.014,0.006 -0.026,0.01 -0.04,0.016c-3.19,1.252 -4.726,4.868 -7.428,6.97c-0.006,0.006 -0.014,0.01 -0.02,0.016c-0.032,0.026 -0.066,0.05 -0.098,0.076c-0.002,0.002 -0.004,0.004 -0.008,0.004c-0.01,0.01 -0.022,0.018 -0.034,0.028c-1.434,1.084 -3.466,2.21 -5.212,2.216l-0.016,-0c-0.7,-0.002 -1.352,-0.184 -1.9,-0.624l-0.002,-0c-0.008,-0.008 -0.016,-0.014 -0.024,-0.02c-0.012,-0.01 -0.024,-0.02 -0.036,-0.03c-2.142,-1.78 -3.262,-4.556 -3.604,-7.322l-0.028,-0.278c0.658,1.43 2.172,2.588 3.788,2.782c0.24,0.028 0.48,0.042 0.718,0.042c2.292,-0 4.472,-1.286 6.26,-2.788c1.966,-1.652 3.698,-3.632 5.942,-4.89c1.702,-0.95 3.584,-1.38 5.492,-1.38c4.27,-0 8.67,2.162 11.468,5.512c4.04,4.84 5.232,11.512 4.954,17.818c-0.278,6.298 -1.872,12.47 -2.76,18.708c-0.88,6.25 -1.008,12.842 1.494,18.634c3.346,7.758 11.018,12.954 19.076,15.494c2.93,0.924 5.618,1.544 8.336,1.544c2.224,-0 4.468,-0.416 6.878,-1.422c1.566,-0.66 3.096,-1.496 4.298,-2.696c1.348,-1.35 3.956,-8.452 0.452,-8.452c-0.23,-0 -0.484,0.03 -0.766,0.094c-1.646,0.372 -3.182,1.264 -4.848,1.638c-1.35,0.302 -2.73,0.45 -4.112,0.45c-2.83,-0 -5.658,-0.624 -8.214,-1.824c0.086,0.014 0.172,0.026 0.258,0.04c0.014,0.002 0.028,0.004 0.042,0.006c0.914,0.128 1.838,0.19 2.764,0.192l0.018,-0c1.178,-0.002 2.356,-0.102 3.514,-0.294c0.084,-0.014 0.168,-0.028 0.252,-0.044c3.204,-0.572 6.436,-1.938 8.372,-4.554c1.184,-1.598 1.794,-3.59 1.796,-5.578c0,-0.584 -0.052,-1.166 -0.158,-1.736c-0.464,-2.532 -1.936,-4.84 -3.968,-6.416c0.334,1.418 0.67,2.898 0.67,4.34c0,0.836 -0.114,1.662 -0.406,2.454c-1.094,2.966 -4.446,4.576 -7.606,4.74c-0.216,0.012 -0.432,0.016 -0.648,0.016l-0.016,-0c-3.928,-0.004 -7.808,-1.814 -10.442,-4.736c-0.04,-0.044 -0.08,-0.09 -0.12,-0.136c-0.95,-1.078 -1.73,-2.3 -2.338,-3.6c1.28,1.264 2.86,2.23 4.584,2.758c1.046,0.318 2.136,0.474 3.23,0.474c2.47,-0 4.948,-0.792 6.922,-2.29c1.916,-1.466 2.324,-3.41 3.146,-5.618c0.114,-0.316 0.242,-0.652 0.522,-0.844c0.174,-0.128 0.374,-0.178 0.584,-0.178c0.334,-0 0.69,0.126 1.002,0.262c2.49,1.074 4.204,2.302 5.412,4.834c0.794,1.652 1.26,3.426 1.81,5.162c0.458,1.416 1.252,3.052 2.732,3.196c0.064,0.006 0.126,0.008 0.19,0.008c1.276,-0 2.298,-1.22 2.74,-2.454c0.38,-1.056 0.516,-2.216 0.93,-3.252c0.108,0.35 0.2,0.694 0.3,1.042c0.94,3.39 1.658,6.882 1.66,10.392c0,0.414 -0.008,0.828 -0.03,1.242c-0.186,3.932 -1.408,7.9 -3.974,10.882c-2.482,2.89 -6.042,4.676 -9.724,5.662c-0.036,0.01 -0.072,0.02 -0.108,0.03c-0.02,0.004 -0.04,0.01 -0.06,0.014c-0.004,0.002 -0.01,0.004 -0.016,0.006c-2.552,0.666 -5.186,0.976 -7.826,0.976Z" style="fill:url(#_Radial5);"/>
    <path d="M163.089,225.341c-2.802,-0.004 -5.638,-0.962 -7.694,-2.866c2.056,1.904 4.892,2.862 7.694,2.866Zm-2.992,-9.266l0.008,-0l-0.008,-0Zm-0.008,-0c-1.204,-0.002 -2.358,-0.48 -2.982,-1.504c0.622,1.024 1.778,1.502 2.982,1.504Zm2.928,-1.026c0.01,-0.006 0.018,-0.014 0.026,-0.022c1.724,-1.472 2.332,-3.88 2.446,-6.148c0.016,-0.312 0.024,-0.622 0.024,-0.934c0,0.312 -0.008,0.622 -0.024,0.934c-0.114,2.268 -0.722,4.676 -2.446,6.148c-0.008,0.008 -0.016,0.016 -0.026,0.022Zm12.512,-0.768c0,-1.43 -0.132,-2.9 -0.246,-4.344c-0.4,-5.048 -1.628,-10.044 -3.902,-14.586c-0.816,-1.636 -1.78,-3.202 -2.874,-4.668c-2.368,-3.186 -5.342,-5.948 -8.752,-7.986c-0.024,-0.014 -0.046,-0.026 -0.07,-0.042c0.024,0.016 0.046,0.028 0.07,0.042c3.41,2.038 6.384,4.8 8.752,7.986c1.094,1.466 2.058,3.032 2.874,4.668c2.274,4.542 3.502,9.538 3.902,14.586c0.114,1.444 0.246,2.914 0.246,4.344Zm-22.83,-0.272c0.002,-0.008 0.006,-0.018 0.008,-0.028c-0.002,0.01 -0.006,0.02 -0.008,0.028Zm0.01,-0.034c0.002,-0.012 0.006,-0.024 0.01,-0.036c-0.004,0.012 -0.008,0.024 -0.01,0.036Zm2.58,-2.114c-0.148,-0.052 -0.296,-0.076 -0.44,-0.076c0.144,-0 0.29,0.024 0.44,0.076Zm-0.454,-0.076l0.012,-0l-0.012,-0Zm-21.91,-24.994l0.016,-0l-0.016,-0Zm-0.004,-0c-0.338,-0 -0.678,-0.032 -1.014,-0.098c0.336,0.066 0.676,0.098 1.014,0.098Zm3.426,-0.896c0.052,-0.026 0.104,-0.052 0.156,-0.078c1.43,-0.75 2.69,-1.776 4.02,-2.682c2.294,-1.574 4.84,-2.84 7.578,-3.362c-2.738,0.522 -5.284,1.788 -7.578,3.362c-1.33,0.906 -2.59,1.932 -4.02,2.682c-0.052,0.026 -0.104,0.052 -0.156,0.078Zm23.272,-3.276c-0.002,-0.004 -0.004,-0.006 -0.006,-0.006c0.002,-0 0.004,0.002 0.006,0.006Zm-0.082,-0.052c-2.89,-1.704 -5.852,-3.008 -9.118,-3.012c3.266,0.004 6.228,1.308 9.118,3.012Zm-11.372,-2.806c0.006,-0 0.01,-0.002 0.014,-0.002c-0.004,-0 -0.008,0.002 -0.014,0.002Zm2.242,-0.206l0.004,-0l-0.004,-0Zm-95.096,-51.738c-0.008,-0.08 -0.018,-0.162 -0.028,-0.246c0.01,0.084 0.02,0.166 0.028,0.246c0,-0.988 1.652,-2.888 2.202,-3.59c0.924,-1.158 2.16,-2.088 3.462,-2.81c0.012,-0.006 0.024,-0.014 0.036,-0.02c-0.012,0.006 -0.024,0.014 -0.036,0.02c-1.302,0.722 -2.538,1.652 -3.462,2.81c-0.55,0.702 -2.202,2.602 -2.202,3.59Zm5.772,-6.458c0.006,-0.004 0.012,-0.008 0.02,-0.012c-0.008,0.004 -0.014,0.008 -0.02,0.012Zm0.064,-0.036l0.002,-0l-0.002,-0Zm10.432,-1.798c-0.946,-0.192 -1.876,-0.284 -2.79,-0.284c0.914,-0 1.844,0.092 2.79,0.284Zm-2.806,-0.284l0.012,-0l-0.012,-0Z" style="fill:url(#_Radial6);"/>
    <path d="M148.559,228.305c-4.52,-2.538 -7.922,-7.194 -9.06,-12.318c-0.32,-1.456 -0.476,-2.932 -0.478,-4.408c-0.002,-1.344 0.122,-2.69 0.364,-4.022c0.364,1.53 0.916,3.018 1.602,4.39c0.808,1.622 2.094,3.274 3.904,3.468c0.176,0.018 0.34,0.026 0.492,0.026c1.81,-0 2.17,-1.238 3.048,-2.622c1.192,-1.888 3.08,-3.482 4.996,-4.598c0.578,-0.33 1.228,-0.634 1.878,-0.634c0.162,-0 0.326,0.018 0.488,0.062c1.488,0.4 1.918,2.466 3.332,3.068c0.248,0.104 0.508,0.152 0.77,0.152c0.882,-0 1.78,-0.546 2.298,-1.296c0.672,-0.974 0.844,-2.196 0.936,-3.376c0.216,-2.744 0.102,-5.512 -0.342,-8.228c1.764,3.004 2.73,6.488 2.726,9.976c0,0.312 -0.008,0.622 -0.024,0.934c-0.114,2.268 -0.722,4.676 -2.446,6.148c-0.008,0.008 -0.016,0.016 -0.026,0.022c-0.798,0.668 -1.872,1.024 -2.912,1.026l-0.016,-0c-1.204,-0.002 -2.36,-0.48 -2.982,-1.504c-0.006,-0.01 -0.012,-0.02 -0.018,-0.03c-0.566,-0.944 -0.744,-2.3 -1.78,-2.674c-0.008,-0.002 -0.014,-0.004 -0.02,-0.006c-0.15,-0.052 -0.296,-0.076 -0.44,-0.076l-0.014,-0c-0.976,0.008 -1.818,1.106 -2.116,2.154c-0.004,0.012 -0.008,0.024 -0.01,0.036c-0.002,0.002 -0.002,0.004 -0.002,0.006c-0.002,0.01 -0.006,0.02 -0.008,0.028c-0.002,0.01 -0.006,0.022 -0.008,0.032c-0.156,0.612 -0.23,1.238 -0.23,1.866c-0.002,2.344 1.03,4.698 2.712,6.356c0.072,0.072 0.146,0.144 0.222,0.212c2.056,1.904 4.892,2.862 7.694,2.866l0.018,-0c0.09,-0 0.178,-0.002 0.266,-0.002c2.996,-0.066 5.912,-1.16 8.422,-2.804c3.058,-2.002 3.732,-5.022 3.734,-8.254c0,-1.43 -0.132,-2.9 -0.246,-4.344c-0.4,-5.048 -1.628,-10.044 -3.902,-14.586c-0.816,-1.636 -1.78,-3.202 -2.874,-4.668c-2.368,-3.186 -5.342,-5.948 -8.752,-7.986c-0.024,-0.014 -0.046,-0.026 -0.07,-0.042c-0.022,-0.01 -0.044,-0.026 -0.066,-0.036c-0.002,-0.004 -0.004,-0.006 -0.006,-0.006c-0.026,-0.016 -0.052,-0.028 -0.076,-0.046c-2.89,-1.704 -5.852,-3.008 -9.118,-3.012l-0.012,-0c-0.726,-0 -1.468,0.064 -2.228,0.204c-0.004,-0 -0.008,0.002 -0.014,0.002c-0.02,0.004 -0.042,0.008 -0.064,0.012c-2.738,0.522 -5.284,1.788 -7.578,3.362c-1.33,0.906 -2.59,1.932 -4.02,2.682c-0.052,0.026 -0.104,0.052 -0.156,0.078c-1.06,0.53 -2.234,0.89 -3.406,0.896l-0.02,-0c-0.338,-0 -0.678,-0.032 -1.014,-0.098c-0.022,-0.004 -0.044,-0.006 -0.066,-0.014c-1.53,-0.32 -2.802,-1.32 -4.11,-2.18c-3.382,-2.238 -7.314,-3.648 -11.354,-4.07c-3.854,-0.4 -7.95,-1.05 -11.31,-3.1c-2.41,-1.482 -4.442,-3.934 -4.992,-6.758c-0.074,-0.378 -0.1,-0.744 -0.1,-1.104c0.002,-0.922 0.184,-1.804 0.216,-2.75c0.004,-0.18 0.008,-0.36 0.008,-0.542c-0.002,-1.604 -0.214,-3.284 -0.31,-4.876c-0.742,-11.934 -5.654,-23.566 -13.684,-32.418c-3.932,-4.34 -8.8,-8.122 -14.528,-9.336c-0.032,-0.008 -0.066,-0.014 -0.098,-0.02c-0.946,-0.192 -1.876,-0.284 -2.79,-0.284l-0.016,-0c-2.672,0.002 -5.208,0.78 -7.624,2.082l-0.002,-0c-0.014,0.008 -0.03,0.016 -0.044,0.024c-0.008,0.004 -0.014,0.008 -0.02,0.012c-0.024,0.012 -0.048,0.026 -0.072,0.038c-0.012,0.006 -0.024,0.014 -0.036,0.02c-1.302,0.722 -2.538,1.652 -3.462,2.81c-0.55,0.702 -2.202,2.602 -2.202,3.59c-0.008,-0.08 -0.018,-0.162 -0.028,-0.246c-0.106,-0.856 -0.304,-1.806 -0.304,-2.678c0,-0.198 0.008,-0.392 0.032,-0.58c0.122,-0.986 0.686,-2.132 1.03,-3.068c0.15,-0.414 0.308,-0.822 0.464,-1.23l0,-0.006c2.56,-1.766 5.092,-3.29 8.552,-4.026c1.67,-0.352 3.454,-0.532 5.266,-0.532c4.258,-0 8.668,1 12.128,3.142c3.182,1.966 5.298,5.226 7.308,8.372c5.99,9.41 12.196,19.534 12.012,30.686c-0.13,7.774 -1.682,18.168 8.622,19.368c3.116,0.366 6.328,0.008 9.366,0.798c3.402,0.882 6.292,3.138 9.602,4.322c1.134,0.41 2.14,0.578 3.086,0.578c2.24,-0 4.132,-0.952 6.532,-1.964c3.23,-1.366 6.926,-2.858 10.388,-3.496c0.91,-0.164 1.832,-0.248 2.756,-0.248c4.5,-0 9.004,1.92 12.036,5.258c2.06,2.268 3.468,5.114 5.748,7.152c1.368,1.218 3.24,2.018 4.904,2.018c1.79,-0 3.336,-0.926 3.748,-3.25c3.18,5.942 4.904,12.498 6.134,19.12l-0.058,0.022c-0.158,0.058 -0.318,0.082 -0.478,0.082c-0.798,-0 -1.612,-0.604 -2.452,-0.604c-1.43,0.006 -2.23,1.636 -2.588,3.024c-0.908,3.61 -1.144,7.5 -3.076,10.68c-1.922,3.174 -5.376,5.25 -9.008,6.036c-1.332,0.286 -2.688,0.414 -4.046,0.414c-2.346,-0 -4.702,-0.38 -6.978,-0.972c-1.13,-0.294 -2.26,-0.642 -3.426,-0.65c-0.02,-0.002 -0.038,-0.002 -0.058,-0.002c-1.148,-0 -2.356,0.388 -3.052,1.302c-0.37,0.478 -0.622,1.11 -0.914,1.666Z" style="fill:url(#_Radial7);"/>
    <path d="M154.601,173.709c-0.168,-0.7 -0.388,-1.346 -0.774,-1.962c-0.06,-0.098 -0.124,-0.196 -0.192,-0.29c0.476,0.676 0.82,1.432 0.966,2.252Zm-3.822,-4.694c-0.004,-0.002 -0.008,-0.004 -0.012,-0.006c0.004,0.002 0.008,0.004 0.012,0.006Zm-0.024,-0.012c-0.006,-0.002 -0.012,-0.006 -0.018,-0.008c0.006,0.002 0.012,0.006 0.018,0.008Zm-0.024,-0.012c-0.01,-0.006 -0.018,-0.01 -0.028,-0.014c-3.346,-1.71 -6.62,-1.386 -10.21,-1.48c-3.946,-0.108 -7.9,-0.508 -11.776,-1.294c-4.512,-0.922 -8.974,-2.782 -12.118,-6.15c-1.36,-1.444 -2.416,-3.21 -3.068,-5.09c0.652,1.88 1.708,3.646 3.068,5.09c3.144,3.368 7.606,5.228 12.118,6.15c3.876,0.786 7.83,1.186 11.776,1.294c3.59,0.094 6.864,-0.23 10.21,1.48c0.01,0.004 0.018,0.008 0.028,0.014Z" style="fill:url(#_Radial8);"/>
    <path d="M155.527,174.539c-0.37,-0 -0.666,-0.254 -0.826,-0.56l-0.1,-0.27c-0.146,-0.82 -0.49,-1.576 -0.966,-2.252c-0.724,-1.034 -1.744,-1.858 -2.856,-2.442l-0.024,-0.012c-0.006,-0.002 -0.012,-0.006 -0.018,-0.008c-0.002,-0.002 -0.004,-0.004 -0.006,-0.004c-0.01,-0.006 -0.018,-0.01 -0.028,-0.014c-3.346,-1.71 -6.62,-1.386 -10.21,-1.48c-3.946,-0.108 -7.9,-0.508 -11.776,-1.294c-4.512,-0.922 -8.974,-2.782 -12.118,-6.15c-1.36,-1.444 -2.416,-3.21 -3.068,-5.09c2.438,2.546 5.812,4.204 9.258,5.128c4.362,1.164 8.916,1.306 13.408,1.708c6.218,0.554 12.628,1.878 17.384,6.224c1.32,1.206 2.394,2.728 2.836,4.46c0.098,0.374 0.162,0.768 0.084,1.146c-0.078,0.38 -0.328,0.742 -0.696,0.864c-0.096,0.03 -0.188,0.046 -0.278,0.046Z" style="fill:url(#_Radial9);"/>
    <path d="M191.951,210.503l-0.016,-0c0.258,-0.422 0.744,-1.33 0.788,-1.452c0.206,-0.65 0.228,-1.258 0.228,-1.916c0,-0.912 0.03,-1.816 0.03,-2.722c0,-0.6 -0.014,-1.2 -0.058,-1.804c-0.222,-3.06 -0.908,-6.092 -2.06,-8.936c-1.38,-3.426 -3.968,-6.192 -6.5,-8.864c-3.988,-4.234 -8.564,-8.626 -14.27,-10.27c-0.694,-0.436 -1.336,-0.938 -1.744,-1.644c0.194,-0.014 0.388,-0.022 0.58,-0.022c1.556,-0 3.092,0.446 4.51,1.102c2.118,0.986 3.94,2.402 5.784,3.79c2.532,1.896 5.006,3.948 7.908,5.246c0.36,0.16 0.746,0.308 1.128,0.308c0.12,-0 0.24,-0.016 0.358,-0.05c0.896,-0.252 1.158,-1.364 1.224,-2.294c0.058,-0.894 0.15,-1.952 0.908,-2.424c1.136,1.646 2.146,3.374 3.024,5.168c1.322,2.696 2.338,5.542 2.98,8.472c0.352,1.572 0.51,3.126 0.608,4.676c-0.328,0.258 -0.764,0.388 -1.17,0.522c-0.666,0.23 -1.132,0.58 -1.374,1.252c-0.194,0.542 -0.2,1.128 -0.222,1.702c-0.1,3.074 -0.644,6.128 -1.616,9.044c-0.168,0.51 -0.542,1.116 -1.028,1.116Z" style="fill:url(#_Radial10);"/>
    <path d="M97.395,107.539c-0.836,-4.448 -4.704,-7.778 -8.88,-9.516c-4.176,-1.73 -8.744,-1.252 -13.156,-2.238c-0.024,-0.162 -0.034,-0.326 -0.034,-0.492c0,-0.592 0.144,-1.2 0.384,-1.782c0.866,0.164 1.724,0.436 2.582,0.586c1.522,0.266 3.03,0.574 4.526,0.924c1.686,0.392 3.366,0.844 5.026,1.344c2.51,0.758 5.112,1.722 6.784,3.746c0.98,1.188 1.566,2.638 2.11,4.076c0.25,0.642 0.494,1.3 0.678,1.972c0.004,0.132 0.006,0.262 0.006,0.392c0,0.33 -0.012,0.66 -0.026,0.988Z" style="fill:url(#_Radial11);"/>
    <path d="M139.163,136.597l0.016,-0l-0.016,-0Zm-0.002,-0c-0.7,-0 -1.4,-0.038 -2.096,-0.114c0.696,0.076 1.396,0.114 2.096,0.114Zm11.496,-3.48c0.014,-0.01 0.032,-0.02 0.046,-0.03c-0.014,0.01 -0.032,0.02 -0.046,0.03Zm0.326,-0.216c0.014,-0.01 0.028,-0.02 0.042,-0.03c1.91,-1.302 3.632,-2.932 4.754,-4.948c0.78,-1.41 1.246,-3.026 1.244,-4.63c0.002,1.604 -0.464,3.22 -1.244,4.63c-1.122,2.016 -2.844,3.646 -4.754,4.948c-0.014,0.01 -0.028,0.02 -0.042,0.03Zm-61.318,-45.106c-0.01,-0.002 -0.02,-0.004 -0.03,-0.006c0.01,0.002 0.02,0.004 0.03,0.006Zm-0.1,-0.022c-0.006,-0 -0.012,-0.002 -0.016,-0.002c0.004,-0 0.01,0.002 0.016,0.002Z" style="fill:url(#_Radial12);"/>
    <path d="M139.179,136.597l-0.018,-0c-0.7,-0 -1.4,-0.038 -2.096,-0.114c-0.024,-0.004 -0.046,-0.006 -0.068,-0.008c-4.74,-0.538 -9.116,-2.802 -13.062,-5.484c-6.336,-4.318 -11.856,-9.824 -16.188,-16.144c-1.068,-1.556 -2.092,-3.3 -2.09,-5.16c0.002,-0.158 0.008,-0.316 0.024,-0.474c0.158,-1.594 1.116,-2.996 1.63,-4.512c0.18,-0.524 0.258,-1.014 0.258,-1.48c0.002,-1.872 -1.276,-3.334 -2.468,-4.92c-1.73,-2.3 -3.824,-4.324 -6.17,-5.99c-1.88,-1.344 -3.932,-2.452 -6.09,-3.274c-1.052,-0.402 -2.032,-0.966 -3.126,-1.232l-0.002,-0c-0.014,-0.002 -0.03,-0.006 -0.048,-0.01c-0.01,-0.002 -0.02,-0.004 -0.03,-0.006c-0.02,-0.006 -0.044,-0.01 -0.07,-0.016c-0.006,-0 -0.012,-0.002 -0.016,-0.002c-0.004,-0.002 -0.006,-0.002 -0.01,-0.002c-0.62,-0.124 -2.482,-0.456 -3.326,-0.456l-0.002,-0c-0.246,0.002 -0.406,0.03 -0.42,0.1c0.234,-1.072 0.728,-2.06 1.394,-2.932l0.328,0.036c1.852,0.236 3.746,0.994 5.492,1.66c4.226,1.616 8.15,4.002 11.532,7.006c1.752,1.558 3.202,3.452 4.718,5.254l0.352,0.43c1.458,1.788 2.738,3.754 3.418,5.984c0.212,0.686 0.364,1.416 0.256,2.13c-0.108,0.716 -0.522,1.416 -1.18,1.716c-1,0.45 -2.36,-0.078 -3.174,0.666c-0.816,0.728 -0.408,2.066 0.114,3.03c2.824,5.228 7.4,9.832 11.74,13.814c3.196,2.932 6.686,5.648 10.718,7.236c2.174,0.852 4.534,1.346 6.868,1.346c1.996,-0 3.97,-0.36 5.794,-1.168c3.962,-1.758 6.986,-5.876 6.728,-10.202c-0.078,-1.366 -0.464,-2.71 -0.4,-4.074c0.072,-1.36 0.758,-2.84 2.066,-3.24l0.386,-0.078c1.758,1.386 3.224,3.08 3.81,5.218c0.186,0.67 0.272,1.358 0.272,2.048c0.002,1.604 -0.464,3.22 -1.244,4.63c-1.122,2.016 -2.844,3.646 -4.754,4.948c-0.014,0.01 -0.028,0.02 -0.042,0.03c-0.092,0.062 -0.186,0.124 -0.28,0.186c-0.014,0.01 -0.032,0.02 -0.046,0.03c-3.394,2.218 -7.43,3.476 -11.478,3.48Z" style="fill:url(#_Radial13);"/>
    <path d="M200.157,198.319c0.086,-0.278 0.156,-0.558 0.23,-0.828c0.4,-1.616 0.568,-3.31 0.568,-5.036c0,-4.084 -0.938,-8.336 -1.912,-12.094c-1.338,-5.18 -3.74,-10.234 -8.172,-13.45c-3.168,-2.288 -7.022,-3.374 -10.524,-5.112c-4.784,-2.38 -9.682,-5.062 -13.472,-8.908c-3.212,-3.26 -5.576,-7.652 -5.58,-12.188c0,-0.47 0.024,-0.94 0.076,-1.412c0.328,-2.966 1.666,-5.72 2.36,-8.622c0.224,-0.942 0.33,-1.808 0.33,-2.636c0.004,-1.79 -0.486,-3.408 -1.346,-5.236c-1.066,-2.26 -1.88,-4.454 -3.36,-6.542c-3.088,-4.332 -7.286,-7.814 -11.862,-10.502c-6.684,-3.94 -14.158,-6.306 -21.528,-8.738c-6.808,-2.246 -13.9,-4.068 -20.034,-7.722c-0.836,-0.792 -1.602,-1.652 -2.288,-2.566c15.372,2.86 30.38,7.722 44.508,14.42c5.334,2.532 10.754,5.756 14.248,10.61c2.79,3.862 4.906,7.874 5.7,12.634c0.286,1.73 0.364,3.654 -0.672,5.07c-0.522,0.708 -1.28,1.216 -1.874,1.866c-2.48,2.724 -1.738,6.42 -1.438,9.702c0.302,3.268 1.688,6.412 3.734,8.958c3.252,4.04 7.57,5.748 11.962,8.13c4.868,2.638 9.48,5.734 13.762,9.228c0.616,0.508 1.238,1.032 1.986,1.282c0.272,0.092 0.566,0.144 0.858,0.144c0.512,-0 1.016,-0.158 1.366,-0.522c0.164,-0.166 0.306,-0.38 0.53,-0.43l0.322,0.034c1.838,2.862 3.246,6 4.254,9.248c1.002,3.208 1.616,6.534 1.952,9.88c-1.266,0.608 -2.138,2.066 -2.432,3.502c-0.37,1.816 -0.098,3.71 -0.328,5.556c-0.036,0.3 -0.094,0.608 -0.172,0.908c-0.636,0.442 -1.66,1.064 -1.752,1.372Z" style="fill:url(#_Radial14);"/>
    <path d="M208.301,177.213c-2.352,-10.41 -7.578,-20.154 -14.956,-27.87c-2.696,-2.816 -6.2,-5.484 -8.11,-8.93c-1.864,-3.382 -2.494,-7.284 -2.758,-11.096c-0.066,-0.85 -0.1,-1.724 -0.166,-2.602c-0.206,-3.052 -0.65,-6.114 -2.966,-8.372c-1.708,-1.666 -3.824,-2.538 -5.212,-4.568c-1.238,-1.81 -1.902,-3.948 -2.36,-6.07c-1.28,-5.9 -3.56,-11.618 -6.204,-17.074c2.88,3.074 4.874,6.964 5.682,11.102c0.494,2.526 0.588,5.214 1.882,7.438c1.758,3.016 5.34,4.488 7.528,7.214c2.188,2.722 2.732,6.384 3.074,9.866c0.686,6.984 2.496,12.762 7.536,17.83c2.924,2.938 5.628,6.128 9.188,8.322c0.598,0.374 1.3,0.73 1.978,0.73c0.228,-0 0.456,-0.042 0.674,-0.136c1.214,-0.514 1.286,-2.18 1.166,-3.488c-0.144,-1.56 -0.294,-3.112 -0.436,-4.67c3.574,3.054 6.04,7.186 7.892,11.526c0.236,0.544 0.444,1.1 0.616,1.658c-0.558,1.188 -1.802,1.502 -2.918,2.06c-2.724,1.366 -1.788,4.896 -1.016,7.336c0.722,2.286 1.744,4.51 2.01,6.884c-0.614,1.024 -1.322,1.996 -2.124,2.91Z" style="fill:url(#_Radial15);"/>
    <path d="M158.475,153.577c-3.596,-1.81 -7.7,-2.302 -11.726,-2.432c-4.04,-0.128 -8.094,0.094 -12.104,-0.4c-3.89,-0.48 -9.352,-1.83 -11.562,-5.49c-0.386,-0.636 -0.594,-1.38 -0.622,-2.116c0.244,0.292 0.464,0.536 0.572,0.664c0.644,0.75 1.388,1.422 2.21,1.974c1.694,1.15 3.888,1.822 5.884,2.244c3.554,0.75 7.222,0.738 10.86,0.822c3.632,0.086 7.322,0.286 10.768,1.444c2.088,0.702 4.104,1.802 5.72,3.29Z" style="fill:url(#_Radial16);"/>
    <path d="M212.041,149.015c0.028,-0.276 0.04,-0.548 0.04,-0.82c0.002,-0.752 -0.102,-1.488 -0.284,-2.204c-0.09,-0.348 -0.196,-0.692 -0.32,-1.03c-1.038,-2.782 -3.204,-5.262 -5.134,-7.322c-3.018,-3.21 -6.272,-6.206 -8.994,-9.68c-4.79,-6.114 -7.702,-13.448 -11.448,-20.248c-5.772,-10.472 -13.64,-19.78 -23,-27.226c-0.124,-0.098 -0.248,-0.196 -0.372,-0.294c1.466,0.372 2.916,0.702 4.34,1.066c0.828,0.586 1.66,1.172 2.452,1.816c3.224,2.616 6.156,5.57 8.858,8.708c5.498,6.37 10.068,13.472 14.608,20.534c0.73,1.13 1.458,2.26 2.186,3.39c0.602,0.93 1.228,1.888 2.16,2.488c0.508,0.334 1.13,0.534 1.732,0.534c0.496,-0 0.978,-0.136 1.372,-0.442c0.758,-0.586 0.994,-1.608 1.136,-2.552c0.294,-1.988 0.402,-3.996 0.3,-6.006c3.118,4.454 5.856,9.18 7.858,14.236c1.316,3.338 2.424,6.778 3.138,10.302c-0.728,0.508 -1.65,0.936 -1.916,1.716c-0.386,1.144 0.53,3.432 0.752,4.604c0.428,2.324 0.864,4.648 1.3,6.972c-0.206,0.492 -0.464,0.98 -0.764,1.458Z" style="fill:url(#_Radial17);"/>
    <path d="M112.523,143.387c-0.758,-4.826 -3.218,-8.65 -6.206,-12.432c-1.136,-1.438 -2.302,-2.86 -3.376,-4.354c-1.272,-1.78 -2.672,-2.988 -3.402,-5.17c-0.412,-1.224 -0.628,-2.518 -0.626,-3.814c0,-0.61 0.048,-1.222 0.148,-1.826c0.406,0.586 0.436,1.83 0.586,2.308c0.736,2.388 2.188,4.504 3.732,6.442c2.216,2.774 4.746,5.412 6.056,8.716c0.27,0.7 0.492,1.43 0.88,2.074c0.384,0.642 0.978,1.208 1.716,1.358c0.104,0.022 0.212,0.032 0.32,0.032c0.472,0 0.948,-0.198 1.244,-0.54c0.086,0.806 0.142,1.65 0.142,2.474c0,1.916 -0.298,3.728 -1.214,4.732Z" style="fill:url(#_Radial18);"/>
    <path d="M141.365,129.311l-0.12,-0c0.522,-0.166 1.008,-0.394 1.458,-0.708c1.446,-1.032 2.106,-2.804 2.104,-4.608c0,-0.896 -0.164,-1.802 -0.474,-2.628c-0.922,-2.472 -2.862,-4.408 -4.754,-6.262c0.564,0.562 0.832,1.348 0.832,2.146c0,0.744 -0.232,1.496 -0.674,2.094c-0.866,1.164 -2.352,1.746 -3.812,1.746c-0.108,-0 -0.216,-0.004 -0.322,-0.01c-1.552,-0.1 -3.018,-0.794 -4.29,-1.688c-2.346,-1.636 -4.184,-3.988 -5.206,-6.67c-0.2,-0.522 -0.35,-1.094 -0.428,-1.666c0.1,0.23 0.186,0.408 0.228,0.5c0.464,1.016 1.116,1.71 1.838,2.532c1.43,1.616 2.938,2.946 4.948,3.832c0.72,0.322 1.824,0.68 2.838,0.68c0.828,-0 1.594,-0.238 2.038,-0.93c0.772,-1.208 0.186,-3.668 -0.086,-4.918c0.15,0.692 1.23,0.72 1.752,0.9c0.852,0.286 1.674,0.708 2.416,1.216c1.446,0.986 2.64,2.35 3.39,3.932c1.302,2.73 1.558,7.134 -0.722,9.444c-0.774,0.786 -1.84,1.066 -2.954,1.066Z" style="fill:url(#_Radial19);"/>
    <path d="M165.397,99.331c-2.01,-3.024 -5.162,-5.062 -8.238,-7.006c-7.986,-5.062 -16.028,-10.754 -25.404,-12.776c-4.568,-0.988 -9.222,-1.782 -13.87,-2.296l-0.222,-0.028c-1.63,-0.176 -3.268,-0.344 -4.89,-0.344c-1.392,-0 -2.774,0.124 -4.124,0.472c-0.156,0.04 -0.312,0.084 -0.466,0.13c0.13,-0.658 0.422,-1.252 0.83,-1.78l0.314,0.006c2.63,-0.062 5.208,-0.29 7.822,-0.29c0.726,0 1.454,0.018 2.188,0.062c6.728,0.392 13.384,1.922 19.612,4.488c3.51,1.446 6.892,3.226 10.06,5.32c2.96,1.96 5.984,4.262 9.53,4.434c0.852,0.042 1.732,-0.042 2.546,0.15c1.93,2.916 3.46,6.078 4.312,9.458Z" style="fill:url(#_Radial20);"/>
    <path d="M150.051,202.001c-0.346,-0 -0.692,-0.022 -1.034,-0.074c-0.952,-0.15 -1.902,-0.584 -2.472,-1.362c-2.342,-3.206 2.284,-6.338 4.758,-7.388c0.506,-0.214 1.08,-0.314 1.682,-0.314c2.658,-0 5.818,1.964 5.688,4.66c-0.07,1.468 -1.188,2.718 -2.502,3.37c-1.314,0.652 -2.808,0.818 -4.266,0.974c-0.616,0.066 -1.236,0.134 -1.854,0.134Zm-46.334,-6.912c-0.364,-0 -0.726,-0.036 -1.086,-0.118c-1.696,-0.386 -3.09,-1.862 -3.38,-3.576c-0.546,-3.236 2.222,-5.964 5.204,-5.964c0.626,-0 1.26,0.12 1.876,0.382c1.722,0.728 3.016,2.282 3.676,4.03c0.308,0.814 0.48,1.754 0.106,2.538c-0.436,0.914 -1.466,1.354 -2.412,1.716c-1.28,0.494 -2.636,0.992 -3.984,0.992Zm10.192,-4.774c-0.206,-0 -0.39,-0.016 -0.52,-0.044c-0.6,-0.124 -1.076,-0.852 -1.396,-1.534c-0.14,-0.302 -0.252,-0.59 -0.328,-0.816c-0.076,-0.222 -0.138,-0.452 -0.11,-0.682c0.048,-0.394 0.28,-0.548 0.608,-0.548c1.034,-0 3.038,1.524 3.366,1.976c0.194,0.266 0.366,0.6 0.266,0.918c-0.168,0.54 -1.172,0.73 -1.886,0.73Zm-47.806,-14.522c-0.29,-0 -0.56,-0.02 -0.798,-0.06c-0.67,-0.114 -1.32,-0.512 -1.594,-1.136c-0.784,-1.776 0.994,-5.952 3.18,-5.952c0.328,-0 0.668,0.094 1.008,0.306c0.726,0.454 1.21,1.206 1.62,1.956c0.57,1.042 1.038,2.354 0.42,3.366c-0.646,1.056 -2.458,1.52 -3.836,1.52Zm113.548,-4.134c-0.476,-0 -0.958,-0.368 -1.38,-0.66c-2.328,-1.612 -5.738,-1.274 -7.754,-3.262c-0.502,-0.496 -0.86,-1.38 -0.34,-1.858c0.23,-0.214 0.56,-0.262 0.882,-0.262c0.066,-0 0.13,0.002 0.194,0.004c3.272,0.144 5.258,1.894 7.926,3.438c0.474,0.276 0.96,0.598 1.2,1.09c0.242,0.494 0.128,1.198 -0.37,1.432c-0.118,0.054 -0.238,0.078 -0.358,0.078Zm-89.802,-11.062c-0.034,-0 -0.07,-0.004 -0.106,-0.01c-0.222,-0.048 -0.378,-0.248 -0.51,-0.434c-1.934,-2.688 -3.722,-5.722 -6.012,-8.106c-2.322,-2.416 -4.73,-4.786 -7.432,-6.778c-2.948,-2.17 -6.304,-3.882 -9.918,-4.476c-0.994,-0.164 -2.012,-0.246 -2.952,-0.608c-0.94,-0.362 -1.816,-1.072 -2.064,-2.048c-0.1,-0.39 -0.066,-0.786 0.064,-1.158c0.306,-0.884 1.146,-1.632 1.996,-1.85c0.376,-0.096 0.764,-0.136 1.156,-0.136c1.288,-0 2.632,0.43 3.796,0.71c5.882,1.41 11.496,4.55 15.7,8.916c4.044,4.198 7.044,8.732 6.962,14.82c-0.006,0.496 -0.23,1.158 -0.68,1.158Zm44.186,-1.346c-0.676,-0 -1.352,-0.024 -2.024,-0.072c-5.172,-0.368 -10.472,-2.24 -14.94,-4.772c-0.27,-0.154 -0.586,-0.454 -0.42,-0.72c0.072,-0.118 0.202,-0.156 0.344,-0.156c0.114,-0 0.234,0.024 0.34,0.056c3.484,1.012 6.528,2.928 10.112,3.564c3.596,0.64 7.544,-0.024 10.872,1.77c-1.416,0.222 -2.85,0.33 -4.284,0.33Zm-27.744,-4.204c-0.29,-0 -0.556,-0.234 -0.734,-0.48c-0.56,-0.772 -1.012,-2.774 0.184,-3.292c0.128,-0.054 0.244,-0.08 0.35,-0.08c0.976,0 1,2.192 0.904,2.928c-0.05,0.384 -0.212,0.83 -0.592,0.912c-0.036,0.008 -0.074,0.012 -0.112,0.012Zm-1.642,-5.362c-0.012,-0 -0.022,-0.002 -0.034,-0.002c-0.384,-0.024 -0.606,-0.436 -0.75,-0.794c-1.558,-3.85 -2.388,-7.778 -4.248,-11.498c-0.78,-1.396 -2.586,-3.024 -2.674,-4.65c-0.054,-0.992 0.482,-1.342 1.158,-1.342c0.406,-0 0.862,0.126 1.272,0.314c1.536,0.702 2.608,3.378 3.284,4.816c1.8,3.82 2.696,7.66 2.718,11.872c0,0.28 -0.002,0.57 -0.114,0.826c-0.11,0.248 -0.346,0.458 -0.612,0.458Zm-52.19,-0.014c-0.4,-0 -0.792,-0.074 -1.156,-0.25c-2.192,-1.07 -2.23,-3.948 -1.366,-5.856c0.152,-0.336 0.436,-0.708 0.778,-0.708c0.044,-0 0.09,0.006 0.136,0.02c0.186,0.054 0.318,0.216 0.436,0.368c0.496,0.634 0.994,1.568 1.696,1.982c0.598,0.354 1.434,0.368 2.064,0.684c0.612,0.246 1.204,0.742 1.246,1.4c0.028,0.448 -0.21,0.882 -0.542,1.184c-0.332,0.304 -0.748,0.496 -1.162,0.666c-0.672,0.278 -1.416,0.51 -2.13,0.51Zm117.262,-1.248c-0.294,-0 -0.582,-0.204 -0.804,-0.42c-0.768,-0.752 -2.408,-3.682 -0.712,-4.38c0.136,-0.056 0.28,-0.082 0.424,-0.082c0.354,-0 0.716,0.154 0.984,0.394c0.376,0.338 0.594,0.822 0.73,1.308c0.202,0.714 0.252,1.468 0.146,2.2c-0.056,0.39 -0.208,0.832 -0.582,0.95c-0.062,0.02 -0.124,0.03 -0.186,0.03Zm-32.166,-0.96c-1.656,-0 -3.19,-0.296 -3.314,-1.29c-0.076,-0.612 0.722,-0.816 1.822,-0.816c1.95,-0 4.842,0.642 5.472,0.8c0.256,0.064 0.574,0.224 0.53,0.482c-0.034,0.19 -0.246,0.284 -0.43,0.34c-0.606,0.184 -2.406,0.484 -4.08,0.484Zm29.646,-5.538c-0.022,-0 -0.044,-0 -0.064,-0.002c-0.602,-0.046 -0.954,-0.686 -1.148,-1.256c-0.858,-2.526 -0.72,-5.376 0.374,-7.81c0.344,-0.764 1.136,-2.004 2.122,-2.004c0.028,-0 0.056,-0 0.084,0.002c0.95,0.07 1.438,1.286 1.366,2.098c-0.084,0.924 -0.596,1.744 -0.962,2.598c-0.522,1.214 -0.756,2.55 -0.682,3.87c0.03,0.524 0.106,1.062 -0.038,1.568c-0.14,0.484 -0.556,0.936 -1.052,0.936Zm20.648,-7.364c-0.344,-0 -0.614,-0.346 -0.788,-0.658c-0.942,-1.692 -1.726,-4.308 -1.574,-6.262c0.022,-0.284 0.156,-0.574 0.406,-0.71c0.1,-0.052 0.208,-0.076 0.32,-0.076c0.238,-0 0.486,0.112 0.662,0.282c0.26,0.246 0.402,0.586 0.54,0.916c0.746,1.81 1.508,3.752 1.126,5.672c-0.072,0.358 -0.25,0.772 -0.61,0.828c-0.028,0.006 -0.056,0.008 -0.082,0.008Zm-80.102,-8.322c-0.202,-0 -0.384,-0.12 -0.548,-0.24c-0.732,-0.534 -5.266,-4.25 -3.792,-5.418c0.14,-0.112 0.3,-0.162 0.474,-0.162c1.46,0 3.898,3.56 4.256,4.382c0.116,0.268 0.22,0.556 0.182,0.846c-0.036,0.29 -0.258,0.578 -0.55,0.592l-0.022,-0Zm16.418,-0.846c-0.652,-0 -1.964,-0.542 -2.228,-0.678c-1.256,-0.652 -2.32,-1.89 -3.256,-2.916c-2.12,-2.324 -4.268,-4.684 -5.684,-7.492c-0.498,-0.988 -0.854,-2.306 -0.084,-3.102c0.58,-0.6 1.55,-0.604 2.238,-1.076c0.604,-0.418 0.92,-1.164 0.986,-1.898c0.066,-0.732 -0.08,-1.468 -0.228,-2.188c-0.414,-2.03 -0.828,-4.058 -1.24,-6.088c-0.142,-0.694 0.032,-0.936 0.324,-0.936c0.376,-0 0.95,0.4 1.302,0.756c0.764,0.776 1.284,1.784 1.59,2.822c0.546,1.846 0.558,3.738 0.458,5.644c-0.16,3.018 -0.606,6.068 0.32,9.024c0.618,1.97 1.796,3.558 3.058,5.156c0.774,0.976 1.64,1.542 2.556,2.346l0.254,0.402c-0.002,0.162 -0.146,0.224 -0.366,0.224Zm7.038,-11.794c-0.564,-0 -1.13,-0.212 -1.606,-0.526c-0.622,-0.412 -1.116,-0.988 -1.602,-1.558c-1.352,-1.584 -1.228,-2.952 0.732,-3.63c0.472,-0.162 0.954,-0.236 1.432,-0.236c1.23,-0 2.438,0.49 3.39,1.24c0.356,0.282 0.702,0.638 0.762,1.088c0.054,0.41 -0.144,0.81 -0.334,1.178c-0.52,1 -1.162,2.102 -2.254,2.38c-0.17,0.044 -0.346,0.064 -0.52,0.064Zm-40.946,-0.44c-0.356,-0 -0.724,-0.19 -1.046,-0.378c-4.044,-2.356 -8.088,-4.71 -12.132,-7.066c-0.642,-0.374 -1.3,-0.76 -1.776,-1.33c-0.478,-0.57 -0.75,-1.372 -0.502,-2.072c0.232,-0.652 0.76,-0.87 1.392,-0.87c1.068,-0 2.432,0.62 3.166,0.818c2.032,0.55 4.046,1.214 5.896,2.236c2.668,1.474 5.008,3.806 5.808,6.748c0.182,0.67 0.176,1.574 -0.462,1.846c-0.112,0.048 -0.228,0.068 -0.344,0.068Zm84.84,-4.504c-0.266,-0 -0.568,-0.17 -0.768,-0.374c-0.468,-0.474 -2.164,-4.254 -0.836,-4.254c0.014,-0 0.028,-0 0.044,0.002c0.312,0.018 0.526,0.31 0.684,0.578c0.57,0.964 1.008,2.008 1.296,3.09c0.072,0.268 0.124,0.586 -0.056,0.796c-0.096,0.114 -0.224,0.162 -0.364,0.162Zm-104.896,-2.864c-0.154,-0 -0.306,-0.028 -0.452,-0.086c-0.58,-0.236 -0.886,-0.934 -0.79,-1.552c0.096,-0.62 0.522,-1.148 1.034,-1.508c0.374,-0.264 1.196,-0.738 1.814,-0.738c0.382,-0 0.686,0.182 0.762,0.702c0.056,0.38 -0.1,0.756 -0.252,1.108c-0.24,0.554 -0.488,1.122 -0.918,1.544c-0.318,0.314 -0.762,0.53 -1.198,0.53Zm119.688,-3.158c-0.334,-0 -0.646,-0.256 -0.896,-0.502c-1.438,-1.424 -2.64,-3.086 -3.55,-4.898c-0.568,-1.132 -1.45,-2.058 -1.996,-3.222c-0.194,-0.414 -0.33,-0.988 0.038,-1.262c0.108,-0.08 0.232,-0.112 0.364,-0.112c0.232,-0 0.482,0.1 0.696,0.21c3.128,1.626 5.588,4.806 6.058,8.342c0.074,0.556 -0.014,1.29 -0.558,1.424c-0.052,0.014 -0.104,0.02 -0.156,0.02Zm-32.912,-1.088c-0.054,-0 -0.106,-0.004 -0.16,-0.012c-0.322,-0.05 -0.612,-0.226 -0.89,-0.396c-2.374,-1.45 -4.75,-2.898 -7.124,-4.348c-0.236,-0.144 -0.484,-0.304 -0.694,-0.49c-0.294,-0.256 -0.518,-0.562 -0.558,-0.94c-0.062,-0.596 0.424,-1.166 1.01,-1.296c0.108,-0.024 0.218,-0.036 0.332,-0.036c1.15,-0 2.56,1.13 3.436,1.638c1.754,1.016 3.264,2.722 4.758,4.068c0.428,0.384 0.892,0.974 0.594,1.466c-0.142,0.234 -0.426,0.346 -0.704,0.346Zm-65.362,-5.618c-0.234,-0 -0.486,-0.076 -0.7,-0.174c-0.978,-0.45 -1.806,-1.174 -2.51,-1.99c-0.22,-0.254 -0.434,-0.53 -0.516,-0.856c-0.174,-0.694 0.126,-0.908 0.556,-0.908c0.462,-0 1.074,0.248 1.408,0.412c0.972,0.478 1.784,1.196 2.264,2.18c0.176,0.358 0.288,0.826 0.026,1.124c-0.136,0.154 -0.326,0.212 -0.528,0.212Zm52.386,-2.916c-0.162,-0 -0.34,-0.042 -0.488,-0.094c-5.086,-1.804 -10.278,-3.31 -15.538,-4.512c-2.538,-0.58 -5.13,-1.012 -7.626,-1.678c-1.966,-0.524 -3.958,-0.708 -5.89,-1.29c-0.484,-0.146 -0.964,-0.316 -1.438,-0.524c-0.276,-0.12 -0.554,-0.254 -0.762,-0.472c-0.208,-0.216 -0.332,-0.538 -0.242,-0.824c0.116,-0.372 0.528,-0.554 0.9,-0.668c0.904,-0.276 1.834,-0.38 2.772,-0.38c1.624,-0 3.272,0.31 4.844,0.566c2.722,0.446 5.42,1.044 8.076,1.788c3.048,0.854 6.042,1.902 8.96,3.134c1.134,0.48 7.726,2.638 6.88,4.712c-0.074,0.18 -0.25,0.242 -0.448,0.242Zm3.688,-12.466l-0.026,-0c-0.342,-0.008 -0.666,-0.15 -0.978,-0.292c-2.79,-1.262 -5.548,-2.6 -8.268,-4.01c-0.472,-0.244 -0.974,-0.526 -1.192,-1.01c-0.202,-0.452 -0.086,-1.026 0.274,-1.366c0.296,-0.276 0.724,-0.388 1.216,-0.388c1.514,-0 3.652,1.042 4.546,1.488c1.872,0.934 3.548,2.266 4.864,3.892c0.282,0.35 0.562,0.808 0.386,1.22c-0.132,0.306 -0.486,0.466 -0.822,0.466Z" style="fill:url(#_Radial21);"/>
    <g>
        <clipPath id="_clip22">
            <path d="M104.637,78.573l3.628,-1.114c0.104,-1.418 1.748,-2.878 3.106,-3.58l-83.4,-85.128l-38.336,7.666l4.382,32.044l56.208,96.932l94.298,110.34l79.094,72.836l45.862,-0l-18.026,-52.626l-45.38,-65.784l-1.034,0.632c-0.12,2.774 -1.818,5.176 -4.738,7.308l-1.894,8.124l-99.494,-129.21l5.724,1.56Z"/>
        </clipPath>
        <g clip-path="url(#_clip22)">
            <path d="M166.901,241.743c0,-0 64.376,58.368 72.668,43.74c8.626,-15.218 -19.548,-61.43 -19.548,-61.43c0,-0 16.86,39.484 11.278,51.586c-4.816,10.438 -64.398,-33.896 -64.398,-33.896Zm-136.922,-211.008c12.96,-3.102 48.374,21.168 48.374,21.168c0,-0 -39.796,-36.684 -56.408,-31.208c-15.968,5.266 28.652,79.83 28.652,79.83c0,-0 -31.798,-67.114 -20.618,-69.79Zm16.604,16.808c-12.696,10.458 14.636,64.612 61.048,120.96c46.412,56.344 94.33,93.546 107.026,83.088c12.696,-10.458 -14.636,-64.614 -61.048,-120.96c-46.412,-56.346 -94.33,-93.546 -107.026,-83.088Zm110.724,80.042c68.34,82.968 110.326,161.276 93.778,174.906c-16.548,13.63 -85.362,-42.578 -153.702,-125.548c-68.34,-82.968 -110.326,-161.274 -93.778,-174.906c16.548,-13.63 85.362,42.58 153.702,125.548Z" style="fill:url(#_Linear23);"/>
            <path d="M78.767,54.823c-0.452,-0.356 -1.118,-0.884 -2.004,-1.526c-1.762,-1.3 -4.37,-3.112 -7.776,-5.066c-3.4,-1.956 -7.614,-4.024 -12.496,-5.83c-2.442,-0.896 -5.05,-1.722 -7.796,-2.43c-1.364,-0.358 -2.78,-0.712 -4.294,-0.876c-1.504,-0.16 -3.14,-0.096 -4.674,0.484c-0.768,0.282 -1.496,0.696 -2.13,1.232c-0.632,0.542 -1.142,1.214 -1.508,1.936c-0.736,1.458 -0.9,3.032 -0.888,4.49c0.02,1.468 0.23,2.876 0.458,4.208c0.216,1.344 0.462,2.654 0.732,3.926c1.064,5.09 2.434,9.574 3.8,13.25c1.348,3.684 2.684,6.564 3.638,8.534c0.478,0.982 0.866,1.738 1.136,2.248c0.268,0.51 0.408,0.776 0.408,0.776c0,-0 -0.122,-0.276 -0.352,-0.804c-0.236,-0.524 -0.572,-1.304 -0.99,-2.312c-0.828,-2.02 -1.994,-4.958 -3.164,-8.674c-1.188,-3.708 -2.37,-8.196 -3.292,-13.25c-0.232,-1.262 -0.446,-2.56 -0.632,-3.89c-0.202,-1.336 -0.374,-2.672 -0.372,-4.02c0.002,-1.336 0.182,-2.692 0.776,-3.838c0.58,-1.148 1.604,-2.01 2.88,-2.472c1.266,-0.48 2.656,-0.552 4.03,-0.418c1.376,0.138 2.75,0.46 4.106,0.8c2.71,0.658 5.294,1.418 7.726,2.236c4.858,1.656 9.1,3.538 12.558,5.322c3.462,1.782 6.156,3.436 7.988,4.62c0.922,0.586 1.62,1.07 2.096,1.394c0.476,0.322 0.726,0.492 0.726,0.492c0,-0 -0.238,-0.186 -0.69,-0.542Zm-30.842,-28.748c-1.498,-1.122 -3.7,-2.71 -6.526,-4.516c-2.82,-1.802 -6.218,-3.916 -10.224,-5.88c-2,-0.984 -4.16,-1.904 -6.462,-2.71c-1.168,-0.382 -2.3,-0.77 -3.552,-1.102c-1.24,-0.318 -2.61,-0.556 -4.022,-0.326c-1.418,0.19 -2.746,0.938 -3.682,1.956c-0.946,1.024 -1.516,2.284 -1.814,3.544c-0.546,2.568 -0.126,4.966 0.274,7.15c0.82,4.376 1.99,8.232 3.15,11.38c1.162,3.152 2.296,5.62 3.11,7.306c0.816,1.686 1.31,2.596 1.31,2.596c0,-0 -0.414,-0.95 -1.106,-2.686c-0.688,-1.736 -1.652,-4.264 -2.636,-7.444c-0.982,-3.184 -1.962,-7.022 -2.64,-11.362c-0.174,-1.08 -0.326,-2.182 -0.38,-3.3c-0.052,-1.112 -0.016,-2.254 0.248,-3.32c0.27,-1.068 0.766,-2.102 1.518,-2.902c0.754,-0.792 1.746,-1.354 2.868,-1.506c2.254,-0.342 4.648,0.652 6.92,1.314c2.252,0.746 4.388,1.596 6.382,2.504c3.996,1.81 7.464,3.754 10.368,5.4c2.904,1.644 5.196,3.076 6.768,4.088c1.564,1.026 2.428,1.594 2.428,1.594c0,-0 -0.804,-0.654 -2.3,-1.778Zm21.848,13.514c0,-0 -1.662,-1.32 -4.668,-3.708c-3.014,-2.374 -7.37,-5.82 -12.89,-9.884c-5.528,-4.052 -12.228,-8.714 -20.114,-13.154c-3.924,-2.232 -8.112,-4.494 -12.734,-5.98c-2.302,-0.732 -4.73,-1.246 -7.172,-1.21l-0.914,0.024c-0.3,0.03 -0.6,0.08 -0.902,0.118c-0.688,0.07 -1.006,0.16 -1.372,0.506c-0.72,0.686 -1.12,1.928 -1.382,3.126c-0.508,2.46 -0.52,5.038 -0.376,7.528c0.162,2.5 0.516,4.962 1.018,7.352c1,4.788 2.436,9.312 3.98,13.554c1.552,4.242 3.218,8.21 4.846,11.894c1.626,3.684 3.228,7.08 4.73,10.158c3.01,6.16 5.652,11.046 7.5,14.406c1.878,3.348 2.916,5.198 2.916,5.198c0,-0 -1.136,-1.792 -3.11,-5.088c-1.966,-3.296 -4.766,-8.1 -7.942,-14.192c-1.588,-3.048 -3.276,-6.414 -4.984,-10.078c-1.712,-3.662 -3.456,-7.62 -5.086,-11.876c-1.62,-4.256 -3.13,-8.816 -4.188,-13.692c-0.532,-2.438 -0.912,-4.96 -1.09,-7.546c-0.158,-2.588 -0.16,-5.236 0.388,-7.914c0.316,-1.32 0.658,-2.722 1.806,-3.872c0.15,-0.14 0.296,-0.278 0.488,-0.38c0.182,-0.11 0.36,-0.224 0.574,-0.278c0.448,-0.166 0.732,-0.154 1.08,-0.214c0.334,-0.042 0.67,-0.092 1.004,-0.124l1,-0.024c2.666,-0.024 5.22,0.542 7.606,1.322c4.784,1.58 9.006,3.936 12.922,6.24c7.868,4.584 14.51,9.424 19.938,13.626c5.426,4.216 9.672,7.802 12.602,10.282c2.914,2.498 4.526,3.88 4.526,3.88Z" style="fill:#bc1463;fill-rule:nonzero;"/>
            <path d="M214.819,220.223c0,-0 0.116,0.282 0.332,0.812c0.22,0.534 0.548,1.314 0.932,2.338c0.782,2.038 1.846,5.014 2.876,8.768c1.034,3.752 2.002,8.29 2.622,13.384c0.3,2.55 0.512,5.236 0.598,8.022c0.052,1.396 0.084,2.808 -0.064,4.184c-0.15,1.37 -0.508,2.716 -1.238,3.858c-0.714,1.152 -1.768,1.978 -3.014,2.308c-1.242,0.346 -2.606,0.242 -3.916,-0.032c-1.318,-0.274 -2.59,-0.718 -3.854,-1.19c-1.264,-0.456 -2.49,-0.932 -3.678,-1.42c-4.756,-1.942 -8.904,-4.024 -12.288,-5.952c-3.394,-1.91 -6.03,-3.656 -7.836,-4.882c-0.902,-0.616 -1.594,-1.106 -2.06,-1.444c-0.468,-0.336 -0.714,-0.512 -0.714,-0.512c0,-0 0.232,0.194 0.676,0.558c0.442,0.372 1.102,0.906 1.966,1.576c1.732,1.338 4.274,3.242 7.602,5.32c3.316,2.092 7.422,4.356 12.182,6.446c1.19,0.526 2.42,1.036 3.692,1.524c1.258,0.498 2.592,0.994 4.024,1.314c1.424,0.314 2.998,0.476 4.576,0.058c0.782,-0.212 1.544,-0.572 2.206,-1.078c0.656,-0.508 1.21,-1.136 1.644,-1.83c0.882,-1.382 1.282,-2.968 1.436,-4.472c0.152,-1.518 0.096,-2.976 0.026,-4.384c-0.126,-2.832 -0.398,-5.556 -0.772,-8.13c-0.76,-5.148 -1.916,-9.698 -3.13,-13.43c-1.212,-3.734 -2.448,-6.66 -3.356,-8.652c-0.446,-0.998 -0.826,-1.758 -1.082,-2.274c-0.254,-0.516 -0.388,-0.788 -0.388,-0.788Zm20.904,34.274c0,-0 0.376,0.962 1.058,2.702c0.666,1.746 1.596,4.286 2.606,7.466c1.014,3.18 2.202,6.974 3.148,11.258c0.478,2.138 0.87,4.404 1.136,6.76c0.182,2.36 0.662,4.908 -0.138,7.044c-0.38,1.064 -1.134,1.92 -2.064,2.494c-0.94,0.572 -2.052,0.844 -3.152,0.888c-1.098,0.04 -2.224,-0.16 -3.302,-0.44c-1.082,-0.282 -2.128,-0.658 -3.15,-1.052c-4.108,-1.558 -7.662,-3.306 -10.574,-4.924c-2.91,-1.616 -5.184,-3.082 -6.742,-4.112c-1.556,-1.036 -2.4,-1.636 -2.4,-1.636c0,-0 0.79,0.67 2.27,1.816c1.482,1.144 3.664,2.762 6.51,4.548c2.842,1.784 6.372,3.722 10.486,5.428c2.056,0.842 4.314,1.746 6.94,1.742c1.296,-0.034 2.644,-0.332 3.842,-1.048c1.188,-0.706 2.196,-1.85 2.672,-3.198c0.516,-1.336 0.566,-2.724 0.51,-4.004c-0.066,-1.294 -0.214,-2.482 -0.348,-3.704c-0.314,-2.418 -0.77,-4.722 -1.322,-6.882c-1.094,-4.322 -2.464,-8.084 -3.648,-11.214c-1.184,-3.138 -2.284,-5.62 -3.074,-7.316c-0.792,-1.696 -1.264,-2.616 -1.264,-2.616Zm-4.596,-16.318c1.824,3.376 4.458,8.27 7.468,14.448c2.992,6.178 6.36,13.672 9.226,22.316c1.45,4.308 2.884,8.924 3.446,13.93c0.27,2.496 0.3,5.112 -0.274,7.716l-0.23,0.974c-0.098,0.32 -0.218,0.636 -0.328,0.956c-0.13,0.326 -0.176,0.61 -0.432,1.012c-0.098,0.2 -0.244,0.35 -0.39,0.506l-0.47,0.398c-1.364,0.888 -2.806,0.934 -4.162,0.972c-2.736,-0.016 -5.324,-0.562 -7.826,-1.25c-2.494,-0.708 -4.884,-1.6 -7.158,-2.622c-4.554,-2.04 -8.706,-4.456 -12.538,-6.92c-3.828,-2.47 -7.342,-4.994 -10.572,-7.422c-3.234,-2.428 -6.182,-4.77 -8.836,-6.95c-5.308,-4.364 -9.432,-8.094 -12.254,-10.698c-2.816,-2.61 -4.336,-4.09 -4.336,-4.09c0,-0 1.598,1.396 4.486,3.924c2.908,2.502 7.144,6.092 12.552,10.304c2.702,2.106 5.696,4.372 8.966,6.722c3.268,2.354 6.81,4.8 10.642,7.19c3.832,2.388 7.964,4.724 12.442,6.688c2.236,0.984 4.572,1.838 6.984,2.51c2.408,0.656 4.934,1.174 7.446,1.184c1.226,-0.01 2.524,-0.146 3.344,-0.71c0.412,-0.284 0.566,-0.578 0.778,-1.236c0.098,-0.288 0.21,-0.57 0.3,-0.858l0.212,-0.892c0.538,-2.38 0.536,-4.862 0.292,-7.268c-0.502,-4.828 -1.852,-9.392 -3.228,-13.69c-2.722,-8.632 -5.902,-16.148 -8.73,-22.394c-2.84,-6.238 -5.314,-11.21 -7.018,-14.648c-1.716,-3.434 -2.666,-5.332 -2.666,-5.332c0,-0 1.02,1.862 2.864,5.23Z" style="fill:#bc1463;fill-rule:nonzero;"/>
            <path d="M138.545,209.505c0,-0 -1.23,-1.174 -3.458,-3.296c-1.116,-1.058 -2.472,-2.364 -4.018,-3.906c-1.552,-1.54 -3.336,-3.274 -5.248,-5.252c-1.926,-1.964 -4.03,-4.122 -6.238,-6.486c-2.236,-2.34 -4.556,-4.902 -7.008,-7.592c-4.858,-5.42 -10.084,-11.482 -15.372,-18.01c-5.27,-6.542 -10.098,-12.926 -14.374,-18.816c-2.114,-2.96 -4.132,-5.768 -5.95,-8.446c-1.848,-2.656 -3.514,-5.166 -5.028,-7.462c-1.532,-2.286 -2.854,-4.394 -4.034,-6.234c-1.184,-1.836 -2.174,-3.438 -2.974,-4.75c-1.606,-2.624 -2.494,-4.074 -2.494,-4.074c0,-0 0.956,1.408 2.682,3.952c0.856,1.276 1.912,2.834 3.164,4.622c1.248,1.792 2.642,3.848 4.246,6.08c1.586,2.244 3.324,4.698 5.236,7.302c1.882,2.624 3.96,5.38 6.124,8.294c4.374,5.798 9.26,12.11 14.516,18.632c5.272,6.512 10.416,12.616 15.164,18.11c2.394,2.73 4.652,5.338 6.822,7.73c2.142,2.416 4.178,4.632 6.038,6.654c1.844,2.038 3.562,3.834 5.05,5.43c1.486,1.602 2.786,2.958 3.854,4.064c2.126,2.224 3.3,3.454 3.3,3.454Z" style="fill:#bc1463;fill-rule:nonzero;"/>
        </g>
    </g>
    <path d="M27.659,308.509l-0.028,-0.016l-0.11,-0.05c0.076,-0.05 0.152,-0.098 0.228,-0.146c-0.032,0.072 -0.062,0.142 -0.09,0.212Z" style="fill:url(#_Linear24);"/>
    <path d="M23.117,312.247c0.144,-0.226 0.324,-0.428 0.54,-0.588c0.01,-0.006 0.018,-0.012 0.026,-0.018c-0.192,0.198 -0.382,0.402 -0.566,0.606Z" style="fill:url(#_Radial25);"/>
    <defs>
        <radialGradient id="_Radial1" cx="0" cy="0" r="1" gradientUnits="userSpaceOnUse" gradientTransform="matrix(123.137,0,0,123.137,112.246,116.653)"><stop offset="0" style="stop-color:#d81f54;stop-opacity:1"/><stop offset="0.7" style="stop-color:#6f084c;stop-opacity:1"/><stop offset="1" style="stop-color:#aa1162;stop-opacity:1"/></radialGradient>
        <radialGradient id="_Radial2" cx="0" cy="0" r="1" gradientUnits="userSpaceOnUse" gradientTransform="matrix(125.136,0,0,125.136,114.923,116.897)"><stop offset="0" style="stop-color:#ffc13d;stop-opacity:1"/><stop offset="0.7" style="stop-color:#be1b61;stop-opacity:1"/><stop offset="0.8" style="stop-color:#c32462;stop-opacity:1"/><stop offset="0.9" style="stop-color:#da5662;stop-opacity:1"/><stop offset="1" style="stop-color:#fb9e62;stop-opacity:1"/></radialGradient>
        <radialGradient id="_Radial3" cx="0" cy="0" r="1" gradientUnits="userSpaceOnUse" gradientTransform="matrix(125.136,0,0,125.136,114.923,116.897)"><stop offset="0" style="stop-color:#e67a3a;stop-opacity:1"/><stop offset="0.7" style="stop-color:#ac115b;stop-opacity:1"/><stop offset="0.8" style="stop-color:#b0165d;stop-opacity:1"/><stop offset="1" style="stop-color:#e3645c;stop-opacity:1"/></radialGradient>
        <radialGradient id="_Radial4" cx="0" cy="0" r="1" gradientUnits="userSpaceOnUse" gradientTransform="matrix(123.137,0,0,123.137,112.246,116.653)"><stop offset="0" style="stop-color:#c41450;stop-opacity:1"/><stop offset="0.7" style="stop-color:#640548;stop-opacity:1"/><stop offset="1" style="stop-color:#9a0b5d;stop-opacity:1"/></radialGradient>
        <radialGradient id="_Radial5" cx="0" cy="0" r="1" gradientUnits="userSpaceOnUse" gradientTransform="matrix(125.136,0,0,125.136,114.923,116.897)"><stop offset="0" style="stop-color:#e67a3a;stop-opacity:1"/><stop offset="0.7" style="stop-color:#ac115b;stop-opacity:1"/><stop offset="0.8" style="stop-color:#b0165d;stop-opacity:1"/><stop offset="1" style="stop-color:#e3645c;stop-opacity:1"/></radialGradient>
        <radialGradient id="_Radial6" cx="0" cy="0" r="1" gradientUnits="userSpaceOnUse" gradientTransform="matrix(123.137,0,0,123.137,112.246,116.653)"><stop offset="0" style="stop-color:#c41450;stop-opacity:1"/><stop offset="0.7" style="stop-color:#640548;stop-opacity:1"/><stop offset="1" style="stop-color:#9a0b5d;stop-opacity:1"/></radialGradient>
        <radialGradient id="_Radial7" cx="0" cy="0" r="1" gradientUnits="userSpaceOnUse" gradientTransform="matrix(125.136,0,0,125.136,114.923,116.897)"><stop offset="0" style="stop-color:#e67a3a;stop-opacity:1"/><stop offset="0.7" style="stop-color:#ac115b;stop-opacity:1"/><stop offset="0.8" style="stop-color:#b0165d;stop-opacity:1"/><stop offset="1" style="stop-color:#e3645c;stop-opacity:1"/></radialGradient>
        <radialGradient id="_Radial8" cx="0" cy="0" r="1" gradientUnits="userSpaceOnUse" gradientTransform="matrix(123.137,0,0,123.137,112.246,116.653)"><stop offset="0" style="stop-color:#c41450;stop-opacity:1"/><stop offset="0.7" style="stop-color:#640548;stop-opacity:1"/><stop offset="1" style="stop-color:#9a0b5d;stop-opacity:1"/></radialGradient>
        <radialGradient id="_Radial9" cx="0" cy="0" r="1" gradientUnits="userSpaceOnUse" gradientTransform="matrix(125.136,0,0,125.136,114.923,116.897)"><stop offset="0" style="stop-color:#e67a3a;stop-opacity:1"/><stop offset="0.7" style="stop-color:#ac115b;stop-opacity:1"/><stop offset="0.8" style="stop-color:#b0165d;stop-opacity:1"/><stop offset="1" style="stop-color:#e3645c;stop-opacity:1"/></radialGradient>
        <radialGradient id="_Radial10" cx="0" cy="0" r="1" gradientUnits="userSpaceOnUse" gradientTransform="matrix(125.136,0,0,125.136,114.923,116.897)"><stop offset="0" style="stop-color:#e67a3a;stop-opacity:1"/><stop offset="0.7" style="stop-color:#ac115b;stop-opacity:1"/><stop offset="0.8" style="stop-color:#b0165d;stop-opacity:1"/><stop offset="1" style="stop-color:#e3645c;stop-opacity:1"/></radialGradient>
        <radialGradient id="_Radial11" cx="0" cy="0" r="1" gradientUnits="userSpaceOnUse" gradientTransform="matrix(125.136,0,0,125.136,114.923,116.897)"><stop offset="0" style="stop-color:#e67a3a;stop-opacity:1"/><stop offset="0.7" style="stop-color:#ac115b;stop-opacity:1"/><stop offset="0.8" style="stop-color:#b0165d;stop-opacity:1"/><stop offset="1" style="stop-color:#e3645c;stop-opacity:1"/></radialGradient>
        <radialGradient id="_Radial12" cx="0" cy="0" r="1" gradientUnits="userSpaceOnUse" gradientTransform="matrix(123.137,0,0,123.137,112.246,116.653)"><stop offset="0" style="stop-color:#c41450;stop-opacity:1"/><stop offset="0.7" style="stop-color:#640548;stop-opacity:1"/><stop offset="1" style="stop-color:#9a0b5d;stop-opacity:1"/></radialGradient>
        <radialGradient id="_Radial13" cx="0" cy="0" r="1" gradientUnits="userSpaceOnUse" gradientTransform="matrix(125.136,0,0,125.136,114.923,116.897)"><stop offset="0" style="stop-color:#e67a3a;stop-opacity:1"/><stop offset="0.7" style="stop-color:#ac115b;stop-opacity:1"/><stop offset="0.8" style="stop-color:#b0165d;stop-opacity:1"/><stop offset="1" style="stop-color:#e3645c;stop-opacity:1"/></radialGradient>
        <radialGradient id="_Radial14" cx="0" cy="0" r="1" gradientUnits="userSpaceOnUse" gradientTransform="matrix(125.136,0,0,125.136,114.923,116.897)"><stop offset="0" style="stop-color:#e67a3a;stop-opacity:1"/><stop offset="0.7" style="stop-color:#ac115b;stop-opacity:1"/><stop offset="0.8" style="stop-color:#b0165d;stop-opacity:1"/><stop offset="1" style="stop-color:#e3645c;stop-opacity:1"/></radialGradient>
        <radialGradient id="_Radial15" cx="0" cy="0" r="1" gradientUnits="userSpaceOnUse" gradientTransform="matrix(125.136,0,0,125.136,114.923,116.897)"><stop offset="0" style="stop-color:#e67a3a;stop-opacity:1"/><stop offset="0.7" style="stop-color:#ac115b;stop-opacity:1"/><stop offset="0.8" style="stop-color:#b0165d;stop-opacity:1"/><stop offset="1" style="stop-color:#e3645c;stop-opacity:1"/></radialGradient>
        <radialGradient id="_Radial16" cx="0" cy="0" r="1" gradientUnits="userSpaceOnUse" gradientTransform="matrix(125.136,0,0,125.136,114.923,116.897)"><stop offset="0" style="stop-color:#e67a3a;stop-opacity:1"/><stop offset="0.7" style="stop-color:#ac115b;stop-opacity:1"/><stop offset="0.8" style="stop-color:#b0165d;stop-opacity:1"/><stop offset="1" style="stop-color:#e3645c;stop-opacity:1"/></radialGradient>
        <radialGradient id="_Radial17" cx="0" cy="0" r="1" gradientUnits="userSpaceOnUse" gradientTransform="matrix(125.136,0,0,125.136,114.923,116.897)"><stop offset="0" style="stop-color:#e67a3a;stop-opacity:1"/><stop offset="0.7" style="stop-color:#ac115b;stop-opacity:1"/><stop offset="0.8" style="stop-color:#b0165d;stop-opacity:1"/><stop offset="1" style="stop-color:#e3645c;stop-opacity:1"/></radialGradient>
        <radialGradient id="_Radial18" cx="0" cy="0" r="1" gradientUnits="userSpaceOnUse" gradientTransform="matrix(125.136,0,0,125.136,114.923,116.897)"><stop offset="0" style="stop-color:#e67a3a;stop-opacity:1"/><stop offset="0.7" style="stop-color:#ac115b;stop-opacity:1"/><stop offset="0.8" style="stop-color:#b0165d;stop-opacity:1"/><stop offset="1" style="stop-color:#e3645c;stop-opacity:1"/></radialGradient>
        <radialGradient id="_Radial19" cx="0" cy="0" r="1" gradientUnits="userSpaceOnUse" gradientTransform="matrix(125.136,0,0,125.136,114.923,116.897)"><stop offset="0" style="stop-color:#e67a3a;stop-opacity:1"/><stop offset="0.7" style="stop-color:#ac115b;stop-opacity:1"/><stop offset="0.8" style="stop-color:#b0165d;stop-opacity:1"/><stop offset="1" style="stop-color:#e3645c;stop-opacity:1"/></radialGradient>
        <radialGradient id="_Radial20" cx="0" cy="0" r="1" gradientUnits="userSpaceOnUse" gradientTransform="matrix(125.136,0,0,125.136,114.923,116.897)"><stop offset="0" style="stop-color:#e67a3a;stop-opacity:1"/><stop offset="0.7" style="stop-color:#ac115b;stop-opacity:1"/><stop offset="0.8" style="stop-color:#b0165d;stop-opacity:1"/><stop offset="1" style="stop-color:#e3645c;stop-opacity:1"/></radialGradient>
        <radialGradient id="_Radial21" cx="0" cy="0" r="1" gradientUnits="userSpaceOnUse" gradientTransform="matrix(125.136,0,0,125.136,114.923,116.897)"><stop offset="0" style="stop-color:#ffd750;stop-opacity:1"/><stop offset="0.7" style="stop-color:#db6970;stop-opacity:1"/><stop offset="0.8" style="stop-color:#dd6e72;stop-opacity:1"/><stop offset="1" style="stop-color:#fdbf71;stop-opacity:1"/></radialGradient>
        <linearGradient id="_Linear23" x1="0" y1="0" x2="1" y2="0" gradientUnits="userSpaceOnUse" gradientTransform="matrix(269.072,250.452,-250.452,269.072,-4.45128,29.587)"><stop offset="0" style="stop-color:#ffc13d;stop-opacity:1"/><stop offset="0.7" style="stop-color:#cb1c4a;stop-opacity:1"/><stop offset="0.8" style="stop-color:#cf254d;stop-opacity:1"/><stop offset="0.9" style="stop-color:#e15756;stop-opacity:1"/><stop offset="1" style="stop-color:#fb9e62;stop-opacity:1"/></linearGradient>
        <linearGradient id="_Linear24" x1="0" y1="0" x2="1" y2="0" gradientUnits="userSpaceOnUse" gradientTransform="matrix(11.9568,18.072,-18.072,11.9568,23.9391,304.909)"><stop offset="0" style="stop-color:#a69a42;stop-opacity:1"/><stop offset="1" style="stop-color:#000;stop-opacity:1"/></linearGradient>
        <radialGradient id="_Radial25" cx="0" cy="0" r="1" gradientUnits="userSpaceOnUse" gradientTransform="matrix(43.4082,0,0,43.4082,30.0887,311.501)"><stop offset="0" style="stop-color:#ffd959;stop-opacity:1"/><stop offset="0.7" style="stop-color:#d3971e;stop-opacity:1"/><stop offset="0.8" style="stop-color:#d59a1d;stop-opacity:1"/><stop offset="1" style="stop-color:#f4c32b;stop-opacity:1"/></radialGradient>
    </defs>
</svg>
