<?xml version="1.0" encoding="UTF-8" standalone="no"?>
<!DOCTYPE svg PUBLIC "-//W3C//DTD SVG 1.1//EN" "http://www.w3.org/Graphics/SVG/1.1/DTD/svg11.dtd">
<svg width="100%" height="100%" viewBox="0 0 207 197" version="1.1" xmlns="http://www.w3.org/2000/svg" xmlns:xlink="http://www.w3.org/1999/xlink" xml:space="preserve" xmlns:serif="http://www.serif.com/" style="fill-rule:evenodd;clip-rule:evenodd;stroke-linejoin:round;stroke-miterlimit:2;">
    <path d="M133.096,196.904l-0.256,-0.042c-1.444,-0.372 -2.88,-0.738 -4.32,-1.11c-3.904,-1 -7.904,-2.042 -11.238,-4.368l-0.35,0.048c-2.484,0.352 -5.08,0.85 -7.566,0.938c-0.316,0.012 -0.63,0.018 -0.946,0.018c-1.322,0 -2.652,-0.096 -3.974,-0.19c-1.04,-0.076 -1.772,-0.848 -2.784,-0.944l-0.25,-0.022c-1.264,-1.11 -2.522,-2.232 -3.762,-3.372c8.25,-1.414 16.232,-4.328 24.024,-7.35c4.03,-1.56 8.048,-3.186 11.836,-5.25c1.712,-0.932 3.652,-1.894 5,-3.31c0.37,-0.388 4.032,-3.526 4.218,-3.526c0.004,0 0.006,0 0.006,0.002c-2.116,-1.708 -4.604,-3.328 -7.204,-4.224c6.39,2.102 12.352,5.682 17.178,10.45c0.89,0.882 1.752,1.806 2.69,2.636l-0.032,0.04c-0.642,0.774 -1.532,1.278 -2.41,1.766c-3.738,2.058 -7.554,3.988 -11.438,5.776c-0.892,3.368 -1.454,6.666 -1.878,10.13l-0.062,0.532c-0.95,-1.492 -2.574,-2.492 -4.136,-3.306l-0.044,-0.02c-0.362,1.516 -1.138,3.028 -1.892,4.388l-0.246,0.276l-0.164,0.034Zm-69.074,-0.496l-0.048,-0.174c-0.938,-3.05 -1.258,-6.272 -0.916,-9.39c-1.346,-0.796 -3.042,-1.062 -4.662,-1.062c-0.53,-0 -1.052,0.028 -1.55,0.076c-0.266,0.024 -0.54,0.058 -0.808,0.058c-0.18,-0 -0.356,-0.014 -0.524,-0.058l-0.266,-0.098c-0.858,-0.406 -1.12,-1.608 -1.968,-2.028c-0.382,-0.192 -0.78,-0.332 -1.19,-0.422c-0.54,-0.124 -1.1,-0.174 -1.672,-0.174c-2.218,-0 -4.622,0.76 -6.774,0.912c-0.096,0.008 -0.196,0.014 -0.294,0.014c-0.188,0 -0.372,-0.024 -0.544,-0.11l-0.256,-0.192c-0.308,-0.284 -0.436,-0.766 -0.558,-1.194c-0.446,-1.566 -1.324,-3.03 -2.514,-4.168l-0.06,0.008c-3.594,0.22 -7.186,0.324 -10.74,0.828l-0.04,-0.312c-0.684,-5.534 -2.232,-10.984 -4.556,-16.112l-0.426,0.042c-2.428,0.228 -5.034,0.594 -7.41,1.234l-0.04,0.016c-0.466,0.116 -0.916,0.248 -1.352,0.392c0.86,-6.264 1.186,-12.626 0.984,-18.988c-0.23,-7.198 -4.078,-13.924 -5.56,-21.01c-1.91,-9.074 -3.796,-18.354 -2.662,-27.428l0.052,-0.414l-0.052,0.414c0.318,0.208 0.63,0.408 0.9,0.622c1.378,1.054 2.668,2.228 3.86,3.492c0.966,1.02 2.858,2.696 3.262,4.056c-0.918,-3.07 -1.838,-6.142 -2.758,-9.218l-0.154,-0.276c-0.05,-0.038 -0.104,-0.052 -0.162,-0.052c-0.142,-0 -0.3,0.096 -0.436,0.17c-0.322,0.192 -0.676,0.278 -1.052,0.278c-0.74,0 -1.564,-0.332 -2.396,-0.83c-1.18,-0.698 -2.38,-1.732 -3.4,-2.644l-0.008,-0.352l0.396,-0.282c0.796,-0.29 1.6,-0.58 2.394,-0.87c-0.138,-1.664 -0.384,-3.388 -0.576,-5.098c0.326,0.586 0.686,1.144 1.086,1.676c0.902,1.194 2.024,2.194 3.146,3.188c1.066,0.944 2.122,1.89 3.188,2.836c0.426,-0.752 0.844,-1.512 1.272,-2.264c2.862,3.41 5.66,6.866 8.404,10.37c0.312,-3.338 0.244,-6.72 -0.196,-10.074c2.012,0.856 3.824,2.216 5.216,3.92c-0.684,-3.932 -1.89,-7.798 -3.568,-11.454c1.012,0.506 2.142,0.768 3.258,0.768c0.48,-0 0.958,-0.048 1.422,-0.146c0.058,-0.498 -0.012,-1.014 -0.188,-1.498c2.404,0.98 4.748,2.132 6.998,3.436c-0.654,-1.222 -1.01,-2.568 -1.84,-3.692c-0.642,-0.876 -1.668,-1.372 -2.664,-1.786c-1.718,-0.718 -3.486,-1.312 -5.292,-1.76c0.29,1.048 0.352,2.118 0.422,3.194c-3.358,-1.668 -6.098,-2.98 -9.43,-4.712c1.11,1.752 2.858,3.022 4.034,4.726c0.548,0.8 0.968,1.684 1.438,2.526c0.768,1.38 1.444,2.96 1.068,4.45c-0.636,0 -1.198,-0.42 -1.71,-0.828c-3.616,-2.912 -7.212,-5.396 -10.69,-8.474c0.384,1.374 0.912,2.712 1.582,3.99c0.738,1.414 1.67,2.87 1.58,4.436c-1.694,-2.18 -3.23,-3.92 -4.304,-6.5c-0.25,-0.606 -0.468,-1.234 -0.84,-1.772c-0.308,-0.442 -0.7,-0.808 -1.088,-1.18c-3.488,-3.3 -5.778,-7.564 -8.658,-11.364l-0.008,-0.016c-0.41,-0.826 -0.794,-1.654 -1.124,-2.496c3.492,-2.678 6.99,-5.362 10.482,-8.04c0.152,-0.116 0.428,-0.488 0.622,-0.862l0.178,-0.442c-0.036,0.134 -0.1,0.288 -0.178,0.442c1.88,1.342 4.018,2.724 6.208,2.724c0.324,-0 0.648,-0.03 0.974,-0.096c1.368,-0.274 2.514,-1.144 3.636,-1.952c3.754,-2.684 7.85,-4.902 12.17,-6.596c-0.252,0.156 -0.504,0.312 -0.756,0.466c-6.89,4.252 -13.78,8.502 -20.67,12.752c1.964,1.13 4.164,1.488 6.408,1.488c1.838,-0 3.706,-0.24 5.502,-0.492c2.258,-0.32 4.516,-0.636 6.776,-0.956c-3.71,1.65 -7.418,3.296 -11.128,4.946c3.66,1.572 7.622,2.38 11.548,2.38c1.64,-0 3.272,-0.14 4.876,-0.424c-2.33,1.418 -4.44,3.19 -6.232,5.24c2.542,2.568 5.082,5.138 7.622,7.706l0.028,-0c2.24,-0 4.494,0.352 6.654,1.038c1.926,0.612 3.778,1.494 5.472,2.62c-0.136,0.144 -0.27,0.288 -0.402,0.434c0.1,1.618 -0.052,3.662 1.002,4.934c1.068,1.286 3.06,1.708 4.572,2.408c2.322,1.076 4.766,1.916 7.266,2.352c0.086,0.016 0.17,0.022 0.254,0.022c0.412,0 0.816,-0.16 1.198,-0.318c1.62,-0.67 3.186,-1.014 4.804,-1.684c0.39,-2.27 0.28,-4.638 -0.246,-6.916c0.6,-1.416 1.2,-2.864 1.932,-4.212c-0.85,0.43 -1.634,0.242 -2.502,0.636c-0.348,0.158 -0.7,0.276 -1.06,0.368c1.13,-0.926 2.356,-1.782 2.656,-1.984c2.026,-1.368 4.23,-2.454 6.352,-3.668c4.188,-2.394 7.368,-5.816 11.146,-8.816c0.444,-0.354 0.9,-0.722 1.15,-1.234c0.27,-0.55 0.266,-1.204 0.468,-1.786c0.382,-1.114 1.5,-1.934 1.548,-3.126c0.028,-0.67 -0.3,-1.314 -0.628,-1.916c-1.68,-3.096 -3.552,-6.096 -5.598,-8.974c1.77,1.028 3.594,1.96 5.46,2.788c0.514,0.228 1.058,0.452 1.602,0.452c0.088,-0 0.176,-0.006 0.264,-0.02c0.556,-0.08 1.026,-0.418 1.468,-0.754c1.994,-1.52 3.89,-3.164 5.676,-4.92c-0.632,-1.27 -1.434,-2.46 -2.37,-3.532c0.684,0.534 1.486,0.772 2.304,0.772c1.782,0 3.634,-1.126 4.482,-2.746c1.236,-2.362 0.884,-5.278 0.23,-7.932c-5.256,0.154 -10.512,0.31 -15.768,0.466c3.878,-1 7.756,-2 11.636,-3c-0.018,0.006 -0.036,0.008 -0.054,0.008c-0.784,-0 -2.438,-3.986 -2.764,-4.486c-0.878,-1.342 -2.226,-2.652 -3.358,-3.798c-0.574,-0.582 -1.184,-1.154 -1.918,-1.508c-0.728,-0.352 -1.524,-0.464 -2.326,-0.464c-0.526,-0 -1.054,0.048 -1.57,0.11c-3.538,0.424 -6.99,1.376 -10.212,2.816c2.874,-2.872 6.21,-5.28 9.854,-7.108c-1.098,-1.304 -1.376,-3.412 -2.954,-4.036c-0.64,-0.254 -1.636,-0.344 -2.676,-0.344c-1.288,-0 -2.646,0.138 -3.486,0.276c-2.52,0.41 -5.006,1.088 -7.448,1.8c-4.75,1.384 -9.38,3.112 -14.082,4.626c-7.332,2.356 -14.636,5.324 -20.456,10.4c2.04,-0.912 4.29,-1.384 6.554,-1.384c0.626,-0 1.254,0.036 1.878,0.11c-7.186,4.852 -15.51,7.448 -22.72,12.264c1.582,1.076 3.068,2.268 4.936,2.442c0.374,0.036 0.754,0.05 1.142,0.05c2.252,-0 4.702,-0.526 6.84,-0.806c5.434,-0.714 10.802,-1.832 16.044,-3.34c-1.222,0.352 -2.44,1.512 -3.646,2.024c-1.384,0.59 -2.804,0.688 -4.232,1.188c-2.716,0.948 -5.218,2.39 -7.66,3.884c-0.766,-0.238 -1.566,-0.362 -2.356,-0.362c-1.194,-0 -2.366,0.288 -3.372,0.912c-1.07,0.668 -2.344,0.958 -3.578,1.282c-2.712,0.712 -5.466,1.236 -8.016,2.382c-0.768,-1.126 -0.972,-2.988 -2.018,-3.866c-2.204,-1.834 -4.414,-3.676 -6.626,-5.518l-0.024,-0.104l-0.116,-0.512c0.184,0.016 0.366,0.024 0.548,0.024c1.406,0 2.75,-0.442 4.098,-0.844c0.436,-0.884 0.636,-2.174 1.068,-3.056c3.966,-0.608 8.094,-1.464 11.912,-2.636c4.886,-5.894 10.146,-11.02 16.506,-15.312c0.758,-3.408 1.324,-6.982 2.068,-10.412l0.11,-0.524c1.486,0.082 2.872,0.192 4.324,0.282c0.332,0.02 0.67,0.042 1.01,0.062c1.13,-3.8 2.316,-7.728 3.452,-11.542c0.054,-0.194 0.116,-0.388 0.172,-0.58c2.102,2.27 4.056,4.09 6.158,6.362l0.026,-0.042c0.646,-0.96 1.23,-1.912 1.868,-2.878l0.17,-0.262c2.482,2.084 5.078,3.554 8.076,4.734l0.11,-0.236c0.398,-0.902 0.838,-1.69 1.238,-2.58l0.152,-0.338c3.13,1.318 5.676,2.07 8.806,3.388c0.982,0.414 2.062,0.89 2.83,1.642c0.192,0.18 0.358,0.38 0.504,0.6c0.576,0.028 1.142,0.056 1.702,0.076c1.672,0.076 3.324,0.124 4.974,0.18c0.554,0.014 1.106,0.034 1.658,0.048c0.678,0.028 1.362,0.056 2.046,0.084c0.484,0.02 0.968,0.04 1.452,0.068c0.748,-0.462 1.65,-1.084 2.396,-1.552c0.198,-0.02 0.406,-0.036 0.604,-0.042l0.216,-0.006c0.798,-0.052 1.602,-0.076 2.408,-0.076c2.412,-0 4.842,0.216 7.228,0.552c1.79,0.248 3.422,0.696 5.126,1.186c0.436,0.126 0.898,0.18 1.37,0.18c1.532,0 3.184,-0.55 4.536,-0.878c1.312,-0.316 2.674,-0.604 4.024,-0.604c0.732,-0 1.46,0.084 2.172,0.296c5.28,-1.264 10.816,-2.664 16.092,-3.928l-0.016,0.076c-0.066,0.322 -0.134,0.644 -0.208,0.962c0.072,-0.32 0.142,-0.64 0.208,-0.962c-1.492,1.622 -2.942,3.188 -4.866,4.464c-2.326,1.554 -4.932,2.692 -7.698,3.278c-1.328,0.29 -2.748,0.484 -3.776,1.346c1.268,0.126 2.542,0.188 3.812,0.188c2.554,-0 5.098,-0.254 7.584,-0.76c0.946,-0.194 1.882,-0.422 2.758,-0.802l-0.082,0.222c8.29,-1.876 16.354,-5.162 23.472,-9.674l-0.156,0.256l-0.006,0.012c-0.014,0.024 -0.028,0.046 -0.042,0.07c0.014,-0.024 0.028,-0.046 0.042,-0.07c-1.032,1.132 -1.85,2.47 -3.022,3.41c-1.432,1.152 -2.276,1.938 -3.34,3.552c-1.896,2.886 -4.454,4.872 -7.506,6.314c-0.242,0.11 -0.494,0.228 -0.746,0.332c-4.13,1.794 -8.204,3.898 -12.208,5.94c0.366,-0.186 0.952,-0.234 1.574,-0.234c0.33,-0 0.67,0.014 0.994,0.026c0.324,0.014 0.63,0.028 0.89,0.028c0.094,-0 0.18,-0.002 0.26,-0.006c1.432,-0.07 2.864,-0.144 4.298,-0.214c0.288,-0.014 0.59,-0.016 0.9,-0.016l0.668,-0c0.878,-0 1.774,-0.022 2.534,-0.238c1.058,-0.304 2.166,-1.078 3.126,-1.608c1.634,-0.904 3.162,-1.732 4.554,-2.794l-0.006,0.012c-0.074,0.222 -0.148,0.45 -0.228,0.67c3.05,-1.628 5.834,-3.478 8.554,-5.582l0.456,-0.344l0.006,-0.008l0.128,-0.096l0.046,-0.034c-0.024,0.388 -0.042,0.776 -0.054,1.166l-0.126,-1.028c-2.094,5.842 -2.328,12.226 -2.398,18.462c-0.762,-0.798 -1.57,-1.55 -2.42,-2.254c-1.652,6.512 -0.866,13.488 -1.904,20.148c-0.252,1.61 -0.878,3.038 -1.102,4.68c-0.28,2.03 -0.356,4.096 -0.226,6.16c0.68,-2.08 1.628,-4.062 2.82,-5.882c-0.3,0.456 0.724,3.338 0.846,3.97c0.296,1.516 0.56,3.038 0.792,4.564c0.422,2.762 1.2,5.476 1.85,8.214c0.436,-3.698 0.692,-7.432 0.746,-11.17c1.078,1.614 2.27,3.152 3.56,4.602c0.728,-2.056 1.232,-4.21 1.484,-6.396c2.124,6.202 4.248,12.4 6.37,18.594c-0.714,-2.898 -1.394,-5.802 -2.04,-8.714c0.868,2.87 1.676,5.76 2.476,8.67c1.928,7.008 -1.074,16.17 -4.334,22.156c-1.516,2.784 -3.368,5.36 -5.222,7.92c-1.846,2.544 -3.724,5.108 -6.136,7.12c-1.504,1.256 -3.19,2.276 -4.876,3.28c-1.426,0.85 -2.868,1.734 -4.326,2.626c0.338,-0.834 0.64,-1.688 0.91,-2.568c-0.68,0.79 -1.528,1.162 -2.418,1.704c-0.256,-0.14 -0.58,-0.17 -0.684,-0.442c-1.074,0.17 -2.15,0.342 -3.224,0.512c-0.992,0.156 -2.02,-0.1 -2.742,0.578c-1.228,1.152 -2.178,1.92 -3.154,3.296c-0.604,0.036 -1.198,0.05 -1.782,0.05c-0.626,0 -1.244,-0.016 -1.858,-0.03c-0.614,-0.014 -1.226,-0.028 -1.84,-0.028c-1.008,-0 -2.026,0.038 -3.08,0.18c-2.52,0.336 -4.716,0.728 -7.272,0.776c0.376,0.506 0.868,1.01 1.242,1.516c-0.178,1.1 -0.292,2.038 -0.472,3.136c-1.386,0.3 -2.828,0.598 -4.248,0.598c-0.886,0.002 -1.766,-0.116 -2.618,-0.42c-0.168,-0.062 -0.368,-0.118 -0.546,-0.118c-0.168,-0 -0.316,0.052 -0.39,0.2c0.976,0.784 2.202,1.43 3.442,1.754c-0.532,0.122 -1.054,0.276 -1.564,0.472c-4.232,1.628 -6.854,5.816 -10.738,8.12c-4.092,2.428 -9.17,2.552 -14.008,2.608c-0.518,0.006 -1.042,0.012 -1.57,0.012c-4.372,0 -8.952,-0.306 -12.668,-2.388c-0.344,2.828 -0.114,5.656 1.208,8.224c0.35,0.678 0.714,1.194 1.106,1.75c-0.392,-0.556 -0.756,-1.072 -1.106,-1.75c-2.452,-4.76 -1.168,-10.418 0.618,-15.304c2.556,-7.01 6.042,-13.626 9.964,-19.938c2.568,-4.128 5.33,-8.13 7.974,-12.208c3.686,-5.67 7.152,-11.488 10.394,-17.436c3.112,-5.706 6.492,-11.584 8.718,-17.732c4.552,-12.552 1.974,-27.664 -6.56,-38.476c-2.38,-3.02 -5.174,-5.706 -7.642,-8.658c-2.308,-2.774 -4.368,-5.88 -5.302,-9.316c-0.198,0.006 -0.406,0.022 -0.604,0.042c-0.746,0.468 -1.648,1.09 -2.396,1.552c-0.484,-0.028 -0.968,-0.048 -1.452,-0.068c-0.684,-0.028 -1.368,-0.056 -2.046,-0.084c0.002,0.006 0.002,0.014 0.004,0.02c-2.194,-0.076 -4.544,-0.152 -6.63,-0.242c-0.002,-0.002 -0.004,-0.004 -0.006,-0.006c-0.56,-0.02 -1.126,-0.048 -1.702,-0.076c-0.146,-0.22 -0.312,-0.42 -0.504,-0.6c-0.768,-0.752 -1.848,-1.228 -2.83,-1.642c-3.13,-1.318 -5.676,-2.07 -8.806,-3.388l-0.152,0.338c0.638,1.554 0.926,3.23 0.83,4.872c-0.388,-0.208 -0.824,-0.32 -1.258,-0.32c-0.198,-0 -0.396,0.024 -0.588,0.072c0.14,-0.678 0.056,-1.4 -0.222,-2.044l-0.11,0.236c-2.998,-1.18 -5.594,-2.65 -8.076,-4.734l-0.17,0.262c0.65,2.332 0.952,4.748 0.878,7.142c-0.038,0.004 -0.074,0.008 -0.11,0.008c-0.596,-0 -1.028,-0.684 -1.286,-1.264c-0.436,-1.006 -0.876,-2.014 -1.35,-3.008l-0.026,0.042c-2.102,-2.272 -4.056,-4.092 -6.158,-6.362c-0.056,0.192 -0.118,0.386 -0.172,0.58c0.696,2.158 0.85,4.498 0.978,6.76c0.11,1.912 0.216,3.816 0.326,5.722c0.022,0.406 0.02,0.876 -0.28,1.138c-0.15,0.134 -0.334,0.184 -0.532,0.184c-0.294,-0 -0.616,-0.112 -0.892,-0.24c-1.418,-0.634 -2.738,-1.394 -4.062,-2.084c-1.452,-0.09 -2.838,-0.2 -4.324,-0.282l-0.11,0.524c1.7,1.526 3.216,3.43 4.504,5.272c0.122,0.186 0.262,0.392 0.256,0.614c-0,0.206 -0.122,0.392 -0.24,0.558c-1.48,2.056 -3.2,3.934 -5.124,5.584c3.222,-1.222 6.452,-2.452 9.556,-3.934c1.328,-0.628 2.64,-1.312 3.998,-1.87c2.024,-0.834 4.154,-1.4 6.296,-1.918c3.752,-0.91 7.544,-1.684 11.364,-2.306c1.604,-0.254 3.244,-0.502 4.694,-1.2c0.642,-0.31 1.256,-0.704 1.952,-0.862c0.222,-0.048 0.442,-0.07 0.66,-0.07c1.562,-0 3.064,1.138 4.172,2.362c0.21,0.23 0.418,0.468 0.624,0.708c1.492,2.666 3.696,4.952 6.312,6.522c1.378,0.828 2.874,1.47 4.146,2.45c0.89,0.69 1.53,1.6 2.38,2.326c0.642,0.544 1.186,1.026 1.736,1.696c1.282,1.566 2.51,3.174 3.61,4.864c2.18,3.34 3.982,7.15 4.082,11.138c0.096,4.292 -2.094,8.156 -3.694,12.074c-3.026,7.418 -4.046,15.614 -7.262,22.95c-7.812,17.808 -27.356,28.062 -35.048,45.926c-1.838,4.256 -1,8.756 -0.48,13.454c0.646,5.844 1.938,11.634 3.6,17.312c0.788,2.702 1.662,5.396 2.778,7.984c-1.284,0.53 -2.746,0.76 -4.308,0.76c-6.938,-0 -15.88,-4.526 -20.246,-7.336c-0.222,1.938 -0.444,3.876 -0.664,5.814c-0.102,0.886 -0.28,1.892 -1.044,2.33c-0.274,0.156 -0.582,0.214 -0.902,0.214c-0.382,-0 -0.78,-0.082 -1.156,-0.176c-3.546,-0.87 -6.926,-2.462 -9.92,-4.608c-2.44,-1.748 -4.534,-5.216 -7.162,-6.384c2.114,7.042 9.712,13.326 15.744,17.114c5.794,3.636 12.146,6.192 18.544,8.434c1.542,0.538 3.106,1.01 4.646,1.538c1.192,0.41 2.11,1.318 3.252,1.91c2.634,1.37 5.586,1.878 8.416,2.6c0.456,0.116 0.912,0.236 1.362,0.366c1.896,0.544 3.744,1.264 5.664,1.688c1.902,0.42 3.846,0.546 5.778,0.546c0.208,-0 0.414,-0.002 0.622,-0.004c0.528,-0.006 1.056,-0.022 1.582,-0.044c1.114,1.126 2.262,2.218 3.474,3.21c-1.558,0.048 -3.102,0.09 -4.66,0.132c-0.11,0.002 -0.222,0.006 -0.334,0.006c-0.286,-0 -0.574,-0.022 -0.85,-0.11c-0.998,-0.33 -1.098,-0.924 -1.754,-0.924c-0.18,-0 -0.402,0.044 -0.698,0.152c-1.062,0.378 -2.112,0.688 -3.236,0.882c-2.188,0.38 -4.428,0.442 -6.628,0.786c-3.916,0.616 -7.72,1.822 -11.24,3.576Zm-35.092,-51.612c0.386,1.922 0.876,3.516 1.524,5.376c0.204,0.594 0.624,1.104 1.104,1.518c0.388,0.33 0.822,0.61 1.296,0.792c0.582,0.222 1.2,0.32 1.82,0.32c0.942,0 1.888,-0.228 2.732,-0.604c0.578,-0.258 1.216,-0.328 1.864,-0.328c0.36,-0 0.724,0.022 1.082,0.044c0.926,0.058 1.682,0.124 2.604,0.18c1.118,-1.016 2.236,-2.032 3.35,-3.048c0.158,-0.144 0.318,-0.29 0.428,-0.47c0.11,-0.176 0.17,-0.378 0.228,-0.578c0.466,-1.606 1.674,-2.772 1.302,-4.432c-0.252,-1.122 -0.778,-2.172 -1.298,-3.206c-0.644,-1.282 -1.288,-2.564 -1.932,-3.846c0.024,1.228 0.032,2.454 0.02,3.68c-0.01,0.972 -0.006,1.744 -0.776,2.35c-0.624,0.49 -1.484,0.654 -2.184,1.008c-1.34,0.68 -2.474,1.696 -3.842,2.338c-0.654,0.308 -1.342,0.54 -2.03,0.772c-0.9,0.302 -1.802,0.604 -2.702,0.908c-0.336,0.112 -0.69,0.224 -1.04,0.224c-0.154,0 -0.304,-0.022 -0.452,-0.074c-0.292,-0.1 -0.534,-0.31 -0.764,-0.518c-0.828,-0.75 -1.61,-1.554 -2.334,-2.406Zm4.338,-15.494c-0.308,1.718 0.072,3.414 0.262,5.142c0.11,1.01 0.236,2.018 0.372,3.026c0.098,0.714 0.66,2.366 0.452,3.018c0.574,-1.788 0.574,-3.722 0.57,-5.622c-0.004,-0.924 -0.008,-1.862 -0.256,-2.764c-0.276,-1.004 -0.842,-1.91 -1.4,-2.8Zm7.124,-2.35c-1.63,3.008 -1.722,6.538 -1.192,9.944c0.79,-1.528 0.968,-3.31 1.134,-5.042c0.162,-1.7 0.44,-3.164 0.058,-4.902Zm62.924,-16.004c-0.032,-0 -0.058,0.012 -0.08,0.036c-2.462,2.798 -4.476,5.848 -7.04,8.614c-2.704,2.916 -5.414,5.844 -7.69,9.108c3.602,1.46 7.298,2.66 11.054,3.59c-0.782,-1.93 -1.566,-3.86 -2.35,-5.79c4.38,0.812 8.816,1.258 13.242,1.332c-1.95,-2.484 -3.706,-5.116 -5.244,-7.864c0.412,0.038 0.826,0.056 1.24,0.056c1.33,-0 2.654,-0.19 3.916,-0.566c-0.02,0.006 -0.042,0.008 -0.064,0.008c-0.61,-0 -2.136,-2.13 -3.62,-4.262c-1.486,-2.13 -2.926,-4.262 -3.364,-4.262Zm-70.63,10.244c0.316,2.478 1.334,4.89 2.902,6.88c-0.046,-0.058 1.592,-3.888 1.878,-4.316c0.984,-1.472 2.932,-2.136 4.09,-3.51c1.48,-1.754 2.01,-4.274 1.382,-6.548c1.388,0.986 2.218,2.562 2.992,4.072c1.188,-1.58 2.548,-3.122 3.588,-4.806c0.78,-1.268 1.16,-2.466 2.486,-3.38c0.612,-0.42 1.31,-0.7 1.956,-1.064c1.776,-1 3.202,-2.672 5.206,-3.132c-0.806,-1.112 -2.11,-1.732 -3.354,-2.306c-1.086,-0.498 -2.17,-0.998 -3.254,-1.496c-0.164,-0.076 -0.342,-0.154 -0.516,-0.154c-0.042,0 -0.082,0.004 -0.122,0.014c-0.59,0.138 -0.496,1.156 -1.058,1.374c-1.87,-1.262 -3.536,-3.594 -4.926,-5.362c-1.188,1.324 -1.664,3.258 -1.238,5.034c-0.81,-0.134 -1.586,-0.502 -2.216,-1.044c-1.344,2.162 -4.148,2.768 -6.426,3.922c-0.294,0.15 -0.594,0.32 -0.776,0.596c-0.214,0.322 -0.234,0.736 -0.246,1.13c-0.058,1.644 -0.114,3.288 -0.172,4.932c-1.164,-0.548 -1.666,-1.904 -2.17,-3.086c-0.506,-1.182 -1.364,-2.48 -2.634,-2.54c-0.032,-0.002 -0.064,-0.002 -0.096,-0.002c-1.616,-0 -2.366,1.988 -2.668,3.596c-0.632,3.382 -0.684,5.682 -0.238,9.038c0.02,0.148 0.088,0.526 0.184,1.046c0.428,2.328 1.404,7.5 1.066,7.768c2.106,-1.674 2.088,-5.236 4.38,-6.656Zm87.022,-3.222c-1.378,-2.74 -2.55,-5.578 -3.502,-8.482c0.046,-0.002 0.09,-0.006 0.134,-0.008c0.136,0.392 0.252,0.702 0.322,0.816c0.626,1.014 1.344,1.626 2.342,2.28c2.342,1.538 4.94,2.612 7.508,3.676c-1.17,-0.99 -2.262,-2.088 -3.344,-3.194c1.684,1.1 3.542,1.924 5.46,2.486c2.742,0.804 5.586,1.076 8.41,1.344c-0.876,-2.066 -1.068,-4.314 -1.29,-6.536c0.488,1.01 0.968,2.022 1.518,3.01c0.476,0.86 2.286,2.876 2.324,3.79c-0.05,-1.27 -0.346,-2.526 -0.638,-3.774c-0.912,-3.868 -1.834,-7.772 -3.574,-11.376c-0.246,0.668 -0.456,1.346 -0.604,2.032c-0.294,-1.366 -0.642,-2.722 -1.042,-4.064c-0.592,-1.988 -1.236,-3.978 -1.914,-5.94c-0.472,-1.376 -1.552,-3.338 -1.178,-4.782c0.494,-1.894 3.262,-1.952 4.528,-3.422c-1.998,-1.718 -3.75,-3.722 -5.184,-5.924c1.7,-1.21 4.188,-0.934 5.858,-2.186c0.93,-0.696 1.478,-1.776 1.998,-2.82c2.206,-4.436 3.582,-8.68 4.69,-13.486c0.502,-2.178 0.402,-4.506 1.13,-6.612c0.298,-0.862 0.73,-1.67 1.16,-2.472c2.166,-4.034 4.33,-8.072 6.496,-12.11c-2.864,0.388 -5.316,2.956 -8.05,2.956c-0.374,-0 -0.754,-0.048 -1.142,-0.156c0.752,-0.966 1.502,-1.932 2.252,-2.896c-0.416,0.874 -0.756,1.784 -1.002,2.736c2.44,-1.842 4.89,-3.692 7.032,-5.868c1.484,-1.506 2.592,-2.85 3.428,-4.82c0.468,-1.1 0.874,-2.23 1.216,-3.38c0.162,-0.548 0.272,-2.1 0.576,-2.816c1.532,-1.64 3.204,-3.12 5.144,-4.254c-7.186,1.542 -14.412,3.088 -21.802,3.404c-0.284,0.012 -0.572,0.018 -0.866,0.018c-1.818,0 -3.734,-0.296 -4.896,-1.678c0.112,-0.246 0.222,-0.492 0.33,-0.738c-0.918,0.266 -1.878,0.398 -2.844,0.398c-1.89,0 -3.802,-0.502 -5.464,-1.474c7.84,-1.748 15.746,-3.518 23.002,-6.844c-5.604,0.646 -11.262,0.97 -16.928,0.97c-1.348,-0 -2.694,-0.018 -4.042,-0.054c-3.476,-0.096 -6.95,-0.31 -10.418,-0.648c-1.596,-0.154 -3.178,-0.326 -4.776,-0.43c-0.684,-0.046 -4.584,0.092 -4.936,-0.414c0.796,1.144 1.504,3.22 2.704,3.958c0.694,0.426 1.256,1.07 1.584,1.812c2.604,0.148 5.208,0.296 7.814,0.446c-1.912,0.754 -3.822,1.508 -5.732,2.262c-0.266,0.106 -0.57,0.26 -0.598,0.546c-0.022,0.22 0.048,0.434 0.18,0.638c0.424,0.67 1.462,1.248 1.9,1.654c2.266,2.098 3.286,4.876 4.572,7.602c0.094,0.198 0.194,0.404 0.368,0.54c0.206,0.158 0.478,0.19 0.734,0.214c3.456,0.336 6.91,0.67 10.366,1.004c-3.298,0.8 -6.424,1.904 -9.882,1.99c0.142,1.802 0.432,3.596 0.872,5.36c0.566,-0.558 1.482,-0.498 2.288,-0.56c1.302,-0.102 2.466,-0.69 3.738,-0.866c0.058,-0.008 0.124,-0.012 0.2,-0.012c0.278,-0 0.664,0.05 1.066,0.098c0.402,0.05 0.822,0.1 1.166,0.1c0.288,-0 0.524,-0.036 0.65,-0.134c-1.33,1.034 -2.602,1.988 -4.128,2.68c-0.262,0.12 -3.048,1.202 -4.002,1.202c-0.188,-0 -0.306,-0.042 -0.316,-0.144c0.174,1.588 -0.086,3.054 -0.17,4.598c-0.096,1.758 0.236,3.596 0.242,5.388c0.008,3.73 -0.408,7.444 -1.24,11.05c-0.058,0.252 -0.116,0.54 0.03,0.764l0.362,0.294c1.64,0.966 3.282,1.93 4.922,2.896c-1.276,0.786 -2.784,1.202 -4.308,1.202c-0.374,-0 -0.752,-0.026 -1.126,-0.076c-1.106,3.018 -2.166,6.162 -3.584,9.042c-0.388,0.79 -4.184,7.476 -3.794,7.89c1.358,1.436 2.836,2.758 4.416,3.946c-0.236,0.024 -0.52,0.032 -0.836,0.032c-0.278,-0 -0.58,-0.006 -0.894,-0.012c-0.312,-0.006 -0.636,-0.012 -0.96,-0.012c-1.138,-0 -2.26,0.074 -2.81,0.482c1.156,2.168 2.888,4.192 4.308,6.212c-2.418,-0.29 -4.29,-0.042 -6.454,-1.412c1.94,1.228 -4.556,9.464 -5.29,10.512c1.428,0.526 2.204,1.494 3.102,2.644c0.88,1.132 1.98,2.088 3.08,3.034c1.204,1.036 2.458,2.02 3.804,2.864c0.672,0.422 3.978,1.5 4.234,2.014Zm30.11,-69.534c0.022,0.564 -0.776,1.64 -0.994,2.188c-0.296,0.746 -0.56,1.506 -0.786,2.278c-0.396,1.34 -0.32,2.186 -0.09,3.54c0.6,3.564 0.856,7.208 1.278,10.792c0.802,-6.204 1,-12.51 0.592,-18.798Zm-54.45,142.774c-0.142,-0.178 -0.284,-0.356 -0.428,-0.532c0.148,0.146 0.296,0.292 0.444,0.438l0,0.006l-0.016,0.088Zm60.984,-15.994c-0.076,-0.31 -0.15,-0.61 -0.222,-0.888l0.25,0.2l-0.09,-0.366l0.09,0.366c0.03,0.22 0.026,0.454 -0.028,0.688Zm4.41,-5.16c-0.242,-0.12 -0.484,-0.236 -0.726,-0.354c0.344,0.024 0.688,0.04 1.032,0.048c-2.766,-1.836 -5.53,-3.674 -8.296,-5.51c-2.416,-1.606 -4.696,-4.012 -6.294,-6.422c0.24,0.026 0.48,0.038 0.718,0.038c1.848,-0 3.64,-0.752 5.086,-1.866c1.928,-1.488 3.704,-3.13 5.32,-4.952c5.822,-6.572 10.928,-13.746 16.482,-20.48c5.05,-6.124 9.202,-14.858 10.818,-22.702c0.724,-3.514 0.928,-7.134 1.01,-10.744c0.196,-8.79 0.144,-16.77 -4.792,-24.594c-0.16,-0.254 -0.324,-0.504 -0.492,-0.75c-3.198,-4.684 -6.218,-9.322 -9.8,-13.662c-0.16,-0.836 -0.318,-1.676 -0.472,-2.514c-1.628,-8.88 -2.932,-17.808 -3.988,-26.75c-0.218,-1.87 -0.408,-3.726 -0.554,-5.576c2.296,-1.144 4.708,-2.264 6.996,-3.402c0.018,0.256 0.026,0.504 0.052,0.76l-0,0.006c0.432,6.742 1.534,13.476 3.464,20.004c-1.93,-6.528 -3.032,-13.262 -3.464,-20.004c-0.196,1.368 -0.302,2.76 -0.478,4.12c-0.388,2.988 -0.85,5.96 -1.392,8.914c-0.382,2.084 -0.804,4.174 -0.79,6.306c0.008,1.34 0.184,2.686 0.388,4.018c0.702,4.594 1.686,9.156 2.944,13.654c0.164,-1.456 0.336,-2.912 0.506,-4.368c0.21,-1.732 0.412,-3.464 0.752,-5.168c0.352,-1.78 0.858,-3.526 1.196,-5.314c0.138,-0.71 0.248,-1.426 0.338,-2.152c0.056,0.214 0.12,0.422 0.184,0.636c2.428,-0.2 4.878,-1.194 7.22,-1.864l0.184,-0.054l-0.004,0.234c-0.042,3.228 -0.082,6.45 -0.122,9.68c-0.028,2.332 -0.538,4.83 -0.228,7.17c0.292,2.174 1.312,4.436 1.878,6.576c1.27,4.816 1.868,9.646 2.698,14.488l0,0.008c0.054,0.31 0.106,0.614 0.16,0.924c2.636,5.168 5.998,8.26 9.182,12.082l-0.276,0.324c-1.446,1.698 -3.086,3.182 -4.95,4.424l0.052,0.11c3.468,7.398 8.38,14.504 14.026,20.452l0.03,0.028c-5.636,3.096 -11.056,6.402 -16.456,9.866c1.082,1.406 1.784,3.29 2.284,4.982c-2.16,1.076 -4.512,2.324 -6.672,3.408c0.586,0.662 0.63,1.484 0.78,2.346c-1.144,0.738 -2.396,1.374 -3.546,2.112c-1.502,4.016 -3.342,8.376 -5.574,12.012c-1.232,2.014 -2.678,3.878 -4.118,5.742c-2.398,3.096 -4.79,6.188 -7.184,9.286c-1.398,1.814 -2.938,3.72 -5.112,4.444Zm-25.836,-6.046c-0.11,-0.034 -0.222,-0.066 -0.334,-0.096c-3.974,-1.076 -7.91,-1.834 -12.002,-1.856c4.156,0.022 8.326,0.696 12.336,1.952Zm-77.898,-74.856c-1.648,-1.006 -3.264,-2.152 -4.56,-3.584c0.216,-1.23 0.434,-2.458 0.652,-3.688c1.97,1.618 3.864,3.332 5.67,5.13c0.51,-1.526 1.514,-2.87 2.83,-3.784c0.15,-0.102 0.322,-0.206 0.502,-0.206c0.036,-0 0.074,0.006 0.112,0.016c0.238,0.062 0.38,0.306 0.49,0.528c0.394,0.782 0.786,1.562 1.18,2.344c-0.662,0.052 -1.324,0.12 -1.984,0.268c-1.356,0.306 -2.504,1.134 -3.616,1.944c-0.562,0.412 -0.714,0.62 -1.276,1.032Zm-49.966,-7.906c0,-0.002 -0.002,-0.006 -0.002,-0.008c-0,0.002 0.002,0.006 0.002,0.008Zm-0.002,-0.012c-0.074,-0.43 -0.166,-0.858 -0.274,-1.282c0.108,0.424 0.2,0.852 0.274,1.282Zm4.226,-25.034l-0.042,-0.362c0.076,0.068 0.082,0.2 0.042,0.362Zm-1.972,-8.83c-0.102,-0.446 -0.204,-0.892 -0.304,-1.336c0.1,0.444 0.202,0.89 0.304,1.336Zm146.574,-28.308c0.008,-0.022 0.016,-0.044 0.024,-0.068c-0.008,0.024 -0.016,0.046 -0.024,0.068Zm1.042,-2.736c0.002,-0.006 0.006,-0.014 0.008,-0.02c-0.002,0.006 -0.006,0.014 -0.008,0.02Zm0.026,-0.064c1.45,-3.572 3.23,-7.118 5.168,-10.392c-0.292,0.492 -0.578,0.992 -0.858,1.496c-1.604,2.844 -3.078,5.862 -4.31,8.896Zm5.178,-10.41c0.002,-0.002 0.002,-0.004 0.004,-0.006c-0.002,0.002 -0.002,0.004 -0.004,0.006Zm0.696,-1.152c0.004,-0.008 0.008,-0.014 0.012,-0.02c-0.004,0.006 -0.008,0.012 -0.012,0.02Z" style="fill:url(#_Radial1);"/>
    <path d="M50.192,87.506c-1.694,-1.126 -3.546,-2.008 -5.472,-2.62c-2.16,-0.686 -4.414,-1.038 -6.654,-1.038l-0.028,-0c-2.54,-2.568 -5.08,-5.138 -7.622,-7.706c1.792,-2.05 3.902,-3.822 6.232,-5.24c-1.604,0.284 -3.236,0.424 -4.876,0.424c-3.926,-0 -7.888,-0.808 -11.548,-2.38c3.71,-1.65 7.418,-3.296 11.128,-4.946c-2.26,0.32 -4.518,0.636 -6.776,0.956c-1.796,0.252 -3.664,0.492 -5.502,0.492c-2.244,-0 -4.444,-0.358 -6.408,-1.488c6.89,-4.25 13.78,-8.5 20.67,-12.752c0.252,-0.154 0.504,-0.31 0.756,-0.466c0.3,-0.118 0.602,-0.232 0.906,-0.346c-0.074,-0.024 -0.15,-0.05 -0.224,-0.072c2.442,-1.494 4.944,-2.936 7.66,-3.884c1.428,-0.5 2.848,-0.598 4.232,-1.188c1.206,-0.512 2.424,-1.672 3.646,-2.024c-5.242,1.508 -10.61,2.626 -16.044,3.34c-2.138,0.28 -4.588,0.806 -6.84,0.806c-0.388,-0 -0.768,-0.014 -1.142,-0.05c-1.868,-0.174 -3.354,-1.366 -4.936,-2.442c7.21,-4.816 15.534,-7.412 22.72,-12.264c-0.624,-0.074 -1.252,-0.11 -1.878,-0.11c-2.264,-0 -4.514,0.472 -6.554,1.384c5.82,-5.076 13.124,-8.044 20.456,-10.4c4.702,-1.514 9.332,-3.242 14.082,-4.626c2.442,-0.712 4.928,-1.39 7.448,-1.8c0.84,-0.138 2.198,-0.276 3.486,-0.276c1.04,-0 2.036,0.09 2.676,0.344c1.578,0.624 1.856,2.732 2.954,4.036c-3.644,1.828 -6.98,4.236 -9.854,7.108c3.222,-1.44 6.674,-2.392 10.212,-2.816c0.516,-0.062 1.044,-0.11 1.57,-0.11c0.802,-0 1.598,0.112 2.326,0.464c0.734,0.354 1.344,0.926 1.918,1.508c1.132,1.146 2.48,2.456 3.358,3.798c0.326,0.5 1.98,4.486 2.764,4.486c0.018,-0 0.036,-0.002 0.054,-0.008c-3.88,1 -7.758,2 -11.636,3c5.256,-0.156 10.512,-0.312 15.768,-0.466c0.654,2.654 1.006,5.57 -0.23,7.932c-0.848,1.62 -2.7,2.746 -4.482,2.746c-0.818,0 -1.62,-0.238 -2.304,-0.772c0.936,1.072 1.738,2.262 2.37,3.532c-1.786,1.756 -3.682,3.4 -5.676,4.92c-0.442,0.336 -0.912,0.674 -1.468,0.754c-0.088,0.014 -0.176,0.02 -0.264,0.02c-0.544,-0 -1.088,-0.224 -1.602,-0.452c-1.866,-0.828 -3.69,-1.76 -5.46,-2.788c2.046,2.878 3.918,5.878 5.598,8.974c0.328,0.602 0.656,1.246 0.628,1.916c-0.048,1.192 -1.166,2.012 -1.548,3.126c-0.202,0.582 -0.198,1.236 -0.468,1.786c-0.25,0.512 -0.706,0.88 -1.15,1.234c-3.778,3 -6.958,6.422 -11.146,8.816c-2.122,1.214 -4.326,2.3 -6.352,3.668c-0.3,0.202 -1.526,1.058 -2.656,1.984c-1.006,0.256 -2.052,0.298 -3.106,0.38c-0.394,-0.782 -0.786,-1.562 -1.18,-2.344c-0.11,-0.222 -0.252,-0.466 -0.49,-0.528c-0.038,-0.01 -0.076,-0.016 -0.112,-0.016c-0.18,-0 -0.352,0.104 -0.502,0.206c-1.316,0.914 -2.32,2.258 -2.83,3.784c-1.806,-1.798 -3.7,-3.512 -5.67,-5.13c-0.218,1.23 -0.436,2.458 -0.652,3.688c-0.044,-0.048 -0.086,-0.096 -0.128,-0.144c-0.746,0.662 -1.462,1.356 -2.148,2.08Z" style="fill:url(#_Radial2);"/>
    <path d="M35.588,128.072c-1.568,-1.99 -2.586,-4.402 -2.902,-6.88c-2.292,1.42 -2.274,4.982 -4.38,6.656c0.338,-0.268 -0.638,-5.44 -1.066,-7.768c-0.096,-0.52 -0.164,-0.898 -0.184,-1.046c-0.446,-3.356 -0.394,-5.656 0.238,-9.038c0.302,-1.608 1.052,-3.596 2.668,-3.596c0.032,-0 0.064,-0 0.096,0.002c1.27,0.06 2.128,1.358 2.634,2.54c0.504,1.182 1.006,2.538 2.17,3.086c0.058,-1.644 0.114,-3.288 0.172,-4.932c0.012,-0.394 0.032,-0.808 0.246,-1.13c0.182,-0.276 0.482,-0.446 0.776,-0.596c2.278,-1.154 5.082,-1.76 6.426,-3.922c0.63,0.542 1.406,0.91 2.216,1.044c-0.426,-1.776 0.05,-3.71 1.238,-5.034c1.39,1.768 3.056,4.1 4.926,5.362c0.562,-0.218 0.468,-1.236 1.058,-1.374c0.04,-0.01 0.08,-0.014 0.122,-0.014c0.174,0 0.352,0.078 0.516,0.154c1.084,0.498 2.168,0.998 3.254,1.496c1.244,0.574 2.548,1.194 3.354,2.306c-2.004,0.46 -3.43,2.132 -5.206,3.132c-0.646,0.364 -1.344,0.644 -1.956,1.064c-1.326,0.914 -1.706,2.112 -2.486,3.38c-1.04,1.684 -2.4,3.226 -3.588,4.806c-0.774,-1.51 -1.604,-3.086 -2.992,-4.072c0.628,2.274 0.098,4.794 -1.382,6.548c-1.158,1.374 -3.106,2.038 -4.09,3.51c-0.286,0.428 -1.924,4.258 -1.878,4.316Z" style="fill:url(#_Radial3);"/>
    <path d="M119.708,117.97c-0.256,-0.514 -3.562,-1.592 -4.234,-2.014c-1.346,-0.844 -2.6,-1.828 -3.804,-2.864c-1.1,-0.946 -2.2,-1.902 -3.08,-3.034c-0.898,-1.15 -1.674,-2.118 -3.102,-2.644c0.734,-1.048 7.23,-9.284 5.29,-10.512c2.164,1.37 4.036,1.122 6.454,1.412c-1.42,-2.02 -3.152,-4.044 -4.308,-6.212c0.55,-0.408 1.672,-0.482 2.81,-0.482c0.324,-0 0.648,0.006 0.96,0.012c0.314,0.006 0.616,0.012 0.894,0.012c0.316,-0 0.6,-0.008 0.836,-0.032c-1.58,-1.188 -3.058,-2.51 -4.416,-3.946c-0.39,-0.414 3.406,-7.1 3.794,-7.89c1.418,-2.88 2.478,-6.024 3.584,-9.042c0.374,0.05 0.752,0.076 1.126,0.076c1.524,-0 3.032,-0.416 4.308,-1.202c-1.64,-0.966 -3.282,-1.93 -4.922,-2.896l-0.362,-0.294c-0.146,-0.224 -0.088,-0.512 -0.03,-0.764c0.832,-3.606 1.248,-7.32 1.24,-11.05c-0.006,-1.792 -0.338,-3.63 -0.242,-5.388c0.084,-1.544 0.344,-3.01 0.17,-4.598c0.01,0.102 0.128,0.144 0.316,0.144c0.954,-0 3.74,-1.082 4.002,-1.202c1.526,-0.692 2.798,-1.646 4.128,-2.68c-0.126,0.098 -0.362,0.134 -0.65,0.134c-0.344,-0 -0.764,-0.05 -1.166,-0.1c-0.402,-0.048 -0.788,-0.098 -1.066,-0.098c-0.076,-0 -0.142,0.004 -0.2,0.012c-1.272,0.176 -2.436,0.764 -3.738,0.866c-0.806,0.062 -1.722,0.002 -2.288,0.56c-0.44,-1.764 -0.73,-3.558 -0.872,-5.36c3.458,-0.086 6.584,-1.19 9.882,-1.99c-3.456,-0.334 -6.91,-0.668 -10.366,-1.004c-0.256,-0.024 -0.528,-0.056 -0.734,-0.214c-0.174,-0.136 -0.274,-0.342 -0.368,-0.54c-1.286,-2.726 -2.306,-5.504 -4.572,-7.602c-0.438,-0.406 -1.476,-0.984 -1.9,-1.654c-0.132,-0.204 -0.202,-0.418 -0.18,-0.638c0.028,-0.286 0.332,-0.44 0.598,-0.546c1.91,-0.754 3.82,-1.508 5.732,-2.262c-2.606,-0.15 -5.21,-0.298 -7.814,-0.446c-0.328,-0.742 -0.89,-1.386 -1.584,-1.812c-1.2,-0.738 -1.908,-2.814 -2.704,-3.958c0.352,0.506 4.252,0.368 4.936,0.414c1.598,0.104 3.18,0.276 4.776,0.43c3.468,0.338 6.942,0.552 10.418,0.648c1.348,0.036 2.694,0.054 4.042,0.054c5.666,-0 11.324,-0.324 16.928,-0.97c-7.256,3.326 -15.162,5.096 -23.002,6.844c1.662,0.972 3.574,1.474 5.464,1.474c0.966,0 1.926,-0.132 2.844,-0.398c-0.108,0.246 -0.218,0.492 -0.33,0.738c1.162,1.382 3.078,1.678 4.896,1.678c0.294,0 0.582,-0.006 0.866,-0.018c7.39,-0.316 14.616,-1.862 21.802,-3.404c-1.94,1.134 -3.612,2.614 -5.144,4.254c0.054,-0.132 0.116,-0.234 0.184,-0.298c-2.414,2.264 -4.39,4.978 -6.534,7.472c-1.852,2.152 -3.688,4.416 -4.9,6.974c-0.75,0.964 -1.5,1.93 -2.252,2.896c0.388,0.108 0.768,0.156 1.142,0.156c2.734,-0 5.186,-2.568 8.05,-2.956c-2.166,4.038 -4.33,8.076 -6.496,12.11c-0.43,0.802 -0.862,1.61 -1.16,2.472c-0.728,2.106 -0.628,4.434 -1.13,6.612c-1.108,4.806 -2.484,9.05 -4.69,13.486c-0.52,1.044 -1.068,2.124 -1.998,2.82c-1.67,1.252 -4.158,0.976 -5.858,2.186c1.434,2.202 3.186,4.206 5.184,5.924c-1.266,1.47 -4.034,1.528 -4.528,3.422c-0.374,1.444 0.706,3.406 1.178,4.782c0.678,1.962 1.322,3.952 1.914,5.94c0.4,1.342 0.748,2.698 1.042,4.064c-0.388,1.796 -0.358,3.63 0.504,5.358c0.158,0.32 0.314,0.64 0.47,0.96c0.222,2.222 0.414,4.47 1.29,6.536c-2.824,-0.268 -5.668,-0.54 -8.41,-1.344c-1.918,-0.562 -3.776,-1.386 -5.46,-2.486c-2.382,-2.43 -4.724,-4.892 -7.76,-6.308c0.08,0.036 0.572,1.68 0.932,2.73c-0.044,0.002 -0.088,0.006 -0.134,0.008c0.952,2.904 2.124,5.742 3.502,8.482Z" style="fill:url(#_Radial4);"/>
    <path d="M161.068,169.75c-0.344,-0.008 -0.688,-0.024 -1.032,-0.048c-1.838,-0.89 -3.698,-1.732 -5.576,-2.524c-2.222,-0.938 -3.36,-2.698 -5.168,-4.298c-3.23,-2.864 -6.918,-4.396 -10.778,-6.12c-2.84,-1.264 -5.512,-1.566 -8.364,-1.566c-1.042,-0 -2.11,0.042 -3.216,0.09c-1.026,0.046 -2.054,0.072 -3.086,0.072c-3.15,-0 -6.31,-0.246 -9.41,-0.922c-3.68,-0.808 -7.22,-2.208 -10.842,-3.264c-2.582,-0.752 -5.246,-1.344 -7.926,-1.394c-0.072,-0.002 -0.142,-0.002 -0.212,-0.002c-2.188,-0 -4.268,0.594 -6.452,0.756c-1.094,0.082 -2.212,0.174 -3.32,0.174c-1.382,-0 -2.748,-0.144 -4.038,-0.634c-0.392,-0.556 -0.756,-1.072 -1.106,-1.75c-1.322,-2.568 -1.552,-5.396 -1.208,-8.224c3.716,2.082 8.296,2.388 12.668,2.388c0.528,0 1.052,-0.006 1.57,-0.012c4.838,-0.056 9.916,-0.18 14.008,-2.608c3.884,-2.304 6.506,-6.492 10.738,-8.12c0.51,-0.196 1.032,-0.35 1.564,-0.472c0.352,0.09 0.706,0.156 1.056,0.192c0.314,0.032 0.648,0.04 0.992,0.04c0.176,-0 0.352,-0.002 0.532,-0.004c0.178,-0.002 0.358,-0.004 0.538,-0.004c1.058,-0 2.11,0.072 2.886,0.638c0.996,0.73 1.994,1.458 2.99,2.186c0.266,0.194 0.542,0.394 0.858,0.478c0.126,0.034 0.254,0.048 0.382,0.048c0.34,0 0.682,-0.1 1.008,-0.2c1.584,-0.486 3.682,-0.774 5.268,-1.26c2.378,0.066 4.776,0.534 7.108,1.078c0.264,-2.26 0.68,-4.188 0.784,-6.468c1.29,-0.908 2.62,-1.38 3.724,-2.506c0.278,-0.28 0.482,-0.622 0.678,-0.964c0.74,-1.288 1.382,-2.594 1.93,-3.948c1.458,-0.892 2.9,-1.776 4.326,-2.626c1.686,-1.004 3.372,-2.024 4.876,-3.28c2.412,-2.012 4.29,-4.576 6.136,-7.12c1.854,-2.56 3.706,-5.136 5.222,-7.92c3.26,-5.986 6.262,-15.148 4.334,-22.156c-0.8,-2.91 -1.608,-5.8 -2.476,-8.67c-0.786,-3.558 -1.522,-7.124 -2.206,-10.7c3.582,4.34 6.602,8.978 9.8,13.662c0.168,0.246 0.332,0.496 0.492,0.75c4.936,7.824 4.988,15.804 4.792,24.594c-0.082,3.61 -0.286,7.23 -1.01,10.744c-1.616,7.844 -5.768,16.578 -10.818,22.702c-5.554,6.734 -10.66,13.908 -16.482,20.48c-1.616,1.822 -3.392,3.464 -5.32,4.952c-1.446,1.114 -3.238,1.866 -5.086,1.866c-0.238,-0 -0.478,-0.012 -0.718,-0.038c1.598,2.41 3.878,4.816 6.294,6.422c2.766,1.836 5.53,3.674 8.296,5.51Z" style="fill:url(#_Radial5);"/>
    <path d="M87.744,188.746c-1.932,-0 -3.876,-0.126 -5.778,-0.546c-1.92,-0.424 -3.768,-1.144 -5.664,-1.688c-0.45,-0.13 -0.906,-0.25 -1.362,-0.366c-2.83,-0.722 -5.782,-1.23 -8.416,-2.6c-1.142,-0.592 -2.06,-1.5 -3.252,-1.91c-1.54,-0.528 -3.104,-1 -4.646,-1.538c-6.398,-2.242 -12.75,-4.798 -18.544,-8.434c-6.032,-3.788 -13.63,-10.072 -15.744,-17.114c2.628,1.168 4.722,4.636 7.162,6.384c2.994,2.146 6.374,3.738 9.92,4.608c0.376,0.094 0.774,0.176 1.156,0.176c0.32,-0 0.628,-0.058 0.902,-0.214c0.764,-0.438 0.942,-1.444 1.044,-2.33c0.22,-1.938 0.442,-3.876 0.664,-5.814c4.366,2.81 13.308,7.336 20.246,7.336c1.562,-0 3.024,-0.23 4.308,-0.76c0.794,1.842 1.71,3.628 2.802,5.32c2.056,3.194 4.682,5.99 7.294,8.762c2.59,2.74 5.174,5.486 7.764,8.226c0.772,0.82 1.552,1.646 2.348,2.454c-0.526,0.022 -1.054,0.038 -1.582,0.044c-0.208,0.002 -0.414,0.004 -0.622,0.004Zm9.906,-0.886c-3.494,-3.214 -6.852,-6.572 -9.846,-10.248c-4.326,-5.314 -8.55,-11.592 -10.104,-18.264c-0.082,-0.344 -0.144,-0.708 -0.178,-1.074c0.458,0.094 0.942,0.13 1.436,0.13c1.502,-0 3.098,-0.334 4.346,-0.43c1.67,-0.13 3.348,-0.194 5.028,-0.194c5.514,-0 11.054,0.692 16.454,2.056l0.042,0.008c3.234,0.822 6.436,1.884 9.738,2.2c0.892,0.084 1.786,0.112 2.68,0.112c0.846,0 1.69,-0.024 2.536,-0.05c0.846,-0.024 1.69,-0.048 2.536,-0.048l0.272,-0c4.092,0.022 8.028,0.78 12.002,1.856c0.112,0.03 0.224,0.062 0.334,0.096c0.202,0.062 0.402,0.126 0.604,0.192c2.6,0.896 5.088,2.516 7.204,4.224c0,-0.002 -0.002,-0.002 -0.006,-0.002c-0.186,0 -3.848,3.138 -4.218,3.526c-1.348,1.416 -3.288,2.378 -5,3.31c-3.788,2.064 -7.806,3.69 -11.836,5.25c-7.792,3.022 -15.774,5.936 -24.024,7.35Z" style="fill:url(#_Radial6);"/>
    <path d="M155.398,177.288c-0.938,-0.83 -1.8,-1.754 -2.69,-2.636c-4.826,-4.768 -10.788,-8.348 -17.178,-10.45c-0.2,-0.068 -0.402,-0.132 -0.604,-0.192c-4.01,-1.256 -8.18,-1.93 -12.336,-1.952l-0.272,-0c-0.846,-0 -1.69,0.024 -2.536,0.048c-0.846,0.026 -1.69,0.05 -2.536,0.05c-0.894,0 -1.788,-0.028 -2.68,-0.112c-3.302,-0.316 -6.504,-1.378 -9.738,-2.2l-0.042,-0.008c-5.4,-1.364 -10.94,-2.056 -16.454,-2.056c-1.68,-0 -3.358,0.064 -5.028,0.194c-1.248,0.096 -2.844,0.43 -4.346,0.43c-0.494,-0 -0.978,-0.036 -1.436,-0.13c-0.108,-1.172 0.092,-2.362 1.044,-2.914c0.39,-0.228 0.836,-0.3 1.298,-0.3c0.432,-0 0.882,0.062 1.312,0.12c2.664,0.37 5.35,0.442 8.038,0.442c0.858,0 1.714,-0.008 2.572,-0.016c0.856,-0.006 1.712,-0.014 2.568,-0.014c3.914,-0 7.804,0.154 11.61,1.16c2.434,0.642 4.784,1.622 7.25,2.084c2.406,0.462 4.854,0.414 7.284,0.428c7.53,0.042 15.374,0.746 22.028,4.534c2.666,1.51 5.052,3.478 7.426,5.436c1.968,1.63 3.942,3.258 5.916,4.886l0.262,0.208c0.072,0.278 0.146,0.578 0.222,0.888c-0.116,0.752 -0.54,1.554 -0.954,2.072Z" style="fill:url(#_Radial7);"/>
    <path d="M135.53,164.202c-0.202,-0.066 -0.402,-0.13 -0.604,-0.192c0.202,0.06 0.404,0.124 0.604,0.192Zm-18.284,-2.046c-0.894,0 -1.788,-0.028 -2.68,-0.112c-3.302,-0.316 -6.504,-1.378 -9.738,-2.2l-0.042,-0.008c-5.4,-1.364 -10.94,-2.056 -16.454,-2.056c-1.68,-0 -3.358,0.064 -5.028,0.194c-1.248,0.096 -2.844,0.43 -4.346,0.43c-0.494,-0 -0.978,-0.036 -1.436,-0.13c0.458,0.094 0.942,0.13 1.436,0.13c1.502,-0 3.098,-0.334 4.346,-0.43c1.67,-0.13 3.348,-0.194 5.028,-0.194c5.514,-0 11.054,0.692 16.454,2.056l0.042,0.008c3.234,0.822 6.436,1.884 9.738,2.2c0.892,0.084 1.786,0.112 2.68,0.112c0.846,0 1.69,-0.024 2.536,-0.05c0.846,-0.024 1.69,-0.048 2.536,-0.048l0.272,-0l-0.272,-0c-0.846,-0 -1.69,0.024 -2.536,0.048c-0.846,0.026 -1.69,0.05 -2.536,0.05Z" style="fill:url(#_Radial8);"/>
    <path d="M112.046,57.096c-1.476,5.376 -5.098,9.82 -4.992,15.456c0.194,10.164 -5.988,19.094 -12.886,26.29c-6.896,7.204 -14.88,13.62 -19.752,22.348c-8.414,15.062 -5.748,35.142 4.278,49.928c4.88,7.198 11.27,13.284 16.674,20.092c-0.046,0.256 -0.25,0.458 -0.498,0.554c-0.262,0.116 -0.566,0.124 -0.862,0.13c-0.194,0.008 -0.392,0.014 -0.586,0.014c-2.082,-1.704 -3.972,-3.698 -5.822,-5.664c-2.59,-2.74 -5.174,-5.486 -7.764,-8.226c-2.612,-2.772 -5.238,-5.568 -7.294,-8.762c-2.628,-4.072 -4.234,-8.68 -5.58,-13.304c-1.662,-5.678 -2.954,-11.468 -3.6,-17.312c-0.52,-4.698 -1.358,-9.198 0.48,-13.454c7.692,-17.864 27.236,-28.118 35.048,-45.926c3.216,-7.336 4.236,-15.532 7.262,-22.95c1.6,-3.918 3.79,-7.782 3.694,-12.074c-0.1,-3.988 -1.902,-7.798 -4.082,-11.138c-1.1,-1.69 -2.328,-3.298 -3.61,-4.864c-0.55,-0.67 -1.094,-1.152 -1.736,-1.696c-0.85,-0.726 -1.49,-1.636 -2.38,-2.326c-1.272,-0.98 -2.768,-1.622 -4.146,-2.45c-2.932,-1.76 -5.346,-4.416 -6.818,-7.5c0.3,0.634 1.688,1.31 2.296,1.538c1.008,0.372 1.986,0.828 2.928,1.332c1.932,1.034 3.744,2.27 5.554,3.506c1.19,0.82 2.394,1.648 3.422,2.67c0.918,0.91 1.676,1.96 2.426,3.002c1.824,2.51 3.638,5.022 5.454,7.534c1.122,1.56 2.26,3.126 3.064,4.858c2.7,5.768 1.474,12.406 -0.172,18.394Z" style="fill:#98033d;fill-rule:nonzero;"/>
    <path d="M81.648,150.07c-0.116,-0.044 -0.23,-0.092 -0.346,-0.142c-3.9,-1.682 -4.016,-6.658 -4.182,-10.246c-0.102,-2.076 0.316,-4.126 0.726,-6.148c1.772,-8.658 4.726,-15.74 9.93,-22.844c4.286,-5.846 9.118,-11.304 12.928,-17.5c0.414,-0.668 0.904,-1.262 1.314,-1.92c4.438,-7.15 7.892,-14.934 10.268,-23.066c1.186,-4.066 2.106,-8.22 2.746,-12.426c0.612,-4.036 1.328,-8.404 0.886,-12.528c-0.504,-4.718 -3.492,-8.36 -6.588,-11.808c-5.718,-6.368 -7.408,-13.174 -12.9,-19.73c-0.158,-0.186 -0.564,-0.694 -0.724,-0.866c-1.062,-0.046 -2.254,-0.09 -3.494,-0.132c-0.002,-0.006 -0.002,-0.014 -0.004,-0.02c0.678,0.028 1.362,0.056 2.046,0.084c0.484,0.02 0.968,0.04 1.452,0.068c0.748,-0.462 1.65,-1.084 2.396,-1.552c0.198,-0.02 0.406,-0.036 0.604,-0.042c0.934,3.436 2.994,6.542 5.302,9.316c2.468,2.952 5.262,5.638 7.642,8.658c8.534,10.812 11.112,25.924 6.56,38.476c-2.226,6.148 -5.606,12.026 -8.718,17.732c-3.242,5.948 -6.708,11.766 -10.394,17.436c-2.644,4.078 -5.406,8.08 -7.974,12.208c-3.922,6.312 -7.408,12.928 -9.964,19.938c-1.786,4.886 -3.07,10.544 -0.618,15.304c0.35,0.678 0.714,1.194 1.106,1.75Z" style="fill:url(#_Radial9);"/>
    <path d="M39.2,136.896c0.79,-1.528 0.968,-3.31 1.134,-5.042c0.162,-1.7 0.44,-3.164 0.058,-4.902c-1.63,3.008 -1.722,6.538 -1.192,9.944Zm-4.846,3.592c0.574,-1.788 0.574,-3.722 0.57,-5.622c-0.004,-0.924 -0.008,-1.862 -0.256,-2.764c-0.276,-1.004 -0.842,-1.91 -1.4,-2.8c-0.308,1.718 0.072,3.414 0.262,5.142c0.11,1.01 0.236,2.018 0.372,3.026c0.098,0.714 0.66,2.366 0.452,3.018Zm-3.9,9.684c0.204,0.594 0.624,1.104 1.104,1.518c0.388,0.33 0.822,0.61 1.296,0.792c1.47,0.558 3.154,0.338 4.552,-0.284c0.9,-0.402 1.946,-0.346 2.946,-0.284c0.926,0.058 1.682,0.124 2.604,0.18c1.118,-1.016 2.236,-2.032 3.35,-3.048c0.158,-0.144 0.318,-0.29 0.428,-0.47c0.11,-0.176 0.17,-0.378 0.228,-0.578c0.466,-1.606 1.674,-2.772 1.302,-4.432c-0.252,-1.122 -0.778,-2.172 -1.298,-3.206c-0.644,-1.282 -1.288,-2.564 -1.932,-3.846c0.024,1.228 0.032,2.454 0.02,3.68c-0.01,0.972 -0.006,1.744 -0.776,2.35c-0.624,0.49 -1.484,0.654 -2.184,1.008c-1.34,0.68 -2.474,1.696 -3.842,2.338c-0.654,0.308 -1.342,0.54 -2.03,0.772c-0.9,0.302 -1.802,0.604 -2.702,0.908c-0.482,0.16 -1.004,0.322 -1.492,0.15c-0.292,-0.1 -0.534,-0.31 -0.764,-0.518c-0.828,-0.75 -1.61,-1.554 -2.334,-2.406c0.386,1.922 0.876,3.516 1.524,5.376Zm96.058,-33.92c-3.736,-3.166 -6.686,-7.44 -11.104,-9.502c0.11,0.05 0.994,3.126 1.254,3.546c0.626,1.014 1.344,1.626 2.342,2.28c2.342,1.538 4.94,2.612 7.508,3.676Zm13.078,0.9c-0.05,-1.27 -0.346,-2.526 -0.638,-3.774c-0.912,-3.868 -1.834,-7.772 -3.574,-11.376c-0.896,2.414 -1.29,5.002 -0.1,7.39c0.662,1.328 1.264,2.67 1.988,3.97c0.476,0.86 2.286,2.876 2.324,3.79Zm-18.652,14.312c0.474,0.048 0.994,0.042 1.524,0.036c1.23,-0.014 2.516,-0.03 3.424,0.634c0.996,0.73 1.994,1.458 2.99,2.186c0.266,0.194 0.542,0.394 0.858,0.478c0.464,0.124 0.942,-0.014 1.39,-0.152c1.584,-0.486 3.682,-0.774 5.268,-1.26c2.378,0.066 4.776,0.534 7.108,1.078c0.264,-2.26 0.68,-4.188 0.784,-6.468c1.29,-0.908 2.62,-1.38 3.724,-2.506c0.278,-0.28 0.482,-0.622 0.678,-0.964c1.196,-2.082 2.132,-4.206 2.84,-6.516c-0.68,0.79 -1.528,1.162 -2.418,1.704c-0.256,-0.14 -0.58,-0.17 -0.684,-0.442c-1.074,0.17 -2.15,0.342 -3.224,0.512c-0.992,0.156 -2.02,-0.1 -2.742,0.578c-1.228,1.152 -2.178,1.92 -3.154,3.296c-1.254,0.076 -2.452,0.048 -3.64,0.02c-1.622,-0.038 -3.224,-0.074 -4.92,0.152c-2.52,0.336 -4.716,0.728 -7.272,0.776c0.376,0.506 0.868,1.01 1.242,1.516c-0.178,1.1 -0.292,2.038 -0.472,3.136c-2.254,0.49 -4.65,0.97 -6.866,0.178c-0.328,-0.118 -0.782,-0.222 -0.936,0.082c1.254,1.008 2.922,1.786 4.498,1.946Zm27.886,-80.84c-0.296,0.746 -0.56,1.506 -0.786,2.278c-0.396,1.34 -0.32,2.186 -0.09,3.54c0.6,3.564 0.856,7.208 1.278,10.792c0.802,-6.204 1,-12.51 0.592,-18.798c0.022,0.564 -0.776,1.64 -0.994,2.188Zm0.452,-17.478c-2.488,2.89 -4.944,5.98 -5.902,9.71c2.44,-1.842 4.89,-3.692 7.032,-5.868c1.484,-1.506 2.592,-2.85 3.428,-4.82c0.468,-1.1 0.874,-2.23 1.216,-3.38c0.192,-0.648 0.312,-2.694 0.76,-3.114c-2.414,2.264 -4.39,4.978 -6.534,7.472Zm23.586,-12.516c-0.196,1.368 -0.302,2.76 -0.478,4.12c-0.388,2.988 -0.85,5.96 -1.392,8.914c-0.382,2.084 -0.804,4.174 -0.79,6.306c0.008,1.34 0.184,2.686 0.388,4.018c0.702,4.594 1.686,9.156 2.944,13.654c0.164,-1.456 0.336,-2.912 0.506,-4.368c0.21,-1.732 0.412,-3.464 0.752,-5.168c0.352,-1.78 0.858,-3.526 1.196,-5.314c0.138,-0.71 0.248,-1.426 0.338,-2.152l-0,-0.006c-1.93,-6.528 -3.032,-13.262 -3.464,-20.004Zm-7.048,2.636c0.146,1.85 0.336,3.706 0.554,5.576c1.056,8.942 2.36,17.87 3.988,26.75c1.352,7.35 2.928,14.662 4.718,21.928c-2.122,-6.194 -4.246,-12.392 -6.37,-18.594c-0.252,2.186 -0.756,4.34 -1.484,6.396c-1.29,-1.45 -2.482,-2.988 -3.56,-4.602c-0.054,3.738 -0.31,7.472 -0.746,11.17c-0.65,-2.738 -1.428,-5.452 -1.85,-8.214c-0.232,-1.526 -0.496,-3.048 -0.792,-4.564c-0.122,-0.632 -1.146,-3.514 -0.846,-3.97c-1.192,1.82 -2.14,3.802 -2.82,5.882c-0.13,-2.064 -0.054,-4.13 0.226,-6.16c0.224,-1.642 0.85,-3.07 1.102,-4.68c1.038,-6.66 0.252,-13.636 1.904,-20.148c0.85,0.704 1.658,1.456 2.42,2.254c0.07,-6.236 0.304,-12.62 2.398,-18.462l1.158,9.438Zm-5.932,-15.276c-1.432,1.152 -2.276,1.938 -3.34,3.552c-1.896,2.886 -4.454,4.872 -7.506,6.314c-0.242,0.11 -0.494,0.228 -0.746,0.332c-4.13,1.794 -8.204,3.898 -12.208,5.94c0.56,-0.286 1.636,-0.246 2.568,-0.208c0.44,0.02 0.846,0.038 1.15,0.022c1.432,-0.07 2.864,-0.144 4.298,-0.214c0.39,-0.018 0.806,-0.018 1.232,-0.016c0.982,0.004 2.012,0.006 2.87,-0.238c1.058,-0.304 2.166,-1.078 3.126,-1.608c1.634,-0.904 3.162,-1.732 4.554,-2.794l0.008,-0.008c1.768,-4.976 4.262,-10.026 7.016,-14.484c-1.032,1.132 -1.85,2.47 -3.022,3.41Zm-22.886,2.524c-2.326,1.554 -4.932,2.692 -7.698,3.278c-1.328,0.29 -2.748,0.484 -3.776,1.346c3.822,0.38 7.674,0.186 11.396,-0.572c0.946,-0.194 1.882,-0.422 2.758,-0.802c0.932,-2.496 1.644,-5.092 2.186,-7.714c-1.492,1.622 -2.942,3.188 -4.866,4.464Zm-124.116,85.506l-0.154,-0.276c-0.178,-0.132 -0.408,0.014 -0.598,0.118c-0.956,0.572 -2.192,0.2 -3.448,-0.552c-1.18,-0.698 -2.38,-1.732 -3.4,-2.644l0.126,0.25c0.79,1.336 1.472,2.4 2.262,3.738l-0.052,0.414c0.318,0.208 0.63,0.408 0.9,0.622c1.378,1.054 2.668,2.228 3.86,3.492c0.966,1.02 2.858,2.696 3.262,4.056c-0.918,-3.07 -1.838,-6.142 -2.758,-9.218Zm24.644,-9.198c-0.654,-1.222 -1.01,-2.568 -1.84,-3.692c-0.642,-0.876 -1.668,-1.372 -2.664,-1.786c-1.718,-0.718 -3.486,-1.312 -5.292,-1.76c0.29,1.048 0.352,2.118 0.422,3.194c-3.358,-1.668 -6.098,-2.98 -9.43,-4.712c1.11,1.752 2.858,3.022 4.034,4.726c0.548,0.8 0.968,1.684 1.438,2.526c0.768,1.38 1.444,2.96 1.068,4.45c-0.636,0 -1.198,-0.42 -1.71,-0.828c-3.616,-2.912 -7.212,-5.396 -10.69,-8.474c0.384,1.374 0.912,2.712 1.582,3.99c0.738,1.414 1.67,2.87 1.58,4.436c-1.694,-2.18 -3.23,-3.92 -4.304,-6.5c-0.25,-0.606 -0.468,-1.234 -0.84,-1.772c-0.308,-0.442 -0.7,-0.808 -1.088,-1.18c-3.488,-3.3 -5.778,-7.564 -8.658,-11.364c2.44,4.912 5.928,9.652 6.112,14.944c0.04,0.994 0.128,2.008 0.242,3.03l0,0.014c0.326,0.586 0.686,1.144 1.086,1.676c0.902,1.194 2.024,2.194 3.146,3.188c1.066,0.944 2.122,1.89 3.188,2.836c0.426,-0.752 0.844,-1.512 1.272,-2.264c2.862,3.41 5.66,6.866 8.404,10.37c0.312,-3.338 0.244,-6.72 -0.196,-10.074c2.012,0.856 3.824,2.216 5.216,3.92c-0.684,-3.932 -1.89,-7.798 -3.568,-11.454c1.448,0.724 3.134,0.946 4.68,0.622c0.058,-0.498 -0.012,-1.014 -0.188,-1.498c2.404,0.98 4.748,2.132 6.998,3.436Zm-8.478,-35.948c-1.07,0.668 -2.344,0.958 -3.578,1.282c-2.712,0.712 -5.466,1.236 -8.016,2.382c-0.768,-1.126 -0.972,-2.988 -2.018,-3.866c-2.204,-1.834 -4.414,-3.676 -6.626,-5.518c0.81,3.558 1.63,7.126 2.436,10.686c0.142,0.126 0.04,0.47 -0.14,0.822c2.158,1.54 4.654,3.132 7.182,2.628c1.368,-0.274 2.514,-1.144 3.636,-1.952c4.016,-2.87 8.424,-5.21 13.076,-6.942c-1.986,-0.676 -4.218,-0.6 -5.952,0.478Zm20.744,37.066c0.806,-0.882 1.658,-1.722 2.55,-2.514c1.316,1.5 2.986,2.69 4.688,3.728c0.562,-0.412 0.714,-0.62 1.276,-1.032c1.112,-0.81 2.26,-1.638 3.616,-1.944c2.084,-0.468 4.214,-0.138 6.15,-1.016c0.868,-0.394 1.652,-0.206 2.502,-0.636c-0.732,1.348 -1.332,2.796 -1.932,4.212c0.526,2.278 0.636,4.646 0.246,6.916c-1.618,0.67 -3.184,1.014 -4.804,1.684c-0.46,0.19 -0.952,0.384 -1.452,0.296c-2.5,-0.436 -4.944,-1.276 -7.266,-2.352c-1.512,-0.7 -3.504,-1.122 -4.572,-2.408c-1.054,-1.272 -0.902,-3.316 -1.002,-4.934Z" style="fill:#98033d;fill-rule:nonzero;"/>
    <path d="M91.082,18.29c-1.72,-0.73 -2.86,-2.372 -4.126,-3.758c-1.262,-1.396 -3.038,-2.678 -4.832,-2.292c-0.696,0.158 -1.31,0.552 -1.952,0.862c-1.45,0.698 -3.09,0.946 -4.694,1.2c-3.82,0.622 -7.612,1.396 -11.364,2.306c-2.142,0.518 -4.272,1.084 -6.296,1.918c-1.358,0.558 -2.67,1.242 -3.998,1.87c-3.104,1.482 -6.334,2.712 -9.556,3.934c1.924,-1.65 3.644,-3.528 5.124,-5.584c0.118,-0.166 0.24,-0.352 0.24,-0.558c0.006,-0.222 -0.134,-0.428 -0.256,-0.614c-1.288,-1.842 -2.804,-3.746 -4.504,-5.272l0.11,-0.524c1.486,0.082 2.872,0.192 4.324,0.282c1.324,0.69 2.644,1.45 4.062,2.084c0.464,0.214 1.056,0.388 1.424,0.056c0.3,-0.262 0.302,-0.732 0.28,-1.138c-0.11,-1.906 -0.216,-3.81 -0.326,-5.722c-0.128,-2.262 -0.282,-4.602 -0.978,-6.76c0.054,-0.194 0.116,-0.388 0.172,-0.58c2.102,2.27 4.056,4.09 6.158,6.362l0.026,-0.042c0.474,0.994 0.914,2.002 1.35,3.008c0.274,0.614 0.742,1.346 1.396,1.256c0.074,-2.394 -0.228,-4.81 -0.878,-7.142l0.17,-0.262c2.482,2.084 5.078,3.554 8.076,4.734l0.11,-0.236c0.278,0.644 0.362,1.366 0.222,2.044c0.61,-0.152 1.282,-0.056 1.846,0.248c0.096,-1.642 -0.192,-3.318 -0.83,-4.872l0.152,-0.338c3.13,1.318 5.676,2.07 8.806,3.388c0.982,0.414 2.062,0.89 2.83,1.642c0.192,0.18 0.358,0.38 0.504,0.6c0.576,0.028 1.142,0.056 1.702,0.076c0.928,0.808 1.736,1.732 2.358,2.794c1.004,1.726 1.54,3.838 3.148,5.03Z" style="fill:#98033d;fill-rule:nonzero;"/>
    <path d="M101.412,191.232c-1.092,-0.094 -2.186,-0.108 -3.28,-0.108c-0.238,-0 -0.474,-0 -0.712,0.002l-0.706,-0c-0.442,-0 -0.886,-0.002 -1.33,-0.01c-0.148,-0.146 -0.296,-0.292 -0.444,-0.438c-0.95,-0.944 -1.88,-1.9 -2.81,-2.862c-3.196,-3.304 -6.26,-6.728 -9.24,-10.232c-5.222,-6.196 -10.104,-12.766 -13.452,-20.1c-5.21,-11.392 -5.716,-24.956 -0.18,-35.956c3.49,-6.938 9.25,-10.936 14.702,-16.144c3.31,-3.16 6.184,-6.736 9.024,-10.316c2.738,-3.45 5.578,-6.772 7.684,-10.676c4.786,-8.866 4.866,-19.572 8.526,-28.942c0.856,-2.192 1.866,-4.332 2.38,-6.64c0.824,-3.712 1.332,-6.866 -0.904,-10.296c-1.362,-2.086 -2.95,-4.012 -4.476,-5.976c-1.51,-1.94 -2.7,-4.406 -4.448,-6.112c-2.762,-2.694 -6.212,-4.518 -9.2,-6.93c-1.106,-0.894 -2.062,-1.916 -2.964,-2.972c-1.814,-2.122 -3.422,-4.388 -5.642,-6.07l-0.066,-0.064c0.542,0.03 1.114,0.056 1.708,0.082c2.086,0.09 4.436,0.166 6.63,0.242c1.24,0.042 2.432,0.086 3.494,0.132c0.16,0.172 0.566,0.68 0.724,0.866c5.492,6.556 7.182,13.362 12.9,19.73c3.096,3.448 6.084,7.09 6.588,11.808c0.442,4.124 -0.274,8.492 -0.886,12.528c-0.64,4.206 -1.56,8.36 -2.746,12.426c-2.376,8.132 -5.83,15.916 -10.268,23.066c-0.41,0.658 -0.9,1.252 -1.314,1.92c-3.81,6.196 -8.642,11.654 -12.928,17.5c-5.204,7.104 -8.158,14.186 -9.93,22.844c-0.41,2.022 -0.828,4.072 -0.726,6.148c0.166,3.588 0.282,8.564 4.182,10.246c0.116,0.05 0.23,0.098 0.346,0.142c1.29,0.49 2.656,0.634 4.038,0.634c1.108,-0 2.226,-0.092 3.32,-0.174c2.184,-0.162 4.264,-0.756 6.452,-0.756c0.07,-0 0.14,-0 0.212,0.002c2.68,0.05 5.344,0.642 7.926,1.394c3.622,1.056 7.162,2.456 10.842,3.264c3.1,0.676 6.26,0.922 9.41,0.922c1.032,-0 2.06,-0.026 3.086,-0.072c1.106,-0.048 2.174,-0.09 3.216,-0.09c2.852,-0 5.524,0.302 8.364,1.566c3.86,1.724 7.548,3.256 10.778,6.12c1.808,1.6 2.946,3.36 5.168,4.298c1.878,0.792 3.738,1.634 5.576,2.524c0.242,0.118 0.484,0.234 0.726,0.354l-0.286,0.09c-1.086,1.4 -2.8,2.912 -4.186,4.016l0.09,0.366l-0.25,-0.2l-0.262,-0.208c-1.974,-1.628 -3.948,-3.256 -5.916,-4.886c-2.374,-1.958 -4.76,-3.926 -7.426,-5.436c-6.654,-3.788 -14.498,-4.492 -22.028,-4.534c-2.43,-0.014 -4.878,0.034 -7.284,-0.428c-2.466,-0.462 -4.816,-1.442 -7.25,-2.084c-3.806,-1.006 -7.696,-1.16 -11.61,-1.16c-0.856,-0 -1.712,0.008 -2.568,0.014c-0.858,0.008 -1.714,0.016 -2.572,0.016c-2.688,0 -5.374,-0.072 -8.038,-0.442c-0.43,-0.058 -0.88,-0.12 -1.312,-0.12c-0.462,-0 -0.908,0.072 -1.298,0.3c-0.952,0.552 -1.152,1.742 -1.044,2.914c0.034,0.366 0.096,0.73 0.178,1.074c1.554,6.672 5.778,12.95 10.104,18.264c2.994,3.676 6.352,7.034 9.846,10.248c1.24,1.14 2.498,2.262 3.762,3.372Zm-31.574,-50.032c-6.086,0 -1.84,11.91 0.808,14.82c0.208,0.228 0.43,0.456 0.712,0.578c0.19,0.084 0.368,0.122 0.53,0.122c2.264,0.002 1.764,-7.588 1.898,-8.74c0.212,-1.84 0.376,-3.882 -0.726,-5.426c-0.354,-0.494 -0.844,-0.916 -1.424,-1.078c-0.68,-0.188 -1.278,-0.276 -1.798,-0.276Zm5.452,-6.41c-0.192,-0 -0.374,0.094 -0.538,0.19c-1.3,0.762 -2.366,1.896 -3.048,3.236c-0.142,0.274 -0.268,0.578 -0.212,0.888c0.152,0.83 1.384,1.266 1.836,1.95c0.304,0.458 0.354,1.378 1.016,1.402l0.022,-0c1.448,-0 1.738,-5.476 1.686,-6.498c-0.022,-0.486 -0.204,-1.1 -0.686,-1.164c-0.026,-0.002 -0.052,-0.004 -0.076,-0.004Zm9.872,-26.122c-0.19,-0 -0.378,0.062 -0.556,0.128c-3.028,1.106 -4.668,3.574 -6.95,5.636c-2.578,2.328 -5.004,4.858 -6.868,7.81c-2.488,3.94 -3.922,8.736 -3.1,13.434c0.116,0.662 0.34,1.406 0.942,1.722c0.192,0.1 0.392,0.142 0.594,0.142c0.524,-0 1.064,-0.282 1.5,-0.592c3.556,-2.522 5.224,-6.866 6.954,-10.882c2.234,-5.186 4.854,-10.19 7.832,-14.966c0.5,-0.804 0.752,-2.242 -0.202,-2.418c-0.048,-0.01 -0.096,-0.014 -0.146,-0.014Zm27.378,-56.006c-0.634,-0 -1.204,1.928 -1.366,2.474c-0.556,1.874 -1.506,3.592 -2.312,5.356c-1.064,2.32 -1.924,4.902 -1.366,7.45l0.128,0.306l0.452,0.124c0.488,-0.078 0.802,-0.53 1.054,-0.95c1.788,-2.984 3.136,-6.244 3.986,-9.646c0.334,-1.334 0.59,-2.764 0.154,-4.098c-0.24,-0.738 -0.49,-1.016 -0.73,-1.016Zm-20.396,-38.746c-1.386,-0 -2.212,0.588 -0.708,2.294c0.6,0.68 1.37,1.184 2.13,1.678c1.3,0.844 2.602,1.69 3.9,2.534c0.244,0.158 0.52,0.322 0.794,0.322c0.054,-0 0.106,-0.006 0.16,-0.02c0.33,-0.086 0.52,-0.448 0.522,-0.792c0,-0.344 -0.144,-0.676 -0.284,-0.994c-0.618,-1.406 -1.284,-2.874 -2.49,-3.838c-0.784,-0.626 -2.67,-1.184 -4.024,-1.184Z" style="fill:url(#_Radial10);"/>
    <path d="M83.538,188.264c-4.132,-0.676 -8.234,0.704 -12.028,2.264c-1.388,0.572 -2.778,1.18 -4,2.042c-1.396,0.988 -2.528,2.278 -3.536,3.664c-0.938,-3.05 -1.258,-6.272 -0.916,-9.39c-1.786,-1.056 -4.186,-1.18 -6.212,-0.986c-0.442,0.04 -0.908,0.11 -1.332,-0c0.542,-1.298 0.958,-2.65 1.238,-4.038c-1.628,0.214 -3.164,0.794 -4.662,1.49c-2.634,-0.606 -5.74,0.546 -8.446,0.738c-0.282,0.022 -0.578,0.036 -0.838,-0.096l-0.256,-0.192c0.756,-2.03 1.352,-4.128 1.786,-6.266c-1.688,0.062 -3.316,0.422 -4.918,0.912c-3.594,0.22 -7.186,0.324 -10.74,0.828l-0.04,-0.312c0.76,-1.208 1.514,-2.442 1.86,-3.842c0.382,-1.526 0.258,-3.154 -0.004,-4.728c-0.422,-2.524 -1.238,-5.084 -2.956,-7.03c-0.296,-0.346 -0.632,-0.67 -1.046,-0.85c-0.92,-0.406 -1.934,-0.006 -2.836,0.38c-2.428,0.228 -5.034,0.594 -7.41,1.234c2.26,-0.786 4.446,-1.896 5.448,-4.002c0.734,-1.538 0.678,-3.344 0.534,-5.078c-0.322,-3.848 -1.002,-7.692 -2.036,-11.44c1.608,3.804 3.41,7.528 5.378,11.172c0.968,1.772 1.98,3.546 3.302,5.086c1.388,1.606 3.074,2.918 4.752,4.208c2.974,2.284 5.958,4.548 8.956,6.784c1.726,1.29 3.46,2.566 5.336,3.608c1.516,0.834 3.108,1.504 4.694,2.174c3.92,1.642 7.834,3.29 11.786,4.858c6.308,2.49 12.694,4.76 19.142,6.808Z" style="fill:#98033d;fill-rule:nonzero;"/>
    <path d="M206.33,115.83c-0.268,-0.138 -0.542,-0.242 -0.82,-0.332c-1.23,-0.392 -2.524,-0.462 -3.798,-0.586c-2.312,-0.228 -4.618,-0.6 -6.888,-1.152c-2.146,-0.518 -4.45,-0.47 -6.662,-0.586c-0.296,-0.014 -0.614,-0.028 -0.872,0.102c-0.202,0.104 -0.354,0.29 -0.492,0.464c-1.684,2.096 -3.364,4.186 -5.042,6.278c0.686,-1.36 1.222,-2.796 1.608,-4.278c0.252,-0.972 0.402,-2.098 -0.204,-2.932c0.226,0.31 -2.12,3.532 -2.386,3.932c-0.828,1.256 -1.708,2.422 -2.694,3.526c-2.168,2.436 -4.086,5.14 -6.184,7.652c-4.272,5.12 -8.752,10.066 -13.426,14.814c1.192,-2.546 2.926,-4.774 4.57,-7.038c9.35,-12.842 16.414,-27.372 20.772,-42.772c1.086,-3.844 1.666,-7.584 0.992,-11.614c-0.322,-1.952 -1.062,-3.602 -1.776,-5.472c-1.574,-4.126 -3.332,-8.182 -5.184,-12.198c1.678,1.994 3.356,3.988 5.032,5.982c-0.352,-3.084 -1.358,-6.078 -2.096,-9.108c-0.844,-3.442 -1.266,-6.652 0.038,-9.874c1.404,-3.45 2.052,-7.444 3.036,-11.046l0.056,-0c-0.04,3.228 -0.082,6.45 -0.122,9.68c-0.028,2.332 -0.538,4.83 -0.228,7.17c0.292,2.174 1.312,4.436 1.878,6.576c1.268,4.814 1.868,9.646 2.698,14.488l0,0.008c0.054,0.31 0.106,0.614 0.16,0.924c2.636,5.168 5.998,8.26 9.182,12.082l-0.276,0.324c-0.976,0.124 -1.934,-0.014 -2.954,0.014c-1.792,0.042 -3.69,0.566 -5.46,0.836c0.448,-0 2.386,2.47 2.724,2.828c0.268,0.284 0.532,0.566 0.792,0.856c3.468,7.398 8.38,14.504 14.026,20.452Z" style="fill:#98033d;fill-rule:nonzero;"/>
    <path d="M137.154,186.022c0.464,3.064 1.304,6.086 2.486,8.978l-0.062,0.532c-0.95,-1.492 -2.574,-2.492 -4.136,-3.306c-0.71,-1.388 -1.412,-2.774 -2.114,-4.154c-0.178,2.36 -0.252,4.726 -0.216,7.1c0.01,0.566 -0.044,1.16 -0.016,1.732l-0.256,-0.042c-1.444,-0.372 -2.88,-0.738 -4.32,-1.11c-3.904,-1.002 -7.904,-2.042 -11.238,-4.368l-0.35,0.048l-0.122,-0.11c-0.306,-0.262 -0.626,-0.524 -1,-0.676c-0.538,-0.222 -1.13,-0.194 -1.702,-0.186c-2.974,0.062 -5.976,-0.298 -8.882,-1.064c2.412,0.104 4.688,-0.82 6.998,-1.42c3.382,-0.87 6.922,-1.036 10.4,-1.512c4.874,-0.67 9.628,-1.946 14.36,-3.214c4.44,-1.196 8.972,-2.43 12.716,-5.032c-3.654,3.334 -7.916,5.99 -12.546,7.804Z" style="fill:#98033d;fill-rule:nonzero;"/>
    <path d="M99.56,132.296c-3.756,-0.93 -7.452,-2.13 -11.054,-3.59c2.276,-3.264 4.986,-6.192 7.69,-9.108c2.564,-2.766 4.578,-5.816 7.04,-8.614c0.022,-0.024 0.048,-0.036 0.08,-0.036c0.438,-0 1.878,2.132 3.364,4.262c1.484,2.132 3.01,4.262 3.62,4.262c0.022,-0 0.044,-0.002 0.064,-0.008c-1.262,0.376 -2.586,0.566 -3.916,0.566c-0.414,-0 -0.828,-0.018 -1.24,-0.056c1.538,2.748 3.294,5.38 5.244,7.864c-4.426,-0.074 -8.862,-0.52 -13.242,-1.332c0.784,1.93 1.568,3.86 2.35,5.79Z" style="fill:url(#_Radial11);"/>
    <path d="M71.888,156.72c-0.162,-0 -0.34,-0.038 -0.53,-0.122c-0.282,-0.122 -0.504,-0.35 -0.712,-0.578c-2.648,-2.91 -6.894,-14.82 -0.808,-14.82c0.52,0 1.118,0.088 1.798,0.276c0.58,0.162 1.07,0.584 1.424,1.078c1.102,1.544 0.938,3.586 0.726,5.426c-0.134,1.152 0.366,8.742 -1.898,8.74Zm2.478,-14.264l-0.022,-0c-0.662,-0.024 -0.712,-0.944 -1.016,-1.402c-0.452,-0.684 -1.684,-1.12 -1.836,-1.95c-0.056,-0.31 0.07,-0.614 0.212,-0.888c0.682,-1.34 1.748,-2.474 3.048,-3.236c0.164,-0.096 0.346,-0.19 0.538,-0.19c0.024,-0 0.05,0.002 0.076,0.004c0.482,0.064 0.664,0.678 0.686,1.164c0.052,1.022 -0.238,6.498 -1.686,6.498Zm-5.142,-4.916c-0.202,-0 -0.402,-0.042 -0.594,-0.142c-0.602,-0.316 -0.826,-1.06 -0.942,-1.722c-0.822,-4.698 0.612,-9.494 3.1,-13.434c1.864,-2.952 4.29,-5.482 6.868,-7.81c2.282,-2.062 3.922,-4.53 6.95,-5.636c0.178,-0.066 0.366,-0.128 0.556,-0.128c0.05,-0 0.098,0.004 0.146,0.014c0.954,0.176 0.702,1.614 0.202,2.418c-2.978,4.776 -5.598,9.78 -7.832,14.966c-1.73,4.016 -3.398,8.36 -6.954,10.882c-0.436,0.31 -0.976,0.592 -1.5,0.592Zm38.852,-69.168l-0.452,-0.124l-0.128,-0.306c-0.558,-2.548 0.302,-5.13 1.366,-7.45c0.806,-1.764 1.756,-3.482 2.312,-5.356c0.162,-0.546 0.732,-2.474 1.366,-2.474c0.24,-0 0.49,0.278 0.73,1.016c0.436,1.334 0.18,2.764 -0.154,4.098c-0.85,3.402 -2.198,6.662 -3.986,9.646c-0.252,0.42 -0.566,0.872 -1.054,0.95Zm-9.816,-47.628c-0.274,-0 -0.55,-0.164 -0.794,-0.322c-1.298,-0.844 -2.6,-1.69 -3.9,-2.534c-0.76,-0.494 -1.53,-0.998 -2.13,-1.678c-1.504,-1.706 -0.678,-2.294 0.708,-2.294c1.354,-0 3.24,0.558 4.024,1.184c1.206,0.964 1.872,2.432 2.49,3.838c0.14,0.318 0.284,0.65 0.284,0.994c-0.002,0.344 -0.192,0.706 -0.522,0.792c-0.054,0.014 -0.106,0.02 -0.16,0.02Z" style="fill:url(#_Radial12);"/>
    <defs>
        <radialGradient id="_Radial1" cx="0" cy="0" r="1" gradientUnits="userSpaceOnUse" gradientTransform="matrix(153.119,-5.9257,0,153.119,73.542,57.0646)"><stop offset="0" style="stop-color:#ff8e34;stop-opacity:1"/><stop offset="0.7" style="stop-color:#b80c38;stop-opacity:1"/><stop offset="0.8" style="stop-color:#bd1134;stop-opacity:1"/><stop offset="0.9" style="stop-color:#d72e28;stop-opacity:1"/><stop offset="1" style="stop-color:#fb5917;stop-opacity:1"/></radialGradient>
        <radialGradient id="_Radial2" cx="0" cy="0" r="1" gradientUnits="userSpaceOnUse" gradientTransform="matrix(153.119,-5.9257,0,153.119,73.542,57.0646)"><stop offset="0" style="stop-color:#ff9d36;stop-opacity:1"/><stop offset="0.7" style="stop-color:#c82a3b;stop-opacity:1"/><stop offset="0.8" style="stop-color:#cc2e37;stop-opacity:1"/><stop offset="1" style="stop-color:#fd6e19;stop-opacity:1"/></radialGradient>
        <radialGradient id="_Radial3" cx="0" cy="0" r="1" gradientUnits="userSpaceOnUse" gradientTransform="matrix(153.119,-5.9257,0,153.119,73.542,57.0646)"><stop offset="0" style="stop-color:#ff9d36;stop-opacity:1"/><stop offset="0.7" style="stop-color:#c82a3b;stop-opacity:1"/><stop offset="0.8" style="stop-color:#cc2e37;stop-opacity:1"/><stop offset="1" style="stop-color:#fd6e19;stop-opacity:1"/></radialGradient>
        <radialGradient id="_Radial4" cx="0" cy="0" r="1" gradientUnits="userSpaceOnUse" gradientTransform="matrix(153.119,-5.9257,0,153.119,73.542,57.0646)"><stop offset="0" style="stop-color:#ff9d36;stop-opacity:1"/><stop offset="0.7" style="stop-color:#c82a3b;stop-opacity:1"/><stop offset="0.8" style="stop-color:#cc2e37;stop-opacity:1"/><stop offset="1" style="stop-color:#fd6e19;stop-opacity:1"/></radialGradient>
        <radialGradient id="_Radial5" cx="0" cy="0" r="1" gradientUnits="userSpaceOnUse" gradientTransform="matrix(153.119,-5.9257,0,153.119,73.542,57.0646)"><stop offset="0" style="stop-color:#ef6d30;stop-opacity:1"/><stop offset="0.7" style="stop-color:#ac0935;stop-opacity:1"/><stop offset="0.8" style="stop-color:#b10c31;stop-opacity:1"/><stop offset="1" style="stop-color:#ec4415;stop-opacity:1"/></radialGradient>
        <radialGradient id="_Radial6" cx="0" cy="0" r="1" gradientUnits="userSpaceOnUse" gradientTransform="matrix(153.119,-5.9257,0,153.119,73.542,57.0646)"><stop offset="0" style="stop-color:#ef6d30;stop-opacity:1"/><stop offset="0.7" style="stop-color:#ac0935;stop-opacity:1"/><stop offset="0.8" style="stop-color:#b10c31;stop-opacity:1"/><stop offset="1" style="stop-color:#ec4415;stop-opacity:1"/></radialGradient>
        <radialGradient id="_Radial7" cx="0" cy="0" r="1" gradientUnits="userSpaceOnUse" gradientTransform="matrix(153.119,-5.9257,0,153.119,73.542,57.0646)"><stop offset="0" style="stop-color:#ffab42;stop-opacity:1"/><stop offset="0.7" style="stop-color:#d24947;stop-opacity:1"/><stop offset="0.8" style="stop-color:#d54c43;stop-opacity:1"/><stop offset="1" style="stop-color:#fd8327;stop-opacity:1"/></radialGradient>
        <radialGradient id="_Radial8" cx="0" cy="0" r="1" gradientUnits="userSpaceOnUse" gradientTransform="matrix(153.119,-5.9257,0,153.119,73.542,57.0646)"><stop offset="0" style="stop-color:#f5923f;stop-opacity:1"/><stop offset="0.7" style="stop-color:#cb4743;stop-opacity:1"/><stop offset="0.8" style="stop-color:#ce4940;stop-opacity:1"/><stop offset="1" style="stop-color:#f37326;stop-opacity:1"/></radialGradient>
        <radialGradient id="_Radial9" cx="0" cy="0" r="1" gradientUnits="userSpaceOnUse" gradientTransform="matrix(153.119,-5.9257,0,153.119,73.542,57.0646)"><stop offset="0" style="stop-color:#ffab42;stop-opacity:1"/><stop offset="0.7" style="stop-color:#d24947;stop-opacity:1"/><stop offset="0.8" style="stop-color:#d54c43;stop-opacity:1"/><stop offset="1" style="stop-color:#fd8327;stop-opacity:1"/></radialGradient>
        <radialGradient id="_Radial10" cx="0" cy="0" r="1" gradientUnits="userSpaceOnUse" gradientTransform="matrix(154.867,-5.99336,0,154.867,84.134,39.4476)"><stop offset="0" style="stop-color:#0aefaf;stop-opacity:1"/><stop offset="1" style="stop-color:#008389;stop-opacity:1"/></radialGradient>
        <radialGradient id="_Radial11" cx="0" cy="0" r="1" gradientUnits="userSpaceOnUse" gradientTransform="matrix(153.119,-5.9257,0,153.119,73.542,57.0646)"><stop offset="0" style="stop-color:#ff9d36;stop-opacity:1"/><stop offset="0.7" style="stop-color:#c82a3b;stop-opacity:1"/><stop offset="0.8" style="stop-color:#cc2e37;stop-opacity:1"/><stop offset="1" style="stop-color:#fd6e19;stop-opacity:1"/></radialGradient>
        <radialGradient id="_Radial12" cx="0" cy="0" r="1" gradientUnits="userSpaceOnUse" gradientTransform="matrix(154.867,-5.99336,0,154.867,84.134,39.4476)"><stop offset="0" style="stop-color:#abf8c9;stop-opacity:1"/><stop offset="1" style="stop-color:#a8c9b1;stop-opacity:1"/></radialGradient>
    </defs>
</svg>
