<?xml version="1.0" encoding="UTF-8" standalone="no"?>
<!DOCTYPE svg PUBLIC "-//W3C//DTD SVG 1.1//EN" "http://www.w3.org/Graphics/SVG/1.1/DTD/svg11.dtd">
<svg width="100%" height="100%" viewBox="0 0 271 297" version="1.1" xmlns="http://www.w3.org/2000/svg" xmlns:xlink="http://www.w3.org/1999/xlink" xml:space="preserve" xmlns:serif="http://www.serif.com/" style="fill-rule:evenodd;clip-rule:evenodd;stroke-linejoin:round;stroke-miterlimit:2;">
    <path d="M119.905,241.5c-1.198,0 -2.422,-0.224 -3.592,-0.498c-5.088,-1.188 -10.534,-3.138 -14.848,-6.158c-3.942,-2.762 -6.57,-7.16 -11.126,-9.162c-8.526,-3.742 -16.632,-9.366 -22.03,-17.06c-2.992,-4.268 -3.636,-7.562 -4.536,-12.588c-0.878,-4.89 -2.334,-9.804 -5.448,-13.766c-1.06,-1.35 -2.292,-2.56 -3.302,-3.948c-4.744,-6.506 -3.934,-15.542 -4.514,-23.15c-0.26,-3.396 -1.884,-9.606 1.842,-11.778c0.76,-0.44 1.142,-8.282 1.106,-9.38c-0.056,-1.774 -0.31,-3.638 -0.566,-5.468c2.178,2.816 4.514,5.506 7.048,8.028c0.808,0.804 1.778,1.646 2.898,1.646c0.062,0 0.126,-0.004 0.192,-0.008c0.302,-0.026 0.6,-0.116 0.9,-0.162c-0.04,0.54 -0.042,1.056 -0.054,1.474c-0.202,7.394 -0.816,19.272 5.73,24.35c0.82,0.636 1.74,1.15 2.576,1.764c0.366,0.266 0.716,0.554 1.034,0.878c2.066,2.102 2.422,5.334 2.27,8.276c-0.21,4.108 -1.128,8.258 -0.504,12.374c0.5,3.298 2.148,6.472 3.878,9.338c3.728,6.176 9.062,11.394 15.38,14.89c0.752,0.416 1.74,0.72 2.606,0.72c0.896,0 1.66,-0.324 1.894,-1.18c0.17,-0.628 -0.076,-1.296 -0.012,-1.944c0.13,-1.298 1.512,-2.106 2.84,-2.106c0.214,0 0.426,0.02 0.632,0.064c1.482,0.312 2.66,1.402 3.77,2.432c4.27,3.946 8.878,7.7 14.294,9.812c2.646,1.032 5.504,1.634 8.356,1.634c0.744,0 1.486,-0.042 2.226,-0.126c3.152,-0.36 5.552,-2.188 8.506,-2.188c0.51,0 1.034,0.054 1.584,0.18c1.924,0.44 3.73,1.372 5.688,1.61c0.238,0.03 0.48,0.044 0.724,0.044c1.774,0 3.634,-0.77 4.222,-2.402c0.04,-0.11 0.072,-0.22 0.098,-0.33c0.99,0.832 1.976,1.668 2.958,2.504c-0.13,-0.088 -0.28,-0.126 -0.432,-0.126c-0.5,0 -1.022,0.426 -0.992,0.946c2.16,6.45 6.836,11.948 12.694,15.386c-4,0.808 -8.058,1.332 -12.13,1.57c-1.698,0.1 -3.4,0.15 -5.102,0.15c-3.632,0 -7.266,-0.228 -10.87,-0.686c-2.642,-0.338 -5.278,-0.788 -7.876,-1.386c-0.128,-0.028 -3.072,-0.614 -4.35,-0.614c-0.42,0 -0.66,0.064 -0.56,0.23c1.116,1.88 -0.25,4.462 -2.248,5.358c-0.902,0.404 -1.868,0.556 -2.854,0.556Zm20.944,-20.894c-2.466,0 -5.418,0.802 -6.526,0.958c-0.612,0.088 -1.242,0.182 -1.762,0.516c-0.52,0.332 -0.894,0.976 -0.72,1.568c0.182,0.616 0.848,0.934 1.452,1.144c1.614,0.55 3.32,0.828 5.024,0.828c1.404,0 2.806,-0.188 4.158,-0.566c0.516,-0.144 1.036,-0.322 1.46,-0.65c0.424,-0.326 0.742,-0.834 0.718,-1.368c-0.076,-1.888 -1.776,-2.43 -3.804,-2.43Zm-38.332,-10.814c-0.37,0 -0.744,0.212 -1.104,0.778c-0.402,0.632 -0.404,1.446 -0.212,2.168c0.576,2.186 2.648,3.628 4.71,4.546c0.576,0.256 3.844,1.58 5.656,1.58c0.736,0 1.23,-0.218 1.21,-0.814c-0.012,-0.358 -0.278,-0.652 -0.536,-0.9c-2.296,-2.2 -5.182,-3.684 -7.532,-5.824c-0.622,-0.568 -1.4,-1.534 -2.192,-1.534Zm-26.478,-11.018c-0.33,0 -0.65,0.088 -0.95,0.286c-1.094,0.72 -0.804,2.378 -0.358,3.606c1.218,3.34 2.732,6.666 5.23,9.194c2.094,2.118 5,3.598 7.934,3.598c0.568,0 1.138,-0.056 1.702,-0.172c0.42,-0.088 0.856,-0.222 1.146,-0.538c0.458,-0.504 0.384,-1.324 0.024,-1.902c-0.364,-0.576 -0.948,-0.97 -1.506,-1.36c-2.88,-2.014 -6.012,-4.4 -7.692,-7.508c-0.74,-1.372 -3.356,-5.204 -5.53,-5.204Zm-15.442,-54.872c-0.542,0 -1.13,0.378 -1.414,0.77c-0.474,0.642 -0.574,1.476 -0.652,2.27c-0.726,7.498 -0.338,15.468 3.538,21.928c1.248,2.078 2.836,3.962 3.824,6.176c2.594,5.816 0.776,13.232 4.558,18.354c0.444,0.604 1.132,1.194 1.824,1.194c0.162,0 0.326,-0.032 0.486,-0.106c0.994,-0.45 0.834,-1.886 0.546,-2.94c-1.026,-3.788 -2.248,-8.756 -1.582,-12.696c0.246,-1.46 0.804,-2.524 0.726,-4.088c-0.084,-1.756 -0.496,-3.52 -1.474,-5.002c-1.002,-1.518 -2.502,-2.622 -3.812,-3.88c-2.492,-2.392 -4.338,-5.462 -5.372,-8.754c-1.164,-3.704 -0.798,-6.812 -0.428,-10.644c0.076,-0.79 0.532,-1.97 -0.26,-2.446c-0.156,-0.094 -0.33,-0.136 -0.508,-0.136Z" style="fill:url(#_Linear1);"/>
    <path d="M128.619,220.824c-2.852,0 -5.71,-0.602 -8.356,-1.634c-5.416,-2.112 -10.024,-5.866 -14.294,-9.812c-1.11,-1.03 -2.288,-2.12 -3.77,-2.432c-0.206,-0.044 -0.418,-0.064 -0.632,-0.064c-1.328,0 -2.71,0.808 -2.84,2.106c-0.064,0.648 0.182,1.316 0.012,1.944c-0.234,0.856 -0.998,1.18 -1.894,1.18c-0.866,0 -1.854,-0.304 -2.606,-0.72c-6.318,-3.496 -11.652,-8.714 -15.38,-14.89c-1.73,-2.866 -3.378,-6.04 -3.878,-9.338c-0.624,-4.116 0.294,-8.266 0.504,-12.374c0.152,-2.942 -0.204,-6.174 -2.27,-8.276c-0.318,-0.324 -0.668,-0.612 -1.034,-0.878c-0.836,-0.614 -1.756,-1.128 -2.576,-1.764c-6.546,-5.078 -5.932,-16.956 -5.73,-24.35c0.012,-0.418 0.014,-0.934 0.054,-1.474c0.108,-0.018 0.218,-0.028 0.328,-0.028l0.008,0c2.176,0.01 3.366,2.872 4.24,4.412c1.418,2.498 3.428,4.718 5.218,6.962c3.856,4.836 7.83,9.578 11.914,14.226c8.17,9.288 16.788,18.184 25.814,26.646c2.85,2.674 5.774,5.326 9.164,7.278c2.178,1.254 4.518,2.198 6.792,3.276c8.916,4.224 16.698,10.422 24.26,16.792c-0.026,0.11 -0.058,0.22 -0.098,0.33c-0.588,1.632 -2.448,2.402 -4.222,2.402c-0.244,0 -0.486,-0.014 -0.724,-0.044c-1.958,-0.238 -3.764,-1.17 -5.688,-1.61c-0.55,-0.126 -1.074,-0.18 -1.584,-0.18c-2.954,0 -5.354,1.828 -8.506,2.188c-0.74,0.084 -1.482,0.126 -2.226,0.126Z" style="fill:url(#_Radial2);"/>
    <path d="M267.071,296.958c-1.398,0 -3.012,-0.4 -4.318,-0.822c-8.144,-2.624 -15.89,-6.48 -22.898,-11.39c0.334,0.972 0.668,1.948 1.002,2.922c-1.226,0.842 -2.714,1.194 -4.212,1.194c-0.632,0 -1.266,-0.064 -1.884,-0.178c-2.078,-0.386 -4.012,-1.304 -5.92,-2.216c-5.748,-2.744 -11.72,-5.664 -15.584,-10.726c-1.14,-1.492 -2.104,-3.32 -1.778,-5.168c0.258,-1.46 1.678,-2.722 3.062,-2.722c0.368,0 0.734,0.088 1.074,0.286c-7.2,-5.31 -14.056,-11.088 -20.506,-17.286c-3.274,-3.144 -6.48,-6.38 -9.51,-9.758c-2.668,-2.976 -6.816,-4.524 -10.67,-5.466c0.946,1.164 1.304,2.782 0.932,4.236c-3.52,-0.512 -6.904,-1.746 -9.966,-3.542c-5.858,-3.438 -10.534,-8.936 -12.694,-15.386c-0.03,-0.52 0.492,-0.946 0.992,-0.946c0.152,0 0.302,0.038 0.432,0.126c-0.982,-0.836 -1.968,-1.672 -2.958,-2.504c-7.562,-6.37 -15.344,-12.568 -24.26,-16.792c-2.274,-1.078 -4.614,-2.022 -6.792,-3.276c-3.39,-1.952 -6.314,-4.604 -9.164,-7.278c-9.026,-8.462 -17.644,-17.358 -25.814,-26.646c-4.084,-4.648 -8.058,-9.39 -11.914,-14.226c-1.79,-2.244 -3.8,-4.464 -5.218,-6.962c-0.874,-1.54 -2.064,-4.402 -4.24,-4.412l-0.008,0c-0.11,0 -0.22,0.01 -0.328,0.028c-0.3,0.046 -0.598,0.136 -0.9,0.162c-0.066,0.004 -0.13,0.008 -0.192,0.008c-1.12,0 -2.09,-0.842 -2.898,-1.646c-2.534,-2.522 -4.87,-5.212 -7.048,-8.028c-6.418,-8.294 -11.478,-17.678 -16.222,-27.074c-0.712,-1.416 -1.432,-2.862 -1.664,-4.428c-0.232,-1.568 0.098,-3.302 1.232,-4.406c0.616,-0.6 1.496,-0.936 2.35,-0.936c0.718,0 1.418,0.238 1.924,0.758c-0.08,-0.238 -0.166,-0.472 -0.26,-0.704c-2.204,-5.394 -7.796,-10.08 -11.32,-14.696c-3.986,-5.218 -7.68,-10.664 -11.058,-16.296c-6.686,-11.152 -12.14,-23.046 -16.196,-35.402c-0.978,-2.982 -1.888,-6.078 -1.634,-9.208c0.256,-3.128 1.916,-6.328 4.806,-7.558c0.926,-0.394 1.898,-0.56 2.884,-0.56c2.138,-0 4.342,0.784 6.296,1.758c6.124,3.052 11.114,7.798 16.286,12.184c4.626,3.924 9.714,9.97 15.768,11.362c-0.218,-0.662 0.394,-1.362 1.076,-1.498c0.132,-0.026 0.264,-0.038 0.396,-0.038c0.552,0 1.104,0.208 1.622,0.422c8.384,3.47 15.772,9.32 21.068,16.686c-0.708,0.522 -1.418,1.046 -2.128,1.566c-0.922,0.68 7.1,5.892 7.594,6.172c4.038,2.296 7.526,5.402 11.906,7.13c4.67,1.84 9.76,2.524 14.76,2.524l0.044,0c8.28,-0.004 16.456,-1.722 24.712,-2.35c2.336,-0.178 4.648,-0.268 6.934,-0.268c12.138,0 23.6,2.52 34.778,7.716c12.406,5.772 24.014,13.922 34.86,22.202c0.054,-0.594 0.69,-0.982 1.294,-0.982c0.052,0 0.106,0.002 0.158,0.008c0.644,0.078 1.196,0.49 1.698,0.902c6.148,5.026 10.54,12.162 12.262,19.914c0.174,0.786 0.314,1.652 -0.068,2.362c-0.238,0.446 -0.768,0.74 -1.252,0.74c-0.288,0 -0.558,-0.104 -0.742,-0.342c1.716,6.906 4.378,13.666 5.14,20.83c0.844,7.934 0.124,15.954 -0.85,23.844c-0.738,5.966 -3.014,13.416 -1.968,19.3c1.262,7.104 3.562,14.12 6.056,20.874c2.762,7.468 6.016,14.746 9.484,21.91c3.382,6.98 6.764,13.76 11.276,20.118c1.59,2.242 3.32,4.548 3.698,7.272c0.108,0.774 -0.09,1.664 0.052,2.402c0.164,0.864 0.832,1.726 1.264,2.488c1.088,1.916 2.228,3.804 3.384,5.682c2.312,3.756 4.7,7.464 6.924,11.274c2.716,4.656 5.202,9.506 6.93,14.596c0.702,2.07 1.28,4.18 1.696,6.334c0.572,2.96 -1.012,3.83 -3.07,3.83Zm-48.384,-20.222c1.27,1.838 3.268,3.162 5.454,3.62c0.096,0.02 0.196,0.036 0.292,0.036c0.098,0 0.192,-0.016 0.274,-0.068c0.268,-0.166 0.25,-0.558 0.164,-0.86c-0.684,-2.296 -3.472,-3.446 -4.22,-5.722c-0.408,-1.242 -0.24,-2.838 -1.304,-3.598c-0.286,-0.204 -0.622,-0.296 -0.962,-0.296c-0.78,0 -1.596,0.48 -1.96,1.198c-0.526,1.03 -0.274,2.322 0.342,3.302c0.614,0.978 1.544,1.714 2.454,2.43l-0.534,-0.042Zm8.55,-7.998c-0.22,0 -0.422,0.058 -0.566,0.222c-0.394,0.45 0.084,1.122 0.532,1.516c3.018,2.658 6.768,4.26 10.428,5.98c2.436,1.142 4.966,2.238 7.652,2.412c0.212,0.014 0.424,0.02 0.638,0.02c2.496,0 5.072,-0.938 6.504,-2.96c1.342,-1.898 1.472,-4.448 0.888,-6.698c-0.586,-2.252 -1.804,-4.276 -3.01,-6.264c-2.104,-3.484 -4.212,-6.964 -6.32,-10.446c-0.326,-0.54 -0.868,-1.148 -1.426,-1.148c-0.122,0 -0.244,0.03 -0.366,0.094c-0.624,0.334 -0.492,1.252 -0.272,1.924c0.992,3.024 1.986,6.048 2.978,9.072c0.752,2.288 1.48,4.892 0.33,7.008c-1.01,1.858 -3.256,2.766 -5.368,2.766c-2.116,0 -4.15,-0.75 -6.13,-1.488c-1.908,-0.712 -3.868,-1.268 -5.812,-1.882c-0.214,-0.068 -0.456,-0.128 -0.68,-0.128Zm-28.578,-33.086c2.662,6.01 7.12,11.142 12.3,15.128c5.408,4.16 10.598,8.248 16.62,11.662c2.99,1.694 6.21,3.31 9.648,3.31l0.038,0c1.9,-0.006 4.05,-0.74 4.73,-2.516c0.556,-1.45 -0.058,-3.064 -0.708,-4.476c-2.026,-4.4 -4.47,-8.606 -7.286,-12.544c1.876,-1.76 1.2,-4.846 0.268,-7.246c-3.078,-7.924 -7.436,-15.352 -12.85,-21.91c4.16,5.362 7.248,11.554 9.028,18.102c0.664,2.444 1.134,5.108 0.196,7.462c-0.406,1.016 -1.06,1.934 -1.336,2.996c-0.51,1.96 0.376,4.016 1.51,5.696c1.136,1.678 2.556,3.198 3.322,5.072c0.446,1.09 0.634,2.41 -0.016,3.394c-0.54,0.82 -1.556,1.208 -2.552,1.208c-0.154,0 -0.31,-0.01 -0.462,-0.028c-1.13,-0.138 -2.16,-0.692 -3.148,-1.26c-10.988,-6.312 -20.206,-15.228 -29.302,-24.05Zm3.196,-6.7c-0.376,0 -0.746,0.106 -0.882,0.436c-0.116,0.288 0.01,0.61 0.148,0.89c0.624,1.262 1.492,2.404 2.538,3.346c1.124,1.006 2.454,1.788 3.432,2.932c1.106,1.29 1.692,2.96 2.802,4.244c1.558,1.804 4.01,2.65 6.398,2.65c0.132,0 0.262,-0.004 0.394,-0.008c3.718,-0.144 8.902,-1.73 10.298,-5.522c1.768,-4.798 -1.596,-11.238 -4.352,-15.058c-0.182,-0.256 -0.438,-0.534 -0.734,-0.534c-0.036,0 -0.072,0.004 -0.108,0.012c-0.342,0.078 -0.472,0.49 -0.54,0.836c-0.32,1.642 -0.478,3.73 -0.928,5.646c-0.674,2.87 -2.004,5.352 -5.518,5.368l-0.034,0c-2.274,0 -4.388,-1.132 -6.33,-2.314c-1.956,-1.19 -3.926,-2.494 -6.18,-2.888c-0.128,-0.022 -0.266,-0.036 -0.404,-0.036Zm-43.07,-12.958c-0.278,0 -0.55,0.054 -0.804,0.186c-0.646,0.338 -0.974,1.118 -0.938,1.846c0.036,0.728 0.376,1.408 0.786,2.012c2.116,3.118 6.162,4.906 9.782,5.362c2.072,0.264 3.838,0.522 5.71,1.56c1.282,0.71 2.53,1.52 3.92,1.97l0.266,0.082c0.236,0.068 0.496,0.118 0.746,0.118c0.314,0 0.612,-0.08 0.826,-0.306c0.414,-0.438 0.254,-1.16 -0.038,-1.69c-0.762,-1.384 -2.174,-2.28 -3.592,-2.982c-2.398,-1.184 -4.35,-2.756 -6.696,-3.96c-2.646,-1.36 -5.43,-2.426 -8.132,-3.67c-0.574,-0.266 -1.222,-0.528 -1.836,-0.528Zm2.116,-17.486c-0.186,0 -0.37,0.038 -0.546,0.128c-0.908,0.45 -0.816,1.77 -0.484,2.728c2.064,5.938 7.742,9.84 13.446,12.478c8.558,3.958 17.978,6.028 27.404,6.028c0.372,0 0.744,-0.004 1.116,-0.01c2.66,-0.048 5.546,-0.35 7.484,-2.172c1.786,-1.678 2.352,-4.27 2.552,-6.71c0.5,-6.074 -0.69,-12.14 -1.428,-18.19c-1.47,-12.03 -1.236,-24.218 0.876,-36.152c-3.06,12.774 -4.666,25.97 -3.752,39.074c0.242,3.474 0.658,6.996 0.004,10.416c-0.654,3.422 -2.604,6.816 -5.806,8.18c-1.154,0.492 -2.366,0.69 -3.6,0.69c-2.29,0 -4.658,-0.68 -6.858,-1.428c-8.302,-2.822 -16.308,-6.526 -23.834,-11.028c-2.13,-1.276 -2.85,-1.702 -4.814,-3.222c-0.514,-0.396 -1.15,-0.81 -1.76,-0.81Zm33.87,1.308c0.094,0 0.188,0.006 0.28,0.02c0.482,0.072 0.96,0.416 1.026,0.898c0.132,0.956 -1.232,1.444 -1.492,2.372c-0.216,0.78 0.5,1.584 1.296,1.726c0.124,0.022 0.25,0.032 0.372,0.032c0.674,0 1.338,-0.3 1.924,-0.654c4.82,-2.932 6.538,-9.592 6.308,-14.89c-0.052,-1.168 -0.214,-2.374 -0.83,-3.368c-0.364,-0.59 -0.87,-1.078 -1.244,-1.66c-1.346,-2.104 -0.712,-4.75 -0.668,-7.082c0.042,-2.218 -0.598,-4.402 -1.546,-6.39c-0.234,-0.486 -0.536,-1.018 -1.058,-1.154c-0.078,-0.02 -0.158,-0.03 -0.236,-0.03c-0.47,0 -0.926,0.344 -1.152,0.776c-0.262,0.502 -0.286,1.092 -0.296,1.66c-0.142,7.294 1.388,17.654 -5.454,22.652c-3.13,2.286 -7.574,3.462 -11.736,3.462c-1.594,0 -3.146,-0.172 -4.568,-0.522c-0.442,-0.108 -0.894,-0.234 -1.346,-0.234c-0.11,0 -0.22,0.008 -0.328,0.026c-0.56,0.088 -1.116,0.508 -1.144,1.074c-0.028,0.584 0.478,1.036 0.936,1.398c2.05,1.608 4.876,4.034 7.61,4.236c0.09,0.008 0.182,0.01 0.274,0.01c1.824,0 3.788,-1.276 5.414,-1.908c2.134,-0.832 4.304,-1.576 6.502,-2.228c0.376,-0.112 0.766,-0.222 1.156,-0.222Zm-63.582,-32.812c0.542,0 1.108,0.146 1.632,0.304c6.568,1.996 12.698,5.424 17.834,9.978c-1.852,1.604 -4.26,2.556 -6.708,2.65c5.11,5.106 11.48,8.79 18.09,11.712c4.766,2.108 10.536,4.288 15.984,4.288c3.732,0 7.312,-1.022 10.318,-3.792c3.266,-3.008 5.056,-7.546 4.724,-11.972c-0.72,0.906 -1.9,2.188 -3.058,2.188c-0.526,0 -1.05,-0.266 -1.522,-0.952c-0.264,-0.38 -0.422,-0.804 -0.508,-1.25c-0.176,-0.922 -0.042,-1.938 0.112,-2.88c1.274,-7.746 3.046,-15.41 5.302,-22.93c0.232,-0.768 0.552,-1.63 1.3,-1.928c0.168,-0.066 0.334,-0.098 0.496,-0.098c1.116,0 1.998,1.484 2.13,2.738c0.152,1.438 0.108,3.178 1.332,3.946c-0.262,-0.164 0.886,-8.12 0.904,-9.024c0.072,-3.314 -0.136,-6.634 -0.626,-9.912c-0.916,-6.148 -2.638,-12.022 -5.424,-17.596c-5.236,-10.478 -13.33,-20.386 -25.37,-22.63c-3.786,-0.708 -8.27,-1.006 -10.362,-4.24c-0.652,-1.01 -0.7,-2.758 0.472,-3.034c-0.708,-3.162 -4.156,-4.79 -7.236,-5.802c-3.314,-1.09 -6.722,-1.862 -10.168,-2.396c-1.904,-0.298 -3.998,-0.704 -6.034,-0.704c-1.302,-0 -2.582,0.168 -3.77,0.636c1.65,0.486 3.514,2.732 2.748,4.58c-0.858,2.064 -5.244,2.486 -7.146,2.844c-2.76,0.522 -5.558,0.782 -8.352,1.04c-2.316,0.212 -4.65,0.424 -6.972,0.424c-1.692,0 -3.378,-0.112 -5.044,-0.42c-0.514,-0.096 -1.074,-0.242 -1.36,-0.678c-0.284,-0.434 -0.19,-1.032 0.1,-1.46c0.286,-0.43 0.73,-0.728 1.172,-0.998c2.25,-1.372 4.736,-2.36 7.314,-2.906c-0.334,-0.008 -0.67,-0.012 -1.006,-0.012c-5.664,0 -11.56,1.142 -16.834,3.126c-5.066,1.906 -9.796,5.054 -12.79,9.564c-3.264,4.918 -3.496,11.242 -2.15,16.834c1.038,4.306 4.124,13.16 9.348,13.864c0.284,-1.434 -0.502,-2.83 -0.918,-4.232c-0.414,-1.404 -0.218,-3.302 1.156,-3.798c0.208,-0.074 0.416,-0.108 0.622,-0.108c1.012,0 1.994,0.806 2.74,1.582c4.228,4.4 7.654,9.492 11.058,14.556c2.412,3.588 4.864,7.262 5.974,11.44c0.54,2.036 0.75,4.16 1.432,6.152c1.318,3.834 4.588,6.504 7.504,9.176c3.326,3.046 7.054,5.654 11.06,7.722c-0.632,-0.802 -1.28,-1.638 -1.52,-2.632c-0.24,-0.992 0.046,-2.19 0.934,-2.696c0.334,-0.192 0.704,-0.264 1.086,-0.264Zm-38.436,-20.59c-0.12,0 -0.24,0.018 -0.36,0.058c-0.638,0.216 -0.93,1 -0.818,1.664c0.11,0.662 0.516,1.234 0.9,1.786c2.36,3.37 4.36,6.99 5.962,10.78c0.628,1.486 0.974,3.594 2.024,4.834c0.88,1.032 2.324,1.87 3.362,2.746c6.254,5.256 13.208,9.594 19.594,14.68c4.284,3.412 8.162,8.216 13.592,9.67c2.452,0.656 5.006,0.846 7.538,1.034c4.368,0.242 8.746,0.842 13.076,1.042c0.028,0 0.058,0.002 0.088,0.002c0.344,0 0.742,-0.09 0.826,-0.412c0.09,-0.366 -0.304,-0.65 -0.638,-0.818c-1.172,-0.586 -2.484,-1.524 -3.772,-1.802c-0.378,-0.082 -0.768,-0.096 -1.16,-0.096c-0.1,0 -0.2,0.002 -0.302,0.002c-0.1,0.002 -0.198,0.002 -0.298,0.002c-0.304,0 -0.608,-0.008 -0.908,-0.048c-2.562,-0.354 -5,-1.416 -7.338,-2.47c-5.214,-2.334 -9.236,-6.628 -13.602,-10.31c-5.78,-4.874 -12.392,-8.268 -18.866,-12.13c-2.182,-1.304 -4.398,-2.634 -6.114,-4.508c-2.116,-2.318 -3.326,-5.302 -5.068,-7.912c-1.688,-2.532 -3.868,-4.692 -6.032,-6.832c-0.47,-0.464 -1.066,-0.962 -1.686,-0.962Zm39.986,21.724c-0.096,0 -0.192,0.004 -0.288,0.014c-2.07,0.21 -1.056,2.098 -0.032,2.956c2.248,1.886 4.872,3.318 7.674,4.2c0.638,0.202 1.27,0.434 1.874,0.434c0.47,0 0.922,-0.14 1.346,-0.546c0.98,-0.94 0.498,-1.714 -0.612,-2.254c-1.912,-0.934 -3.894,-1.734 -5.676,-2.884c-1.2,-0.774 -2.766,-1.92 -4.286,-1.92Zm62.096,-11.596c-0.104,0 -0.208,0.018 -0.31,0.06c-0.766,0.304 -1.568,2.694 -1.694,3.436c-0.168,0.972 0.108,1.94 -0.004,2.922c-0.37,3.288 -1.534,6.66 -2.288,9.882c-0.186,0.808 -0.194,1.946 0.61,2.15c0.074,0.02 0.144,0.028 0.212,0.028c0.716,0 1.168,-0.974 1.33,-1.748c0.476,-2.312 0.954,-4.626 1.432,-6.938c0.144,-0.696 0.294,-1.41 0.684,-2.004c0.354,-0.536 0.954,-0.958 1.586,-0.958c0.066,0 0.132,0.006 0.2,0.014c0.622,0.092 1.12,0.586 1.736,0.728c0.126,0.028 0.25,0.042 0.372,0.042c1.186,0 2.116,-1.322 2.532,-2.52c0.658,-1.9 0.896,-3.944 0.696,-5.946c-0.758,0.412 -1.084,1.312 -1.32,2.142c-0.236,0.83 -0.49,1.732 -1.184,2.246c-0.348,0.258 -0.77,0.388 -1.184,0.388c-0.682,0 -1.348,-0.35 -1.65,-1.052c-0.262,-0.606 -0.276,-1.294 -0.532,-1.904l-0.024,-0.054c-0.224,-0.486 -0.704,-0.914 -1.2,-0.914Zm-100.234,-29.398c-0.204,0 -0.408,0.046 -0.61,0.152c-2.552,1.326 1.53,5.106 2.516,6.202c2.194,2.436 3.772,5.428 4.516,8.622c0.33,1.424 0.502,2.888 0.958,4.276c0.102,0.306 0.22,0.61 0.354,0.904c0.48,1.054 1.602,2.798 2.912,2.876c0.032,0.002 0.064,0.002 0.094,0.002c1.21,0.002 2.15,-1.408 2.288,-2.472c0.174,-1.338 -0.374,-2.656 -0.97,-3.866c-1.352,-2.75 -3.002,-5.354 -4.912,-7.75c-1.812,-2.276 -3.17,-4.78 -4.796,-7.216c-0.566,-0.826 -1.452,-1.73 -2.35,-1.73Zm-57.578,-59.576c0.53,6.962 5.034,13.664 8.676,19.43c1.798,2.846 3.574,5.826 4.45,9.102c0.736,2.75 0.498,5.47 1.342,8.21c1.246,4.042 4,7.422 6.822,10.57c1.142,0 5.336,5.664 6.316,6.63c3.714,3.668 7.872,6.85 11.66,10.4c3.952,3.706 9.19,7.352 12.45,11.66c-6.976,-9.234 -14.714,-17.796 -22.862,-25.984c-4.352,-4.374 -9.05,-8.838 -10.918,-14.72c-1.294,-4.078 -1.202,-8.456 -2.008,-12.62c-0.724,-3.72 -3.836,-7.054 -6.122,-10.008c-3.27,-4.224 -6.538,-8.446 -9.806,-12.67Zm162.326,58.994c-0.638,0 -1.212,0.47 -1.3,1.282c-0.132,1.24 0.854,3.16 1.144,4.386c0.742,3.156 1.024,6.168 1.254,9.412l0.082,0.512c0.11,0.426 0.336,0.804 0.74,0.804l0.014,0c0.456,-0.008 0.716,-0.52 0.848,-0.96c0.656,-2.158 0.378,-3.79 0.202,-5.916c-0.212,-2.542 -0.318,-5.002 -1.098,-7.462c-0.172,-0.544 -0.376,-1.096 -0.762,-1.518c-0.336,-0.37 -0.742,-0.54 -1.124,-0.54Zm-147.348,-10.38c-1.12,0 -2.11,0.694 -2.116,2.156c-0.006,1.646 1.738,3.536 2.588,4.868c2.47,3.862 5.47,7.384 8.892,10.432c0.652,0.58 1.554,1.148 2.354,1.148c0.34,0 0.66,-0.102 0.936,-0.348c0.536,-0.476 0.588,-1.324 0.326,-1.992c-0.264,-0.666 -0.776,-1.198 -1.266,-1.722c-3.05,-3.256 -5.662,-6.928 -7.738,-10.88c-0.556,-1.058 -1.102,-2.172 -2.022,-2.938c-0.576,-0.478 -1.288,-0.724 -1.954,-0.724Zm25.788,-29.208c-0.08,-0 -0.16,0.002 -0.242,0.004c-2.792,0.108 -5.09,2.138 -7.078,4.106c-1.426,1.412 -2.846,2.882 -3.754,4.67c-0.906,1.792 -1.24,3.974 -0.426,5.808c0.536,1.2 1.504,2.15 2.18,3.276c1.998,3.324 1.712,7.828 3.106,11.462c1.434,3.742 3.754,7.144 6.742,9.814c0.44,0.392 0.994,0.788 1.548,0.788c0.134,0 0.268,-0.024 0.4,-0.076c0.53,-0.206 0.802,-0.832 0.776,-1.402c-0.024,-0.57 -0.282,-1.102 -0.534,-1.614c-1.498,-3.032 -3.054,-5.592 -3.248,-8.972c-0.224,-3.87 -0.504,-7.352 0.45,-11.172c1.528,-5.704 5.594,-10.186 10.546,-13.18c1.95,-1.178 4.034,-2.126 6.158,-2.828c4.718,-1.56 9.698,-2.174 14.652,-2.576c0.722,-0.058 1.476,-0.122 2.096,-0.5c0.618,-0.378 1.046,-1.178 0.762,-1.844c-0.216,-0.508 -0.758,-0.784 -1.264,-1.004c-3.098,-1.344 -6.472,-2.01 -9.846,-2.01c-0.28,-0 -0.558,0.006 -0.838,0.014c-3.302,0.108 -6.608,1.38 -9.524,2.878c-2.958,1.518 -5.442,4.5 -8.97,4.648c-0.086,0.004 -0.172,0.004 -0.258,0.004c-0.574,0 -1.144,-0.072 -1.716,-0.146c-0.572,-0.074 -1.144,-0.148 -1.718,-0.148Zm66.596,-5.852c-1.852,0 -3.692,0.29 -5.41,0.976c5.24,0.782 11.538,0.714 16.14,3.54c2.202,1.354 4.956,2.84 5.112,5.666c0.08,1.428 -0.106,2.966 0.63,4.192c1.146,1.924 3.804,2.058 6.03,2.29c5.442,0.558 10.584,3.002 14.868,6.402c3.004,2.372 5.608,5.232 7.898,8.286c0.948,1.264 2.108,2.494 2.96,3.8c1.048,1.608 1.634,3.764 2.388,5.53c0.146,0.342 0.34,0.728 0.702,0.816c0.046,0.01 0.092,0.016 0.138,0.016c0.342,0 0.66,-0.3 0.764,-0.64c0.114,-0.384 0.028,-0.798 -0.066,-1.192c-2.838,-11.84 -12.516,-21.782 -24.278,-24.934c-2.912,-0.782 -6.276,-1.406 -7.854,-3.976c-0.698,-1.134 -0.928,-2.51 -1.638,-3.636c-1.046,-1.652 -2.944,-2.522 -4.736,-3.302c-3.028,-1.32 -6.08,-2.648 -9.308,-3.346c-1.42,-0.308 -2.884,-0.488 -4.34,-0.488Zm-86.644,14.59c-1.296,0 -1.752,1.806 -1.696,3.06c0.09,1.992 1.098,3.948 2.752,5.088c0.342,0.234 0.776,0.428 1.172,0.428c0.222,0 0.434,-0.06 0.61,-0.21c0.396,-0.338 0.394,-0.942 0.348,-1.46c-0.132,-1.376 -0.358,-2.742 -0.684,-4.084c-0.23,-0.958 -0.58,-1.994 -1.434,-2.486c-0.406,-0.236 -0.76,-0.336 -1.068,-0.336Zm51.79,-6.33c-0.534,0 -1.046,0.084 -1.546,0.474c-0.512,0.4 -0.766,1.206 -0.356,1.71c0.342,0.42 0.962,0.456 1.504,0.456l0.044,0c3.042,0 5.972,-0.208 8.902,-0.534c2.402,-0.266 4.804,-0.608 7.272,-0.982c0.674,-0.102 3.458,-0.56 3.704,-1.394c0.338,-1.142 -1.902,-1.642 -2.696,-1.674c-0.08,-0.004 -0.16,-0.006 -0.24,-0.006c-1.116,0 -2.212,0.318 -3.294,0.594c-3.688,0.938 -7.49,1.414 -11.294,1.414c-0.276,0 -0.552,-0.004 -0.828,-0.008c-0.404,-0.008 -0.792,-0.05 -1.172,-0.05Zm-60.966,-28.516c-0.43,-0 -0.854,0.07 -1.258,0.232c-3.72,1.49 -2.18,7.856 -0.722,10.28c1.352,2.25 3.238,4.128 4.744,6.28c2.254,3.226 3.622,7.064 3.91,10.99c0.09,1.238 0.368,2.838 1.59,3.038c0.07,0.012 0.138,0.016 0.206,0.016c0.802,-0 1.5,-0.766 1.658,-1.578c0.172,-0.882 -0.118,-1.78 -0.402,-2.632c-1.17,-3.498 -2.338,-6.998 -3.508,-10.498c-0.576,-1.726 -1.11,-3.778 -0.028,-5.24c0.762,-1.03 2.052,-1.38 3.372,-1.38c0.568,0 1.14,0.064 1.678,0.168c2.662,0.506 5.168,1.638 7.812,2.228c0.986,0.22 2.018,0.356 3.038,0.356c1.718,0 3.404,-0.384 4.778,-1.39c-5.942,-4.79 -14.958,-3.694 -21.258,-8.002c-1.06,-0.724 -2.028,-1.596 -3.16,-2.196c-0.752,-0.4 -1.61,-0.672 -2.45,-0.672Zm16.746,2.346c6.8,5.796 14.274,8.726 23.22,9.138c-9.006,-1.824 -15.562,-6.726 -22.312,-12.61c-6.846,-5.968 -14.28,-11.352 -22.534,-15.206c-1.624,-0.76 -3.32,-1.468 -5.108,-1.57c-0.128,-0.008 -0.256,-0.012 -0.384,-0.012c-1.676,-0 -3.404,0.618 -4.394,1.954c-3.614,4.884 2.754,13.822 6.054,17.148c0.21,0.212 0.45,0.432 0.748,0.452c0.012,0 0.026,0.002 0.04,0.002c0.4,-0 0.724,-0.398 0.782,-0.8c0.06,-0.416 -0.086,-0.83 -0.222,-1.23c-0.846,-2.48 -1.39,-5.062 -1.612,-7.674c-0.068,-0.818 -0.078,-1.726 0.452,-2.35c0.446,-0.522 1.124,-0.686 1.828,-0.686c0.374,0 0.756,0.046 1.114,0.112c3.152,0.566 6.158,1.918 8.672,3.898c-0.194,-0.08 -0.432,-0.116 -0.684,-0.116c-0.638,0 -1.362,0.234 -1.662,0.596c-0.524,0.628 -0.48,1.582 -0.112,2.312c0.366,0.73 1,1.286 1.62,1.814c3.666,3.13 7.814,6.198 12.624,6.498c0.118,0.008 0.238,0.012 0.358,0.012c0.466,0 0.936,-0.072 1.292,-0.356c0.388,-0.314 0.516,-0.966 0.22,-1.326Zm-38.972,-26.806c-0.318,0 -0.634,0.034 -0.946,0.11c-1.182,0.29 -1.944,1.084 -2.432,2.11c-0.876,1.844 -0.856,4.432 -0.758,6.188c0.25,4.526 2.512,9.254 5.332,12.732c0.278,0.346 0.652,0.724 1.07,0.724c0.056,0 0.112,-0.008 0.17,-0.022c0.51,-0.13 0.674,-0.778 0.674,-1.304c0.006,-3.408 -1.82,-6.848 -2.194,-10.248c-0.22,-1.986 0.058,-4.126 1.276,-5.712c0.868,-1.134 2.304,-1.878 3.7,-1.878c0.558,0 1.11,0.118 1.618,0.378c-1.506,-1.012 -3.13,-1.848 -4.828,-2.484c-0.86,-0.322 -1.776,-0.594 -2.682,-0.594Zm-3.738,14.678c-1.702,-4.062 -2.688,-8.42 -2.906,-12.818c-0.062,-1.226 -0.048,-2.52 0.55,-3.594c0.898,-1.614 2.694,-2.144 4.728,-2.144c2.878,0 6.23,1.066 8.168,1.628c-1.372,-0.398 -3.012,-2.26 -4.244,-3.054c-1.564,-1.012 -3.19,-1.894 -4.936,-2.552c-1.488,-0.56 -2.976,-1.302 -4.318,-1.302c-1.11,0 -2.118,0.51 -2.942,2.052c-1.666,3.114 -0.514,6.778 0.292,9.968c1.072,4.248 3.178,8.17 5.608,11.816Zm28.512,-14.384c-1.338,0 -2.594,1.172 -1.244,2.438c0.666,0.626 2.148,0.564 2.986,0.86c1.2,0.428 2.318,1.094 3.262,1.952c1.758,1.6 3.12,3.968 5.46,4.404c0.112,0.022 0.232,0.034 0.35,0.034c0.258,0 0.51,-0.066 0.666,-0.262c0.298,-0.382 0.03,-0.932 -0.25,-1.328c-2.466,-3.458 -6.474,-7.042 -10.73,-8.042c-0.166,-0.038 -0.334,-0.056 -0.5,-0.056Zm-41.318,-19.55c3.776,0 7.55,1.028 10.802,2.948c0.648,0.382 1.306,0.81 2.054,0.888c0.058,0.006 0.118,0.01 0.178,0.01c0.7,0 1.444,-0.41 1.558,-1.094c0.112,-0.652 -0.364,-1.248 -0.834,-1.714c-2.884,-2.88 -7.814,-5.784 -12.26,-5.784c-0.902,0 -1.784,0.12 -2.624,0.384c-0.746,0.234 -1.488,0.582 -1.988,1.18c-0.5,0.602 -0.698,1.506 -0.306,2.182c0.522,0.902 1.714,1.006 2.79,1.006c0.12,0 0.24,-0.002 0.358,-0.004c0.09,0 0.18,-0.002 0.272,-0.002Z" style="fill:url(#_Linear3);"/>
    <path d="M178.021,195.936c-5.448,0 -11.218,-2.18 -15.984,-4.288c-6.61,-2.922 -12.98,-6.606 -18.09,-11.712c2.448,-0.094 4.856,-1.046 6.708,-2.65c-5.136,-4.554 -11.266,-7.982 -17.834,-9.978c-0.524,-0.158 -1.09,-0.304 -1.632,-0.304c-0.382,0 -0.752,0.072 -1.086,0.264c-0.888,0.506 -1.174,1.704 -0.934,2.696c0.24,0.994 0.888,1.83 1.52,2.632c-4.006,-2.068 -7.734,-4.676 -11.06,-7.722c-2.916,-2.672 -6.186,-5.342 -7.504,-9.176c-0.682,-1.992 -0.892,-4.116 -1.432,-6.152c-1.11,-4.178 -3.562,-7.852 -5.974,-11.44c-3.404,-5.064 -6.83,-10.156 -11.058,-14.556c-0.746,-0.776 -1.728,-1.582 -2.74,-1.582c-0.206,0 -0.414,0.034 -0.622,0.108c-1.374,0.496 -1.57,2.394 -1.156,3.798c0.416,1.402 1.202,2.798 0.918,4.232c-5.224,-0.704 -8.31,-9.558 -9.348,-13.864c-1.346,-5.592 -1.114,-11.916 2.15,-16.834c2.994,-4.51 7.724,-7.658 12.79,-9.564c5.274,-1.984 11.17,-3.126 16.834,-3.126c0.336,0 0.672,0.004 1.006,0.012c-2.578,0.546 -5.064,1.534 -7.314,2.906c-0.442,0.27 -0.886,0.568 -1.172,0.998c-0.29,0.428 -0.384,1.026 -0.1,1.46c0.286,0.436 0.846,0.582 1.36,0.678c1.666,0.308 3.352,0.42 5.044,0.42c2.322,0 4.656,-0.212 6.972,-0.424c2.794,-0.258 5.592,-0.518 8.352,-1.04c1.902,-0.358 6.288,-0.78 7.146,-2.844c0.766,-1.848 -1.098,-4.094 -2.748,-4.58c1.188,-0.468 2.468,-0.636 3.77,-0.636c2.036,-0 4.13,0.406 6.034,0.704c3.446,0.534 6.854,1.306 10.168,2.396c3.08,1.012 6.528,2.64 7.236,5.802c-1.172,0.276 -1.124,2.024 -0.472,3.034c2.092,3.234 6.576,3.532 10.362,4.24c12.04,2.244 20.134,12.152 25.37,22.63c2.786,5.574 4.508,11.448 5.424,17.596c0.49,3.278 0.698,6.598 0.626,9.912c-0.018,0.904 -1.166,8.86 -0.904,9.024c-1.224,-0.768 -1.18,-2.508 -1.332,-3.946c-0.132,-1.254 -1.014,-2.738 -2.13,-2.738c-0.162,0 -0.328,0.032 -0.496,0.098c-0.748,0.298 -1.068,1.16 -1.3,1.928c-2.256,7.52 -4.028,15.184 -5.302,22.93c-0.154,0.942 -0.288,1.958 -0.112,2.88c0.086,0.446 0.244,0.87 0.508,1.25c0.472,0.686 0.996,0.952 1.522,0.952c1.158,0 2.338,-1.282 3.058,-2.188c0.332,4.426 -1.458,8.964 -4.724,11.972c-3.006,2.77 -6.586,3.792 -10.318,3.792Zm-19.712,-95.292c-1.16,0 -2.498,0.298 -2.812,1.38c-0.328,1.132 0.75,2.154 1.748,2.778c2.654,1.664 5.612,2.802 8.26,4.476c2.646,1.676 5.064,4.064 5.748,7.122c0.552,2.474 -0.094,5.068 0.24,7.58c0.382,2.902 2.074,5.518 4.268,7.456c2.192,1.936 4.86,3.254 7.588,4.318c0.444,0.174 0.938,0.336 1.404,0.336c0.28,0 0.55,-0.058 0.792,-0.21c0.764,-0.472 0.808,-1.55 0.718,-2.442c-0.486,-4.766 -2.36,-9.382 -5.332,-13.136c0.09,0.026 0.18,0.04 0.27,0.04c0.58,0 1.126,-0.54 1.254,-1.134c0.15,-0.69 -0.098,-1.398 -0.37,-2.046c-3.73,-8.942 -13.738,-16.14 -23.52,-16.514c-0.084,-0.002 -0.17,-0.004 -0.256,-0.004Z" style="fill:url(#_Radial4);"/>
    <path d="M184.753,136.09c-0.466,0 -0.96,-0.162 -1.404,-0.336c-2.728,-1.064 -5.396,-2.382 -7.588,-4.318c-2.194,-1.938 -3.886,-4.554 -4.268,-7.456c-0.334,-2.512 0.312,-5.106 -0.24,-7.58c-0.684,-3.058 -3.102,-5.446 -5.748,-7.122c-2.648,-1.674 -5.606,-2.812 -8.26,-4.476c-0.998,-0.624 -2.076,-1.646 -1.748,-2.778c0.314,-1.082 1.652,-1.38 2.812,-1.38c0.086,0 0.172,0.002 0.256,0.004c9.782,0.374 19.79,7.572 23.52,16.514c0.272,0.648 0.52,1.356 0.37,2.046c-0.128,0.594 -0.674,1.134 -1.254,1.134c-0.09,0 -0.18,-0.014 -0.27,-0.04c2.972,3.754 4.846,8.37 5.332,13.136c0.09,0.892 0.046,1.97 -0.718,2.442c-0.242,0.152 -0.512,0.21 -0.792,0.21Zm-10.83,-17.436c-0.38,0 -0.728,0.232 -0.972,0.826c-0.556,1.352 -0.084,3.574 0.24,4.928c0.786,3.332 2.838,5.878 5.658,7.61c0.494,0.304 1.012,0.584 1.55,0.838c0.358,0.166 0.774,0.314 1.16,0.314c0.262,0 0.51,-0.068 0.714,-0.244c1.294,-1.124 -1.142,-3.014 -1.9,-3.686c-1.608,-1.428 -2.884,-2.884 -3.454,-5.024c-0.334,-1.254 -0.402,-2.592 -0.95,-3.774c-0.386,-0.834 -1.278,-1.788 -2.046,-1.788Zm-13.014,-17.294c-0.304,0 -0.58,0.046 -0.812,0.15c-2.32,1.042 0.774,2.968 1.688,3.512c2.064,1.226 4.238,2.266 6.486,3.104c0.344,0.128 0.704,0.252 1.066,0.252c0.08,0 0.158,-0.006 0.236,-0.018c0.442,-0.072 0.864,-0.452 0.826,-0.896c-0.022,-0.238 -0.162,-0.444 -0.302,-0.634c-1.164,-1.568 -2.69,-2.858 -4.404,-3.782c-1.008,-0.546 -3.256,-1.688 -4.784,-1.688Z" style="fill:url(#_Linear5);"/>
    <path d="M88.531,72.35c-8.946,-0.412 -16.42,-3.342 -23.22,-9.138c0.296,0.36 0.168,1.012 -0.22,1.326c-0.356,0.284 -0.826,0.356 -1.292,0.356c-0.12,0 -0.24,-0.004 -0.358,-0.012c-4.81,-0.3 -8.958,-3.368 -12.624,-6.498c-0.62,-0.528 -1.254,-1.084 -1.62,-1.814c-0.368,-0.73 -0.412,-1.684 0.112,-2.312c0.3,-0.362 1.024,-0.596 1.662,-0.596c0.252,0 0.49,0.036 0.684,0.116c-2.514,-1.98 -5.52,-3.332 -8.672,-3.898c-0.358,-0.066 -0.74,-0.112 -1.114,-0.112c-0.704,0 -1.382,0.164 -1.828,0.686c-0.53,0.624 -0.52,1.532 -0.452,2.35c0.222,2.612 0.766,5.194 1.612,7.674c0.136,0.4 0.282,0.814 0.222,1.23c-0.058,0.402 -0.382,0.8 -0.782,0.8c-0.014,-0 -0.028,-0.002 -0.04,-0.002c-0.298,-0.02 -0.538,-0.24 -0.748,-0.452c-3.3,-3.326 -9.668,-12.264 -6.054,-17.148c0.99,-1.336 2.718,-1.954 4.394,-1.954c0.128,-0 0.256,0.004 0.384,0.012c1.788,0.102 3.484,0.81 5.108,1.57c8.254,3.854 15.688,9.238 22.534,15.206c6.75,5.884 13.306,10.786 22.312,12.61Z" style="fill:url(#_Radial6);"/>
    <path d="M88.739,143.57c-3.26,-4.308 -8.498,-7.954 -12.45,-11.66c-3.788,-3.55 -7.946,-6.732 -11.66,-10.4c-0.98,-0.966 -5.174,-6.63 -6.316,-6.63c-2.822,-3.148 -5.576,-6.528 -6.822,-10.57c-0.844,-2.74 -0.606,-5.46 -1.342,-8.21c-0.876,-3.276 -2.652,-6.256 -4.45,-9.102c-3.642,-5.766 -8.146,-12.468 -8.676,-19.43c3.268,4.224 6.536,8.446 9.806,12.67c2.286,2.954 5.398,6.288 6.122,10.008c0.806,4.164 0.714,8.542 2.008,12.62c1.868,5.882 6.566,10.346 10.918,14.72c8.148,8.188 15.886,16.75 22.862,25.984Z" style="fill:url(#_Radial7);"/>
    <path d="M22.601,51.084c-2.43,-3.646 -4.536,-7.568 -5.608,-11.816c-0.806,-3.19 -1.958,-6.854 -0.292,-9.968c0.824,-1.542 1.832,-2.052 2.942,-2.052c1.342,0 2.83,0.742 4.318,1.302c1.746,0.658 3.372,1.54 4.936,2.552c1.232,0.794 2.872,2.656 4.244,3.054c-1.938,-0.562 -5.29,-1.628 -8.168,-1.628c-2.034,0 -3.83,0.53 -4.728,2.144c-0.598,1.074 -0.612,2.368 -0.55,3.594c0.218,4.398 1.204,8.756 2.906,12.818Z" style="fill:url(#_Radial8);"/>
    <path d="M200.721,219.87c-9.426,0 -18.846,-2.07 -27.404,-6.028c-5.704,-2.638 -11.382,-6.54 -13.446,-12.478c-0.332,-0.958 -0.424,-2.278 0.484,-2.728c0.176,-0.09 0.36,-0.128 0.546,-0.128c0.61,0 1.246,0.414 1.76,0.81c1.964,1.52 2.684,1.946 4.814,3.222c7.526,4.502 15.532,8.206 23.834,11.028c2.2,0.748 4.568,1.428 6.858,1.428c1.234,0 2.446,-0.198 3.6,-0.69c3.202,-1.364 5.152,-4.758 5.806,-8.18c0.654,-3.42 0.238,-6.942 -0.004,-10.416c-0.914,-13.104 0.692,-26.3 3.752,-39.074c-2.112,11.934 -2.346,24.122 -0.876,36.152c0.738,6.05 1.928,12.116 1.428,18.19c-0.2,2.44 -0.766,5.032 -2.552,6.71c-1.938,1.822 -4.824,2.124 -7.484,2.172c-0.372,0.006 -0.744,0.01 -1.116,0.01Z" style="fill:url(#_Radial9);"/>
    <path d="M237.227,265.752c-3.438,0 -6.658,-1.616 -9.648,-3.31c-6.022,-3.414 -11.212,-7.502 -16.62,-11.662c-5.18,-3.986 -9.638,-9.118 -12.3,-15.128c9.096,8.822 18.314,17.738 29.302,24.05c0.988,0.568 2.018,1.122 3.148,1.26c0.152,0.018 0.308,0.028 0.462,0.028c0.996,0 2.012,-0.388 2.552,-1.208c0.65,-0.984 0.462,-2.304 0.016,-3.394c-0.766,-1.874 -2.186,-3.394 -3.322,-5.072c-1.134,-1.68 -2.02,-3.736 -1.51,-5.696c0.276,-1.062 0.93,-1.98 1.336,-2.996c0.938,-2.354 0.468,-5.018 -0.196,-7.462c-1.78,-6.548 -4.868,-12.74 -9.028,-18.102c5.414,6.558 9.772,13.986 12.85,21.91c0.932,2.4 1.608,5.486 -0.268,7.246c2.816,3.938 5.26,8.144 7.286,12.544c0.65,1.412 1.264,3.026 0.708,4.476c-0.68,1.776 -2.83,2.51 -4.73,2.516l-0.038,0Z" style="fill:url(#_Radial10);"/>
    <path d="M170.561,80.924c-9.592,-9.342 -25.234,-8.996 -37.608,-7.012c5.92,0.456 11.536,1.762 17.278,3.18c5.068,1.25 10.034,1.942 14.88,4.078c2.088,0.92 4.24,2.118 5.246,4.164c0.714,1.458 0.76,3.188 1.556,4.604c1.22,2.164 3.82,3.036 6.114,3.992c6.884,2.87 12.778,8.054 16.506,14.516c-0.562,-4.03 -3.884,-7.508 -6.876,-10.266c-2.992,-2.756 -6.414,-5.042 -9.23,-7.978c-2.806,-2.928 -4.96,-6.448 -7.866,-9.278Z" style="fill:url(#_Radial11);"/>
    <path d="M212.311,143.924c0,-2.322 0.99,-4.818 1.082,-7.212c0.096,-2.558 -0.102,-5.126 -0.576,-7.64c-0.924,-4.884 -2.896,-9.958 -6.058,-13.84c0.804,4.482 2.176,8.184 2.22,12.796c0.052,5.44 0.552,11.09 3.332,15.896Z" style="fill:url(#_Radial12);"/>
    <path d="M120.689,229.448c-1.848,-1.946 -4.414,-3.014 -6.902,-4.026c-6.678,-2.722 -13.36,-5.958 -20.206,-8.192c2.87,10.322 18.024,14.086 27.108,12.218Z" style="fill:url(#_Radial13);"/>
    <path d="M185.853,68.122c-3.276,0 -7.158,-0.926 -8.424,-1.76c-2.24,-1.48 -3.942,-3.618 -5.746,-5.604c-1.806,-1.986 -3.842,-3.91 -6.398,-4.73c-1.324,-0.426 -2.832,-0.598 -4.194,-0.964c-1.322,-0.352 -2.506,-0.892 -3.242,-2.026c-1.06,-1.634 -0.564,-3.958 0.806,-5.338c1.316,-1.324 3.248,-1.876 5.12,-1.876c0.08,0 0.16,0 0.24,0.002c3.27,0.084 8.368,0.66 10.782,3.088c1.542,1.55 2.304,3.708 3.65,5.428c2.182,2.79 5.652,4.166 8.62,6.096c1.15,0.746 2.264,1.614 2.996,2.774c2.374,3.75 -0.538,4.91 -4.21,4.91Zm-9.748,-8.842c-1.444,-0 -2.102,1.762 -0.72,3.244c1.522,1.632 3.522,2.858 5.648,3.522c0.494,0.154 1.018,0.278 1.532,0.278c0.314,0 0.624,-0.046 0.92,-0.16c0.778,-0.3 1.356,-1.236 1.004,-1.992c-0.336,-0.718 -1.244,-0.904 -2.008,-1.116c-1.198,-0.332 -2.318,-0.942 -3.248,-1.766c-0.554,-0.494 -1.044,-1.064 -1.656,-1.484c-0.538,-0.368 -1.042,-0.526 -1.472,-0.526Zm-14.102,-10.872c-0.144,0 -0.286,0.004 -0.426,0.014c-0.718,0.048 -1.496,0.238 -1.926,0.816c-0.662,0.894 -0.096,2.25 0.834,2.86c0.93,0.61 2.09,0.708 3.184,0.914c2.57,0.478 5.01,1.638 7.006,3.326c0.458,0.388 0.912,0.812 1.484,0.994c0.15,0.048 0.31,0.072 0.47,0.072c0.452,0 0.902,-0.192 1.094,-0.59c0.188,-0.392 0.08,-0.856 -0.06,-1.268c-0.774,-2.248 -2.56,-4.1 -4.726,-5.056c-2.048,-0.902 -4.64,-2.082 -6.934,-2.082Z" style="fill:url(#_Linear14);"/>
    <path d="M223.161,101.512c-0.796,0 -1.658,-0.33 -2.336,-0.782c-1.812,-1.204 -3.092,-3.14 -3.6,-5.246c-0.522,-2.166 -0.924,-5.116 1.366,-5.116c0.208,0 0.44,0.026 0.696,0.078c3.148,0.64 5.644,4.94 6,7.82c0.116,0.946 0.05,2.016 -0.63,2.682c-0.408,0.402 -0.936,0.564 -1.496,0.564Zm-3.988,-9.556c-0.426,0 -0.818,0.262 -1.052,0.898c-0.49,1.34 0.394,3.408 1.128,4.49c0.286,0.422 0.726,0.846 1.204,0.846c0.076,0 0.152,-0.01 0.23,-0.034c0.522,-0.156 0.728,-0.778 0.784,-1.322c0.138,-1.284 -0.126,-2.608 -0.744,-3.74c-0.366,-0.674 -0.986,-1.138 -1.55,-1.138Z" style="fill:url(#_Linear15);"/>
    <path d="M233.609,206.738c-0.586,0 -1.188,-0.174 -1.682,-0.484c-1.056,-0.662 -1.718,-1.79 -2.28,-2.9c-2.414,-4.774 -3.67,-10.062 -4.028,-15.386c-0.068,-1 -0.032,-9.146 2.094,-9.146c0.502,0 1.12,0.452 1.88,1.562c0.784,1.144 0.776,2.63 0.816,4.016c0.166,5.84 1.688,11.636 4.41,16.804c0.804,1.526 1.676,3.522 0.534,4.816c-0.44,0.496 -1.08,0.718 -1.744,0.718Zm-6.064,-21.164c-0.236,0 -0.496,0.108 -0.78,0.348c-1.422,1.194 0.834,8.18 1.658,9.434c0.302,0.46 0.81,0.822 1.354,0.822c0.04,0 0.082,-0.002 0.122,-0.006c0.03,-0.004 -0.022,-10.598 -2.354,-10.598Z" style="fill:url(#_Linear16);"/>
    <path d="M256.629,251.476c-0.912,0 -1.78,-0.832 -2.382,-1.612c-1.172,-1.522 -9.958,-15.902 -5.23,-15.902c0.22,0 0.47,0.032 0.752,0.096c0.728,0.168 1.36,0.616 1.934,1.096c3.772,3.17 5.68,8.078 6.48,12.94c0.202,1.228 0.142,2.83 -1.018,3.282c-0.18,0.068 -0.36,0.1 -0.536,0.1Zm-6.496,-15.538c-0.322,0 -0.624,0.124 -0.824,0.424l-0.146,0.26c-0.456,0.96 -0.072,2.094 0.352,2.978c0.634,1.314 1.232,2.566 2.16,3.71c0.224,0.276 0.51,0.566 0.856,0.566c0.018,0 0.038,0 0.058,-0.002c0.676,-0.066 0.716,-1.036 0.554,-1.694c-0.298,-1.216 -0.598,-2.43 -0.894,-3.644c-0.178,-0.722 -0.372,-1.474 -0.872,-2.02c-0.31,-0.338 -0.798,-0.578 -1.244,-0.578Z" style="fill:url(#_Linear17);"/>
    <path d="M264.545,269.912c-0.56,0 -1.162,-0.364 -1.614,-0.756c-1.864,-1.61 -4.022,-4.018 -4.27,-6.61c-0.046,-0.482 -0.026,-0.968 0.074,-1.456c0.344,-1.696 1.188,-2.558 2.2,-2.558c0.786,0 1.67,0.518 2.5,1.568c1.79,2.266 2.67,5.234 2.4,8.112c-0.054,0.576 -0.196,1.216 -0.682,1.526c-0.19,0.122 -0.396,0.174 -0.608,0.174Zm-3.684,-10.556c-0.878,0 -1.52,2.134 -1.49,2.85c0.036,0.882 0.412,1.746 1.028,2.374c0.202,0.206 0.462,0.398 0.746,0.398c0.02,0 0.04,-0.002 0.06,-0.004c0.384,-0.038 0.638,-0.42 0.774,-0.782c0.406,-1.086 0.282,-2.302 -0.01,-3.424c-0.08,-0.306 -0.176,-0.618 -0.356,-0.88c-0.262,-0.378 -0.516,-0.532 -0.752,-0.532Z" style="fill:url(#_Linear18);"/>
    <path d="M195.585,266.4c-0.502,0 -1.022,-0.098 -1.512,-0.212c-4.534,-1.054 -8.844,-3.14 -12.454,-6.084c-2.212,-1.804 -8.868,-7.778 -7.224,-11.16c0.42,-0.864 1.344,-1.41 2.294,-1.552c0.2,-0.03 0.402,-0.044 0.604,-0.044c0.752,0 1.506,0.194 2.212,0.468c2.568,1.002 5.146,3.352 7.386,4.992c3.034,2.224 5.942,4.624 8.708,7.174c0.89,0.818 1.794,1.698 2.204,2.836c0.412,1.138 0.17,2.606 -0.858,3.238c-0.41,0.254 -0.878,0.344 -1.36,0.344Zm-17.056,-17.642c-0.22,0 -0.45,0.036 -0.692,0.118c-1.51,0.506 -1.732,1.988 -1.084,3.288c1.89,3.274 5.554,2.53 8.488,3.784c0.81,0.346 1.554,0.83 2.37,1.16c0.318,0.13 1.146,0.382 1.824,0.382c0.486,0 0.894,-0.13 0.984,-0.526c0.18,-0.8 -1.612,-1.734 -2.1,-2.068c-2.352,-1.606 -4.72,-3.188 -7.08,-4.784c-0.882,-0.596 -1.698,-1.354 -2.71,-1.354Z" style="fill:url(#_Linear19);"/>
    <path d="M52.205,198.992l-0.04,0c-1.378,-0.024 -2.372,-1.274 -3.148,-2.41c-1.684,-2.452 -3.408,-5.134 -3.34,-8.108c0.046,-2.008 1.17,-3.386 2.614,-3.386c0.64,0 1.342,0.272 2.042,0.878c2.146,1.86 3.794,4.96 4.41,7.698c0.25,1.112 0.36,2.302 -0.038,3.374c-0.388,1.058 -1.376,1.954 -2.5,1.954Zm-2.254,-11.63c-0.184,0 -0.376,0.042 -0.578,0.134c-2.822,1.298 1.46,6.468 2.53,7.586l0.328,0.24c0.04,0.012 0.08,0.018 0.122,0.018c0.19,0 0.38,-0.128 0.484,-0.296c0.124,-0.204 0.152,-0.452 0.166,-0.69c0.082,-1.366 -0.94,-6.992 -3.052,-6.992Z" style="fill:url(#_Linear20);"/>
    <path d="M44.159,154.482c-0.18,0 -0.366,-0.032 -0.554,-0.1c-0.524,-0.192 -0.892,-0.66 -1.196,-1.126c-1.586,-2.432 -2.208,-5.474 -1.71,-8.334c0.468,-2.66 2.386,-4.194 4.202,-4.194c1.578,0 3.078,1.158 3.484,3.74c0.33,2.092 -1.408,10.014 -4.226,10.014Zm0.956,-12.068c-0.484,0 -0.936,0.504 -1.162,1.248c-0.518,1.686 -0.246,3.686 0.556,5.232c0.162,0.312 0.394,0.644 0.742,0.686c0.024,0.004 0.05,0.004 0.074,0.004c0.414,0 0.726,-0.426 0.902,-0.82c0.764,-1.704 0.736,-3.742 -0.072,-5.426c-0.312,-0.652 -0.686,-0.924 -1.04,-0.924Z" style="fill:url(#_Linear21);"/>
    <path d="M77.055,48.824c-0.612,0 -1.27,-0.198 -1.834,-0.448c-2.588,-1.158 -5.378,-3.356 -6.062,-6.268c-0.218,-0.934 0.078,-2.064 0.93,-2.504c0.278,-0.144 0.58,-0.202 0.89,-0.202c0.464,0 0.944,0.128 1.386,0.288c2.614,0.948 4.836,2.938 6.074,5.43c0.504,1.016 0.794,2.374 0,3.182c-0.37,0.378 -0.86,0.522 -1.384,0.522Zm-2.978,-5.508c-1.518,0 -2.55,1.012 -0.106,3.094c0.456,0.386 1.038,0.662 1.63,0.662c0.096,0 0.192,-0.008 0.288,-0.024c0.686,-0.108 1.31,-0.71 1.292,-1.406c-0.042,-1.538 -1.762,-2.326 -3.104,-2.326Z" style="fill:url(#_Linear22);"/>
    <path d="M29.249,14.23c-2.298,0 -4.988,-2.336 -6.23,-3.692c-1.874,-2.048 -5.058,-4.434 -5.654,-7.234c-0.186,-0.864 -0.038,-1.838 0.556,-2.498c0.526,-0.584 1.256,-0.806 2.038,-0.806c0.88,0 1.826,0.282 2.63,0.65c3.68,1.69 6.756,4.654 8.584,8.266c0.38,0.754 0.714,1.552 0.766,2.396c0.05,0.844 -0.22,1.742 -0.872,2.28c-0.546,0.452 -1.166,0.638 -1.818,0.638Zm-6.088,-8.534c-2.544,0 -0.744,2.532 0.194,3.608c1.09,1.256 2.314,2.68 4.006,3.054c0.184,0.04 0.382,0.066 0.578,0.066c0.396,0 0.78,-0.106 1.024,-0.404c0.312,-0.38 0.28,-0.928 0.178,-1.406c-0.566,-2.642 -3.028,-4.752 -5.724,-4.91c-0.09,-0.006 -0.174,-0.008 -0.256,-0.008Z" style="fill:url(#_Linear23);"/>
    <path d="M79.865,126.902c-0.554,0 -1.108,-0.396 -1.548,-0.788c-2.988,-2.67 -5.308,-6.072 -6.742,-9.814c-1.394,-3.634 -1.108,-8.138 -3.106,-11.462c-0.676,-1.126 -1.644,-2.076 -2.18,-3.276c-0.814,-1.834 -0.48,-4.016 0.426,-5.808c0.908,-1.788 2.328,-3.258 3.754,-4.67c1.988,-1.968 4.286,-3.998 7.078,-4.106c0.082,-0.002 0.162,-0.004 0.242,-0.004c0.574,-0 1.146,0.074 1.718,0.148c0.572,0.074 1.142,0.146 1.716,0.146c0.086,0 0.172,0 0.258,-0.004c3.528,-0.148 6.012,-3.13 8.97,-4.648c2.916,-1.498 6.222,-2.77 9.524,-2.878c0.28,-0.008 0.558,-0.014 0.838,-0.014c3.374,-0 6.748,0.666 9.846,2.01c0.506,0.22 1.048,0.496 1.264,1.004c0.284,0.666 -0.144,1.466 -0.762,1.844c-0.62,0.378 -1.374,0.442 -2.096,0.5c-4.954,0.402 -9.934,1.016 -14.652,2.576c-2.124,0.702 -4.208,1.65 -6.158,2.828c-4.952,2.994 -9.018,7.476 -10.546,13.18c-0.954,3.82 -0.674,7.302 -0.45,11.172c0.194,3.38 1.75,5.94 3.248,8.972c0.252,0.512 0.51,1.044 0.534,1.614c0.026,0.57 -0.246,1.196 -0.776,1.402c-0.132,0.052 -0.266,0.076 -0.4,0.076Z" style="fill:url(#_Linear24);"/>
    <path d="M105.341,150.178c-0.03,0 -0.062,0 -0.094,-0.002c-1.31,-0.078 -2.432,-1.822 -2.912,-2.876c-0.134,-0.294 -0.252,-0.598 -0.354,-0.904c-0.456,-1.388 -0.628,-2.852 -0.958,-4.276c-0.744,-3.194 -2.322,-6.186 -4.516,-8.622c-0.986,-1.096 -5.068,-4.876 -2.516,-6.202c0.202,-0.106 0.406,-0.152 0.61,-0.152c0.898,0 1.784,0.904 2.35,1.73c1.626,2.436 2.984,4.94 4.796,7.216c1.91,2.396 3.56,5 4.912,7.75c0.596,1.21 1.144,2.528 0.97,3.866c-0.138,1.064 -1.078,2.474 -2.288,2.472Z" style="fill:url(#_Linear25);"/>
    <path d="M141.967,175.742c-0.604,0 -1.236,-0.232 -1.874,-0.434c-2.802,-0.882 -5.426,-2.314 -7.674,-4.2c-1.024,-0.858 -2.038,-2.746 0.032,-2.956c0.096,-0.01 0.192,-0.014 0.288,-0.014c1.52,0 3.086,1.146 4.286,1.92c1.782,1.15 3.764,1.95 5.676,2.884c1.11,0.54 1.592,1.314 0.612,2.254c-0.424,0.406 -0.876,0.546 -1.346,0.546Z" style="fill:url(#_Linear26);"/>
    <path d="M157.711,194.71c-0.03,0 -0.06,-0.002 -0.088,-0.002c-4.33,-0.2 -8.708,-0.8 -13.076,-1.042c-2.532,-0.188 -5.086,-0.378 -7.538,-1.034c-5.43,-1.454 -9.308,-6.258 -13.592,-9.67c-6.386,-5.086 -13.34,-9.424 -19.594,-14.68c-1.038,-0.876 -2.482,-1.714 -3.362,-2.746c-1.05,-1.24 -1.396,-3.348 -2.024,-4.834c-1.602,-3.79 -3.602,-7.41 -5.962,-10.78c-0.384,-0.552 -0.79,-1.124 -0.9,-1.786c-0.112,-0.664 0.18,-1.448 0.818,-1.664c0.12,-0.04 0.24,-0.058 0.36,-0.058c0.62,0 1.216,0.498 1.686,0.962c2.164,2.14 4.344,4.3 6.032,6.832c1.742,2.61 2.952,5.594 5.068,7.912c1.716,1.874 3.932,3.204 6.114,4.508c6.474,3.862 13.086,7.256 18.866,12.13c4.366,3.682 8.388,7.976 13.602,10.31c2.338,1.054 4.776,2.116 7.338,2.47c0.3,0.04 0.604,0.048 0.908,0.048c0.1,0 0.198,0 0.298,-0.002c0.102,0 0.202,-0.002 0.302,-0.002c0.392,0 0.782,0.014 1.16,0.096c1.288,0.278 2.6,1.216 3.772,1.802c0.334,0.168 0.728,0.452 0.638,0.818c-0.084,0.322 -0.482,0.412 -0.826,0.412Z" style="fill:url(#_Linear27);"/>
    <path d="M109.177,92.022l-0.044,0c-0.542,0 -1.162,-0.036 -1.504,-0.456c-0.41,-0.504 -0.156,-1.31 0.356,-1.71c0.5,-0.39 1.012,-0.474 1.546,-0.474c0.38,0 0.768,0.042 1.172,0.05c0.276,0.004 0.552,0.008 0.828,0.008c3.804,0 7.606,-0.476 11.294,-1.414c1.082,-0.276 2.178,-0.594 3.294,-0.594c0.08,0 0.16,0.002 0.24,0.006c0.794,0.032 3.034,0.532 2.696,1.674c-0.246,0.834 -3.03,1.292 -3.704,1.394c-2.468,0.374 -4.87,0.716 -7.272,0.982c-2.93,0.326 -5.86,0.534 -8.902,0.534Z" style="fill:url(#_Linear28);"/>
    <path d="M169.337,108.378c-0.362,0 -0.722,-0.124 -1.066,-0.252c-2.248,-0.838 -4.422,-1.878 -6.486,-3.104c-0.914,-0.544 -4.008,-2.47 -1.688,-3.512c0.232,-0.104 0.508,-0.15 0.812,-0.15c1.528,0 3.776,1.142 4.784,1.688c1.714,0.924 3.24,2.214 4.404,3.782c0.14,0.19 0.28,0.396 0.302,0.634c0.038,0.444 -0.384,0.824 -0.826,0.896c-0.078,0.012 -0.156,0.018 -0.236,0.018Z" style="fill:url(#_Linear29);"/>
    <path d="M181.559,133.17c-0.386,0 -0.802,-0.148 -1.16,-0.314c-0.538,-0.254 -1.056,-0.534 -1.55,-0.838c-2.82,-1.732 -4.872,-4.278 -5.658,-7.61c-0.324,-1.354 -0.796,-3.576 -0.24,-4.928c0.244,-0.594 0.592,-0.826 0.972,-0.826c0.768,0 1.66,0.954 2.046,1.788c0.548,1.182 0.616,2.52 0.95,3.774c0.57,2.14 1.846,3.596 3.454,5.024c0.758,0.672 3.194,2.562 1.9,3.686c-0.204,0.176 -0.452,0.244 -0.714,0.244Z" style="fill:url(#_Linear30);"/>
    <path d="M195.841,122.636c-0.046,0 -0.092,-0.006 -0.138,-0.016c-0.362,-0.088 -0.556,-0.474 -0.702,-0.816c-0.754,-1.766 -1.34,-3.922 -2.388,-5.53c-0.852,-1.306 -2.012,-2.536 -2.96,-3.8c-2.29,-3.054 -4.894,-5.914 -7.898,-8.286c-4.284,-3.4 -9.426,-5.844 -14.868,-6.402c-2.226,-0.232 -4.884,-0.366 -6.03,-2.29c-0.736,-1.226 -0.55,-2.764 -0.63,-4.192c-0.156,-2.826 -2.91,-4.312 -5.112,-5.666c-4.602,-2.826 -10.9,-2.758 -16.14,-3.54c1.718,-0.686 3.558,-0.976 5.41,-0.976c1.456,0 2.92,0.18 4.34,0.488c3.228,0.698 6.28,2.026 9.308,3.346c1.792,0.78 3.69,1.65 4.736,3.302c0.71,1.126 0.94,2.502 1.638,3.636c1.578,2.57 4.942,3.194 7.854,3.976c11.762,3.152 21.44,13.094 24.278,24.934c0.094,0.394 0.18,0.808 0.066,1.192c-0.104,0.34 -0.422,0.64 -0.764,0.64Z" style="fill:url(#_Linear31);"/>
    <path d="M191.361,175.02c-0.068,0 -0.138,-0.008 -0.212,-0.028c-0.804,-0.204 -0.796,-1.342 -0.61,-2.15c0.754,-3.222 1.918,-6.594 2.288,-9.882c0.112,-0.982 -0.164,-1.95 0.004,-2.922c0.126,-0.742 0.928,-3.132 1.694,-3.436c0.102,-0.042 0.206,-0.06 0.31,-0.06c0.496,0 0.976,0.428 1.2,0.914l0.024,0.054c0.256,0.61 0.27,1.298 0.532,1.904c0.302,0.702 0.968,1.052 1.65,1.052c0.414,0 0.836,-0.13 1.184,-0.388c0.694,-0.514 0.948,-1.416 1.184,-2.246c0.236,-0.83 0.562,-1.73 1.32,-2.142c0.2,2.002 -0.038,4.046 -0.696,5.946c-0.416,1.198 -1.346,2.52 -2.532,2.52c-0.122,0 -0.246,-0.014 -0.372,-0.042c-0.616,-0.142 -1.114,-0.636 -1.736,-0.728c-0.068,-0.008 -0.134,-0.014 -0.2,-0.014c-0.632,0 -1.232,0.422 -1.586,0.958c-0.39,0.594 -0.54,1.308 -0.684,2.004c-0.478,2.312 -0.956,4.626 -1.432,6.938c-0.162,0.774 -0.614,1.748 -1.33,1.748Z" style="fill:url(#_Linear32);"/>
    <path d="M201.269,142.958c-0.404,0 -0.63,-0.378 -0.74,-0.804l-0.082,-0.512c-0.23,-3.244 -0.512,-6.256 -1.254,-9.412c-0.29,-1.226 -1.276,-3.146 -1.144,-4.386c0.088,-0.812 0.662,-1.282 1.3,-1.282c0.382,0 0.788,0.17 1.124,0.54c0.386,0.422 0.59,0.974 0.762,1.518c0.78,2.46 0.886,4.92 1.098,7.462c0.176,2.126 0.454,3.758 -0.202,5.916c-0.132,0.44 -0.392,0.952 -0.848,0.96l-0.014,0Z" style="fill:url(#_Linear33);"/>
    <path d="M196.253,204.864c-0.122,0 -0.248,-0.01 -0.372,-0.032c-0.796,-0.142 -1.512,-0.946 -1.296,-1.726c0.26,-0.928 1.624,-1.416 1.492,-2.372c-0.066,-0.482 -0.544,-0.826 -1.026,-0.898c-0.092,-0.014 -0.186,-0.02 -0.28,-0.02c-0.39,0 -0.78,0.11 -1.156,0.222c-2.198,0.652 -4.368,1.396 -6.502,2.228c-1.626,0.632 -3.59,1.908 -5.414,1.908c-0.092,0 -0.184,-0.002 -0.274,-0.01c-2.734,-0.202 -5.56,-2.628 -7.61,-4.236c-0.458,-0.362 -0.964,-0.814 -0.936,-1.398c0.028,-0.566 0.584,-0.986 1.144,-1.074c0.108,-0.018 0.218,-0.026 0.328,-0.026c0.452,0 0.904,0.126 1.346,0.234c1.422,0.35 2.974,0.522 4.568,0.522c4.162,0 8.606,-1.176 11.736,-3.462c6.842,-4.998 5.312,-15.358 5.454,-22.652c0.01,-0.568 0.034,-1.158 0.296,-1.66c0.226,-0.432 0.682,-0.776 1.152,-0.776c0.078,0 0.158,0.01 0.236,0.03c0.522,0.136 0.824,0.668 1.058,1.154c0.948,1.988 1.588,4.172 1.546,6.39c-0.044,2.332 -0.678,4.978 0.668,7.082c0.374,0.582 0.88,1.07 1.244,1.66c0.616,0.994 0.778,2.2 0.83,3.368c0.23,5.298 -1.488,11.958 -6.308,14.89c-0.586,0.354 -1.25,0.654 -1.924,0.654Z" style="fill:url(#_Linear34);"/>
    <path d="M216.291,243.45c-2.388,0 -4.84,-0.846 -6.398,-2.65c-1.11,-1.284 -1.696,-2.954 -2.802,-4.244c-0.978,-1.144 -2.308,-1.926 -3.432,-2.932c-1.046,-0.942 -1.914,-2.084 -2.538,-3.346c-0.138,-0.28 -0.264,-0.602 -0.148,-0.89c0.136,-0.33 0.506,-0.436 0.882,-0.436c0.138,0 0.276,0.014 0.404,0.036c2.254,0.394 4.224,1.698 6.18,2.888c1.942,1.182 4.056,2.314 6.33,2.314l0.034,0c3.514,-0.016 4.844,-2.498 5.518,-5.368c0.45,-1.916 0.608,-4.004 0.928,-5.646c0.068,-0.346 0.198,-0.758 0.54,-0.836c0.036,-0.008 0.072,-0.012 0.108,-0.012c0.296,0 0.552,0.278 0.734,0.534c2.756,3.82 6.12,10.26 4.352,15.058c-1.396,3.792 -6.58,5.378 -10.298,5.522c-0.132,0.004 -0.262,0.008 -0.394,0.008Z" style="fill:url(#_Linear35);"/>
    <path d="M245.921,278.888c-0.214,0 -0.426,-0.006 -0.638,-0.02c-2.686,-0.174 -5.216,-1.27 -7.652,-2.412c-3.66,-1.72 -7.41,-3.322 -10.428,-5.98c-0.448,-0.394 -0.926,-1.066 -0.532,-1.516c0.144,-0.164 0.346,-0.222 0.566,-0.222c0.224,0 0.466,0.06 0.68,0.128c1.944,0.614 3.904,1.17 5.812,1.882c1.98,0.738 4.014,1.488 6.13,1.488c2.112,0 4.358,-0.908 5.368,-2.766c1.15,-2.116 0.422,-4.72 -0.33,-7.008c-0.992,-3.024 -1.986,-6.048 -2.978,-9.072c-0.22,-0.672 -0.352,-1.59 0.272,-1.924c0.122,-0.064 0.244,-0.094 0.366,-0.094c0.558,0 1.1,0.608 1.426,1.148c2.108,3.482 4.216,6.962 6.32,10.446c1.206,1.988 2.424,4.012 3.01,6.264c0.584,2.25 0.454,4.8 -0.888,6.698c-1.432,2.022 -4.008,2.96 -6.504,2.96Z" style="fill:url(#_Linear36);"/>
    <path d="M224.433,280.392c-0.096,0 -0.196,-0.016 -0.292,-0.036c-2.186,-0.458 -4.184,-1.782 -5.454,-3.62l0.534,0.042c-0.91,-0.716 -1.84,-1.452 -2.454,-2.43c-0.616,-0.98 -0.868,-2.272 -0.342,-3.302c0.364,-0.718 1.18,-1.198 1.96,-1.198c0.34,0 0.676,0.092 0.962,0.296c1.064,0.76 0.896,2.356 1.304,3.598c0.748,2.276 3.536,3.426 4.22,5.722c0.086,0.302 0.104,0.694 -0.164,0.86c-0.082,0.052 -0.176,0.068 -0.274,0.068Z" style="fill:url(#_Linear37);"/>
    <path d="M178.253,229.13c-0.25,0 -0.51,-0.05 -0.746,-0.118l-0.266,-0.082c-1.39,-0.45 -2.638,-1.26 -3.92,-1.97c-1.872,-1.038 -3.638,-1.296 -5.71,-1.56c-3.62,-0.456 -7.666,-2.244 -9.782,-5.362c-0.41,-0.604 -0.75,-1.284 -0.786,-2.012c-0.036,-0.728 0.292,-1.508 0.938,-1.846c0.254,-0.132 0.526,-0.186 0.804,-0.186c0.614,0 1.262,0.262 1.836,0.528c2.702,1.244 5.486,2.31 8.132,3.67c2.346,1.204 4.298,2.776 6.696,3.96c1.418,0.702 2.83,1.598 3.592,2.982c0.292,0.53 0.452,1.252 0.038,1.69c-0.214,0.226 -0.512,0.306 -0.826,0.306Z" style="fill:url(#_Linear38);"/>
    <path d="M229.777,196.178c-0.544,0 -1.052,-0.362 -1.354,-0.822c-0.824,-1.254 -3.08,-8.24 -1.658,-9.434c0.284,-0.24 0.544,-0.348 0.78,-0.348c2.332,0 2.384,10.594 2.354,10.598c-0.04,0.004 -0.082,0.006 -0.122,0.006Z" style="fill:url(#_Linear39);"/>
    <path d="M252.531,243.876c-0.346,0 -0.632,-0.29 -0.856,-0.566c-0.928,-1.144 -1.526,-2.396 -2.16,-3.71c-0.424,-0.884 -0.808,-2.018 -0.352,-2.978l0.146,-0.26c0.2,-0.3 0.502,-0.424 0.824,-0.424c0.446,0 0.934,0.24 1.244,0.578c0.5,0.546 0.694,1.298 0.872,2.02c0.296,1.214 0.596,2.428 0.894,3.644c0.162,0.658 0.122,1.628 -0.554,1.694c-0.02,0.002 -0.04,0.002 -0.058,0.002Z" style="fill:url(#_Linear40);"/>
    <path d="M261.145,264.978c-0.284,0 -0.544,-0.192 -0.746,-0.398c-0.616,-0.628 -0.992,-1.492 -1.028,-2.374c-0.03,-0.716 0.612,-2.85 1.49,-2.85c0.236,0 0.49,0.154 0.752,0.532c0.18,0.262 0.276,0.574 0.356,0.88c0.292,1.122 0.416,2.338 0.01,3.424c-0.136,0.362 -0.39,0.744 -0.774,0.782c-0.02,0.002 -0.04,0.004 -0.06,0.004Z" style="fill:url(#_Linear41);"/>
    <path d="M189.435,257.49c-0.678,0 -1.506,-0.252 -1.824,-0.382c-0.816,-0.33 -1.56,-0.814 -2.37,-1.16c-2.934,-1.254 -6.598,-0.51 -8.488,-3.784c-0.648,-1.3 -0.426,-2.782 1.084,-3.288c0.242,-0.082 0.472,-0.118 0.692,-0.118c1.012,0 1.828,0.758 2.71,1.354c2.36,1.596 4.728,3.178 7.08,4.784c0.488,0.334 2.28,1.268 2.1,2.068c-0.09,0.396 -0.498,0.526 -0.984,0.526Z" style="fill:url(#_Linear42);"/>
    <path d="M57.035,91.702c-0.068,-0 -0.136,-0.004 -0.206,-0.016c-1.222,-0.2 -1.5,-1.8 -1.59,-3.038c-0.288,-3.926 -1.656,-7.764 -3.91,-10.99c-1.506,-2.152 -3.392,-4.03 -4.744,-6.28c-1.458,-2.424 -2.998,-8.79 0.722,-10.28c0.404,-0.162 0.828,-0.232 1.258,-0.232c0.84,-0 1.698,0.272 2.45,0.672c1.132,0.6 2.1,1.472 3.16,2.196c6.3,4.308 15.316,3.212 21.258,8.002c-1.374,1.006 -3.06,1.39 -4.778,1.39c-1.02,0 -2.052,-0.136 -3.038,-0.356c-2.644,-0.59 -5.15,-1.722 -7.812,-2.228c-0.538,-0.104 -1.11,-0.168 -1.678,-0.168c-1.32,0 -2.61,0.35 -3.372,1.38c-1.082,1.462 -0.548,3.514 0.028,5.24c1.17,3.5 2.338,7 3.508,10.498c0.284,0.852 0.574,1.75 0.402,2.632c-0.158,0.812 -0.856,1.578 -1.658,1.578Z" style="fill:url(#_Linear43);"/>
    <path d="M59.969,104.288c-0.396,0 -0.83,-0.194 -1.172,-0.428c-1.654,-1.14 -2.662,-3.096 -2.752,-5.088c-0.056,-1.254 0.4,-3.06 1.696,-3.06c0.308,0 0.662,0.1 1.068,0.336c0.854,0.492 1.204,1.528 1.434,2.486c0.326,1.342 0.552,2.708 0.684,4.084c0.046,0.518 0.048,1.122 -0.348,1.46c-0.176,0.15 -0.388,0.21 -0.61,0.21Z" style="fill:url(#_Linear44);"/>
    <path d="M63.719,134.786c-0.8,0 -1.702,-0.568 -2.354,-1.148c-3.422,-3.048 -6.422,-6.57 -8.892,-10.432c-0.85,-1.332 -2.594,-3.222 -2.588,-4.868c0.006,-1.462 0.996,-2.156 2.116,-2.156c0.666,0 1.378,0.246 1.954,0.724c0.92,0.766 1.466,1.88 2.022,2.938c2.076,3.952 4.688,7.624 7.738,10.88c0.49,0.524 1.002,1.056 1.266,1.722c0.262,0.668 0.21,1.516 -0.326,1.992c-0.276,0.246 -0.596,0.348 -0.936,0.348Z" style="fill:url(#_Linear45);"/>
    <path d="M28.605,58.27c-0.418,0 -0.792,-0.378 -1.07,-0.724c-2.82,-3.478 -5.082,-8.206 -5.332,-12.732c-0.098,-1.756 -0.118,-4.344 0.758,-6.188c0.488,-1.026 1.25,-1.82 2.432,-2.11c0.312,-0.076 0.628,-0.11 0.946,-0.11c0.906,0 1.822,0.272 2.682,0.594c1.698,0.636 3.322,1.472 4.828,2.484c-0.508,-0.26 -1.06,-0.378 -1.618,-0.378c-1.396,0 -2.832,0.744 -3.7,1.878c-1.218,1.586 -1.496,3.726 -1.276,5.712c0.374,3.4 2.2,6.84 2.194,10.248c0,0.526 -0.164,1.174 -0.674,1.304c-0.058,0.014 -0.114,0.022 -0.17,0.022Z" style="fill:url(#_Linear46);"/>
    <path d="M22.829,20.996c-0.06,0 -0.12,-0.004 -0.178,-0.01c-0.748,-0.078 -1.406,-0.506 -2.054,-0.888c-3.252,-1.92 -7.026,-2.948 -10.802,-2.948c-0.092,0 -0.182,0.002 -0.272,0.002c-0.118,0.002 -0.238,0.004 -0.358,0.004c-1.076,0 -2.268,-0.104 -2.79,-1.006c-0.392,-0.676 -0.194,-1.58 0.306,-2.182c0.5,-0.598 1.242,-0.946 1.988,-1.18c0.84,-0.264 1.722,-0.384 2.624,-0.384c4.446,0 9.376,2.904 12.26,5.784c0.47,0.466 0.946,1.062 0.834,1.714c-0.114,0.684 -0.858,1.094 -1.558,1.094Z" style="fill:url(#_Linear47);"/>
    <path d="M61.927,46.388c-0.118,0 -0.238,-0.012 -0.35,-0.034c-2.34,-0.436 -3.702,-2.804 -5.46,-4.404c-0.944,-0.858 -2.062,-1.524 -3.262,-1.952c-0.838,-0.296 -2.32,-0.234 -2.986,-0.86c-1.35,-1.266 -0.094,-2.438 1.244,-2.438c0.166,0 0.334,0.018 0.5,0.056c4.256,1 8.264,4.584 10.73,8.042c0.28,0.396 0.548,0.946 0.25,1.328c-0.156,0.196 -0.408,0.262 -0.666,0.262Z" style="fill:url(#_Linear48);"/>
    <path d="M27.939,12.424c-0.196,0 -0.394,-0.026 -0.578,-0.066c-1.692,-0.374 -2.916,-1.798 -4.006,-3.054c-0.938,-1.076 -2.738,-3.608 -0.194,-3.608c0.082,0 0.166,0.002 0.256,0.008c2.696,0.158 5.158,2.268 5.724,4.91c0.102,0.478 0.134,1.026 -0.178,1.406c-0.244,0.298 -0.628,0.404 -1.024,0.404Z" style="fill:url(#_Linear49);"/>
    <path d="M75.601,47.072c-0.592,0 -1.174,-0.276 -1.63,-0.662c-2.444,-2.082 -1.412,-3.094 0.106,-3.094c1.342,0 3.062,0.788 3.104,2.326c0.018,0.696 -0.606,1.298 -1.292,1.406c-0.096,0.016 -0.192,0.024 -0.288,0.024Z" style="fill:url(#_Linear50);"/>
    <path d="M172.629,57.404c-0.16,0 -0.32,-0.024 -0.47,-0.072c-0.572,-0.182 -1.026,-0.606 -1.484,-0.994c-1.996,-1.688 -4.436,-2.848 -7.006,-3.326c-1.094,-0.206 -2.254,-0.304 -3.184,-0.914c-0.93,-0.61 -1.496,-1.966 -0.834,-2.86c0.43,-0.578 1.208,-0.768 1.926,-0.816c0.14,-0.01 0.282,-0.014 0.426,-0.014c2.294,0 4.886,1.18 6.934,2.082c2.166,0.956 3.952,2.808 4.726,5.056c0.14,0.412 0.248,0.876 0.06,1.268c-0.192,0.398 -0.642,0.59 -1.094,0.59Z" style="fill:url(#_Linear51);"/>
    <path d="M182.565,66.324c-0.514,0 -1.038,-0.124 -1.532,-0.278c-2.126,-0.664 -4.126,-1.89 -5.648,-3.522c-1.382,-1.482 -0.724,-3.244 0.72,-3.244c0.43,-0 0.934,0.158 1.472,0.526c0.612,0.42 1.102,0.99 1.656,1.484c0.93,0.824 2.05,1.434 3.248,1.766c0.764,0.212 1.672,0.398 2.008,1.116c0.352,0.756 -0.226,1.692 -1.004,1.992c-0.296,0.114 -0.606,0.16 -0.92,0.16Z" style="fill:url(#_Linear52);"/>
    <path d="M220.453,98.19c-0.478,0 -0.918,-0.424 -1.204,-0.846c-0.734,-1.082 -1.618,-3.15 -1.128,-4.49c0.234,-0.636 0.626,-0.898 1.052,-0.898c0.564,0 1.184,0.464 1.55,1.138c0.618,1.132 0.882,2.456 0.744,3.74c-0.056,0.544 -0.262,1.166 -0.784,1.322c-0.078,0.024 -0.154,0.034 -0.23,0.034Z" style="fill:url(#_Linear53);"/>
    <path d="M72.275,194.594c-0.692,0 -1.38,-0.59 -1.824,-1.194c-3.782,-5.122 -1.964,-12.538 -4.558,-18.354c-0.988,-2.214 -2.576,-4.098 -3.824,-6.176c-3.876,-6.46 -4.264,-14.43 -3.538,-21.928c0.078,-0.794 0.178,-1.628 0.652,-2.27c0.284,-0.392 0.872,-0.77 1.414,-0.77c0.178,0 0.352,0.042 0.508,0.136c0.792,0.476 0.336,1.656 0.26,2.446c-0.37,3.832 -0.736,6.94 0.428,10.644c1.034,3.292 2.88,6.362 5.372,8.754c1.31,1.258 2.81,2.362 3.812,3.88c0.978,1.482 1.39,3.246 1.474,5.002c0.078,1.564 -0.48,2.628 -0.726,4.088c-0.666,3.94 0.556,8.908 1.582,12.696c0.288,1.054 0.448,2.49 -0.546,2.94c-0.16,0.074 -0.324,0.106 -0.486,0.106Z" style="fill:url(#_Linear54);"/>
    <path d="M87.895,215.458c-2.934,0 -5.84,-1.48 -7.934,-3.598c-2.498,-2.528 -4.012,-5.854 -5.23,-9.194c-0.446,-1.228 -0.736,-2.886 0.358,-3.606c0.3,-0.198 0.62,-0.286 0.95,-0.286c2.174,0 4.79,3.832 5.53,5.204c1.68,3.108 4.812,5.494 7.692,7.508c0.558,0.39 1.142,0.784 1.506,1.36c0.36,0.578 0.434,1.398 -0.024,1.902c-0.29,0.316 -0.726,0.45 -1.146,0.538c-0.564,0.116 -1.134,0.172 -1.702,0.172Z" style="fill:url(#_Linear55);"/>
    <path d="M111.567,218.864c-1.812,0 -5.08,-1.324 -5.656,-1.58c-2.062,-0.918 -4.134,-2.36 -4.71,-4.546c-0.192,-0.722 -0.19,-1.536 0.212,-2.168c0.36,-0.566 0.734,-0.778 1.104,-0.778c0.792,0 1.57,0.966 2.192,1.534c2.35,2.14 5.236,3.624 7.532,5.824c0.258,0.248 0.524,0.542 0.536,0.9c0.02,0.596 -0.474,0.814 -1.21,0.814Z" style="fill:url(#_Linear56);"/>
    <path d="M138.317,225.62c-1.704,0 -3.41,-0.278 -5.024,-0.828c-0.604,-0.21 -1.27,-0.528 -1.452,-1.144c-0.174,-0.592 0.2,-1.236 0.72,-1.568c0.52,-0.334 1.15,-0.428 1.762,-0.516c1.108,-0.156 4.06,-0.958 6.526,-0.958c2.028,0 3.728,0.542 3.804,2.43c0.024,0.534 -0.294,1.042 -0.718,1.368c-0.424,0.328 -0.944,0.506 -1.46,0.65c-1.352,0.378 -2.754,0.566 -4.158,0.566Z" style="fill:url(#_Linear57);"/>
    <path d="M52.353,195.34c-0.042,0 -0.082,-0.006 -0.122,-0.018l-0.328,-0.24c-1.07,-1.118 -5.352,-6.288 -2.53,-7.586c0.202,-0.092 0.394,-0.134 0.578,-0.134c2.112,0 3.134,5.626 3.052,6.992c-0.014,0.238 -0.042,0.486 -0.166,0.69c-0.104,0.168 -0.294,0.296 -0.484,0.296Z" style="fill:url(#_Linear58);"/>
    <path d="M45.325,149.584c-0.024,0 -0.05,0 -0.074,-0.004c-0.348,-0.042 -0.58,-0.374 -0.742,-0.686c-0.802,-1.546 -1.074,-3.546 -0.556,-5.232c0.226,-0.744 0.678,-1.248 1.162,-1.248c0.354,0 0.728,0.272 1.04,0.924c0.808,1.684 0.836,3.722 0.072,5.426c-0.176,0.394 -0.488,0.82 -0.902,0.82Z" style="fill:url(#_Linear59);"/>
    <defs>
        <linearGradient id="_Linear1" x1="0" y1="0" x2="1" y2="0" gradientUnits="userSpaceOnUse" gradientTransform="matrix(97.4792,86.5266,-86.5266,97.4792,41.3491,143.762)"><stop offset="0" style="stop-color:#ff7c21;stop-opacity:1"/><stop offset="0.5" style="stop-color:#ffd85a;stop-opacity:1"/><stop offset="1" style="stop-color:#ff7c21;stop-opacity:1"/></linearGradient>
        <radialGradient id="_Radial2" cx="0" cy="0" r="1" gradientUnits="userSpaceOnUse" gradientTransform="matrix(103.537,0,0,103.537,112.319,164.61)"><stop offset="0" style="stop-color:#233154;stop-opacity:1"/><stop offset="1" style="stop-color:#0b6790;stop-opacity:1"/></radialGradient>
        <linearGradient id="_Linear3" x1="0" y1="0" x2="1" y2="0" gradientUnits="userSpaceOnUse" gradientTransform="matrix(260.674,282.032,-282.032,260.674,19.4511,-8.43199)"><stop offset="0" style="stop-color:#ff9321;stop-opacity:1"/><stop offset="0.5" style="stop-color:#ffda5a;stop-opacity:1"/><stop offset="1" style="stop-color:#ff9321;stop-opacity:1"/></linearGradient>
        <radialGradient id="_Radial4" cx="0" cy="0" r="1" gradientUnits="userSpaceOnUse" gradientTransform="matrix(103.537,0,0,103.537,112.319,164.61)"><stop offset="0" style="stop-color:#233154;stop-opacity:1"/><stop offset="1" style="stop-color:#0b6790;stop-opacity:1"/></radialGradient>
        <linearGradient id="_Linear5" x1="0" y1="0" x2="1" y2="0" gradientUnits="userSpaceOnUse" gradientTransform="matrix(263.412,288.056,-288.056,263.412,42.1891,-26.22)"><stop offset="0" style="stop-color:#ff9321;stop-opacity:1"/><stop offset="0.5" style="stop-color:#ffda5a;stop-opacity:1"/><stop offset="1" style="stop-color:#ff9321;stop-opacity:1"/></linearGradient>
        <radialGradient id="_Radial6" cx="0" cy="0" r="1" gradientUnits="userSpaceOnUse" gradientTransform="matrix(58.338,0,0,58.338,136.963,144.712)"><stop offset="0" style="stop-color:#233154;stop-opacity:1"/><stop offset="1" style="stop-color:#0b6790;stop-opacity:1"/></radialGradient>
        <radialGradient id="_Radial7" cx="0" cy="0" r="1" gradientUnits="userSpaceOnUse" gradientTransform="matrix(58.3376,0,0,58.3376,136.963,144.712)"><stop offset="0" style="stop-color:#233154;stop-opacity:1"/><stop offset="1" style="stop-color:#0b6790;stop-opacity:1"/></radialGradient>
        <radialGradient id="_Radial8" cx="0" cy="0" r="1" gradientUnits="userSpaceOnUse" gradientTransform="matrix(58.338,0,0,58.338,136.963,144.712)"><stop offset="0" style="stop-color:#233154;stop-opacity:1"/><stop offset="1" style="stop-color:#0b6790;stop-opacity:1"/></radialGradient>
        <radialGradient id="_Radial9" cx="0" cy="0" r="1" gradientUnits="userSpaceOnUse" gradientTransform="matrix(58.338,0,0,58.338,136.963,144.712)"><stop offset="0" style="stop-color:#233154;stop-opacity:1"/><stop offset="1" style="stop-color:#0b6790;stop-opacity:1"/></radialGradient>
        <radialGradient id="_Radial10" cx="0" cy="0" r="1" gradientUnits="userSpaceOnUse" gradientTransform="matrix(58.338,0,0,58.338,136.963,144.712)"><stop offset="0" style="stop-color:#233154;stop-opacity:1"/><stop offset="1" style="stop-color:#0b6790;stop-opacity:1"/></radialGradient>
        <radialGradient id="_Radial11" cx="0" cy="0" r="1" gradientUnits="userSpaceOnUse" gradientTransform="matrix(58.3382,0,0,58.3382,136.963,144.712)"><stop offset="0" style="stop-color:#233154;stop-opacity:1"/><stop offset="1" style="stop-color:#0b6790;stop-opacity:1"/></radialGradient>
        <radialGradient id="_Radial12" cx="0" cy="0" r="1" gradientUnits="userSpaceOnUse" gradientTransform="matrix(58.3376,0,0,58.3376,136.963,144.712)"><stop offset="0" style="stop-color:#233154;stop-opacity:1"/><stop offset="1" style="stop-color:#0b6790;stop-opacity:1"/></radialGradient>
        <radialGradient id="_Radial13" cx="0" cy="0" r="1" gradientUnits="userSpaceOnUse" gradientTransform="matrix(58.3376,0,0,58.3376,136.963,144.712)"><stop offset="0" style="stop-color:#233154;stop-opacity:1"/><stop offset="1" style="stop-color:#0b6790;stop-opacity:1"/></radialGradient>
        <linearGradient id="_Linear14" x1="0" y1="0" x2="1" y2="0" gradientUnits="userSpaceOnUse" gradientTransform="matrix(266.15,282.216,-282.216,266.15,68.6331,-53.596)"><stop offset="0" style="stop-color:#ff9321;stop-opacity:1"/><stop offset="0.5" style="stop-color:#ffda5a;stop-opacity:1"/><stop offset="1" style="stop-color:#ff9321;stop-opacity:1"/></linearGradient>
        <linearGradient id="_Linear15" x1="0" y1="0" x2="1" y2="0" gradientUnits="userSpaceOnUse" gradientTransform="matrix(266.15,282.214,-282.214,266.15,74.5811,-59.206)"><stop offset="0" style="stop-color:#ff9321;stop-opacity:1"/><stop offset="0.5" style="stop-color:#ffda5a;stop-opacity:1"/><stop offset="1" style="stop-color:#ff9321;stop-opacity:1"/></linearGradient>
        <linearGradient id="_Linear16" x1="0" y1="0" x2="1" y2="0" gradientUnits="userSpaceOnUse" gradientTransform="matrix(266.15,282.214,-282.214,266.15,31.1831,-18.278)"><stop offset="0" style="stop-color:#ff9321;stop-opacity:1"/><stop offset="0.5" style="stop-color:#ffda5a;stop-opacity:1"/><stop offset="1" style="stop-color:#ff9321;stop-opacity:1"/></linearGradient>
        <linearGradient id="_Linear17" x1="0" y1="0" x2="1" y2="0" gradientUnits="userSpaceOnUse" gradientTransform="matrix(266.15,282.216,-282.216,266.15,18.4231,-6.24399)"><stop offset="0" style="stop-color:#ff9321;stop-opacity:1"/><stop offset="0.5" style="stop-color:#ffda5a;stop-opacity:1"/><stop offset="1" style="stop-color:#ff9321;stop-opacity:1"/></linearGradient>
        <linearGradient id="_Linear18" x1="0" y1="0" x2="1" y2="0" gradientUnits="userSpaceOnUse" gradientTransform="matrix(266.152,282.216,-282.216,266.152,12.7331,-0.87999)"><stop offset="0" style="stop-color:#ff9321;stop-opacity:1"/><stop offset="0.5" style="stop-color:#ffda5a;stop-opacity:1"/><stop offset="1" style="stop-color:#ff9321;stop-opacity:1"/></linearGradient>
        <linearGradient id="_Linear19" x1="0" y1="0" x2="1" y2="0" gradientUnits="userSpaceOnUse" gradientTransform="matrix(266.15,282.214,-282.214,266.15,-24.5169,34.252)"><stop offset="0" style="stop-color:#ff9321;stop-opacity:1"/><stop offset="0.5" style="stop-color:#ffda5a;stop-opacity:1"/><stop offset="1" style="stop-color:#ff9321;stop-opacity:1"/></linearGradient>
        <linearGradient id="_Linear20" x1="0" y1="0" x2="1" y2="0" gradientUnits="userSpaceOnUse" gradientTransform="matrix(266.152,282.216,-282.216,266.152,-63.6629,71.168)"><stop offset="0" style="stop-color:#ff9321;stop-opacity:1"/><stop offset="0.5" style="stop-color:#ffda5a;stop-opacity:1"/><stop offset="1" style="stop-color:#ff9321;stop-opacity:1"/></linearGradient>
        <linearGradient id="_Linear21" x1="0" y1="0" x2="1" y2="0" gradientUnits="userSpaceOnUse" gradientTransform="matrix(266.152,282.216,-282.216,266.152,-44.3869,52.988)"><stop offset="0" style="stop-color:#ff9321;stop-opacity:1"/><stop offset="0.5" style="stop-color:#ffda5a;stop-opacity:1"/><stop offset="1" style="stop-color:#ff9321;stop-opacity:1"/></linearGradient>
        <linearGradient id="_Linear22" x1="0" y1="0" x2="1" y2="0" gradientUnits="userSpaceOnUse" gradientTransform="matrix(266.152,282.216,-282.216,266.152,22.6771,-10.256)"><stop offset="0" style="stop-color:#ff9321;stop-opacity:1"/><stop offset="0.5" style="stop-color:#ffda5a;stop-opacity:1"/><stop offset="1" style="stop-color:#ff9321;stop-opacity:1"/></linearGradient>
        <linearGradient id="_Linear23" x1="0" y1="0" x2="1" y2="0" gradientUnits="userSpaceOnUse" gradientTransform="matrix(266.15,282.216,-282.216,266.15,15.2651,-3.26599)"><stop offset="0" style="stop-color:#ff9321;stop-opacity:1"/><stop offset="0.5" style="stop-color:#ffda5a;stop-opacity:1"/><stop offset="1" style="stop-color:#ff9321;stop-opacity:1"/></linearGradient>
        <linearGradient id="_Linear24" x1="0" y1="0" x2="1" y2="0" gradientUnits="userSpaceOnUse" gradientTransform="matrix(260.674,282.032,-282.032,260.674,19.4511,-8.43199)"><stop offset="0" style="stop-color:#ffe47c;stop-opacity:1"/><stop offset="0.5" style="stop-color:#fff59e;stop-opacity:1"/><stop offset="1" style="stop-color:#ffe47c;stop-opacity:1"/></linearGradient>
        <linearGradient id="_Linear25" x1="0" y1="0" x2="1" y2="0" gradientUnits="userSpaceOnUse" gradientTransform="matrix(260.674,282.032,-282.032,260.674,19.4511,-8.43199)"><stop offset="0" style="stop-color:#ffe47c;stop-opacity:1"/><stop offset="0.5" style="stop-color:#fff59e;stop-opacity:1"/><stop offset="1" style="stop-color:#ffe47c;stop-opacity:1"/></linearGradient>
        <linearGradient id="_Linear26" x1="0" y1="0" x2="1" y2="0" gradientUnits="userSpaceOnUse" gradientTransform="matrix(260.674,282.032,-282.032,260.674,19.4511,-8.43199)"><stop offset="0" style="stop-color:#ffe47c;stop-opacity:1"/><stop offset="0.5" style="stop-color:#fff59e;stop-opacity:1"/><stop offset="1" style="stop-color:#ffe47c;stop-opacity:1"/></linearGradient>
        <linearGradient id="_Linear27" x1="0" y1="0" x2="1" y2="0" gradientUnits="userSpaceOnUse" gradientTransform="matrix(260.674,282.032,-282.032,260.674,19.4511,-8.43199)"><stop offset="0" style="stop-color:#ffe47c;stop-opacity:1"/><stop offset="0.5" style="stop-color:#fff59e;stop-opacity:1"/><stop offset="1" style="stop-color:#ffe47c;stop-opacity:1"/></linearGradient>
        <linearGradient id="_Linear28" x1="0" y1="0" x2="1" y2="0" gradientUnits="userSpaceOnUse" gradientTransform="matrix(260.674,282.032,-282.032,260.674,19.4511,-8.43199)"><stop offset="0" style="stop-color:#ffe47c;stop-opacity:1"/><stop offset="0.5" style="stop-color:#fff59e;stop-opacity:1"/><stop offset="1" style="stop-color:#ffe47c;stop-opacity:1"/></linearGradient>
        <linearGradient id="_Linear29" x1="0" y1="0" x2="1" y2="0" gradientUnits="userSpaceOnUse" gradientTransform="matrix(263.412,288.056,-288.056,263.412,42.1891,-26.22)"><stop offset="0" style="stop-color:#ffe47c;stop-opacity:1"/><stop offset="0.5" style="stop-color:#fff59e;stop-opacity:1"/><stop offset="1" style="stop-color:#ffe47c;stop-opacity:1"/></linearGradient>
        <linearGradient id="_Linear30" x1="0" y1="0" x2="1" y2="0" gradientUnits="userSpaceOnUse" gradientTransform="matrix(263.412,288.056,-288.056,263.412,42.1891,-26.22)"><stop offset="0" style="stop-color:#ffe47c;stop-opacity:1"/><stop offset="0.5" style="stop-color:#fff59e;stop-opacity:1"/><stop offset="1" style="stop-color:#ffe47c;stop-opacity:1"/></linearGradient>
        <linearGradient id="_Linear31" x1="0" y1="0" x2="1" y2="0" gradientUnits="userSpaceOnUse" gradientTransform="matrix(260.674,282.032,-282.032,260.674,19.4511,-8.43199)"><stop offset="0" style="stop-color:#ffe47c;stop-opacity:1"/><stop offset="0.5" style="stop-color:#fff59e;stop-opacity:1"/><stop offset="1" style="stop-color:#ffe47c;stop-opacity:1"/></linearGradient>
        <linearGradient id="_Linear32" x1="0" y1="0" x2="1" y2="0" gradientUnits="userSpaceOnUse" gradientTransform="matrix(260.674,282.032,-282.032,260.674,19.4511,-8.43199)"><stop offset="0" style="stop-color:#ffe47c;stop-opacity:1"/><stop offset="0.5" style="stop-color:#fff59e;stop-opacity:1"/><stop offset="1" style="stop-color:#ffe47c;stop-opacity:1"/></linearGradient>
        <linearGradient id="_Linear33" x1="0" y1="0" x2="1" y2="0" gradientUnits="userSpaceOnUse" gradientTransform="matrix(260.674,282.032,-282.032,260.674,19.4511,-8.43199)"><stop offset="0" style="stop-color:#ffe47c;stop-opacity:1"/><stop offset="0.5" style="stop-color:#fff59e;stop-opacity:1"/><stop offset="1" style="stop-color:#ffe47c;stop-opacity:1"/></linearGradient>
        <linearGradient id="_Linear34" x1="0" y1="0" x2="1" y2="0" gradientUnits="userSpaceOnUse" gradientTransform="matrix(260.674,282.032,-282.032,260.674,19.4511,-8.43199)"><stop offset="0" style="stop-color:#ffe47c;stop-opacity:1"/><stop offset="0.5" style="stop-color:#fff59e;stop-opacity:1"/><stop offset="1" style="stop-color:#ffe47c;stop-opacity:1"/></linearGradient>
        <linearGradient id="_Linear35" x1="0" y1="0" x2="1" y2="0" gradientUnits="userSpaceOnUse" gradientTransform="matrix(260.674,282.032,-282.032,260.674,19.4511,-8.43199)"><stop offset="0" style="stop-color:#ffc753;stop-opacity:1"/><stop offset="0.5" style="stop-color:#ffeb7f;stop-opacity:1"/><stop offset="1" style="stop-color:#ffc753;stop-opacity:1"/></linearGradient>
        <linearGradient id="_Linear36" x1="0" y1="0" x2="1" y2="0" gradientUnits="userSpaceOnUse" gradientTransform="matrix(260.674,282.032,-282.032,260.674,19.4511,-8.43199)"><stop offset="0" style="stop-color:#ffc753;stop-opacity:1"/><stop offset="0.5" style="stop-color:#ffeb7f;stop-opacity:1"/><stop offset="1" style="stop-color:#ffc753;stop-opacity:1"/></linearGradient>
        <linearGradient id="_Linear37" x1="0" y1="0" x2="1" y2="0" gradientUnits="userSpaceOnUse" gradientTransform="matrix(260.674,282.032,-282.032,260.674,19.4511,-8.43199)"><stop offset="0" style="stop-color:#ffc753;stop-opacity:1"/><stop offset="0.5" style="stop-color:#ffeb7f;stop-opacity:1"/><stop offset="1" style="stop-color:#ffc753;stop-opacity:1"/></linearGradient>
        <linearGradient id="_Linear38" x1="0" y1="0" x2="1" y2="0" gradientUnits="userSpaceOnUse" gradientTransform="matrix(260.674,282.032,-282.032,260.674,19.4511,-8.43199)"><stop offset="0" style="stop-color:#ffc753;stop-opacity:1"/><stop offset="0.5" style="stop-color:#ffeb7f;stop-opacity:1"/><stop offset="1" style="stop-color:#ffc753;stop-opacity:1"/></linearGradient>
        <linearGradient id="_Linear39" x1="0" y1="0" x2="1" y2="0" gradientUnits="userSpaceOnUse" gradientTransform="matrix(266.15,282.214,-282.214,266.15,31.1831,-18.278)"><stop offset="0" style="stop-color:#ffc753;stop-opacity:1"/><stop offset="0.5" style="stop-color:#ffeb7f;stop-opacity:1"/><stop offset="1" style="stop-color:#ffc753;stop-opacity:1"/></linearGradient>
        <linearGradient id="_Linear40" x1="0" y1="0" x2="1" y2="0" gradientUnits="userSpaceOnUse" gradientTransform="matrix(266.15,282.216,-282.216,266.15,18.4231,-6.24399)"><stop offset="0" style="stop-color:#ffc753;stop-opacity:1"/><stop offset="0.5" style="stop-color:#ffeb7f;stop-opacity:1"/><stop offset="1" style="stop-color:#ffc753;stop-opacity:1"/></linearGradient>
        <linearGradient id="_Linear41" x1="0" y1="0" x2="1" y2="0" gradientUnits="userSpaceOnUse" gradientTransform="matrix(266.152,282.216,-282.216,266.152,12.7331,-0.87999)"><stop offset="0" style="stop-color:#ffc753;stop-opacity:1"/><stop offset="0.5" style="stop-color:#ffeb7f;stop-opacity:1"/><stop offset="1" style="stop-color:#ffc753;stop-opacity:1"/></linearGradient>
        <linearGradient id="_Linear42" x1="0" y1="0" x2="1" y2="0" gradientUnits="userSpaceOnUse" gradientTransform="matrix(266.15,282.214,-282.214,266.15,-24.5169,34.252)"><stop offset="0" style="stop-color:#ffc753;stop-opacity:1"/><stop offset="0.5" style="stop-color:#ffeb7f;stop-opacity:1"/><stop offset="1" style="stop-color:#ffc753;stop-opacity:1"/></linearGradient>
        <linearGradient id="_Linear43" x1="0" y1="0" x2="1" y2="0" gradientUnits="userSpaceOnUse" gradientTransform="matrix(260.674,282.032,-282.032,260.674,19.4511,-8.43199)"><stop offset="0" style="stop-color:#ffc753;stop-opacity:1"/><stop offset="0.5" style="stop-color:#ffeb7f;stop-opacity:1"/><stop offset="1" style="stop-color:#ffc753;stop-opacity:1"/></linearGradient>
        <linearGradient id="_Linear44" x1="0" y1="0" x2="1" y2="0" gradientUnits="userSpaceOnUse" gradientTransform="matrix(260.674,282.032,-282.032,260.674,19.4511,-8.43199)"><stop offset="0" style="stop-color:#ffc753;stop-opacity:1"/><stop offset="0.5" style="stop-color:#ffeb7f;stop-opacity:1"/><stop offset="1" style="stop-color:#ffc753;stop-opacity:1"/></linearGradient>
        <linearGradient id="_Linear45" x1="0" y1="0" x2="1" y2="0" gradientUnits="userSpaceOnUse" gradientTransform="matrix(260.674,282.032,-282.032,260.674,19.4511,-8.43199)"><stop offset="0" style="stop-color:#ffc753;stop-opacity:1"/><stop offset="0.5" style="stop-color:#ffeb7f;stop-opacity:1"/><stop offset="1" style="stop-color:#ffc753;stop-opacity:1"/></linearGradient>
        <linearGradient id="_Linear46" x1="0" y1="0" x2="1" y2="0" gradientUnits="userSpaceOnUse" gradientTransform="matrix(260.674,282.032,-282.032,260.674,19.4511,-8.43199)"><stop offset="0" style="stop-color:#ffc753;stop-opacity:1"/><stop offset="0.5" style="stop-color:#ffeb7f;stop-opacity:1"/><stop offset="1" style="stop-color:#ffc753;stop-opacity:1"/></linearGradient>
        <linearGradient id="_Linear47" x1="0" y1="0" x2="1" y2="0" gradientUnits="userSpaceOnUse" gradientTransform="matrix(260.674,282.032,-282.032,260.674,19.4511,-8.43199)"><stop offset="0" style="stop-color:#ffc753;stop-opacity:1"/><stop offset="0.5" style="stop-color:#ffeb7f;stop-opacity:1"/><stop offset="1" style="stop-color:#ffc753;stop-opacity:1"/></linearGradient>
        <linearGradient id="_Linear48" x1="0" y1="0" x2="1" y2="0" gradientUnits="userSpaceOnUse" gradientTransform="matrix(260.674,282.032,-282.032,260.674,19.4511,-8.43199)"><stop offset="0" style="stop-color:#ffc753;stop-opacity:1"/><stop offset="0.5" style="stop-color:#ffeb7f;stop-opacity:1"/><stop offset="1" style="stop-color:#ffc753;stop-opacity:1"/></linearGradient>
        <linearGradient id="_Linear49" x1="0" y1="0" x2="1" y2="0" gradientUnits="userSpaceOnUse" gradientTransform="matrix(266.15,282.216,-282.216,266.15,15.2651,-3.26599)"><stop offset="0" style="stop-color:#ffc753;stop-opacity:1"/><stop offset="0.5" style="stop-color:#ffeb7f;stop-opacity:1"/><stop offset="1" style="stop-color:#ffc753;stop-opacity:1"/></linearGradient>
        <linearGradient id="_Linear50" x1="0" y1="0" x2="1" y2="0" gradientUnits="userSpaceOnUse" gradientTransform="matrix(266.152,282.216,-282.216,266.152,22.6771,-10.256)"><stop offset="0" style="stop-color:#ffc753;stop-opacity:1"/><stop offset="0.5" style="stop-color:#ffeb7f;stop-opacity:1"/><stop offset="1" style="stop-color:#ffc753;stop-opacity:1"/></linearGradient>
        <linearGradient id="_Linear51" x1="0" y1="0" x2="1" y2="0" gradientUnits="userSpaceOnUse" gradientTransform="matrix(266.15,282.216,-282.216,266.15,68.6331,-53.596)"><stop offset="0" style="stop-color:#ffc753;stop-opacity:1"/><stop offset="0.5" style="stop-color:#ffeb7f;stop-opacity:1"/><stop offset="1" style="stop-color:#ffc753;stop-opacity:1"/></linearGradient>
        <linearGradient id="_Linear52" x1="0" y1="0" x2="1" y2="0" gradientUnits="userSpaceOnUse" gradientTransform="matrix(266.15,282.216,-282.216,266.15,68.6331,-53.596)"><stop offset="0" style="stop-color:#ffc753;stop-opacity:1"/><stop offset="0.5" style="stop-color:#ffeb7f;stop-opacity:1"/><stop offset="1" style="stop-color:#ffc753;stop-opacity:1"/></linearGradient>
        <linearGradient id="_Linear53" x1="0" y1="0" x2="1" y2="0" gradientUnits="userSpaceOnUse" gradientTransform="matrix(266.15,282.214,-282.214,266.15,74.5811,-59.206)"><stop offset="0" style="stop-color:#ffc753;stop-opacity:1"/><stop offset="0.5" style="stop-color:#ffeb7f;stop-opacity:1"/><stop offset="1" style="stop-color:#ffc753;stop-opacity:1"/></linearGradient>
        <linearGradient id="_Linear54" x1="0" y1="0" x2="1" y2="0" gradientUnits="userSpaceOnUse" gradientTransform="matrix(97.4792,86.5266,-86.5266,97.4792,41.3491,143.762)"><stop offset="0" style="stop-color:#ffbb53;stop-opacity:1"/><stop offset="0.5" style="stop-color:#ffeb7f;stop-opacity:1"/><stop offset="1" style="stop-color:#ffbb53;stop-opacity:1"/></linearGradient>
        <linearGradient id="_Linear55" x1="0" y1="0" x2="1" y2="0" gradientUnits="userSpaceOnUse" gradientTransform="matrix(97.4792,86.5266,-86.5266,97.4792,41.3491,143.762)"><stop offset="0" style="stop-color:#ffbb53;stop-opacity:1"/><stop offset="0.5" style="stop-color:#ffeb7f;stop-opacity:1"/><stop offset="1" style="stop-color:#ffbb53;stop-opacity:1"/></linearGradient>
        <linearGradient id="_Linear56" x1="0" y1="0" x2="1" y2="0" gradientUnits="userSpaceOnUse" gradientTransform="matrix(97.4792,86.5266,-86.5266,97.4792,41.3491,143.762)"><stop offset="0" style="stop-color:#ffbb53;stop-opacity:1"/><stop offset="0.5" style="stop-color:#ffeb7f;stop-opacity:1"/><stop offset="1" style="stop-color:#ffbb53;stop-opacity:1"/></linearGradient>
        <linearGradient id="_Linear57" x1="0" y1="0" x2="1" y2="0" gradientUnits="userSpaceOnUse" gradientTransform="matrix(97.4792,86.5266,-86.5266,97.4792,41.3491,143.762)"><stop offset="0" style="stop-color:#ffbb53;stop-opacity:1"/><stop offset="0.5" style="stop-color:#ffeb7f;stop-opacity:1"/><stop offset="1" style="stop-color:#ffbb53;stop-opacity:1"/></linearGradient>
        <linearGradient id="_Linear58" x1="0" y1="0" x2="1" y2="0" gradientUnits="userSpaceOnUse" gradientTransform="matrix(266.152,282.216,-282.216,266.152,-63.6629,71.168)"><stop offset="0" style="stop-color:#ffc753;stop-opacity:1"/><stop offset="0.5" style="stop-color:#ffeb7f;stop-opacity:1"/><stop offset="1" style="stop-color:#ffc753;stop-opacity:1"/></linearGradient>
        <linearGradient id="_Linear59" x1="0" y1="0" x2="1" y2="0" gradientUnits="userSpaceOnUse" gradientTransform="matrix(266.152,282.216,-282.216,266.152,-44.3869,52.988)"><stop offset="0" style="stop-color:#ffc753;stop-opacity:1"/><stop offset="0.5" style="stop-color:#ffeb7f;stop-opacity:1"/><stop offset="1" style="stop-color:#ffc753;stop-opacity:1"/></linearGradient>
    </defs>
</svg>
