<?xml version="1.0" encoding="UTF-8" standalone="no"?>
<!DOCTYPE svg PUBLIC "-//W3C//DTD SVG 1.1//EN" "http://www.w3.org/Graphics/SVG/1.1/DTD/svg11.dtd">
<svg width="100%" height="100%" viewBox="0 0 208 210" version="1.1" xmlns="http://www.w3.org/2000/svg" xmlns:xlink="http://www.w3.org/1999/xlink" xml:space="preserve" xmlns:serif="http://www.serif.com/" style="fill-rule:evenodd;clip-rule:evenodd;stroke-linejoin:round;stroke-miterlimit:2;">
    <path d="M97.994,209.352c-11.62,-0.002 -23.294,-1.79 -34.14,-5.962c-0.172,-1.616 -0.286,-3.234 -0.37,-4.856c-14.684,-6.014 -27.656,-15.346 -37.984,-27.064l-0.07,0c-2.834,0 -5.63,0.48 -8.346,1.388c-1.442,-0.802 -2.442,-2.194 -3.372,-3.558c-4.78,-7.002 -8.976,-14.402 -12.532,-22.098c2.222,-2.012 3.93,-4.408 5.466,-6.952c-4.292,-11.282 -6.646,-23.518 -6.646,-36.308c0,-12.388 2.206,-24.264 6.244,-35.252c-1.156,-3.642 -2.312,-7.286 -3.47,-10.928c2.876,-5.37 5.496,-10.596 8.932,-15.626c3.434,-5.032 7.448,-9.722 12.3,-13.404c1.544,0.17 3.096,0.236 4.65,0.236c1.422,0 2.844,-0.056 4.264,-0.142c18.208,-16.798 42.534,-27.064 69.26,-27.064c4.168,-0 8.274,0.256 12.312,0.744c1.292,-0.866 2.568,-1.704 3.768,-2.506c-0,-0 3.006,0.05 4.568,0.258c14.896,1.97 29.88,7.06 40.774,17.412c0.042,1.662 0.332,3.454 0.692,5.142c12.444,9.542 22.628,21.88 29.614,36.078c0.81,0.038 1.622,0.06 2.432,0.06c0.858,-0 1.716,-0.024 2.572,-0.072c4.17,8.59 7.316,17.86 8.736,27.302c-1.42,0.89 -3.048,2.062 -4.33,3.168c0.682,4.768 1.04,9.64 1.04,14.594c-0,10.318 -1.534,20.276 -4.378,29.664c1.868,4.142 4.2,8.236 6.748,11.906c-5.392,12.572 -12.452,24.628 -22.686,33.704c-3.42,0.144 -6.838,0.352 -10.252,0.624c-1.22,0.096 -2.448,0.206 -3.656,0.404c-18.058,16.094 -41.862,25.878 -67.954,25.878c-0.904,0 -1.804,-0.012 -2.704,-0.034c-0.428,0.978 -0.874,1.942 -1.482,3.264Zm-71.572,-40.672c9.776,12.906 23.12,22.186 38.444,27.41c0.122,2.022 0.168,4.374 0.29,6.398c9.664,3.386 20.76,4.804 30.996,5.118c0.526,-1.492 1.334,-2.632 1.86,-4.122c25,-1.296 55.636,-11.928 70.764,-24.568c3.526,-0.91 7.756,-1.618 11.58,-1.618c0.728,0 1.442,0.026 2.134,0.08c6.128,-5.524 12.486,-12.86 15.922,-19.532c0.18,-0.894 -0.502,-1.782 -1.338,-2.152c-0.752,-0.33 -1.026,-0.47 -1.74,-0.47c-0.078,-0 -0.162,0.002 -0.254,0.006c-4.35,4.328 -8.75,8.698 -13.968,11.926c-1.044,0.644 -2.154,1.256 -3.374,1.376c-0.122,0.012 -0.246,0.018 -0.372,0.018c-1.114,0 -2.262,-0.488 -2.78,-1.46c-0.544,-1.026 -0.276,-2.28 0.092,-3.382c0.718,-2.146 1.842,-4.482 3.216,-6.488c-9.298,11.072 -22.714,18.636 -37.024,20.776c-1.234,0.184 -2.508,0.322 -3.766,0.322c-1.876,0 -3.716,-0.308 -5.332,-1.228c-2.624,-1.492 -4.09,-5.37 -2.486,-7.89c1.208,1.534 2.818,2.722 4.678,3.26c0.77,-0.7 1.472,-1.2 2.242,-1.902c0.004,0.768 -0.022,1.482 -0.018,2.248c1.02,0.126 2.046,0.19 3.074,0.19c3.888,0 7.778,-0.91 11.21,-2.732c0.218,-0.756 0.334,-1.618 0.552,-2.376c0.328,0.608 0.658,1.214 0.986,1.824c0.224,-0.744 0.502,-1.356 0.728,-2.098c0.318,0.42 0.638,0.84 0.958,1.258c1.9,-0.714 3.526,-1.966 4.73,-3.602c-0.142,-0.632 -0.448,-1.152 -0.566,-1.79c0.3,0.44 0.938,0.702 1.376,1.008c1.774,-3.202 2.516,-6.776 2.314,-10.428c-0.176,1.654 -0.612,3.348 -1.128,4.93c-0.592,0.428 -1.176,0.842 -1.85,1.114c-0.832,1.748 -2.268,3.156 -3.896,4.2c-1.63,1.044 -3.452,1.748 -5.288,2.354c-3.124,1.026 -6.392,1.786 -9.698,1.788c-0.05,-0 -0.1,-0.002 -0.15,-0.002c-2.5,-0.016 -6.416,-0.388 -7.996,-2.664c-1.372,-1.976 -0.358,-4.664 0.684,-6.832c-0.092,-0.542 -0.25,-1.32 -0.158,-1.862c0.23,-1.336 1.178,-2.238 2.106,-3.226c-3.064,1.898 -5.288,5.128 -5.842,8.686c0.322,0.212 0.356,0.438 0.716,0.576c-0.644,0.242 -1.356,0.704 -2,0.946c0.274,1.824 1.048,3.604 2.19,5.072c-6.26,4.976 -14.272,7.572 -22.26,7.572c-5.126,0 -10.24,-1.068 -14.88,-3.258c-3.67,-1.732 -7.166,-4.244 -9.004,-7.862c-3.12,-6.134 -0.57,-13.926 4.214,-18.874c4.782,-4.948 11.938,-8.532 18.306,-11.142c-3.826,-0.606 -7.62,-3.288 -8.196,-7.116c-0.418,-2.776 0.9,-5.534 2.594,-7.772c1.692,-2.236 3.97,-5 5.508,-7.348c-5.44,3.8 -11.126,7.702 -17.676,8.764c-0.934,0.152 -1.89,0.228 -2.852,0.228c-5.778,0 -11.72,-2.726 -13.856,-7.998c-3.742,-9.238 4.778,-22.416 10.616,-29.074c6.712,-7.658 15.12,-13.598 23.444,-19.464c-6.54,-2.264 -14.97,-4.78 -19.892,-9.76c-0.568,-0.574 -4.944,-4.972 -6.522,-7.868c0.796,-1.48 1.422,-3.094 1.922,-4.692c0.076,-0.246 0.15,-0.496 0.222,-0.744c-1.706,1.038 -3.59,2.64 -5.468,3.308c-0.618,0.218 -3.03,0.844 -4.24,0.844c-0.292,0 -0.516,-0.036 -0.626,-0.124c0.758,0.6 1.518,1.198 2.276,1.796c-2.878,-0.132 -6.046,-1.246 -8.36,-2.962c0.016,0.014 -6.432,4.834 -7.086,5.232c-2.576,1.558 -5.296,2.874 -8.112,3.932c-2.818,1.054 -5.734,1.848 -8.698,2.36c-0.822,0.142 -2.088,0.352 -3.312,0.354c-2.044,0 -3.97,-0.588 -3.51,-3.064c-0.036,0.15 -0.07,0.302 -0.106,0.452c-0.19,-6.86 2.984,-14.29 7.722,-19.084c1.206,-6.598 4.944,-12.588 9.846,-17.168c-10.358,5.146 -19.524,12.746 -27.204,21.394c-0.752,-0.198 -1.44,-0.294 -2.114,-0.294c-0.948,0 -1.866,0.19 -2.896,0.556c0.73,0.794 1.82,1.66 1.958,2.728c-1.068,1.032 -1.672,2.306 -2.742,3.342c-1.492,-0.436 -3.096,-1.26 -4.588,-1.696c-3.162,4.436 -6.134,9.008 -8.906,13.698c1.234,3.068 2.374,5.962 3.608,9.03c-6.574,23.55 -6.966,49.204 -0.584,72.806c-0.578,2.174 -1.984,4.848 -3.33,6.654c3.25,8.308 7.774,15.976 13.388,22.91c2.864,-0.568 5.662,-0.944 8.578,-1.056Zm110.824,-6.96c-0.244,0 -0.488,0.018 -0.728,0.062c-2.34,0.428 -2.906,3.422 -0.916,4.706c0.892,0.574 1.978,0.704 3.052,0.704c0.214,0 0.428,-0.006 0.638,-0.012c3.648,-0.14 7.27,-0.912 10.658,-2.268l0.376,-0.242c0.162,-0.224 0.05,-0.558 -0.166,-0.732c-0.214,-0.172 -0.5,-0.222 -0.77,-0.266c-3.5,-0.59 -6.998,-1.178 -10.498,-1.768c-0.544,-0.092 -1.098,-0.184 -1.646,-0.184Zm10.958,-5.858c1.178,-0 2.358,0.148 3.438,0.606c3.276,1.394 3.484,4.454 2.1,7.364c-0.092,0.192 -0.19,0.384 -0.296,0.576c0.464,-0.842 2.48,-1.708 3.208,-2.574c0.702,-0.834 1.308,-1.794 1.736,-2.816c1.604,-1.372 2.426,-3.66 1.946,-5.73c-0.842,-3.61 -4.394,-4.306 -7.398,-5.338c-1.32,-0.454 -2.738,-0.646 -4.152,-0.646c-1.026,0 -2.052,0.102 -3.038,0.276c-2.452,0.43 -4.834,1.364 -6.83,2.854c-1.358,1.014 -2.528,2.292 -3.384,3.758c-0.898,1.536 -1.14,3.034 -1.384,4.768c-0.784,1.378 -1.404,2.892 -1.896,4.5c3.684,-4.426 9.248,-7.232 14.996,-7.568c0.316,-0.018 0.636,-0.03 0.954,-0.03Zm50.062,-16.856c0,-0 -2.63,4.434 -3.2,5.86c-0.412,1.032 -3.17,4.802 -1.464,5.252c1.72,0.456 3.44,0.908 5.158,1.364c1.596,-2.284 3.192,-4.566 4.786,-6.85c-1.034,-1.046 -5.28,-5.626 -5.28,-5.626Zm3.918,-34.122c-1.804,14.522 -6.042,28.736 -12.478,41.878c9.014,-12.024 13.32,-26.874 12.478,-41.878Zm-85.596,35.352c-0.688,0 -1.304,0.316 -1.644,1.164c-0.606,1.502 0.924,1.91 2.398,1.91c0.808,-0 1.6,-0.122 2.014,-0.254c0.256,-0.08 0.536,-0.21 0.614,-0.464c0.084,-0.274 -0.104,-0.552 -0.292,-0.768c-0.656,-0.754 -1.97,-1.588 -3.09,-1.588Zm61.452,-53.556c0.884,6.012 0.184,12.25 -2.006,17.918c-1.13,2.926 -2.676,5.816 -2.698,8.954c-0.03,3.758 2.39,7.42 5.86,8.868c-2.564,3.988 -4.416,8.432 -5.442,13.062c-0.386,1.746 -0.58,3.796 0.628,5.114c0.672,0.734 1.658,1.062 2.664,1.062c0.564,0 1.136,-0.104 1.66,-0.298c1.456,-0.536 2.628,-1.636 3.712,-2.748c12.894,-13.222 18.376,-30.732 17.112,-48.888c-0.562,-8.088 -2.378,-16.078 -5.28,-23.642c-5.742,-14.974 -15.78,-28.358 -28.898,-37.644c-15.38,-10.888 -34.004,-16.096 -52.42,-20.1c-6.552,-1.424 -13.47,-2.746 -20.3,-2.746c-4.218,0 -8.402,0.504 -12.448,1.8c-10.286,3.294 -19.434,7.392 -27.612,14.786c-0.746,0.674 -1.53,1.476 -1.562,2.482c-0.034,1.088 0.878,2.024 1.91,2.368c0.468,0.158 0.954,0.218 1.446,0.226c-0.55,0.418 -1.094,0.844 -1.636,1.268l0.66,-0.182c0.562,-0.392 1.14,-0.764 1.73,-1.114c0.344,-0.026 0.69,-0.07 1.03,-0.118c0.33,-0.044 0.666,-0.09 1.004,-0.134c-0.988,0.514 -1.95,1.08 -2.89,1.668c-4.06,2.538 -7.958,5.2 -11.266,8.708l-0.018,0.02c-2.634,2.798 -4.852,6.014 -6.39,9.544c-1.184,2.714 -3.052,7.392 -0.164,9.756c-0.166,-0.136 2.854,-5.436 3.202,-6.078c3.936,-7.242 11.056,-12.652 19.026,-14.776c0.838,-0.224 1.862,-0.556 2.822,-0.556c0.52,-0 1.022,0.098 1.464,0.364c1.292,0.78 1.326,2.592 1.044,3.898c-0.804,3.758 -4.104,6.52 -6.546,9.294c0.532,-0.604 1.714,-1.036 2.396,-1.49c0.856,-0.572 1.69,-1.178 2.502,-1.812c1.58,-1.23 3.074,-2.57 4.468,-4.006c4.05,-0.268 8.166,-0.576 11.93,-2.08c3.844,-1.534 7.33,-4.546 8.352,-8.554c2.934,2.966 -0.48,8.33 1.368,12.07c2.36,4.776 9.178,5.11 13.388,7.206c2.792,1.39 5.634,2.418 8.746,2.808c0.934,0.118 2.952,0.37 4.844,0.37c1.678,0 3.262,-0.198 3.91,-0.86c-3.456,3.53 -5.74,8.19 -6.41,13.086c-0.378,2.76 -0.068,5.974 2.136,7.678c1.096,0.846 2.434,1.152 3.826,1.152c1.278,0 2.602,-0.256 3.83,-0.586c7.026,-1.884 13.556,-5.592 18.778,-10.656c-3.79,5.198 -7.58,10.398 -11.368,15.598c2.5,-0.166 4.976,-0.476 7.45,-0.808c-5.286,7.298 -7.588,17.266 -6.248,25.594c1.704,-6.072 3.992,-13.02 10.384,-15.518c1.766,-0.69 3.65,-1.012 5.544,-1.012c2.288,0 4.59,0.468 6.72,1.316c2.302,0.916 4.524,2.356 5.686,4.544c1.84,3.47 0.528,7.822 -1.638,11.096c-3.092,4.676 -6.942,10.362 -11.556,13.6c8.116,-0.094 14.544,-7.714 17.94,-14.362c1.766,-3.448 3.784,-7.92 5.032,-12.53c0.606,2.912 1.09,5.838 1.98,8.18c2.082,-4.13 4.328,-8.136 6.612,-12.16Zm-10.328,39.184c-5.028,-0 -13.892,10.174 -10.502,13.412c0.378,0.362 0.868,0.496 1.39,0.496c0.572,0 1.182,-0.162 1.718,-0.364c3.832,-1.438 7.132,-4.246 9.166,-7.796c0.89,-1.55 1.464,-3.702 0.206,-4.972c-0.53,-0.538 -1.21,-0.776 -1.978,-0.776Zm-43.576,5.808c0.326,-0 0.652,0.02 0.978,0.066c1.05,0.148 2.096,0.614 2.74,1.458c0.644,0.844 0.792,2.104 0.182,2.972c1.346,-1.33 2.728,-2.718 3.402,-4.486c0.676,-1.766 0.438,-4.032 -1.062,-5.184c-0.854,-0.658 -1.972,-0.862 -3.046,-0.906c-0.17,-0.008 -0.338,-0.012 -0.508,-0.012c-1.172,0 -2.342,0.176 -3.466,0.506c-2.284,0.67 -4.386,1.968 -5.998,3.718c-1.494,1.624 -1.818,2.998 -1.842,5.17c0.728,-1.012 1.686,-1.744 2.84,-2.222c1.142,-0.472 2.368,-0.69 3.586,-0.874c0.726,-0.11 1.462,-0.206 2.194,-0.206Zm3.636,-19.382c-0.566,2.058 -1.132,4.116 -1.7,6.174c-0.182,0.664 2.61,3.294 3.088,3.794c1.19,1.244 2.488,2.386 3.872,3.412c2.696,1.996 4.522,2.228 7.748,2.444c0.5,0.034 0.998,0.052 1.494,0.052c0.946,0 1.888,-0.064 2.83,-0.21c1.368,-0.208 2.53,-0.682 3.826,-1.2c0.22,-1.752 0.442,-3.506 0.664,-5.258c0.706,1.428 1.41,2.86 2.116,4.292c2.088,-1.21 4.174,-2.42 6.262,-3.63c0.448,-0.26 0.922,-0.548 1.15,-1.012c0.198,-0.41 0.172,-0.888 0.142,-1.342c-0.088,-1.348 -0.178,-2.694 -0.266,-4.042c0.866,1.2 1.734,2.398 2.604,3.596c-0.088,-0.118 1.104,-2.156 1.22,-2.414c0.388,-0.856 0.738,-1.73 1.05,-2.616c0.31,-0.888 0.492,-1.824 0.81,-2.702c0.27,-0.75 0.618,-1.442 0.844,-2.226c1.06,-3.7 1.552,-7.53 2.528,-11.25c0.058,-0.228 0.12,-0.456 0.184,-0.684c0.008,-0.028 0.018,-0.058 0.026,-0.086c-0.01,0.028 -0.018,0.058 -0.026,0.086c-2.078,7.262 -6.786,13.74 -13.054,17.952c-2.768,1.858 -5.92,3.312 -9.25,3.46c-0.182,0.008 -0.366,0.012 -0.548,0.012c-5.898,-0 -11.32,-4.248 -13.84,-9.618c-2.598,-5.532 -2.536,-11.994 -1.26,-17.972c0.084,-0.392 -1.648,-1.55 -1.916,-1.832c-0.784,-0.824 -1.382,-1.858 -1.77,-2.922c1.332,0.088 2.664,0.176 3.998,0.264c-0.868,-1.646 -1.734,-3.292 -2.6,-4.936c-1.686,1.792 -3,3.926 -3.864,6.226c-0.586,1.566 -1.882,4.752 -1.368,6.406c0.24,0.768 1.002,1.126 1.434,1.754c0.578,0.842 0.898,1.82 1.532,2.688c-0.488,0.246 -0.994,0.35 -1.5,0.35c-0.638,0 -1.278,-0.166 -1.884,-0.426c-1.906,4.7 -0.354,10.836 1.336,15.442c1.364,-0.674 2.726,-1.35 4.088,-2.026Zm8.328,-10.876c-1.184,0 -2.208,0.554 -2.56,2.106c-0.6,2.646 1.732,6.158 3.3,8.028c1.088,1.298 2.362,2.54 3.976,3.054c0.444,0.142 0.918,0.214 1.39,0.214c1.248,0 2.488,-0.502 3.142,-1.546c0.57,-0.906 0.61,-2.07 0.32,-3.1c-0.29,-1.03 -0.878,-1.95 -1.512,-2.814c-1.134,-1.542 -2.436,-2.96 -3.878,-4.222c-0.99,-0.866 -2.708,-1.72 -4.178,-1.72Zm-28.304,-21.584c-3.154,0 -6.512,3.014 -8.854,4.624c-4.048,2.784 -7.202,6.874 -9.462,11.206c-0.898,1.72 -1.648,3.84 -0.694,5.53c0.8,1.422 2.426,1.918 4.122,1.918c0.83,0 1.676,-0.118 2.45,-0.306c6.942,-1.686 12.996,-6.708 15.936,-13.218c0.67,-1.486 1.192,-3.078 1.15,-4.706c-0.042,-1.628 -0.726,-3.304 -2.062,-4.234c-0.828,-0.576 -1.7,-0.814 -2.586,-0.814Zm84.24,-20.364c5.42,10.064 8.748,21.25 9.714,32.638c0.008,-1.708 0.432,-2.522 0.438,-4.232c1.116,-0.928 2.4,-1.906 3.66,-2.62c-0.694,-6.546 -2.482,-12.836 -5.23,-18.818c-0.826,0.032 -1.71,0.482 -2.436,0.88c-1.808,-2.782 -3.8,-5.502 -6.146,-7.848Zm-139.386,-12.5c-3.032,0.016 -5.87,0.7 -8.772,1.498c-2.272,0.626 -3.114,2.2 -3.932,4.368c-0.182,0.488 -0.302,1.134 0.114,1.448c0.144,0.11 0.318,0.148 0.498,0.148c0.188,0 0.384,-0.04 0.564,-0.086c4.408,-1.088 8.566,-3.172 12.078,-6.052c0.262,-0.214 0.546,-0.508 0.47,-0.838c-0.094,-0.396 -0.612,-0.486 -1.02,-0.486Zm107.806,-25.344c-8.336,-6.606 -17.948,-11.976 -27.834,-15.902c0.31,-0.524 0.744,-1.372 1.056,-1.894c-4.312,-1.582 -9.162,-2.044 -13.726,-2.534c-1.186,1.05 -2.222,2.262 -3.408,3.312c-4.564,-0.742 -9.394,-0.844 -14.02,-0.874c6.694,1.128 13.356,2.426 19.984,3.886c13.242,2.918 26.588,6.602 37.948,14.006Z" style="fill:url(#_Radial1);"/>
    <path d="M117.342,143.31c-1.474,-0 -3.004,-0.408 -2.398,-1.91c0.34,-0.848 0.956,-1.164 1.644,-1.164c1.12,0 2.434,0.834 3.09,1.588c0.188,0.216 0.376,0.494 0.292,0.768c-0.078,0.254 -0.358,0.384 -0.614,0.464c-0.414,0.132 -1.206,0.254 -2.014,0.254Z" style="fill:url(#_Radial2);"/>
    <path d="M128.036,136.168c0.61,-0.868 0.462,-2.128 -0.182,-2.972c-0.644,-0.844 -1.69,-1.31 -2.74,-1.458c-0.326,-0.046 -0.652,-0.066 -0.978,-0.066c-0.732,-0 -1.468,0.096 -2.194,0.206c-1.218,0.184 -2.444,0.402 -3.586,0.874c-1.154,0.478 -2.112,1.21 -2.84,2.222c0.024,-2.172 0.348,-3.546 1.842,-5.17c1.612,-1.75 3.714,-3.048 5.998,-3.718c1.124,-0.33 2.294,-0.506 3.466,-0.506c0.17,0 0.338,0.004 0.508,0.012c1.074,0.044 2.192,0.248 3.046,0.906c1.5,1.152 1.738,3.418 1.062,5.184c-0.674,1.768 -2.056,3.156 -3.402,4.486Z" style="fill:url(#_Radial3);"/>
    <path d="M158.39,159.018c0.17,-0.406 0.312,-0.824 0.422,-1.246c0.782,-3 -2.292,-4.812 -4.82,-5.684c-1.836,-0.636 -3.778,-0.95 -5.722,-0.95c-2.778,0 -5.558,0.642 -8.034,1.902c-2.71,1.38 -4.668,3.428 -6.086,5.92c0.244,-1.734 0.486,-3.232 1.384,-4.768c0.856,-1.466 2.026,-2.744 3.384,-3.758c1.996,-1.49 4.378,-2.424 6.83,-2.854c0.986,-0.174 2.012,-0.276 3.038,-0.276c1.414,0 2.832,0.192 4.152,0.646c3.004,1.032 6.556,1.728 7.398,5.338c0.48,2.07 -0.342,4.358 -1.946,5.73Z" style="fill:url(#_Radial4);"/>
    <path d="M96.152,207.606c-10.236,-0.314 -21.332,-1.732 -30.996,-5.118c-0.122,-2.024 -0.168,-4.376 -0.29,-6.398c-15.324,-5.224 -28.668,-14.504 -38.444,-27.41c-2.916,0.112 -5.714,0.488 -8.578,1.056c-5.614,-6.934 -10.138,-14.602 -13.388,-22.91c1.346,-1.806 2.752,-4.48 3.33,-6.654c-6.382,-23.602 -5.99,-49.256 0.584,-72.806c-1.234,-3.068 -2.374,-5.962 -3.608,-9.03c2.772,-4.69 5.744,-9.262 8.906,-13.698c1.492,0.436 3.096,1.26 4.588,1.696c1.07,-1.036 1.674,-2.31 2.742,-3.342c-0.138,-1.068 -1.228,-1.934 -1.958,-2.728c1.03,-0.366 1.948,-0.556 2.896,-0.556c0.674,0 1.362,0.096 2.114,0.294c7.68,-8.648 16.846,-16.248 27.204,-21.394c-4.902,4.58 -8.64,10.57 -9.846,17.168c-4.738,4.794 -7.912,12.224 -7.722,19.084c-0.688,2.99 -1.34,6.028 -1.118,9.082c0.062,0.86 0.916,6.11 2.422,6.11c0.082,0 0.166,-0.016 0.252,-0.048c0.386,-0.15 0.552,-0.594 0.662,-0.994c0.504,-1.804 0.812,-3.662 0.918,-5.53c0.07,2.464 0.238,4.926 0.506,7.374c0.072,0.658 0.164,1.346 0.546,1.888c0.578,0.812 1.66,1.078 2.654,1.164c1.04,0.09 2.044,0.142 3.036,0.142c2.084,0 4.108,-0.232 6.26,-0.824c1.214,-0.332 2.8,-0.24 3.756,-1.136c0.562,-0.53 0.924,-1.236 1.21,-1.95c1.294,-3.224 1.242,-6.81 1.17,-10.286c0.364,2.416 1.116,4.774 2.218,6.956c0.314,0.622 0.716,1.284 1.382,1.496c0.15,0.048 0.304,0.07 0.456,0.07c0.68,0 1.352,-0.432 1.924,-0.858c1.962,-1.454 3.862,-2.996 5.692,-4.616c0.762,-0.676 1.548,-1.426 1.778,-2.416c0.502,-2.154 -1.788,-3.94 -2.23,-6.108c1.286,0.744 2.744,1.346 4.208,1.346c0.316,0 0.63,-0.028 0.944,-0.088c1.548,-0.294 2.868,-1.35 3.806,-2.616c1.018,-1.372 1.616,-3.018 2.444,-4.484c0.068,-0.12 0.136,-0.242 0.202,-0.366c1.578,2.896 5.954,7.294 6.522,7.868c4.922,4.98 13.352,7.496 19.892,9.76c-8.324,5.866 -16.732,11.806 -23.444,19.464c-5.838,6.658 -14.358,19.836 -10.616,29.074c2.136,5.272 8.078,7.998 13.856,7.998c0.962,0 1.918,-0.076 2.852,-0.228c6.55,-1.062 12.236,-4.964 17.676,-8.764c-1.538,2.348 -3.816,5.112 -5.508,7.348c-1.694,2.238 -3.012,4.996 -2.594,7.772c0.576,3.828 4.37,6.51 8.196,7.116c-6.368,2.61 -13.524,6.194 -18.306,11.142c-4.784,4.948 -7.334,12.74 -4.214,18.874c1.838,3.618 5.334,6.13 9.004,7.862c4.64,2.19 9.754,3.258 14.88,3.258c7.988,0 16,-2.596 22.26,-7.572c0.014,0.02 0.03,0.04 0.046,0.06c-1.604,2.52 -0.138,6.398 2.486,7.89c1.616,0.92 3.456,1.228 5.332,1.228c1.258,0 2.532,-0.138 3.766,-0.322c14.31,-2.14 27.726,-9.704 37.024,-20.776c-1.374,2.006 -2.498,4.342 -3.216,6.488c-0.368,1.102 -0.636,2.356 -0.092,3.382c0.518,0.972 1.666,1.46 2.78,1.46c0.126,0 0.25,-0.006 0.372,-0.018c1.22,-0.12 2.33,-0.732 3.374,-1.376c5.218,-3.228 9.618,-7.598 13.968,-11.926c0.092,-0.004 0.176,-0.006 0.254,-0.006c0.714,-0 0.988,0.14 1.74,0.47c0.836,0.37 1.518,1.258 1.338,2.152c-3.436,6.672 -9.794,14.008 -15.922,19.532c-0.692,-0.054 -1.406,-0.08 -2.134,-0.08c-3.824,0 -8.054,0.708 -11.58,1.618c-15.128,12.64 -45.764,23.272 -70.764,24.568c-0.526,1.49 -1.334,2.63 -1.86,4.122Z" style="fill:url(#_Radial5);"/>
    <path d="M177.046,141.658c-1.006,0 -1.992,-0.328 -2.664,-1.062c-1.208,-1.318 -1.014,-3.368 -0.628,-5.114c1.026,-4.63 2.878,-9.074 5.442,-13.062c-3.47,-1.448 -5.89,-5.11 -5.86,-8.868c0.022,-3.138 1.568,-6.028 2.698,-8.954c2.19,-5.668 2.89,-11.906 2.006,-17.918c-2.284,4.024 -4.53,8.03 -6.612,12.16c-0.89,-2.342 -1.374,-5.268 -1.98,-8.18c1.444,-5.338 1.856,-10.862 -0.354,-15.202c-2.492,-4.892 -8.096,-7.658 -13.612,-7.658c-0.706,0 -1.41,0.046 -2.104,0.136c-6.646,0.878 -11.992,4.744 -15.794,9.996c-2.474,0.332 -4.95,0.642 -7.45,0.808c3.788,-5.2 7.578,-10.4 11.368,-15.598c-5.222,5.064 -11.752,8.772 -18.778,10.656c-1.228,0.33 -2.552,0.586 -3.83,0.586c-1.392,0 -2.73,-0.306 -3.826,-1.152c-2.204,-1.704 -2.514,-4.918 -2.136,-7.678c0.67,-4.896 2.954,-9.556 6.41,-13.086c-0.648,0.662 -2.232,0.86 -3.91,0.86c-1.892,0 -3.91,-0.252 -4.844,-0.37c-3.112,-0.39 -5.954,-1.418 -8.746,-2.808c-4.21,-2.096 -11.028,-2.43 -13.388,-7.206c-1.848,-3.74 1.566,-9.104 -1.368,-12.07c-1.022,4.008 -4.508,7.02 -8.352,8.554c-3.764,1.504 -7.88,1.812 -11.93,2.08c0.01,-0.01 0.02,-0.018 0.028,-0.028c2.536,-2.616 5.654,-5.9 6.434,-9.536c0.472,-2.192 -0.16,-4.704 -2.006,-6.096c-1.362,-1.026 -3.19,-1.384 -5.006,-1.384c-1.208,0 -2.41,0.158 -3.464,0.386c-1.974,0.428 -3.848,1.192 -5.636,2.124c-0.338,0.044 -0.674,0.09 -1.004,0.134c-0.34,0.048 -0.686,0.092 -1.03,0.118c3.228,-1.912 6.85,-3.164 10.572,-3.638c0.676,-0.088 1.37,-0.144 2.06,-0.144c1.624,0 3.23,0.312 4.508,1.274c2.088,1.57 2.726,4.522 2.238,7.086c-0.486,2.566 -1.898,4.846 -3.284,7.06c3.772,-2.416 6.86,-5.254 9.598,-8.8c-0.104,0.058 -0.216,0.084 -0.328,0.084c-0.462,-0 -0.928,-0.454 -0.982,-0.95c-0.066,-0.612 0.296,-1.192 0.69,-1.668c0.396,-0.474 0.854,-0.928 1.05,-1.514c0.998,-2.974 -3.898,-4.304 -5.892,-4.542c-1.146,-0.136 -2.302,-0.204 -3.458,-0.204c-2.538,-0 -5.074,0.326 -7.528,0.974c-2.126,0.56 -4.144,1.128 -6.034,2.262c-1.38,0.83 -2.686,1.772 -3.964,2.748c-0.492,-0.008 -0.978,-0.068 -1.446,-0.226c-1.032,-0.344 -1.944,-1.28 -1.91,-2.368c0.032,-1.006 0.816,-1.808 1.562,-2.482c8.178,-7.394 17.326,-11.492 27.612,-14.786c4.046,-1.296 8.23,-1.8 12.448,-1.8c6.83,0 13.748,1.322 20.3,2.746c18.416,4.004 37.04,9.212 52.42,20.1c13.118,9.286 23.156,22.67 28.898,37.644c2.902,7.564 4.718,15.554 5.28,23.642c1.264,18.156 -4.218,35.666 -17.112,48.888c-1.084,1.112 -2.256,2.212 -3.712,2.748c-0.524,0.194 -1.096,0.298 -1.66,0.298Zm9.536,-45.21c-1.798,-0 -3.932,3.746 -4.708,4.996c-2.172,3.502 -3.446,7.422 -3.366,11.572c0.018,1.02 0.344,2.304 1.354,2.46c0.062,0.01 0.124,0.014 0.186,0.014c0.628,0 1.188,-0.486 1.64,-0.952c3.776,-3.896 6.632,-8.952 6.816,-14.374c0.026,-0.782 -0.006,-1.59 -0.328,-2.306c-0.456,-1.012 -1.008,-1.41 -1.594,-1.41Zm-30.862,-29.252c5.304,-0 10.716,2.096 13.568,6.496c1.588,2.454 2.266,5.408 2.35,8.328c0.086,2.92 -0.39,5.824 -0.96,8.69c1.008,-3.002 1.882,-7.11 2.274,-10.252c0.392,-3.142 0.126,-6.448 -1.322,-9.266c-1.948,-3.792 -5.78,-6.26 -9.71,-7.916c-1.408,-0.592 -2.9,-1.134 -3.974,-2.222c-0.6,-0.612 -1.086,-1.4 -1.884,-1.716c-0.27,-0.104 -0.552,-0.146 -0.84,-0.146c-0.486,0 -0.986,0.12 -1.458,0.254c-8.322,2.372 -15.54,8.856 -18.534,16.974c0.614,0.044 1.128,0.644 1.742,0.688c3.734,-5.27 9.722,-8.888 16.128,-9.74c0.862,-0.114 1.74,-0.172 2.62,-0.172Zm-5.876,-41.756c-1.106,0 -2.134,0.134 -3.002,0.444c-3.08,1.098 -0.198,4.594 1.522,5.9c5.746,4.36 12.196,7.95 19.056,10.608c0.636,0.246 1.4,0.452 2.08,0.452c0.622,0 1.174,-0.172 1.492,-0.646c0.394,-0.586 0.192,-1.356 -0.058,-2.026c-1.776,-4.782 -5.562,-9.064 -10.306,-11.778c-2.574,-1.472 -7.116,-2.954 -10.784,-2.954Zm-40.982,1.424c-0.296,-0 -0.592,0.014 -0.882,0.048c-1.216,0.14 -2.298,0.626 -2.518,1.842c-0.236,1.304 1.082,2.32 2.258,2.934c4.302,2.254 8.996,3.754 13.806,4.414c0.336,0.046 0.746,0.094 1.164,0.094c0.822,-0 1.672,-0.182 2.028,-0.918c0.412,-0.854 -0.132,-1.956 -0.562,-2.69c-0.764,-1.304 -1.86,-2.166 -3.044,-3.068c-0.764,-0.584 -1.59,-1.088 -2.458,-1.504c-0.302,-0.142 -1.894,-0.968 -2.438,-0.968c-0.064,0 -0.112,0.012 -0.144,0.036c0.498,-0.384 1.178,-0.388 1.798,-0.496c0.618,-0.108 1.31,-0.45 1.396,-1.074c0.07,-0.5 -0.288,-0.952 -0.654,-1.302c-1.6,-1.532 -3.714,-2.394 -5.788,-3.17c-2.28,-0.852 -4.59,-1.646 -6.982,-2.092c-1.22,-0.226 -2.466,-0.358 -3.71,-0.358c-1.19,0 -2.376,0.122 -3.534,0.4c-0.756,0.182 -1.562,0.48 -1.952,1.152c-0.35,0.604 -0.272,1.386 0.06,2c0.33,0.612 0.88,1.078 1.458,1.466c1.864,1.254 4.1,1.824 6.314,2.212c2.214,0.384 4.466,0.608 6.614,1.266c-0.576,-0.11 -1.394,-0.224 -2.23,-0.224Zm-21.298,-18.478c-2.484,0 -4.93,0.528 -7.214,1.524c-0.438,0.188 -0.934,0.494 -0.936,0.97c-0.006,0.58 0.692,0.866 1.262,0.972c1.248,0.234 2.52,0.35 3.79,0.35c1.146,-0 2.294,-0.094 3.426,-0.278c1.216,-0.198 2.416,-0.502 3.582,-0.91c0.186,-0.064 3.006,-1.166 2.772,-1.408c-1.044,-1.084 -2.378,-1.286 -3.758,-1.286c-0.406,0 -0.814,0.018 -1.22,0.034c-0.408,0.018 -0.812,0.036 -1.208,0.036c-0.07,0 -0.138,0 -0.206,-0.002c-0.096,-0.002 -0.194,-0.002 -0.29,-0.002Z" style="fill:url(#_Radial6);"/>
    <path d="M36.426,56.67c-0.166,-0.136 2.854,-5.436 3.202,-6.078c3.936,-7.242 11.056,-12.652 19.026,-14.776c1.294,-0.344 3.028,-0.95 4.286,-0.192c1.292,0.78 1.326,2.592 1.044,3.898c-0.804,3.758 -4.104,6.52 -6.546,9.294c0.532,-0.604 1.714,-1.036 2.396,-1.49c0.856,-0.572 1.69,-1.178 2.502,-1.812c1.59,-1.238 3.094,-2.588 4.496,-4.034c2.536,-2.616 5.654,-5.9 6.434,-9.536c0.472,-2.192 -0.16,-4.704 -2.006,-6.096c-2.268,-1.708 -5.832,-1.568 -8.47,-0.998c-3.064,0.662 -5.888,2.142 -8.526,3.792c-4.06,2.538 -7.958,5.2 -11.266,8.708l-0.018,0.02c-2.634,2.798 -4.852,6.014 -6.39,9.544c-1.184,2.714 -3.052,7.392 -0.164,9.756Z" style="fill:#103766;fill-rule:nonzero;"/>
    <path d="M80.706,43.476c0.076,-0.246 0.15,-0.496 0.222,-0.744c-1.706,1.038 -3.59,2.64 -5.468,3.308c-0.768,0.272 -4.298,1.17 -4.866,0.72c0.758,0.6 1.518,1.198 2.276,1.796c-2.878,-0.132 -6.046,-1.246 -8.36,-2.962c0.016,0.014 -6.432,4.834 -7.086,5.232c-2.576,1.558 -5.296,2.874 -8.112,3.932c-2.818,1.054 -5.734,1.848 -8.698,2.36c-2.194,0.38 -7.556,1.248 -6.822,-2.71c-0.726,3.134 -1.456,6.326 -1.224,9.534c0.066,0.906 1.012,6.694 2.674,6.062c0.386,-0.15 0.552,-0.594 0.662,-0.994c0.504,-1.804 0.812,-3.662 0.918,-5.53c0.07,2.464 0.238,4.926 0.506,7.374c0.072,0.658 0.164,1.346 0.546,1.888c0.578,0.812 1.66,1.078 2.654,1.164c3.228,0.278 6.12,0.192 9.296,-0.682c1.214,-0.332 2.8,-0.24 3.756,-1.136c0.562,-0.53 0.924,-1.236 1.21,-1.95c1.294,-3.224 1.242,-6.81 1.17,-10.286c0.364,2.416 1.116,4.774 2.218,6.956c0.314,0.622 0.716,1.284 1.382,1.496c0.828,0.266 1.68,-0.268 2.38,-0.788c1.962,-1.454 3.862,-2.996 5.692,-4.616c0.762,-0.676 1.548,-1.426 1.778,-2.416c0.502,-2.154 -1.788,-3.94 -2.23,-6.108c1.564,0.904 3.378,1.598 5.152,1.258c1.548,-0.294 2.868,-1.35 3.806,-2.616c1.018,-1.372 1.616,-3.018 2.444,-4.484c0.894,-1.58 1.582,-3.328 2.124,-5.058Z" style="fill:#103766;fill-rule:nonzero;"/>
    <path d="M146.476,117.552c8.116,-0.094 14.544,-7.714 17.94,-14.362c3.808,-7.44 8.798,-19.642 4.678,-27.732c-2.81,-5.518 -9.578,-8.33 -15.716,-7.522c-15.88,2.096 -24.346,21.27 -22.042,35.59c1.704,-6.072 3.992,-13.02 10.384,-15.518c3.9,-1.524 8.374,-1.246 12.264,0.304c2.302,0.916 4.524,2.356 5.686,4.544c1.84,3.47 0.528,7.822 -1.638,11.096c-3.092,4.676 -6.942,10.362 -11.556,13.6Z" style="fill:#103766;fill-rule:nonzero;"/>
    <path d="M168.264,97.382c-2.066,7.296 -6.788,13.808 -13.08,18.038c-2.768,1.858 -5.92,3.312 -9.25,3.46c-6.108,0.274 -11.79,-4.07 -14.388,-9.606c-2.598,-5.532 -2.536,-11.994 -1.26,-17.972c0.084,-0.392 -1.648,-1.55 -1.916,-1.832c-0.784,-0.824 -1.382,-1.858 -1.77,-2.922c1.332,0.088 2.664,0.176 3.998,0.264c-0.868,-1.646 -1.734,-3.292 -2.6,-4.936c-1.686,1.792 -3,3.926 -3.864,6.226c-0.586,1.566 -1.882,4.752 -1.368,6.406c0.24,0.768 1.002,1.126 1.434,1.754c0.578,0.842 0.898,1.82 1.532,2.688c-1.106,0.556 -2.298,0.388 -3.384,-0.076c-1.906,4.7 -0.354,10.836 1.336,15.442c1.364,-0.674 2.726,-1.35 4.088,-2.026c-0.566,2.058 -1.132,4.116 -1.7,6.174c-0.182,0.664 2.61,3.294 3.088,3.794c1.19,1.244 2.488,2.386 3.872,3.412c2.696,1.996 4.522,2.228 7.748,2.444c1.45,0.098 2.888,0.064 4.324,-0.158c1.368,-0.208 2.53,-0.682 3.826,-1.2c0.22,-1.752 0.442,-3.506 0.664,-5.258c0.706,1.428 1.41,2.86 2.116,4.292c2.088,-1.21 4.174,-2.42 6.262,-3.63c0.448,-0.26 0.922,-0.548 1.15,-1.012c0.198,-0.41 0.172,-0.888 0.142,-1.342c-0.088,-1.348 -0.178,-2.694 -0.266,-4.042c0.866,1.2 1.734,2.398 2.604,3.596c-0.088,-0.118 1.104,-2.156 1.22,-2.414c0.388,-0.856 0.738,-1.73 1.05,-2.616c0.31,-0.888 0.492,-1.824 0.81,-2.702c0.27,-0.75 0.618,-1.442 0.844,-2.226c1.06,-3.7 1.552,-7.53 2.528,-11.25c0.066,-0.256 0.136,-0.514 0.21,-0.77Z" style="fill:#103766;fill-rule:nonzero;"/>
    <path d="M160.456,21.622c-11.36,-7.404 -24.706,-11.088 -37.948,-14.006c-6.628,-1.46 -13.29,-2.758 -19.984,-3.886c4.626,0.03 9.456,0.132 14.02,0.874c1.186,-1.05 2.222,-2.262 3.408,-3.312c4.564,0.49 9.414,0.952 13.726,2.534c-0.312,0.522 -0.746,1.37 -1.056,1.894c9.886,3.926 19.498,9.296 27.834,15.902Z" style="fill:url(#_Radial7);"/>
    <path d="M201.75,92.104c-0.966,-11.388 -4.294,-22.574 -9.714,-32.638c2.346,2.346 4.338,5.066 6.146,7.848c0.726,-0.398 1.61,-0.848 2.436,-0.88c2.748,5.982 4.536,12.272 5.23,18.818c-1.26,0.714 -2.544,1.692 -3.66,2.62c-0.006,1.71 -0.43,2.524 -0.438,4.232Z" style="fill:url(#_Radial8);"/>
    <path d="M189.706,146.762c6.436,-13.142 10.674,-27.356 12.478,-41.878c0.842,15.004 -3.464,29.854 -12.478,41.878Z" style="fill:url(#_Radial9);"/>
    <path d="M120.312,134.286c-1.746,0.614 -3.578,1.806 -4.654,3.342c-0.442,0.632 -2.698,4.614 -2.424,5.12c-2.052,-3.804 0.006,-6.942 2.416,-9.79c2.378,-2.81 5.81,-4.708 9.456,-5.228c1.69,-0.24 3.672,-0.074 4.698,1.29c0.992,1.322 0.666,3.192 0.104,4.744c-1.4,3.88 -4.342,7.25 -7.696,9.646c0.914,-1.448 1.744,-2.948 2.486,-4.492c0.5,-1.042 0.966,-2.244 0.55,-3.324c-0.34,-0.88 -1.23,-1.468 -2.156,-1.64c-0.928,-0.172 -1.89,0.02 -2.78,0.332Z" style="fill:#103766;fill-rule:nonzero;"/>
    <path d="M111.988,135.06c-0.164,0.342 -0.312,0.65 -0.438,0.898c-1.022,2.002 -1.7,3.696 -0.856,5.922c0.864,2.28 3.058,3.954 5.462,4.352c2.824,0.47 5.724,-0.708 7.946,-2.512c3.034,-2.462 5.632,-5.72 7.578,-9.088c-0.748,3.406 -1.87,6.728 -3.33,9.894c-0.57,1.234 -1.054,2.818 -2.484,3.288c-1.122,0.366 -2.11,0.014 -2.552,-1.096c0.412,1.036 0.822,2.07 1.234,3.106c-2.296,1.242 -4.188,2.35 -6.772,2.946c-0.468,-1.152 -0.938,-2.302 -1.406,-3.452c-0.802,1.014 -1.412,2.178 -1.79,3.414c-1.244,-0.318 -2.786,-0.462 -3.944,-0.976c-0.346,-0.156 -2.836,-2.08 -2.488,-2.518c0.928,-1.17 1.858,-2.34 2.786,-3.51c-1.232,0.632 -2.464,1.266 -3.696,1.898c-0.614,-3.428 -0.596,-6.964 0.054,-10.386c0.358,0.26 0.716,0.52 1.076,0.776c1.674,-2.864 3.502,-5.572 6.508,-7.2c-1.11,0.602 -2.166,2.746 -2.888,4.244Z" style="fill:#103766;fill-rule:nonzero;"/>
    <path d="M153.742,163.832c1.384,-2.91 1.176,-5.97 -2.1,-7.364c-1.372,-0.582 -2.906,-0.662 -4.392,-0.576c-5.748,0.336 -11.312,3.142 -14.996,7.568c1.378,-4.518 3.774,-8.278 7.982,-10.42c4.208,-2.142 9.294,-2.496 13.756,-0.952c2.528,0.872 5.602,2.684 4.82,5.684c-0.384,1.484 -1.176,2.896 -2.158,4.062c-0.728,0.866 -2.744,1.732 -3.208,2.574c0.106,-0.192 0.204,-0.384 0.296,-0.576Z" style="fill:#103766;fill-rule:nonzero;"/>
    <path d="M159.236,164.488c1.774,-3.202 2.516,-6.776 2.314,-10.428c-0.176,1.654 -0.612,3.348 -1.128,4.93c-0.592,0.428 -1.176,0.842 -1.85,1.114c-0.832,1.748 -2.268,3.156 -3.896,4.2c-1.63,1.044 -3.452,1.748 -5.288,2.354c-3.172,1.042 -6.492,1.81 -9.848,1.786c-2.5,-0.016 -6.416,-0.388 -7.996,-2.664c-1.372,-1.976 -0.358,-4.664 0.684,-6.832c-0.092,-0.542 -0.25,-1.32 -0.158,-1.862c0.23,-1.336 1.178,-2.238 2.106,-3.226c-3.064,1.898 -5.288,5.128 -5.842,8.686c0.322,0.212 0.356,0.438 0.716,0.576c-0.644,0.242 -1.356,0.704 -2,0.946c0.564,3.764 3.258,7.334 6.914,8.392c0.77,-0.7 1.472,-1.2 2.242,-1.902c0.004,0.768 -0.022,1.482 -0.018,2.248c4.874,0.608 9.946,-0.238 14.284,-2.542c0.218,-0.756 0.334,-1.618 0.552,-2.376c0.328,0.608 0.658,1.214 0.986,1.824c0.224,-0.744 0.502,-1.356 0.728,-2.098c0.318,0.42 0.638,0.84 0.958,1.258c1.9,-0.714 3.526,-1.966 4.73,-3.602c-0.142,-0.632 -0.448,-1.152 -0.566,-1.79c0.3,0.44 0.938,0.702 1.376,1.008Z" style="fill:#103766;fill-rule:nonzero;"/>
    <path d="M122.69,36.196c-0.418,-0 -0.828,-0.048 -1.164,-0.094c-4.81,-0.66 -9.504,-2.16 -13.806,-4.414c-1.176,-0.614 -2.494,-1.63 -2.258,-2.934c0.22,-1.216 1.302,-1.702 2.518,-1.842c0.29,-0.034 0.586,-0.048 0.882,-0.048c0.836,-0 1.654,0.114 2.23,0.224c-2.148,-0.658 -4.4,-0.882 -6.614,-1.266c-2.214,-0.388 -4.45,-0.958 -6.314,-2.212c-0.578,-0.388 -1.128,-0.854 -1.458,-1.466c-0.332,-0.614 -0.41,-1.396 -0.06,-2c0.39,-0.672 1.196,-0.97 1.952,-1.152c1.158,-0.278 2.344,-0.4 3.534,-0.4c1.244,0 2.49,0.132 3.71,0.358c2.392,0.446 4.702,1.24 6.982,2.092c2.074,0.776 4.188,1.638 5.788,3.17c0.366,0.35 0.724,0.802 0.654,1.302c-0.086,0.624 -0.778,0.966 -1.396,1.074c-0.62,0.108 -1.3,0.112 -1.798,0.496c0.032,-0.024 0.08,-0.036 0.144,-0.036c0.544,0 2.136,0.826 2.438,0.968c0.868,0.416 1.694,0.92 2.458,1.504c1.184,0.902 2.28,1.764 3.044,3.068c0.43,0.734 0.974,1.836 0.562,2.69c-0.356,0.736 -1.206,0.918 -2.028,0.918Z" style="fill:url(#_Radial10);"/>
    <path d="M180.048,115.49c-0.062,0 -0.124,-0.004 -0.186,-0.014c-1.01,-0.156 -1.336,-1.44 -1.354,-2.46c-0.08,-4.15 1.194,-8.07 3.366,-11.572c0.776,-1.25 2.91,-4.996 4.708,-4.996c0.586,-0 1.138,0.398 1.594,1.41c0.322,0.716 0.354,1.524 0.328,2.306c-0.184,5.422 -3.04,10.478 -6.816,14.374c-0.452,0.466 -1.012,0.952 -1.64,0.952Z" style="fill:url(#_Radial11);"/>
    <path d="M169.5,42.844c-0.68,0 -1.444,-0.206 -2.08,-0.452c-6.86,-2.658 -13.31,-6.248 -19.056,-10.608c-1.72,-1.306 -4.602,-4.802 -1.522,-5.9c0.868,-0.31 1.896,-0.444 3.002,-0.444c3.668,0 8.21,1.482 10.784,2.954c4.744,2.714 8.53,6.996 10.306,11.778c0.25,0.67 0.452,1.44 0.058,2.026c-0.318,0.474 -0.87,0.646 -1.492,0.646Z" style="fill:url(#_Radial12);"/>
    <path d="M92.908,103.108c-1.696,0 -3.322,-0.496 -4.122,-1.918c-0.954,-1.69 -0.204,-3.81 0.694,-5.53c2.26,-4.332 5.414,-8.422 9.462,-11.206c2.342,-1.61 5.7,-4.624 8.854,-4.624c0.886,0 1.758,0.238 2.586,0.814c1.336,0.93 2.02,2.606 2.062,4.234c0.042,1.628 -0.48,3.22 -1.15,4.706c-2.94,6.51 -8.994,11.532 -15.936,13.218c-0.774,0.188 -1.62,0.306 -2.45,0.306Z" style="fill:url(#_Radial13);"/>
    <path d="M158.6,139.772c-0.522,0 -1.012,-0.134 -1.39,-0.496c-3.39,-3.238 5.474,-13.412 10.502,-13.412c0.768,-0 1.448,0.238 1.978,0.776c1.258,1.27 0.684,3.422 -0.206,4.972c-2.034,3.55 -5.334,6.358 -9.166,7.796c-0.536,0.202 -1.146,0.364 -1.718,0.364Z" style="fill:url(#_Radial14);"/>
    <path d="M198.76,151.482c-1.718,-0.456 -3.438,-0.908 -5.158,-1.364c-1.706,-0.45 1.052,-4.22 1.464,-5.252c0.57,-1.426 3.2,-5.86 3.2,-5.86c0,-0 4.246,4.58 5.28,5.626c-1.594,2.284 -3.19,4.566 -4.786,6.85Z" style="fill:url(#_Radial15);"/>
    <path d="M52.73,28.522c0.542,-0.424 1.086,-0.85 1.636,-1.268l0.09,-0c0.222,-0 0.442,-0.01 0.664,-0.028c-0.59,0.35 -1.168,0.722 -1.73,1.114l-0.66,0.182Z" style="fill:url(#_Radial16);"/>
    <path d="M71.214,38.864c1.386,-2.214 2.798,-4.494 3.284,-7.06c0.488,-2.564 -0.15,-5.516 -2.238,-7.086c-1.278,-0.962 -2.884,-1.274 -4.508,-1.274c-0.69,0 -1.384,0.056 -2.06,0.144c-3.722,0.474 -7.344,1.726 -10.572,3.638c-0.222,0.018 -0.442,0.028 -0.664,0.028l-0.09,-0c1.278,-0.976 2.584,-1.918 3.964,-2.748c1.89,-1.134 3.908,-1.702 6.034,-2.262c2.454,-0.648 4.99,-0.974 7.528,-0.974c1.156,-0 2.312,0.068 3.458,0.204c1.994,0.238 6.89,1.568 5.892,4.542c-0.196,0.586 -0.654,1.04 -1.05,1.514c-0.394,0.476 -0.756,1.056 -0.69,1.668c0.054,0.496 0.52,0.95 0.982,0.95c0.112,-0 0.224,-0.026 0.328,-0.084c-2.738,3.546 -5.826,6.384 -9.598,8.8Z" style="fill:url(#_Radial17);"/>
    <path d="M40.558,54.428c-0.18,0 -0.354,-0.038 -0.498,-0.148c-0.416,-0.314 -0.296,-0.96 -0.114,-1.448c0.818,-2.168 1.66,-3.742 3.932,-4.368c2.902,-0.798 5.74,-1.482 8.772,-1.498c0.408,0 0.926,0.09 1.02,0.486c0.076,0.33 -0.208,0.624 -0.47,0.838c-3.512,2.88 -7.67,4.964 -12.078,6.052c-0.18,0.046 -0.376,0.086 -0.564,0.086Z" style="fill:url(#_Radial18);"/>
    <path d="M170.678,90.71c0.57,-2.866 1.046,-5.77 0.96,-8.69c-0.084,-2.92 -0.762,-5.874 -2.35,-8.328c-2.852,-4.4 -8.264,-6.496 -13.568,-6.496c-0.88,-0 -1.758,0.058 -2.62,0.172c-6.406,0.852 -12.394,4.47 -16.128,9.74c-0.614,-0.044 -1.128,-0.644 -1.742,-0.688c2.994,-8.118 10.212,-14.602 18.534,-16.974c0.472,-0.134 0.972,-0.254 1.458,-0.254c0.288,0 0.57,0.042 0.84,0.146c0.798,0.316 1.284,1.104 1.884,1.716c1.074,1.088 2.566,1.63 3.974,2.222c3.93,1.656 7.762,4.124 9.71,7.916c1.448,2.818 1.714,6.124 1.322,9.266c-0.392,3.142 -1.266,7.25 -2.274,10.252Z" style="fill:url(#_Radial19);"/>
    <path d="M142.206,114.816c-0.472,0 -0.946,-0.072 -1.39,-0.214c-1.614,-0.514 -2.888,-1.756 -3.976,-3.054c-1.568,-1.87 -3.9,-5.382 -3.3,-8.028c0.352,-1.552 1.376,-2.106 2.56,-2.106c1.47,0 3.188,0.854 4.178,1.72c1.442,1.262 2.744,2.68 3.878,4.222c0.634,0.864 1.222,1.784 1.512,2.814c0.29,1.03 0.25,2.194 -0.32,3.1c-0.654,1.044 -1.894,1.546 -3.142,1.546Z" style="fill:url(#_Radial20);"/>
    <path d="M138.654,167.192c-1.074,0 -2.16,-0.13 -3.052,-0.704c-1.99,-1.284 -1.424,-4.278 0.916,-4.706c0.24,-0.044 0.484,-0.062 0.728,-0.062c0.548,0 1.102,0.092 1.646,0.184c3.5,0.59 6.998,1.178 10.498,1.768c0.27,0.044 0.556,0.094 0.77,0.266c0.216,0.174 0.328,0.508 0.166,0.732l-0.376,0.242c-3.388,1.356 -7.01,2.128 -10.658,2.268c-0.21,0.006 -0.424,0.012 -0.638,0.012Z" style="fill:url(#_Radial21);"/>
    <path d="M84.466,12.202c-1.27,-0 -2.542,-0.116 -3.79,-0.35c-0.57,-0.106 -1.268,-0.392 -1.262,-0.972c0.002,-0.476 0.498,-0.782 0.936,-0.97c2.284,-0.996 4.73,-1.524 7.214,-1.524c0.096,0 0.194,0 0.29,0.002c0.068,0.002 0.136,0.002 0.206,0.002c0.396,0 0.8,-0.018 1.208,-0.036c0.406,-0.016 0.814,-0.034 1.22,-0.034c1.38,0 2.714,0.202 3.758,1.286c0.234,0.242 -2.586,1.344 -2.772,1.408c-1.166,0.408 -2.366,0.712 -3.582,0.91c-1.132,0.184 -2.28,0.278 -3.426,0.278Z" style="fill:url(#_Radial22);"/>
    <path d="M14.76,100.922c-0.232,1.004 -0.726,2.218 -1.49,2.06c-0.654,-0.136 -0.92,-1.19 -1.04,-2.07c-0.96,-7.06 -0.874,-14.558 0.4,-21.564c0.348,-1.914 1.11,-7.664 3.5,-6.962c1.08,0.318 1.302,2.242 1.274,3.74c-0.146,8.368 -0.794,16.788 -2.644,24.796Z" style="fill:#0f5280;fill-rule:nonzero;"/>
    <path d="M24.464,105.694c0.244,-3.516 3.926,-11.308 6.89,-4.744c2.69,5.952 3.252,12.838 1.562,19.146c-0.188,0.7 -0.464,1.468 -1.118,1.776c-0.904,0.426 -1.924,-0.27 -2.624,-0.98c-4.128,-4.194 -5.102,-9.558 -4.71,-15.198Z" style="fill:#0f5280;fill-rule:nonzero;"/>
    <path d="M51.164,163.574c-1.738,0.766 -3.81,0.394 -5.468,-0.53c-1.658,-0.924 -2.98,-2.34 -4.246,-3.756c-3.4,-3.804 -6.6,-7.814 -9.302,-12.15c-1.564,-2.512 -3.002,-5.158 -3.83,-8.014c-0.534,-1.836 -2.032,-7.026 0.56,-7.902c0.75,-0.254 1.57,-0.11 2.338,0.084c4.02,1.018 8.012,3.334 11.134,6.052c4.732,4.126 8.462,9.426 10.538,15.366c1.112,3.178 2.35,9.056 -1.724,10.85Z" style="fill:#0f5280;fill-rule:nonzero;"/>
    <path d="M85.876,187.3c-0.282,0.406 -0.808,0.548 -1.294,0.646c-5.772,1.142 -12.492,-0.718 -17.264,-4.144c-4.736,-3.4 -3.568,-10.048 3.118,-7.576c5.482,2.028 11.186,4.316 14.898,8.832c0.526,0.64 1.016,1.562 0.542,2.242Z" style="fill:#0f5280;fill-rule:nonzero;"/>
    <path d="M17.986,107.532c1.072,-0.788 1.758,-2.08 1.814,-3.41c0.054,-1.33 -0.52,-2.672 -1.522,-3.548c0.86,0.446 1.718,0.894 2.578,1.342c1.1,-3.824 1.556,-7.834 1.344,-11.81c-0.018,-0.34 -0.044,-0.69 -0.206,-0.992c-0.16,-0.298 -0.492,-0.534 -0.826,-0.474c1.09,-0.502 2.18,-1.004 3.27,-1.506c-0.916,-0.362 -1.832,-0.724 -2.75,-1.088c-0.252,-1.906 -0.506,-3.812 -0.76,-5.72c0.776,-0.374 1.468,-0.918 2.232,-1.34c0.47,-3.55 0.4,-7.17 -0.212,-10.698c-0.948,0.56 -1.758,1.358 -2.338,2.296c0.898,-1.724 1.126,-3.782 0.628,-5.658c-1.956,1.78 -3.72,3.77 -5.254,5.926c0.728,0.622 1.354,1.058 1.698,1.958c0.352,0.92 0.346,1.752 0.356,2.726c0.014,1.33 0.042,2.658 0.028,3.988c-0.026,2.66 -0.148,5.32 -0.362,7.972c-0.428,5.302 -1.226,10.576 -2.392,15.764c1.07,1.258 1.964,2.604 2.796,4.03l-0.122,0.242Z" style="fill:#116791;fill-rule:nonzero;"/>
    <path d="M30.884,130.07c2.346,0.38 4.454,1.03 6.642,2.156c5.232,2.69 9.644,6.862 12.792,11.814c2.26,3.556 3.544,7.542 4.404,11.64c0.284,1.358 0.214,4.106 1.28,5.1c0.91,0.848 3.232,0.64 4.3,0.512c-0.082,-1.272 0.172,-6.032 -1.532,-6.392c-0.92,-0.194 -1.84,-0.388 -2.762,-0.582c0.5,-0.722 1.274,-1.246 2.13,-1.446c-0.876,-3.126 -2.182,-6.132 -3.858,-8.912c-0,-0.86 -1.66,-2.674 -2.116,-3.368c-1.056,-1.61 -2.266,-2.98 -3.494,-4.454c-0.9,0.29 -1.808,0.656 -2.724,0.874c0.238,-0.528 0.238,-0.95 0.354,-1.502c0.122,-0.568 0.26,-1.152 -0.082,-1.678c-0.178,-0.276 -0.456,-0.468 -0.728,-0.654c-0.554,-0.378 -1.106,-0.754 -1.658,-1.132c-0.346,-0.238 -0.704,-0.48 -1.116,-0.562c-0.314,-0.062 -0.636,-0.01 -0.904,0.164c-0.292,0.19 -0.474,0.276 -0.832,0.38c0.024,-0.536 0.048,-1.074 0.072,-1.608c-1.93,-1.228 -4.034,-2.18 -6.228,-2.822c-0.312,-0.09 -4.758,-0.764 -4.63,-1.172c-0.354,1.136 -0.71,2.272 -1.064,3.41c0.6,0.064 1.184,0.14 1.754,0.234Z" style="fill:#116791;fill-rule:nonzero;"/>
    <path d="M13.048,96.836c1.372,-3.016 1.372,-6.384 1.218,-9.628c-0.08,-1.674 -0.212,-3.348 -0.234,-5.024c-0.016,-1.254 0.488,-3.12 0.036,-4.278c-1.164,2.74 -1.35,6.386 -1.508,9.348c-0.086,1.598 -0.088,3.202 -0.006,4.802c0.04,0.82 0.104,1.638 0.19,2.454c0.052,0.498 0.496,1.902 0.304,2.326Z" style="fill:#116791;fill-rule:nonzero;"/>
    <path d="M47.104,160.688c1.242,0.242 2.478,-0.002 2.916,-1.382c0.368,-1.154 -0.552,-2.288 -1.406,-3.146c-5.584,-5.628 -11.388,-11.036 -17.392,-16.21c0.356,0.31 0.506,2.124 0.666,2.63c0.314,0.996 0.672,2.014 1.146,2.948c1.532,3.01 3.684,5.346 5.716,7.972c1.696,2.188 3.626,4.196 5.746,5.978c0.59,0.496 1.6,1.016 2.608,1.21Z" style="fill:#116791;fill-rule:nonzero;"/>
    <path d="M39.686,85.64c0.606,-1.218 1.616,-2.54 2.97,-2.424c1.094,0.094 2.358,1.516 2.83,2.424c-0.008,-2.152 0.57,-4.304 1.652,-6.164c0.36,-0.62 0.844,-1.252 1.546,-1.394c0.656,-0.134 1.338,0.224 1.762,0.744c0.424,0.518 0.634,1.176 0.804,1.824c0.798,3.034 0.88,6.256 0.238,9.326c-0.13,0.624 -0.316,1.284 -0.802,1.696c-0.784,0.66 -2.048,0.36 -2.77,-0.366c-0.72,-0.726 -1.032,-1.752 -1.318,-2.734c0.526,4.41 -0.022,9.058 -2.074,13.034c-0.446,0.866 -1.15,1.806 -2.124,1.76c-0.592,-0.028 -1.096,-0.432 -1.516,-0.852c-4.672,-4.672 -3.902,-11.432 -1.198,-16.874Z" style="fill:#0f5280;fill-rule:nonzero;"/>
    <path d="M62.25,141.788c0.39,0.348 0.876,0.688 1.39,0.592c0.748,-0.138 1.026,-1.058 1.072,-1.818c0.146,-2.388 -0.524,-4.784 -1.638,-6.902c-0.54,-1.026 -1.438,-2.128 -2.588,-1.982c-0.634,0.08 -1.174,0.556 -1.438,1.138c-1.346,2.966 1.054,7.054 3.202,8.972Z" style="fill:#0f5280;fill-rule:nonzero;"/>
    <path d="M88.624,179.57c-1.96,-2.06 -10.582,-5.726 -9.072,0.01c0.872,3.306 3.452,4.15 6.608,4.286c2.858,0.126 4.848,-1.79 2.464,-4.296Z" style="fill:#0f5280;fill-rule:nonzero;"/>
    <path d="M121.674,193.248c3.016,-0.252 6.048,-0.606 8.97,-1.42c1.516,-0.424 2.974,-0.98 4.392,-1.656c0.572,-0.274 2.618,-2.244 2.922,-2.206c-5.78,-0.716 -11.78,0.46 -16.862,3.306c-0.548,0.308 -1.172,0.852 -0.946,1.438c0.208,0.542 0.946,0.586 1.524,0.538Z" style="fill:#0f5280;fill-rule:nonzero;"/>
    <defs>
        <radialGradient id="_Radial1" cx="0" cy="0" r="1" gradientUnits="userSpaceOnUse" gradientTransform="matrix(218.846,0,0,218.846,153.976,54.79)"><stop offset="0" style="stop-color:#15a1c8;stop-opacity:1"/><stop offset="0.7" style="stop-color:#0d4675;stop-opacity:1"/><stop offset="1" style="stop-color:#0b93bf;stop-opacity:1"/></radialGradient>
        <radialGradient id="_Radial2" cx="0" cy="0" r="1" gradientUnits="userSpaceOnUse" gradientTransform="matrix(218.846,0,0,218.846,153.976,54.79)"><stop offset="0" style="stop-color:#22b6d5;stop-opacity:1"/><stop offset="0.7" style="stop-color:#1a6f96;stop-opacity:1"/><stop offset="1" style="stop-color:#18acce;stop-opacity:1"/></radialGradient>
        <radialGradient id="_Radial3" cx="0" cy="0" r="1" gradientUnits="userSpaceOnUse" gradientTransform="matrix(218.846,0,0,218.846,153.976,54.79)"><stop offset="0" style="stop-color:#22b6d5;stop-opacity:1"/><stop offset="0.7" style="stop-color:#1a6f96;stop-opacity:1"/><stop offset="1" style="stop-color:#18acce;stop-opacity:1"/></radialGradient>
        <radialGradient id="_Radial4" cx="0" cy="0" r="1" gradientUnits="userSpaceOnUse" gradientTransform="matrix(218.846,0,0,218.846,153.976,54.79)"><stop offset="0" style="stop-color:#22b6d5;stop-opacity:1"/><stop offset="0.7" style="stop-color:#1a6f96;stop-opacity:1"/><stop offset="1" style="stop-color:#18acce;stop-opacity:1"/></radialGradient>
        <radialGradient id="_Radial5" cx="0" cy="0" r="1" gradientUnits="userSpaceOnUse" gradientTransform="matrix(182.885,0,0,182.885,155.296,38.53)"><stop offset="0" style="stop-color:#15a1c8;stop-opacity:1"/><stop offset="0.6" style="stop-color:#0e4978;stop-opacity:1"/><stop offset="1" style="stop-color:#0e4474;stop-opacity:1"/></radialGradient>
        <radialGradient id="_Radial6" cx="0" cy="0" r="1" gradientUnits="userSpaceOnUse" gradientTransform="matrix(218.846,0,0,218.846,153.976,54.79)"><stop offset="0" style="stop-color:#22b6d5;stop-opacity:1"/><stop offset="0.7" style="stop-color:#1a6f96;stop-opacity:1"/><stop offset="1" style="stop-color:#18acce;stop-opacity:1"/></radialGradient>
        <radialGradient id="_Radial7" cx="0" cy="0" r="1" gradientUnits="userSpaceOnUse" gradientTransform="matrix(218.846,0,0,218.846,153.976,54.79)"><stop offset="0" style="stop-color:#0a81b0;stop-opacity:1"/><stop offset="0.7" style="stop-color:#073867;stop-opacity:1"/><stop offset="1" style="stop-color:#0677a8;stop-opacity:1"/></radialGradient>
        <radialGradient id="_Radial8" cx="0" cy="0" r="1" gradientUnits="userSpaceOnUse" gradientTransform="matrix(218.846,0,0,218.846,153.976,54.79)"><stop offset="0" style="stop-color:#0a81b0;stop-opacity:1"/><stop offset="0.7" style="stop-color:#073867;stop-opacity:1"/><stop offset="1" style="stop-color:#0677a8;stop-opacity:1"/></radialGradient>
        <radialGradient id="_Radial9" cx="0" cy="0" r="1" gradientUnits="userSpaceOnUse" gradientTransform="matrix(218.846,0,0,218.846,153.976,54.79)"><stop offset="0" style="stop-color:#0a81b0;stop-opacity:1"/><stop offset="0.7" style="stop-color:#073867;stop-opacity:1"/><stop offset="1" style="stop-color:#0677a8;stop-opacity:1"/></radialGradient>
        <radialGradient id="_Radial10" cx="0" cy="0" r="1" gradientUnits="userSpaceOnUse" gradientTransform="matrix(218.846,0,0,218.846,153.976,54.79)"><stop offset="0" style="stop-color:#2dc6df;stop-opacity:1"/><stop offset="0.7" style="stop-color:#268faf;stop-opacity:1"/><stop offset="1" style="stop-color:#24bfda;stop-opacity:1"/></radialGradient>
        <radialGradient id="_Radial11" cx="0" cy="0" r="1" gradientUnits="userSpaceOnUse" gradientTransform="matrix(218.846,0,0,218.846,153.976,54.79)"><stop offset="0" style="stop-color:#2dc6df;stop-opacity:1"/><stop offset="0.7" style="stop-color:#268faf;stop-opacity:1"/><stop offset="1" style="stop-color:#24bfda;stop-opacity:1"/></radialGradient>
        <radialGradient id="_Radial12" cx="0" cy="0" r="1" gradientUnits="userSpaceOnUse" gradientTransform="matrix(218.846,0,0,218.846,153.976,54.79)"><stop offset="0" style="stop-color:#2dc6df;stop-opacity:1"/><stop offset="0.7" style="stop-color:#268faf;stop-opacity:1"/><stop offset="1" style="stop-color:#24bfda;stop-opacity:1"/></radialGradient>
        <radialGradient id="_Radial13" cx="0" cy="0" r="1" gradientUnits="userSpaceOnUse" gradientTransform="matrix(218.846,0,0,218.846,153.976,54.79)"><stop offset="0" style="stop-color:#22b6d5;stop-opacity:1"/><stop offset="0.7" style="stop-color:#1a6f96;stop-opacity:1"/><stop offset="1" style="stop-color:#18acce;stop-opacity:1"/></radialGradient>
        <radialGradient id="_Radial14" cx="0" cy="0" r="1" gradientUnits="userSpaceOnUse" gradientTransform="matrix(218.846,0,0,218.846,153.976,54.79)"><stop offset="0" style="stop-color:#22b6d5;stop-opacity:1"/><stop offset="0.7" style="stop-color:#1a6f96;stop-opacity:1"/><stop offset="1" style="stop-color:#18acce;stop-opacity:1"/></radialGradient>
        <radialGradient id="_Radial15" cx="0" cy="0" r="1" gradientUnits="userSpaceOnUse" gradientTransform="matrix(218.846,0,0,218.846,153.976,54.79)"><stop offset="0" style="stop-color:#22b6d5;stop-opacity:1"/><stop offset="0.7" style="stop-color:#1a6f96;stop-opacity:1"/><stop offset="1" style="stop-color:#18acce;stop-opacity:1"/></radialGradient>
        <radialGradient id="_Radial16" cx="0" cy="0" r="1" gradientUnits="userSpaceOnUse" gradientTransform="matrix(218.846,0,0,218.846,153.976,54.79)"><stop offset="0" style="stop-color:#22b6d5;stop-opacity:1"/><stop offset="0.7" style="stop-color:#1a6f96;stop-opacity:1"/><stop offset="1" style="stop-color:#18acce;stop-opacity:1"/></radialGradient>
        <radialGradient id="_Radial17" cx="0" cy="0" r="1" gradientUnits="userSpaceOnUse" gradientTransform="matrix(218.846,0,0,218.846,153.976,54.79)"><stop offset="0" style="stop-color:#2dc6df;stop-opacity:1"/><stop offset="0.7" style="stop-color:#268faf;stop-opacity:1"/><stop offset="1" style="stop-color:#24bfda;stop-opacity:1"/></radialGradient>
        <radialGradient id="_Radial18" cx="0" cy="0" r="1" gradientUnits="userSpaceOnUse" gradientTransform="matrix(218.846,0,0,218.846,153.976,54.79)"><stop offset="0" style="stop-color:#22b6d5;stop-opacity:1"/><stop offset="0.7" style="stop-color:#1a6f96;stop-opacity:1"/><stop offset="1" style="stop-color:#18acce;stop-opacity:1"/></radialGradient>
        <radialGradient id="_Radial19" cx="0" cy="0" r="1" gradientUnits="userSpaceOnUse" gradientTransform="matrix(218.846,0,0,218.846,153.976,54.79)"><stop offset="0" style="stop-color:#2dc6df;stop-opacity:1"/><stop offset="0.7" style="stop-color:#268faf;stop-opacity:1"/><stop offset="1" style="stop-color:#24bfda;stop-opacity:1"/></radialGradient>
        <radialGradient id="_Radial20" cx="0" cy="0" r="1" gradientUnits="userSpaceOnUse" gradientTransform="matrix(218.846,0,0,218.846,153.976,54.79)"><stop offset="0" style="stop-color:#22b6d5;stop-opacity:1"/><stop offset="0.7" style="stop-color:#1a6f96;stop-opacity:1"/><stop offset="1" style="stop-color:#18acce;stop-opacity:1"/></radialGradient>
        <radialGradient id="_Radial21" cx="0" cy="0" r="1" gradientUnits="userSpaceOnUse" gradientTransform="matrix(218.846,0,0,218.846,153.976,54.79)"><stop offset="0" style="stop-color:#22b6d5;stop-opacity:1"/><stop offset="0.7" style="stop-color:#1a6f96;stop-opacity:1"/><stop offset="1" style="stop-color:#18acce;stop-opacity:1"/></radialGradient>
        <radialGradient id="_Radial22" cx="0" cy="0" r="1" gradientUnits="userSpaceOnUse" gradientTransform="matrix(218.846,0,0,218.846,153.976,54.79)"><stop offset="0" style="stop-color:#2dc6df;stop-opacity:1"/><stop offset="0.7" style="stop-color:#268faf;stop-opacity:1"/><stop offset="1" style="stop-color:#24bfda;stop-opacity:1"/></radialGradient>
    </defs>
</svg>
