<?xml version="1.0" encoding="UTF-8" standalone="no"?>
<!DOCTYPE svg PUBLIC "-//W3C//DTD SVG 1.1//EN" "http://www.w3.org/Graphics/SVG/1.1/DTD/svg11.dtd">
<svg width="100%" height="100%" viewBox="0 0 211 213" version="1.1" xmlns="http://www.w3.org/2000/svg" xmlns:xlink="http://www.w3.org/1999/xlink" xml:space="preserve" xmlns:serif="http://www.serif.com/" style="fill-rule:evenodd;clip-rule:evenodd;stroke-linejoin:round;stroke-miterlimit:2;">
    <path d="M104.948,201.304c-0.716,0 -1.432,-0.008 -2.144,-0.026c-0.228,-0.606 -0.474,-1.206 -0.74,-1.8c1.484,-0.934 2.588,-2.326 2.846,-4.076c0.464,-3.156 -1.866,-6.002 -4.248,-8.122c-9.94,-8.846 -22.898,-12.944 -36.052,-15.856c0.35,0.006 0.7,0.008 1.048,0.008c17.828,0 35.93,-6.138 50.596,-16.582c-1.294,1.516 -2.396,3.194 -3.244,5.002c-3.474,7.386 -2.666,16.612 2.036,23.282c1.436,2.036 3.224,3.89 4.086,6.228c0.86,2.34 0.422,5.438 -1.772,6.618c-1.298,0.7 -2.862,0.57 -4.332,0.694c-1.47,0.126 -3.126,0.716 -3.602,2.11c-0.33,0.96 -0.242,1.752 0.116,2.394c-0.146,0.01 -0.294,0.02 -0.444,0.03l-0,0.004c-1.376,0.06 -2.758,0.092 -4.15,0.092Zm34.154,-6.456c0.808,-1.822 1.346,-3.782 1.562,-5.844c0.236,-2.274 0.054,-4.676 -0.916,-6.714c1.084,-0.478 1.688,-1.91 1.162,-4.532c-0.284,-1.416 -0.8,-2.806 -0.784,-4.25c0.034,-3.582 3.66,-6.342 7.236,-6.342c0.446,0 0.888,0.042 1.324,0.132c3.948,0.802 6.846,4.51 7.662,8.452c0.728,3.516 0.07,7.16 -1.1,10.574c-3.98,2.558 -8.572,5.146 -14.992,8.062c-0.386,0.158 -0.766,0.31 -1.154,0.462Zm-104.818,-25.968c-2.428,-2.818 -4.688,-5.784 -6.77,-8.882c2.608,2.024 5.536,3.68 8.542,5.078c0.988,0.464 1.988,0.89 2.992,1.298c-0.384,-0.06 -0.772,-0.1 -1.154,-0.1c-0.456,0 -0.906,0.058 -1.338,0.21c-1.434,0.51 -2.102,1.384 -2.272,2.396Zm153.246,-17.52c-0.578,-0.958 -1.206,-1.886 -1.882,-2.78c0.086,0.086 0.174,0.168 0.27,0.246c0.702,0.584 1.566,0.856 2.454,0.89c-0.274,0.55 -0.556,1.1 -0.842,1.644Zm-64.194,-2.168c9.926,-8.97 17.606,-20.916 16.878,-34.04c-0.256,-4.606 -1.486,-9.516 0.592,-13.634c1.552,-3.086 4.734,-5.07 8.014,-6.158c2.334,-0.77 4.744,-1.132 7.158,-1.132c9.092,0 18.228,5.126 23.518,12.728c6.692,9.62 7.876,22.286 5.422,33.746c-0.506,2.37 -1.016,5.2 0.152,7.136c-1.358,-1.69 -2.892,-3.24 -4.574,-4.602c-6.412,-5.18 -14.658,-7.716 -22.93,-7.716c-3.88,0 -7.768,0.558 -11.472,1.664c-1.344,0.41 -2.666,0.872 -3.96,1.41c-4.75,1.95 -9.14,4.722 -13.028,8.082c-0.192,0.168 -0.386,0.336 -0.578,0.508c-1.802,0.458 -3.546,1.138 -5.192,2.008Zm-50.256,-31.472c-4.492,0 -8.984,-0.344 -13.422,-1.028c-6.858,-1.056 -14.002,-3.174 -18.582,-8.386c-3.422,-3.894 -5.88,-8.83 -6.128,-14.054c-0.128,-2.69 0.452,-5.692 2.614,-7.296c1.258,-0.934 2.788,-1.252 4.424,-1.252c3.318,0 7.078,1.306 9.934,1.43c0.628,0.028 1.256,0.042 1.886,0.042c5.39,0 10.788,-1.012 15.724,-3.21c10.326,-4.602 18.332,-14.802 18.916,-26.092c0.182,-3.54 -0.26,-7.374 1.652,-10.36c1.906,-2.974 5.686,-4.212 9.232,-4.212c0.11,0 0.218,0.002 0.328,0.004c3.638,0.078 7.166,1.204 10.762,1.772c0.464,0.074 0.964,0.116 1.466,0.116c1.746,0 3.52,-0.52 3.974,-2.072c0.334,0.032 0.668,0.05 1.002,0.05c0.518,-0 1.036,-0.042 1.554,-0.134c0.304,-0.056 0.598,-0.128 0.896,-0.232c1.286,-0.416 2.47,-1.24 3.294,-2.312c0.864,-1.11 1.352,-2.982 1.12,-4.382c-0.108,-0.668 -0.662,-1.308 -1.32,-1.308c-0.034,0 -0.068,0.002 -0.104,0.006c-0.888,0.094 -1.256,1.158 -1.856,1.814c-0.366,0.4 -0.854,0.672 -1.358,0.864c-0.688,0.272 -1.598,0.44 -2.518,0.44c-1.22,0 -2.458,-0.296 -3.224,-1.04c-0.56,-0.544 -0.864,-1.56 -1.184,-2.272c-0.456,-1.038 -0.856,-2.11 -1.342,-3.134c-2.886,-6.032 -9.472,-10.028 -16.126,-10.028c-0.702,0 -1.408,0.044 -2.108,0.136c-7.324,0.952 -13.698,6.98 -15.066,14.242c-0.174,0.926 -0.166,1.938 -0.178,2.95c-1.024,0.16 -1.916,1.16 -2.708,1.954c-1.968,1.974 -4.752,2.97 -7.532,2.97c-2.592,-0 -5.182,-0.866 -7.104,-2.616c-2.47,-2.246 -3.576,-5.646 -3.228,-8.928c0.162,-1.512 1.484,-3.394 1.95,-5.052c3.042,-1.664 6.372,-3.31 9.81,-4.8c2.036,-0.882 4.112,-1.706 6.19,-2.442c2.618,-0.898 5.29,-1.682 8.008,-2.346c0.016,-0.004 0.032,-0.008 0.046,-0.01l-0,-0.002c5.236,-1.278 10.646,-2.112 16.188,-2.464l-0.002,0.002c0.052,-0.004 0.106,-0.008 0.158,-0.012c0.928,-0.058 1.86,-0.1 2.796,-0.13c0.206,-0.004 0.406,-0.006 0.606,-0.006c0.69,0 1.348,0.02 1.976,0.056c0.87,3.68 7.212,6.87 10.042,8.876c4.498,3.192 9.168,6.142 13.98,8.836c7.258,4.064 14.842,7.548 22.658,10.398c7.902,2.882 15.936,6.324 24.23,7.854c0.336,0.062 0.69,0.12 1.032,0.12c0.334,0 0.658,-0.054 0.952,-0.208c0.278,-0.144 0.492,-0.364 0.646,-0.628c2.394,3.022 4.608,6.194 6.62,9.502c-10.212,-7.576 -22.634,-12.188 -35.332,-13.022c-1.41,-0.092 -2.822,-0.138 -4.234,-0.138c-8.2,0 -16.392,1.532 -24.068,4.424c-4.542,1.712 -8.916,3.894 -13.004,6.526c-3.956,2.55 -7.954,4.822 -11.37,8.172c-1.36,1.336 -2.616,2.784 -3.694,4.352c-1.232,1.782 -2.272,3.854 -2.974,6.036c-0.138,0.43 -0.264,0.864 -0.376,1.3c-1.05,0.316 -2.044,0.994 -2.814,1.79c-2.556,2.648 -3.532,6.714 -2.456,10.234c1.09,3.558 3.96,6.226 6.434,9.008c2.476,2.78 4.762,6.252 4.252,9.94c-0.418,3.03 -2.724,5.552 -5.444,6.952c-2.722,1.4 -5.824,1.846 -8.876,2.11c-2.534,0.22 -5.076,0.33 -7.62,0.33Zm-46.282,-51.696c0.06,-0.536 0.118,-1.072 0.174,-1.608c0.128,0.292 0.26,0.582 0.398,0.87c-0.198,0.242 -0.388,0.488 -0.572,0.738Z" style="fill:url(#_Radial1);"/>
    <path d="M109.542,201.178c-0.358,-0.642 -0.446,-1.434 -0.116,-2.394c0.476,-1.394 2.132,-1.984 3.602,-2.11c1.47,-0.124 3.034,0.006 4.332,-0.694c2.194,-1.18 2.632,-4.278 1.772,-6.618c-0.862,-2.338 -2.65,-4.192 -4.086,-6.228c-4.702,-6.67 -5.51,-15.896 -2.036,-23.282c0.848,-1.808 1.95,-3.486 3.244,-5.002c-14.666,10.444 -32.768,16.582 -50.596,16.582c-0.348,0 -0.698,-0.002 -1.048,-0.008c13.154,2.912 26.112,7.01 36.052,15.856c2.382,2.12 4.712,4.966 4.248,8.122c-0.258,1.75 -1.362,3.142 -2.846,4.076c-3.384,-7.562 -9.766,-13.906 -17.26,-17.384c-8.14,-3.776 -17.216,-5.078 -26.182,-5.422c-4.686,-0.176 -9.436,-0.11 -13.976,-1.278c-4.214,-1.084 -6.356,-1.962 -10.366,-6.492c0.002,-0.008 0.002,-0.014 0.004,-0.022c0.17,-1.012 0.838,-1.886 2.272,-2.396c0.432,-0.152 0.882,-0.21 1.338,-0.21c0.382,0 0.77,0.04 1.154,0.1c-1.004,-0.408 -2.004,-0.834 -2.992,-1.298c-3.006,-1.398 -5.934,-3.054 -8.542,-5.078c-2.884,-4.3 -5.424,-8.848 -7.576,-13.612c0.19,0.166 0.382,0.328 0.574,0.49c4.054,3.39 8.46,7.014 12.936,9.9c9.01,5.82 18.752,8.514 28.916,8.514c3.296,0 6.64,-0.284 10.014,-0.836c10.244,-1.68 20.464,-4.056 29.9,-8.382c9.444,-4.326 18.122,-10.716 23.99,-19.28c2.936,-4.288 5.178,-9.316 5.18,-14.472c-0,-0.546 -0.026,-1.094 -0.078,-1.642c-0.4,-4.214 -2.326,-8.028 -4.262,-11.85c-1.72,-3.4 -3.454,-6.806 -4.126,-10.508l-0.008,-0.032c-0.122,-0.682 -0.18,-1.36 -0.18,-2.03c0.006,-5.454 3.91,-10.386 8.626,-12.956c4.76,-2.602 10.334,-3.26 15.772,-3.26c0.262,-0 0.526,0.002 0.788,0.004c11.298,0.12 22.558,2.632 32.844,7.31c8.698,3.958 12.802,12.802 14.192,22.262c0.358,2.426 0.51,4.87 0.51,7.316c-0,3.048 -0.234,6.102 -0.596,9.128c-0.512,4.23 -0.96,8.362 -2.16,12.466c-1.014,3.44 -2.432,7.804 -4.27,11.192c-0.044,-0.002 -0.086,-0.002 -0.128,-0.004c-0.888,-0.034 -1.752,-0.306 -2.454,-0.89c-0.096,-0.078 -0.184,-0.16 -0.27,-0.246c-0.188,-0.25 -0.382,-0.498 -0.578,-0.742c-1.168,-1.936 -0.658,-4.766 -0.152,-7.136c2.454,-11.46 1.27,-24.126 -5.422,-33.746c-5.29,-7.602 -14.426,-12.728 -23.518,-12.728c-2.414,0 -4.824,0.362 -7.158,1.132c-3.28,1.088 -6.462,3.072 -8.014,6.158c-2.078,4.118 -0.848,9.028 -0.592,13.634c0.728,13.124 -6.952,25.07 -16.878,34.04c1.646,-0.87 3.39,-1.55 5.192,-2.008c-4.578,4.054 -9.25,9.298 -11.774,14.814c-1.906,4.158 -2.576,8.868 -1.866,13.388c0.282,1.79 0.84,3.662 2.224,4.83c1.872,1.584 4.654,1.438 6.828,2.558c3.04,1.568 3.472,5.284 2.864,8.35c-0.718,3.662 -3.078,6.972 -6.308,8.844c-3.63,0.726 -6.642,0.922 -10.954,1.21Zm45.706,-14.854c1.17,-3.414 1.828,-7.058 1.1,-10.574c-0.816,-3.942 -3.714,-7.65 -7.662,-8.452c-0.436,-0.09 -0.878,-0.132 -1.324,-0.132c-3.576,0 -7.202,2.76 -7.236,6.342c-0.016,1.444 0.5,2.834 0.784,4.25c0.526,2.622 -0.078,4.054 -1.162,4.532c-0.206,-0.436 -0.45,-0.854 -0.734,-1.25c-1.326,-1.864 -3.364,-3.072 -5.028,-4.64c-3.15,-2.966 -3.326,-7.678 -0.76,-11.098c1.352,-1.81 2.99,-3.232 4.814,-4.312c3.11,-1.834 6.752,-2.658 10.426,-2.658c1.994,0 3.998,0.244 5.928,0.7c3.456,0.814 6.74,3.406 8.204,6.636c1.052,2.336 1.908,4.774 1.908,8.06c-0,1.956 -0.302,4.212 -1.044,6.926c-2.726,1.952 -5.306,3.804 -8.214,5.67Zm-83.616,-64.576c-3.844,0 -7.682,-0.38 -11.434,-1.262c-1.47,-0.342 -2.95,-0.766 -4.43,-1.262c-11.202,-3.728 -22.134,-11.58 -26.868,-22.4c-3.456,-7.908 -3.944,-15.89 -2.88,-24.35c0.268,-2.138 0.536,-4.29 0.778,-6.45c0.184,-0.25 0.374,-0.496 0.572,-0.738c1.38,2.886 3.24,5.538 5.528,7.78c5.402,5.31 12.988,8.208 20.558,8.208c2.358,0 4.718,-0.282 7.006,-0.86c8.766,-2.198 18.568,-8.068 21.512,-17.146c1.248,-3.844 1.104,-7.996 1.752,-11.986c0.806,-5.022 3.382,-8.476 7.308,-11.508c2.218,-1.706 5.014,-2.632 7.808,-2.632c0.846,0 1.69,0.086 2.516,0.258c2.976,0.622 5.614,2.28 8.324,3.654c1.94,0.99 4.044,1.852 6.178,2.068c-0.454,1.552 -2.228,2.072 -3.974,2.072c-0.502,0 -1.002,-0.042 -1.466,-0.116c-3.596,-0.568 -7.124,-1.694 -10.762,-1.772c-0.11,-0.002 -0.218,-0.004 -0.328,-0.004c-3.546,0 -7.326,1.238 -9.232,4.212c-1.912,2.986 -1.47,6.82 -1.652,10.36c-0.584,11.29 -8.59,21.49 -18.916,26.092c-4.936,2.198 -10.334,3.21 -15.724,3.21c-0.63,0 -1.258,-0.014 -1.886,-0.042c-2.856,-0.124 -6.616,-1.43 -9.934,-1.43c-1.636,0 -3.166,0.318 -4.424,1.252c-2.162,1.604 -2.742,4.606 -2.614,7.296c0.248,5.224 2.706,10.16 6.128,14.054c4.58,5.212 11.724,7.33 18.582,8.386c4.438,0.684 8.93,1.028 13.422,1.028c2.544,0 5.086,-0.11 7.62,-0.33c3.052,-0.264 6.154,-0.71 8.876,-2.11c2.72,-1.4 5.026,-3.922 5.444,-6.952c0.51,-3.688 -1.776,-7.16 -4.252,-9.94c-2.474,-2.782 -5.344,-5.45 -6.434,-9.008c-1.076,-3.52 -0.1,-7.586 2.456,-10.234c0.77,-0.796 1.764,-1.474 2.814,-1.79c-1.166,4.59 -0.776,9.504 2.438,13.198c2.926,3.36 6.862,5.55 9.196,9.452c1.712,2.848 2.52,6.238 2.232,9.55c-0.192,2.222 -1.542,4.15 -3.248,5.622l-0.008,0.008c-0.608,0.526 -1.254,0.99 -1.91,1.39c-4.918,2.998 -12.188,3.736 -17.002,4.438c-3.194,0.464 -6.434,0.734 -9.67,0.734Zm104.806,-70.708c-0.342,0 -0.696,-0.058 -1.032,-0.12c-8.294,-1.53 -16.328,-4.972 -24.23,-7.854c-7.816,-2.85 -15.4,-6.334 -22.658,-10.398c-4.812,-2.694 -9.482,-5.644 -13.98,-8.836c-2.83,-2.006 -9.172,-5.196 -10.042,-8.876c8.702,0.502 11.65,4.348 18.038,7.866c15.354,8.444 31.268,15.89 47.588,22.254c3.124,1.214 5.458,2.038 7.94,5.084c-0.01,0.014 -0.018,0.03 -0.026,0.044c-0.154,0.264 -0.368,0.484 -0.646,0.628c-0.294,0.154 -0.618,0.208 -0.952,0.208Zm-113.362,-2.046c-0.608,0 -1.204,-0.032 -1.782,-0.096c-1.776,-0.19 -3.528,-0.774 -4.982,-1.806c-0.456,-0.328 -0.88,-0.688 -1.272,-1.104c-1,-1.062 -1.718,-2.382 -2.246,-3.742c-1.504,-3.846 -1.44,-8.638 1.39,-11.636c1.242,-1.318 2.826,-2.558 4.408,-3.43c0.042,-0.024 0.084,-0.046 0.128,-0.07c-0.466,1.658 -1.788,3.54 -1.95,5.052c-0.348,3.282 0.758,6.682 3.228,8.928c1.922,1.75 4.512,2.616 7.104,2.616c2.78,-0 5.564,-0.996 7.532,-2.97c0.792,-0.794 1.684,-1.794 2.708,-1.954c-0.02,1.688 -0.094,3.376 -1.15,4.672c-2.94,3.62 -8.38,5.54 -13.116,5.54Z" style="fill:url(#_Radial2);"/>
    <path d="M64.53,152.722c-3.29,0 -6.58,-0.2 -9.842,-0.602c0.376,-1.24 0.422,-2.57 0.018,-3.894c2.46,0.726 5.022,1.09 7.586,1.09c2.472,0 4.944,-0.338 7.32,-1.016c1.896,-0.54 3.926,-1.482 4.616,-3.324c0.664,-1.774 -0.19,-3.814 -1.53,-5.15c-2.06,-2.054 -4.692,-2.666 -7.406,-3.076c5.176,-0.35 10.708,-1.594 13.426,-5.886c0.734,-1.158 1.01,-2.714 0.33,-3.904c-0.936,-1.648 -3.144,-1.944 -5.036,-2.02c-0.788,-0.032 -1.58,-0.046 -2.374,-0.046c-1.634,0 -3.28,0.056 -4.926,0.11c-1.648,0.056 -3.296,0.11 -4.936,0.11c-3.392,0 -6.746,-0.234 -9.974,-1.194c-5.084,-1.508 -10.018,-3.618 -14.976,-5.49c-1.094,-0.412 -2.426,-0.818 -3.67,-0.818c-1.284,0 -2.472,0.432 -3.206,1.734c-0.916,1.628 0.21,3.5 1.084,4.912c1.832,2.956 4.322,5.29 7.204,7.104c3.508,2.206 7.594,3.646 11.764,4.5c-0.51,0.388 -0.944,0.866 -1.258,1.436c-0.818,1.48 -0.508,3.58 0.772,4.6c-5.194,-3.126 -10.444,-5.296 -16.202,-7.046c-0.386,-0.12 -0.778,-0.238 -1.17,-0.352c-1.4,-0.404 -2.822,-0.742 -4.274,-0.76l-0.12,0c-1.822,0 -3.716,0.566 -4.942,1.908c-1.002,1.098 -1.42,2.568 -1.39,4.066c-2.64,-1.778 -5.17,-3.722 -7.564,-5.818c0.85,0.552 1.746,0.888 2.66,0.888c0.558,0 1.12,-0.126 1.684,-0.396c2.788,-1.352 2.72,-3.552 1.26,-6.016c-1.808,-3.056 -3.754,-6.248 -6.85,-7.982c-0.752,-0.424 -1.646,-0.738 -2.494,-0.738c-0.546,0 -1.072,0.13 -1.528,0.444c-1.216,0.836 -1.342,2.51 -1.054,4.008c0.046,0.236 0.102,0.47 0.166,0.696c0.504,1.762 1.938,4.736 3.84,6.984c-2.548,-2.432 -4.924,-5.042 -7.094,-7.818c-5.532,-14.396 -5.142,-30.404 -2.902,-45.662c1.142,-7.758 4.216,-15.33 9.196,-21.424c2.446,-2.99 5.352,-5.598 8.62,-7.654c1.672,-1.04 3.44,-1.942 5.262,-2.67c0.186,-0.074 0.36,-0.136 0.526,-0.184c-0.384,2.146 -0.6,4.306 -0.602,6.426c-0.002,1.232 0.07,2.448 0.22,3.642c0.35,2.744 1.096,5.44 2.208,7.976c-0.056,0.536 -0.114,1.072 -0.174,1.608c-0.242,2.16 -0.51,4.312 -0.778,6.45c-1.064,8.46 -0.576,16.442 2.88,24.35c4.734,10.82 15.666,18.672 26.868,22.4c1.48,0.496 2.96,0.92 4.43,1.262c3.752,0.882 7.59,1.262 11.434,1.262c3.236,0 6.476,-0.27 9.67,-0.734c4.814,-0.702 12.084,-1.44 17.002,-4.438c0.656,-0.4 1.302,-0.864 1.91,-1.39l0.008,-0.008c1.706,-1.472 3.056,-3.4 3.248,-5.622c0.288,-3.312 -0.52,-6.702 -2.232,-9.55c-2.334,-3.902 -6.27,-6.092 -9.196,-9.452c-3.214,-3.694 -3.604,-8.608 -2.438,-13.198c0.112,-0.436 0.238,-0.87 0.376,-1.3c0.702,-2.182 1.742,-4.254 2.974,-6.036c1.078,-1.568 2.334,-3.016 3.694,-4.352c3.416,-3.35 7.414,-5.622 11.37,-8.172c4.088,-2.632 8.462,-4.814 13.004,-6.526c7.676,-2.892 15.868,-4.424 24.068,-4.424c1.412,0 2.824,0.046 4.234,0.138c12.698,0.834 25.12,5.446 35.332,13.022c3.002,2.228 5.814,4.714 8.386,7.434c1.726,1.832 3.35,3.766 4.854,5.79c5.558,7.5 9.476,16.21 11.412,25.342c2.142,10.1 0.688,22.31 -3.44,32.684c-0.87,-1.736 -2.342,-3.19 -3.414,-4.848c-3.024,-4.654 -2.832,-10.596 -3.67,-16.074c-1.92,-12.41 -9.796,-23.526 -20.224,-30.522c-10.116,-6.784 -22.436,-9.87 -34.624,-9.87c-0.384,0 -0.77,0.002 -1.154,0.008c-4.982,0.08 -10.14,0.712 -14.418,3.28c-4.406,2.638 -7.54,7.308 -8.326,12.38c-0.654,4.238 0.362,9.426 2.944,13.01l-0.008,-0.032c-0.122,-0.682 -0.18,-1.36 -0.18,-2.03c-0,0.67 0.058,1.348 0.18,2.03l0.008,0.032c0.672,3.702 2.406,7.108 4.126,10.508c1.936,3.822 3.862,7.636 4.262,11.85c0.052,0.548 0.078,1.096 0.078,1.642c-0,-0.546 -0.026,-1.094 -0.078,-1.642c-0.4,-4.214 -2.326,-8.028 -4.262,-11.85c-1.16,0.614 -1.584,2.558 -1.712,4.078c-0.316,3.782 -1.38,7.452 -3.01,10.88c-0.304,0.196 -0.598,0.41 -0.878,0.628c-2.538,1.966 -4.61,4.526 -6.006,7.414c-1.336,-0.73 -2.308,-1.99 -3.804,-1.99c-0.188,0 -0.384,0.02 -0.592,0.062c-1.7,0.358 -3.06,1.868 -4.162,3.108c-0.676,0.764 -1.304,1.588 -1.708,2.526c-0.6,1.388 -0.636,3.156 0.306,4.408c0.32,0.428 0.728,0.76 1.19,1c-3.754,2.43 -7.814,4.42 -11.978,6.054c-9.598,3.774 -19.918,5.726 -30.224,5.726Zm36.146,-35.534c-0.444,0 -0.898,0.1 -1.24,0.236c-1.946,0.774 -3.518,2.27 -5.488,2.99c-2.196,0.804 -4.696,1.084 -6.98,1.586c-3.948,0.87 -4.35,7.288 0.128,7.328l0.082,0c3.354,0 6.476,-1.868 9.002,-3.916c2.074,-1.682 4.398,-3.422 5.668,-5.826c0.23,-0.436 0.43,-0.926 0.334,-1.408c-0.154,-0.746 -0.816,-0.99 -1.506,-0.99Zm-90.328,-23.56c-0.02,-0 -0.04,-0 -0.06,0.002c-1.57,0.042 -2.526,1.76 -2.852,3.298c-0.37,1.754 0.612,10.312 3.566,10.312c0.494,0.002 1.044,-0.238 1.652,-0.79c2.446,-2.22 1.72,-7.512 0.64,-10.152c-0.532,-1.304 -1.55,-2.67 -2.946,-2.67Zm164.188,-27.17c-3.232,0 -5.46,4.01 -3.988,6.922c0.73,1.44 2.17,2.422 3.7,2.938c0.95,0.32 1.952,0.48 2.954,0.48c1.224,0 2.448,-0.238 3.578,-0.71c1.46,-0.608 2.878,-1.818 2.922,-3.4c0.094,-3.336 -5.748,-5.668 -8.438,-6.162c-0.246,-0.046 -0.49,-0.068 -0.728,-0.068Zm-66.828,-4.248l-0.022,0c-2.02,0.008 -4.126,1.508 -5.614,2.774c-2.164,1.84 -7.128,7.39 -3.43,10.026c0.43,0.306 0.944,0.44 1.47,0.44c0.65,0 1.318,-0.204 1.876,-0.546c1.01,-0.616 1.736,-1.594 2.436,-2.548c1.564,-2.13 3.126,-4.258 4.69,-6.388c1.462,-1.99 1.278,-3.758 -1.406,-3.758Zm66.388,2.236c1.556,0.75 3.086,1.552 4.588,2.408c2.794,1.588 5.784,3.408 8.914,3.408c0.432,0 0.864,-0.036 1.3,-0.11c0.982,-0.166 2.124,-0.838 1.98,-1.826c-0.07,-0.496 -0.46,-0.88 -0.832,-1.218c-1.262,-1.144 -2.56,-2.236 -3.89,-3.276c-0.73,-0.744 -1.632,-1.494 -2.5,-1.864c-3.968,-2.824 -8.198,-5.202 -12.612,-7.124c-4.168,-2.82 -9.762,-5.028 -15.106,-5.028c-0.534,0 -1.066,0.022 -1.596,0.068c-4.076,-0.692 -8.222,-1.04 -12.396,-1.04c-3.662,-0 -7.342,0.268 -11.012,0.808c-3.938,0.58 -7.518,1.622 -10.826,3.874c-1.546,1.056 -5.698,4.39 -1.668,5.246c0.244,0.052 0.49,0.074 0.736,0.074c0.68,0 1.366,-0.164 2.036,-0.322c3.362,-0.784 6.776,-1.34 10.21,-1.67c0.19,0.076 0.382,0.144 0.576,0.206c1.164,0.376 2.39,0.564 3.614,0.564c1.402,0 2.802,-0.246 4.116,-0.732c0.3,-0.112 0.6,-0.24 0.886,-0.392c1.628,0.032 3.258,0.112 4.882,0.242c0.04,0.296 0.116,0.592 0.234,0.88c0.536,1.328 1.774,2.226 2.992,2.978c5.582,3.438 12.136,5.282 18.692,5.282c0.63,0 1.26,-0.018 1.89,-0.052c1.67,-0.09 3.512,-0.414 4.792,-1.384Zm13.492,86.812c0.314,-0.482 0.618,-0.998 0.912,-1.538c1.838,-3.388 3.256,-7.752 4.27,-11.192c1.2,-4.104 1.648,-8.236 2.16,-12.466c0.362,-3.026 0.596,-6.08 0.596,-9.128c-0,3.048 -0.234,6.102 -0.596,9.128c-0.512,4.23 -0.96,8.362 -2.16,12.466c-1.174,3.99 -2.896,9.22 -5.182,12.73Z" style="fill:url(#_Radial3);"/>
    <path d="M55.768,119.224c-3.462,0.648 -7.116,0.342 -10.5,-0.696c-9.236,-2.84 -17.2,-11.524 -22.67,-19.192c-3.086,-4.336 -5.478,-9.294 -6.366,-14.508c-0.216,-1.278 -0.336,-2.574 -0.36,-3.886c-0.088,-4.822 5.102,-24.422 11.828,-26.548c-0.186,6.044 -0.936,12.114 -1.68,18.08c-1.064,8.46 -0.576,16.442 2.88,24.35c4.734,10.82 15.666,18.672 26.868,22.4Z" style="fill:url(#_Radial4);"/>
    <path d="M62.364,165.29c-10.164,0 -19.906,-2.694 -28.916,-8.514c-4.476,-2.886 -8.882,-6.51 -12.936,-9.9c-0.192,-0.162 -0.384,-0.324 -0.574,-0.49c-4.332,-3.766 -8.17,-8.616 -11.118,-13.48c-1.752,-2.896 -3.2,-5.878 -4.376,-8.94c2.17,2.776 4.546,5.386 7.094,7.818c0.714,0.838 1.494,1.578 2.316,2.112c2.394,2.096 4.924,4.04 7.564,5.818c0.022,1.074 0.276,2.162 0.71,3.136c2.738,6.134 9.768,10.458 15.582,13.218c2.37,1.126 4.898,2.022 7.518,2.126c0.152,0.006 0.304,0.008 0.456,0.008c2.478,0 5.008,-0.782 6.774,-2.51c1.032,-1.008 1.822,-2.238 2.23,-3.572c3.262,0.402 6.552,0.602 9.842,0.602c10.306,0 20.626,-1.952 30.224,-5.726c4.164,-1.634 8.224,-3.624 11.978,-6.054c0.646,0.336 1.396,0.494 2.158,0.494c0.738,0 1.488,-0.148 2.16,-0.428c1.86,-0.774 3.276,-2.31 4.63,-3.806c0.556,1.152 1.808,1.928 3.082,1.928c0.042,0 0.084,0 0.126,-0.002c2.2,-0.086 4.254,-1.586 5.9,-3.654c1.842,-2.32 5.35,-7.794 3.698,-10.82c-0.58,-1.06 -1.722,-1.788 -2.926,-1.87c-0.082,-0.006 -0.166,-0.008 -0.248,-0.008c-1.04,0 -2.028,0.432 -2.926,1.01c1.63,-3.428 2.694,-7.098 3.01,-10.88c0.128,-1.52 0.552,-3.464 1.712,-4.078c1.936,3.822 3.862,7.636 4.262,11.85c0.052,0.548 0.078,1.096 0.078,1.642c-0.002,5.156 -2.244,10.184 -5.18,14.472c-5.868,8.564 -14.546,14.954 -23.99,19.28c-9.436,4.326 -19.656,6.702 -29.9,8.382c-3.374,0.552 -6.718,0.836 -10.014,0.836Zm42.58,-16.87c-1.726,0 -3.442,0.588 -4.836,1.602c-1.164,0.846 -3.214,2.71 -1.968,4.298c0.428,0.546 1.15,0.802 1.844,0.804l0.018,0c0.686,0 1.356,-0.216 1.998,-0.466c1.42,-0.554 2.764,-1.286 4.04,-2.116c0.526,-0.342 1.054,-0.712 1.408,-1.226c0.356,-0.514 0.512,-1.21 0.246,-1.776c-0.344,-0.734 -1.24,-1.01 -2.044,-1.086c-0.236,-0.022 -0.47,-0.034 -0.706,-0.034Z" style="fill:url(#_Radial5);"/>
    <path d="M104.598,111.402c-1.154,1.56 -2.664,2.848 -4.376,3.776c1.706,-1.472 3.056,-3.4 3.248,-5.622c0.288,-3.312 -0.52,-6.702 -2.232,-9.55c-2.334,-3.902 -6.27,-6.092 -9.196,-9.452c-3.52,-4.046 -3.654,-9.556 -2.062,-14.498c0.28,1.824 0.974,3.584 1.918,5.158c2.046,3.406 5.118,6.054 7.972,8.82c2.856,2.768 5.616,5.862 6.75,9.668c1.176,3.936 0.4,8.39 -2.022,11.7Z" style="fill:url(#_Radial6);"/>
    <path d="M187.588,151.258c2.286,-3.51 4.008,-8.74 5.182,-12.73c1.2,-4.104 1.648,-8.236 2.16,-12.466c0.362,-3.026 0.596,-6.08 0.596,-9.128c-0,-2.446 -0.152,-4.89 -0.51,-7.316c-1.39,-9.46 -5.494,-18.304 -14.192,-22.262c-10.286,-4.678 -21.546,-7.19 -32.844,-7.31c-0.262,-0.002 -0.526,-0.004 -0.788,-0.004c-5.438,-0 -11.012,0.658 -15.772,3.26c-4.716,2.57 -8.62,7.502 -8.626,12.956c-0,0.67 0.058,1.348 0.18,2.03l0.008,0.032c-2.582,-3.584 -3.598,-8.772 -2.944,-13.01c0.786,-5.072 3.92,-9.742 8.326,-12.38c4.278,-2.568 9.436,-3.2 14.418,-3.28c0.384,-0.006 0.77,-0.008 1.154,-0.008c12.188,0 24.508,3.086 34.624,9.87c10.428,6.996 18.304,18.112 20.224,30.522c0.838,5.478 0.646,11.42 3.67,16.074c1.072,1.658 2.544,3.112 3.414,4.848c-1.534,3.854 -3.43,7.46 -5.654,10.604c-3.142,4.452 -7.38,8.212 -12.626,9.698Z" style="fill:url(#_Radial7);"/>
    <path d="M179.208,51.714c-0.388,-0.576 -0.768,-1.09 -1.146,-1.554c-2.482,-3.046 -4.816,-3.87 -7.94,-5.084c-16.32,-6.364 -32.234,-13.81 -47.588,-22.254c-6.388,-3.518 -9.336,-7.364 -18.038,-7.866c-0.628,-0.036 -1.286,-0.056 -1.976,-0.056c-0.2,0 -0.4,0.002 -0.606,0.006c-0.878,0.012 -1.806,0.056 -2.796,0.13c-0.052,0.004 -0.106,0.008 -0.158,0.012l0.002,-0.002c2.542,-4.628 6.564,-8.162 11.274,-10.514l0.512,-0.256c4.94,-2.342 10.386,-3.454 15.832,-3.974c2.082,-0.198 4.19,-0.302 6.302,-0.302c11.11,0 22.336,2.88 30.628,10.122c3.846,3.358 6.918,7.518 9.876,11.692c3.158,4.446 6.286,9.052 7.79,14.298c0.374,1.328 0.654,2.71 0.806,4.102c0.44,4.102 -0.248,8.302 -2.774,11.5Zm-7.33,-24.75c0.528,0.616 1.102,1.194 1.718,1.724c0.202,0.176 0.46,0.352 0.712,0.352c0.074,0 0.146,-0.014 0.216,-0.05c0.356,-0.178 0.328,-0.69 0.222,-1.072c-0.428,-1.544 -1.26,-2.936 -2.288,-4.174c-2.43,-5.17 -6.17,-9.832 -10.712,-13.33c-1.612,-1.694 -3.662,-2.994 -5.914,-3.794c-3.178,-1.778 -6.69,-3.398 -9.936,-4.242c-0.53,-0.138 -1.286,-0.214 -2.146,-0.214c-0.146,0 -0.296,0.004 -0.448,0.008c-0.138,-0.066 -0.282,-0.12 -0.424,-0.17c-1.462,-0.512 -3.226,-0.828 -4.942,-0.828c-1.114,0 -2.206,0.134 -3.184,0.432c-1.106,0.334 -1.144,1.34 -0.192,1.996c0.552,0.38 1.236,0.644 1.944,0.826c-0.496,0.652 -0.624,1.458 -0.172,2.44c0.844,1.838 3.656,2.946 5.694,3.8c0.154,0.584 0.452,1.144 0.786,1.652c1.376,2.102 3.38,3.738 5.566,4.978c2.186,1.24 4.56,2.108 6.942,2.912c1.802,0.608 3.728,1.184 5.6,1.184c0.592,0 1.18,-0.058 1.756,-0.19c1.368,0.886 2.732,1.78 4.114,2.664c1.66,1.06 3.342,2.104 5.088,3.096Z" style="fill:url(#_Radial8);"/>
    <path d="M117.264,207.826c-2.148,0 -4.268,-0.298 -5.998,-1.7c-1.486,-1.208 -2.62,-3.054 -2.168,-4.914l-0,-0.004c0.15,-0.01 0.298,-0.02 0.444,-0.03c4.312,-0.288 7.324,-0.484 10.954,-1.21c3.23,-1.872 5.59,-5.182 6.308,-8.844c0.608,-3.066 0.176,-6.782 -2.864,-8.35c-2.174,-1.12 -4.956,-0.974 -6.828,-2.558c-1.384,-1.168 -1.942,-3.04 -2.224,-4.83c-0.71,-4.52 -0.04,-9.23 1.866,-13.388c2.524,-5.516 7.196,-10.76 11.774,-14.814c0.192,-0.172 0.386,-0.34 0.578,-0.508c3.888,-3.36 8.278,-6.132 13.028,-8.082c1.294,-0.538 2.616,-1 3.96,-1.41c3.704,-1.106 7.592,-1.664 11.472,-1.664c8.272,0 16.518,2.536 22.93,7.716c1.682,1.362 3.216,2.912 4.574,4.602c0.196,0.244 0.39,0.492 0.578,0.742c0.676,0.894 1.304,1.822 1.882,2.78c4.412,7.316 5.924,16.376 3.226,24.456c-2.36,7.062 -7.502,12.86 -13.162,17.698c-5.416,4.622 -11.692,8.668 -18.754,9.572c-0.778,0.1 -1.574,0.148 -2.376,0.148c-1.268,0 -2.554,-0.122 -3.822,-0.356c0.104,-0.888 0.312,-1.768 0.728,-2.654c1.368,-2.952 3.75,-5.32 6.198,-7.374c2.71,-2.28 5.444,-4.55 7.868,-7.14c1.16,-1.24 2.254,-2.568 3.232,-3.982c1.734,-2.536 3.062,-5.328 3.63,-8.334c0.88,-4.686 -0.354,-9.932 -3.928,-13.082c-0.018,-0.018 -0.038,-0.034 -0.058,-0.052c2.176,-1.582 2.32,-4.96 0.582,-7.028c-1,-1.188 -2.394,-1.984 -3.832,-2.574c-1.268,-0.518 -2.648,-0.896 -4.004,-0.896c-0.686,0 -1.364,0.096 -2.018,0.318c-1.952,0.66 -3.522,2.742 -3.028,4.742c0.144,0.58 0.434,1.094 0.808,1.552c-2.426,-0.31 -4.872,-0.464 -7.312,-0.464c-0.37,0 -0.742,0.004 -1.112,0.01c-3.2,0.064 -6.166,1.08 -9.094,2.344c-1.302,0.558 -2.734,1.52 -3.262,2.726c-1.824,1.08 -3.462,2.502 -4.814,4.312c-2.566,3.42 -2.39,8.132 0.76,11.098c1.664,1.568 3.702,2.776 5.028,4.64c0.284,0.396 0.528,0.814 0.734,1.25c0.97,2.038 1.152,4.44 0.916,6.714c-0.216,2.062 -0.754,4.022 -1.562,5.844c-3.248,7.338 -10.822,12.432 -18.942,12.868c-0.776,0.04 -1.576,0.088 -2.368,0.104c-0.176,0.004 -0.352,0.006 -0.528,0.006Zm19.4,-14.042c-0.756,0 -1.838,0.898 -2.348,1.388c-1.698,1.63 -3.54,2.85 -4.982,4.77c-0.322,0.426 -0.634,0.882 -0.728,1.408c-0.094,0.524 0.086,1.134 0.554,1.392c0.178,0.098 0.374,0.136 0.574,0.136c0.272,0 0.552,-0.068 0.812,-0.15c2.846,-0.9 5.078,-3.228 6.434,-5.888c0.252,-0.496 0.482,-1.022 0.496,-1.578c0.028,-1.102 -0.324,-1.478 -0.812,-1.478Zm49.88,-21.046c-0.566,0 -1.174,0.16 -1.786,0.502c-6.642,3.712 -11.662,10.216 -13.572,17.576c-0.342,1.332 -0.438,3.056 0.744,3.754c0.286,0.17 0.594,0.242 0.91,0.242c1.31,0 2.77,-1.242 3.6,-1.962c3.048,-2.64 6.066,-5.282 8.552,-8.482c1.722,-2.22 4.314,-5.322 4.348,-8.292c0.022,-2.076 -1.214,-3.338 -2.796,-3.338Zm-48.532,12.824c-0.05,0 -0.1,0.004 -0.15,0.014c-0.63,0.122 -0.836,0.912 -0.886,1.556c-0.068,0.862 -0.606,4.166 0.706,4.166c0.038,0 0.08,-0.002 0.122,-0.008c1.682,-0.242 1.77,-3.614 1.348,-4.696c-0.198,-0.506 -0.622,-1.032 -1.14,-1.032Zm45.198,-27.264c-0.344,0 -0.686,0.044 -1.018,0.142c-1.898,0.554 -2.98,2.75 -2.744,4.712c0.27,2.24 3.326,6.398 6.07,6.398c0.706,0 1.392,-0.274 2.002,-0.928c2.588,-2.766 0.998,-8.116 -2.064,-9.732c-0.69,-0.364 -1.472,-0.592 -2.246,-0.592Zm-49.238,-2.222c-1.054,0 -2.126,0.22 -2.852,0.646c-2.914,1.702 -6.078,4.944 -5.754,8.576l0.056,0.436c0.154,0.922 0.56,1.862 1.348,2.362c0.41,0.26 0.754,0.37 1.048,0.37c1.062,0 1.472,-1.434 2.024,-2.356c1.044,-1.754 2.618,-3.276 4.3,-4.414c0.824,-0.558 1.716,-1.048 2.374,-1.798c2.29,-2.62 -0.084,-3.822 -2.544,-3.822Zm27.508,-18.256c-3.148,0 -6.288,0.394 -8.894,0.924c-2.346,0.48 -6.728,2.314 -6.076,5.358c0.538,2.516 4.216,3.156 6.286,3.212c10.132,0.28 20.93,0.572 29.286,6.308c0.728,0.5 1.66,1.034 2.476,1.034c0.372,0 0.722,-0.112 1.016,-0.388c0.926,-0.872 0.246,-2.412 -0.524,-3.424c-3.426,-4.51 -8.28,-8.352 -13.276,-10.97c-2.874,-1.508 -6.59,-2.054 -10.294,-2.054Zm-21.86,12.828c-0.048,0 -0.096,0 -0.144,0.002c-1.198,0.058 -4.586,0.942 -3.972,2.66c0.264,0.74 0.906,0.996 1.65,0.996c1.114,0 2.454,-0.574 3.086,-0.942c0.65,-0.382 1.314,-1.052 1.114,-1.778c-0.186,-0.686 -1.008,-0.938 -1.734,-0.938Z" style="fill:url(#_Radial9);"/>
    <path d="M129.06,184.214c1.264,1.782 0.496,4.822 -0.088,6.804c-0.45,1.496 -1.104,2.936 -1.936,4.264c-1.736,2.774 -4.246,5.06 -7.246,6.388c-1.478,0.656 -3.318,1.384 -3.548,2.998c-0.152,1.058 0.52,2.064 1.254,2.848l0.296,0.304c-2.328,0.048 -4.654,-0.176 -6.526,-1.694c-1.488,-1.21 -2.622,-3.058 -2.168,-4.918c4.552,-0.306 7.646,-0.488 11.398,-1.24c3.23,-1.872 5.59,-5.182 6.308,-8.844c0.608,-3.064 0.176,-6.782 -2.864,-8.35c-2.174,-1.12 -4.956,-0.974 -6.828,-2.558c-1.384,-1.168 -1.942,-3.04 -2.224,-4.83c-0.71,-4.52 -0.04,-9.23 1.866,-13.388c2.63,-5.75 7.594,-11.202 12.352,-15.322c3.888,-3.36 8.278,-6.132 13.028,-8.082c-5.222,3.716 -10.356,7.594 -14.618,12.362c-4.942,5.54 -8.684,12.474 -9.036,19.894c-0.184,3.928 0.92,8.38 4.342,10.324c1.848,1.05 4.926,1.2 6.238,3.04Z" style="fill:url(#_Radial10);"/>
    <path d="M152.642,202.878c-5.198,-0.984 -10.108,-3.942 -12.386,-8.492c11.106,-5.046 16.746,-9.108 23.206,-13.732c0.742,-2.714 1.044,-4.97 1.044,-6.926c-0,-3.286 -0.856,-5.724 -1.908,-8.06c-1.464,-3.23 -4.748,-5.822 -8.204,-6.636c-1.93,-0.456 -3.934,-0.7 -5.928,-0.7c-3.674,0 -7.316,0.824 -10.426,2.658c0.528,-1.206 1.96,-2.168 3.262,-2.726c2.928,-1.264 5.894,-2.28 9.094,-2.344c0.37,-0.006 0.742,-0.01 1.112,-0.01c2.44,0 4.886,0.154 7.312,0.464c0.52,0.636 1.204,1.168 1.892,1.626c1.754,1.172 4.7,3.046 7.178,3.046c0.472,0 0.928,-0.068 1.356,-0.224c0.398,-0.144 0.754,-0.334 1.066,-0.562c0.02,0.018 0.04,0.034 0.058,0.052c3.574,3.15 4.808,8.396 3.928,13.082c-0.568,3.006 -1.896,5.798 -3.63,8.334c-0.978,1.414 -2.072,2.742 -3.232,3.982c-2.424,2.59 -5.158,4.86 -7.868,7.14c-2.448,2.054 -4.83,4.422 -6.198,7.374c-0.416,0.886 -0.624,1.766 -0.728,2.654Zm14.294,-39.874c-1.616,0 -0.874,4.106 -0.852,5.272c0.008,0.518 0.018,1.042 0.186,1.532c0.17,0.488 0.526,0.938 1.02,1.086c0.122,0.038 0.242,0.054 0.362,0.054c0.666,0 1.304,-0.518 1.694,-1.098c1.328,-1.984 0.754,-4.992 -1.208,-6.352c-0.5,-0.346 -0.894,-0.494 -1.202,-0.494Z" style="fill:url(#_Radial11);"/>
    <path d="M80.438,212.16c-4.846,0 -10.264,-2.256 -14.674,-3.948c-4.886,-1.88 -9.564,-4.326 -13.898,-7.27c-6.75,-4.574 -13.122,-9.916 -15.874,-17.776c-0.902,-2.584 -1.51,-5.254 -1.926,-7.956c-0.378,-2.464 -0.6,-4.952 -0.76,-7.438c0.338,0.4 0.662,0.776 0.974,1.13c4.01,4.53 6.152,5.408 10.366,6.492c4.54,1.168 9.29,1.102 13.976,1.278c8.966,0.344 18.042,1.646 26.182,5.422c7.494,3.478 13.876,9.822 17.26,17.384c0.266,0.594 0.512,1.194 0.74,1.8c0.02,0.054 0.04,0.106 0.058,0.16c-1.694,2.558 -3.744,4.558 -6.046,6.102c-4.472,3.016 -9.916,4.302 -15.602,4.6c-0.256,0.012 -0.516,0.02 -0.776,0.02Zm-12.14,-5.97c1.328,0.546 2.494,0.956 3.128,1.17c1.012,0.342 2.074,0.638 3.134,0.638c0.298,0 0.594,-0.022 0.89,-0.076c1.348,-0.242 2.648,-1.252 2.81,-2.61c0.104,-0.906 -0.304,-1.81 -0.906,-2.492c-0.6,-0.68 -1.382,-1.174 -2.164,-1.64c-2.068,-1.238 -4.302,-2.376 -6.632,-2.874c-2.976,-2.14 -6.602,-3.382 -10.268,-3.43c-0.052,-0.002 -0.104,-0.002 -0.156,-0.002c-1.488,0 -3.122,0.306 -3.98,1.508c-0.668,0.936 -0.678,2.236 -0.234,3.298c1.076,2.576 4.278,4.18 6.728,5.14c2.298,0.9 4.762,1.374 7.23,1.374c0.14,0 0.28,0 0.42,-0.004Zm21.468,-3.164c-2.512,0 -5.022,0.726 -7.262,1.884c-0.394,0.204 -0.788,0.428 -1.07,0.77c-1.528,1.86 1.496,2.136 3.146,2.136c0.362,0 0.658,-0.014 0.826,-0.026c2.396,-0.176 4.748,-1.008 6.7,-2.412c0.466,-0.334 0.958,-0.836 0.814,-1.392c-0.14,-0.536 -0.782,-0.746 -1.33,-0.828c-0.606,-0.088 -1.216,-0.132 -1.824,-0.132Zm-43.182,-11.778c-0.23,0 -0.446,0.054 -0.622,0.202c-0.386,0.326 -0.358,0.93 -0.212,1.414c0.324,1.086 1.044,2.022 1.896,2.772c0.662,0.582 1.976,1.762 3.076,1.762c0.288,0 0.562,-0.082 0.804,-0.274c1.476,-1.176 0.176,-3.084 -0.888,-3.946c-0.98,-0.794 -2.11,-1.406 -3.312,-1.792c-0.236,-0.076 -0.496,-0.138 -0.742,-0.138Z" style="fill:url(#_Radial12);"/>
    <path d="M53.354,74.13c-0.49,0 -0.982,-0.014 -1.47,-0.042c2.642,-2.836 2.74,-7.486 0.936,-10.948c-1.298,-2.486 -3.38,-4.436 -5.756,-5.966c0.596,0.366 1.216,0.696 1.86,0.984c1.94,0.872 4.082,1.32 6.214,1.32c2.888,0 5.756,-0.824 8.076,-2.538c0.768,-0.566 1.52,-1.314 1.606,-2.264c0.172,-1.864 -2.086,-2.866 -3.894,-3.354c-6.574,-1.772 -13.382,-4.252 -15.006,-11.574c-0.534,-2.408 -0.662,-4.89 -1.194,-7.298c-0.296,-1.338 -0.932,-2.858 -2.272,-3.144c-0.138,-0.03 -0.274,-0.044 -0.408,-0.044c-1.312,0 -2.414,1.334 -2.812,2.656c-1.532,5.07 -1.944,10.25 -0.068,15.324c1.446,3.918 4.084,7.464 7.57,9.724c-0.942,-0.586 -1.926,-1.106 -2.922,-1.57c-1.634,-0.76 -3.352,-1.404 -5.146,-1.566c-0.272,-0.024 -0.544,-0.036 -0.818,-0.036c-1.538,0 -3.086,0.398 -4.308,1.316c-1.626,1.224 -2.512,3.244 -2.752,5.262c-0.076,0.636 -0.122,1.262 -0.14,1.876c-3.688,-5.374 -5.342,-12.158 -4.638,-18.626c0.224,-2.008 0.968,-4 1.616,-5.998c-1.852,4.8 -3.08,10.102 -3.084,15.174c0.002,-2.12 0.218,-4.28 0.602,-6.426c0.538,-2.99 1.404,-5.954 2.482,-8.748l0.04,-0.096c0.624,-1.608 1.328,-3.16 2.072,-4.622c2.822,-5.558 6.988,-10.396 12.202,-13.818c4.774,-3.136 10.244,-4.734 15.778,-5.886c2.684,-0.556 5.482,-0.882 8.276,-0.882c1.87,0 3.736,0.146 5.566,0.466c2.32,0.408 6.62,2.19 11.212,4.724l-0,0.002c-0.014,0.002 -0.03,0.006 -0.046,0.01c-2.618,0.588 -5.316,1.392 -8.008,2.346c-2.078,0.736 -4.154,1.56 -6.19,2.442c-3.438,1.49 -6.768,3.136 -9.81,4.8c-0.044,0.024 -0.086,0.046 -0.128,0.07c-1.582,0.872 -3.166,2.112 -4.408,3.43c-2.83,2.998 -2.894,7.79 -1.39,11.636c0.528,1.36 1.246,2.68 2.246,3.742c0.392,0.416 0.816,0.776 1.272,1.104c1.454,1.032 3.206,1.616 4.982,1.806c0.578,0.064 1.174,0.096 1.782,0.096c4.736,0 10.176,-1.92 13.116,-5.54c1.056,-1.296 1.13,-2.984 1.15,-4.672c0.012,-1.012 0.004,-2.024 0.178,-2.95c1.368,-7.262 7.742,-13.29 15.066,-14.242c0.7,-0.092 1.406,-0.136 2.108,-0.136c6.654,0 13.24,3.996 16.126,10.028c0.486,1.024 0.886,2.096 1.342,3.134c0.32,0.712 0.624,1.728 1.184,2.272c0.766,0.744 2.004,1.04 3.224,1.04c0.92,0 1.83,-0.168 2.518,-0.44c0.504,-0.192 0.992,-0.464 1.358,-0.864c0.6,-0.656 0.968,-1.72 1.856,-1.814c0.036,-0.004 0.07,-0.006 0.104,-0.006c0.658,0 1.212,0.64 1.32,1.308c0.232,1.4 -0.256,3.272 -1.12,4.382c-0.824,1.072 -2.008,1.896 -3.294,2.312c-7.95,-1.374 -14.288,-9.382 -22.174,-9.382c-0.428,0 -0.86,0.024 -1.296,0.074c-5.64,0.64 -9.878,5.55 -12.26,10.698c-2.392,5.144 -3.544,10.836 -6.294,15.794c-3.246,5.846 -8.748,10.35 -15.038,12.584c-0.67,-0.184 -1.606,-0.29 -2.624,-0.29c-2.266,-0 -4.946,0.52 -6.07,1.844c-0.068,-0 -0.134,0.002 -0.202,0.002Zm-18.958,-33.75c-0.462,0 -0.936,0.15 -1.324,0.404c-0.688,0.45 -1.148,1.174 -1.49,1.918c-0.218,0.472 -0.4,0.97 -0.542,1.482c-0.572,2.07 -0.462,4.37 0.918,6.08c0.748,0.924 1.59,1.35 2.436,1.35c0.978,0 1.96,-0.572 2.794,-1.602c1.906,-2.356 0.366,-5.656 -0.776,-8.006c-0.25,-0.512 -0.54,-1.036 -1.018,-1.346c-0.298,-0.194 -0.644,-0.28 -0.998,-0.28Zm48.85,-11.082c-0.646,0.536 -1.278,1.928 -1.454,2.608c-0.062,0.248 -0.098,0.526 0.028,0.748c0.124,0.226 0.39,0.346 0.648,0.36c0.022,0.002 0.042,0.002 0.064,0.002c0.236,-0 0.466,-0.072 0.69,-0.15c0.532,-0.19 1.054,-0.432 1.478,-0.806c0.424,-0.374 0.744,-0.888 0.794,-1.45c0.036,-0.43 -0.118,-0.836 -0.382,-1.134c0.61,-0.174 1.124,-0.496 1.672,-0.762c0.404,-0.198 0.828,-0.364 1.268,-0.504c0.156,0.112 0.326,0.206 0.5,0.276c0.634,0.256 1.336,0.272 2.022,0.284c2,0.034 4.002,0.07 6.002,0.104c0.082,0.002 0.164,0.002 0.248,0.002c0.152,0 0.308,-0.002 0.464,-0.008l0.006,0.404c0.12,0.508 0.592,0.848 1.058,1.078c0.84,0.414 1.776,0.628 2.714,0.628c0.352,0 0.704,-0.03 1.05,-0.092c0.356,-0.064 0.736,-0.178 0.952,-0.47c0.19,-0.262 0.206,-0.624 0.1,-0.932c-0.052,-0.142 -0.126,-0.274 -0.216,-0.396c0.182,0 0.362,-0.01 0.544,-0.03c0.892,-0.1 1.778,-0.536 1.99,-1.19c0.282,-0.874 -0.682,-1.68 -1.604,-2.26c-1.908,-1.2 -4.042,-2.256 -6.454,-2.74c-0.76,-0.152 -1.546,-0.224 -2.342,-0.224c-4.37,0 -9.078,2.13 -11.502,4.632c-0.564,0.58 -1.026,1.416 -0.408,1.964c0.022,0.02 0.046,0.038 0.07,0.058Zm-17.276,-15.892c-0.292,0 -0.582,0.008 -0.874,0.026c-2.282,0.132 -4.532,0.78 -6.544,1.868c-0.262,0.14 -0.576,0.336 -0.888,0.562c-1.258,0.908 -2.482,2.306 0.018,2.584c2.276,0.254 4.566,0.38 6.856,0.38c3.002,0 6.004,-0.218 8.976,-0.65c0.804,-0.118 1.828,-0.52 1.748,-1.328c-0.138,-1.37 -3.366,-2.32 -4.424,-2.664c-1.568,-0.512 -3.218,-0.778 -4.868,-0.778Z" style="fill:url(#_Radial13);"/>
    <path d="M53.456,81.274c-7.57,0 -15.156,-2.898 -20.558,-8.208c-2.288,-2.242 -4.148,-4.894 -5.528,-7.78c-0.138,-0.288 -0.27,-0.578 -0.398,-0.87c-1.112,-2.536 -1.858,-5.232 -2.208,-7.976c-0.15,-1.194 -0.222,-2.41 -0.22,-3.642c0.004,-5.072 1.232,-10.374 3.084,-15.174c-0.648,1.998 -1.392,3.99 -1.616,5.998c-0.704,6.468 0.95,13.252 4.638,18.626c-0.082,3.144 0.664,6.03 2.784,8.576c1.49,1.79 3.808,3.452 6.378,4.534c1.864,0.786 3.862,1.264 5.774,1.264c2.246,0 4.376,-0.662 6.034,-2.266c0.09,-0.088 0.178,-0.176 0.264,-0.268c0.488,0.028 0.98,0.042 1.47,0.042c0.068,0 0.134,-0.002 0.202,-0.002c-0.544,0.64 -0.722,1.468 -0.314,2.516c0.3,0.774 1.068,1.298 1.876,1.492c0.318,0.074 0.644,0.106 0.97,0.106c0.502,0 1.01,-0.074 1.506,-0.172c1.794,-0.358 3.524,-1.038 5.084,-2c0.756,-0.466 1.564,-1.218 1.358,-2.084c-0.138,-0.588 -0.7,-0.966 -1.248,-1.22c-0.15,-0.072 -0.332,-0.136 -0.538,-0.192c6.29,-2.234 11.792,-6.738 15.038,-12.584c2.75,-4.958 3.902,-10.65 6.294,-15.794c2.382,-5.148 6.62,-10.058 12.26,-10.698c0.436,-0.05 0.868,-0.074 1.296,-0.074c7.886,0 14.224,8.008 22.174,9.382c-0.298,0.104 -0.592,0.176 -0.896,0.232c-0.518,0.092 -1.036,0.134 -1.554,0.134c-0.334,-0 -0.668,-0.018 -1.002,-0.05c-2.134,-0.216 -4.238,-1.078 -6.178,-2.068c-2.71,-1.374 -5.348,-3.032 -8.324,-3.654c-0.826,-0.172 -1.67,-0.258 -2.516,-0.258c-2.794,0 -5.59,0.926 -7.808,2.632c-3.926,3.032 -6.502,6.486 -7.308,11.508c-0.648,3.99 -0.504,8.142 -1.752,11.986c-2.944,9.078 -12.746,14.948 -21.512,17.146c-2.288,0.578 -4.648,0.86 -7.006,0.86Z" style="fill:url(#_Radial14);"/>
    <path d="M54.688,152.12c-4.254,-0.524 -8.466,-1.396 -12.578,-2.622c-5.502,-1.638 -10.82,-3.918 -15.81,-6.756c-1.664,-0.948 -3.294,-1.958 -4.882,-3.028c-0.03,-1.498 0.388,-2.968 1.39,-4.066c1.226,-1.342 3.12,-1.908 4.942,-1.908l0.12,0c1.452,0.018 2.874,0.356 4.274,0.76c0.392,0.114 0.784,0.232 1.17,0.352c5.758,1.75 11.008,3.92 16.202,7.046c-1.28,-1.02 -1.59,-3.12 -0.772,-4.6c0.314,-0.57 0.748,-1.048 1.258,-1.436c3.46,0.706 6.978,1.01 10.276,1.016l0.368,0c1.45,0 3.03,-0.022 4.646,-0.128c2.714,0.41 5.346,1.022 7.406,3.076c1.34,1.336 2.194,3.376 1.53,5.15c-0.69,1.842 -2.72,2.784 -4.616,3.324c-2.376,0.678 -4.848,1.016 -7.32,1.016c-2.564,0 -5.126,-0.364 -7.586,-1.09c0.404,1.324 0.358,2.654 -0.018,3.894Z" style="fill:url(#_Radial15);"/>
    <path d="M45.684,158.202c-0.152,0 -0.304,-0.002 -0.456,-0.008c-2.62,-0.104 -5.148,-1 -7.518,-2.126c-5.814,-2.76 -12.844,-7.084 -15.582,-13.218c-0.434,-0.974 -0.688,-2.062 -0.71,-3.136c1.588,1.07 3.218,2.08 4.882,3.028c4.99,2.838 10.308,5.118 15.81,6.756c4.112,1.226 8.324,2.098 12.578,2.622c-0.408,1.334 -1.198,2.564 -2.23,3.572c-1.766,1.728 -4.296,2.51 -6.774,2.51Z" style="fill:url(#_Radial16);"/>
    <path d="M16.514,134.784c-0.914,0 -1.81,-0.336 -2.66,-0.888c-0.786,-0.69 -1.558,-1.394 -2.316,-2.112c-1.902,-2.248 -3.336,-5.222 -3.84,-6.984c-0.064,-0.226 -0.12,-0.46 -0.166,-0.696c-0.288,-1.498 -0.162,-3.172 1.054,-4.008c0.456,-0.314 0.982,-0.444 1.528,-0.444c0.848,0 1.742,0.314 2.494,0.738c3.096,1.734 5.042,4.926 6.85,7.982c1.46,2.464 1.528,4.664 -1.26,6.016c-0.564,0.27 -1.126,0.396 -1.684,0.396Z" style="fill:url(#_Radial17);"/>
    <path d="M13.854,133.896c-0.822,-0.534 -1.602,-1.274 -2.316,-2.112c0.758,0.718 1.53,1.422 2.316,2.112Z" style="fill:url(#_Radial18);"/>
    <path d="M11.002,107.24c-2.954,0 -3.936,-8.558 -3.566,-10.312c0.326,-1.538 1.282,-3.256 2.852,-3.298c0.02,-0.002 0.04,-0.002 0.06,-0.002c1.396,-0 2.414,1.366 2.946,2.67c1.08,2.64 1.806,7.932 -0.64,10.152c-0.608,0.552 -1.158,0.792 -1.652,0.79Z" style="fill:url(#_Radial19);"/>
    <path d="M106.732,140.942c-0.462,-0.24 -0.87,-0.572 -1.19,-1c-0.942,-1.252 -0.906,-3.02 -0.306,-4.408c0.404,-0.938 1.032,-1.762 1.708,-2.526c1.102,-1.24 2.462,-2.75 4.162,-3.108c0.208,-0.042 0.404,-0.062 0.592,-0.062c1.496,0 2.468,1.26 3.804,1.99c1.396,-2.888 3.468,-5.448 6.006,-7.414c0.28,-0.218 0.574,-0.432 0.878,-0.628c-1.824,3.844 -4.358,7.38 -7.338,10.424c-2.506,2.556 -5.314,4.786 -8.316,6.732Z" style="fill:url(#_Radial20);"/>
    <path d="M108.89,141.436c-0.762,0 -1.512,-0.158 -2.158,-0.494c3.002,-1.946 5.81,-4.176 8.316,-6.732c2.98,-3.044 5.514,-6.58 7.338,-10.424c0.898,-0.578 1.886,-1.01 2.926,-1.01c0.082,0 0.166,0.002 0.248,0.008c1.204,0.082 2.346,0.81 2.926,1.87c1.652,3.026 -1.856,8.5 -3.698,10.82c-1.646,2.068 -3.7,3.568 -5.9,3.654c-0.042,0.002 -0.084,0.002 -0.126,0.002c-1.274,0 -2.526,-0.776 -3.082,-1.928c-1.354,1.496 -2.77,3.032 -4.63,3.806c-0.672,0.28 -1.422,0.428 -2.16,0.428Z" style="fill:url(#_Radial21);"/>
    <path d="M100.002,155.124l-0.018,0c-0.694,-0.002 -1.416,-0.258 -1.844,-0.804c-1.246,-1.588 0.804,-3.452 1.968,-4.298c1.394,-1.014 3.11,-1.602 4.836,-1.602c0.236,0 0.47,0.012 0.706,0.034c0.804,0.076 1.7,0.352 2.044,1.086c0.266,0.566 0.11,1.262 -0.246,1.776c-0.354,0.514 -0.882,0.884 -1.408,1.226c-1.276,0.83 -2.62,1.562 -4.04,2.116c-0.642,0.25 -1.312,0.466 -1.998,0.466Z" style="fill:url(#_Radial22);"/>
    <path d="M167.414,65.882c-6.556,0 -13.11,-1.844 -18.692,-5.282c-1.218,-0.752 -2.456,-1.65 -2.992,-2.978c-0.118,-0.288 -0.194,-0.584 -0.234,-0.88c9.902,0.786 19.658,3.386 28.6,7.704c-1.28,0.97 -3.122,1.294 -4.792,1.384c-0.63,0.034 -1.26,0.052 -1.89,0.052Zm3.63,-11.038c-5.338,-2.326 -10.948,-3.984 -16.702,-4.96c0.53,-0.046 1.062,-0.068 1.596,-0.068c5.344,0 10.938,2.208 15.106,5.028Z" style="fill:url(#_Radial23);"/>
    <path d="M135.612,57.624c-1.224,0 -2.45,-0.188 -3.614,-0.564c-0.194,-0.062 -0.386,-0.13 -0.576,-0.206c2.544,-0.246 5.104,-0.368 7.66,-0.368c0.51,0 1.022,0.006 1.532,0.014c-0.286,0.152 -0.586,0.28 -0.886,0.392c-1.314,0.486 -2.714,0.732 -4.116,0.732Z" style="fill:url(#_Radial24);"/>
    <path d="M186.156,63.832c-0.822,-0.642 -1.654,-1.262 -2.5,-1.864c0.868,0.37 1.77,1.12 2.5,1.864Z" style="fill:url(#_Radial25);"/>
    <path d="M177.202,76.798c-1.002,0 -2.004,-0.16 -2.954,-0.48c-1.53,-0.516 -2.97,-1.498 -3.7,-2.938c-1.472,-2.912 0.756,-6.922 3.988,-6.922c0.238,0 0.482,0.022 0.728,0.068c2.69,0.494 8.532,2.826 8.438,6.162c-0.044,1.582 -1.462,2.792 -2.922,3.4c-1.13,0.472 -2.354,0.71 -3.578,0.71Z" style="fill:url(#_Radial26);"/>
    <path d="M51.884,74.088c-8.152,-0.458 -16.062,-4.682 -20.858,-11.306c-0.126,-0.176 -0.252,-0.354 -0.376,-0.534c0.018,-0.614 0.064,-1.24 0.14,-1.876c0.24,-2.018 1.126,-4.038 2.752,-5.262c1.222,-0.918 2.77,-1.316 4.308,-1.316c0.274,0 0.546,0.012 0.818,0.036c1.794,0.162 3.512,0.806 5.146,1.566c0.996,0.464 1.98,0.984 2.922,1.57c0.108,0.07 0.218,0.14 0.328,0.208c2.376,1.53 4.458,3.48 5.756,5.966c1.804,3.462 1.706,8.112 -0.936,10.948Z" style="fill:url(#_Radial27);"/>
    <path d="M45.586,76.622c-1.912,0 -3.91,-0.478 -5.774,-1.264c-2.57,-1.082 -4.888,-2.744 -6.378,-4.534c-2.12,-2.546 -2.866,-5.432 -2.784,-8.576c0.124,0.18 0.25,0.358 0.376,0.534c4.796,6.624 12.706,10.848 20.858,11.306c-0.086,0.092 -0.174,0.18 -0.264,0.268c-1.658,1.604 -3.788,2.266 -6.034,2.266Z" style="fill:url(#_Radial28);"/>
    <path d="M34.394,51.614c-0.846,0 -1.688,-0.426 -2.436,-1.35c-1.38,-1.71 -1.49,-4.01 -0.918,-6.08c0.142,-0.512 0.324,-1.01 0.542,-1.482c0.342,-0.744 0.802,-1.468 1.49,-1.918c0.388,-0.254 0.862,-0.404 1.324,-0.404c0.354,0 0.7,0.086 0.998,0.28c0.478,0.31 0.768,0.834 1.018,1.346c1.142,2.35 2.682,5.65 0.776,8.006c-0.834,1.03 -1.816,1.602 -2.794,1.602Z" style="fill:url(#_Radial29);"/>
    <path d="M53.556,74.128c1.124,-1.324 3.804,-1.844 6.07,-1.844c1.018,-0 1.954,0.106 2.624,0.29c-2.358,0.838 -4.828,1.358 -7.328,1.508c-0.456,0.028 -0.91,0.042 -1.366,0.046Z" style="fill:url(#_Radial30);"/>
    <path d="M56.088,78.242c-0.326,0 -0.652,-0.032 -0.97,-0.106c-0.808,-0.194 -1.576,-0.718 -1.876,-1.492c-0.408,-1.048 -0.23,-1.876 0.314,-2.516c0.456,-0.004 0.91,-0.018 1.366,-0.046c2.5,-0.15 4.97,-0.67 7.328,-1.508c0.206,0.056 0.388,0.12 0.538,0.192c0.548,0.254 1.11,0.632 1.248,1.22c0.206,0.866 -0.602,1.618 -1.358,2.084c-1.56,0.962 -3.29,1.642 -5.084,2c-0.496,0.098 -1.004,0.172 -1.506,0.172Z" style="fill:url(#_Radial31);"/>
    <path d="M82.532,33.016c-0.022,-0 -0.042,-0 -0.064,-0.002c-0.258,-0.014 -0.524,-0.134 -0.648,-0.36c-0.126,-0.222 -0.09,-0.5 -0.028,-0.748c0.176,-0.68 0.808,-2.072 1.454,-2.608c0.276,0.204 0.668,0.292 1.068,0.292c0.252,0 0.506,-0.034 0.738,-0.096c0.02,-0.006 0.04,-0.012 0.06,-0.018c0.264,0.298 0.418,0.704 0.382,1.134c-0.05,0.562 -0.37,1.076 -0.794,1.45c-0.424,0.374 -0.946,0.616 -1.478,0.806c-0.224,0.078 -0.454,0.15 -0.69,0.15Z" style="fill:url(#_Radial32);"/>
    <path d="M101.066,30.978c-0.938,0 -1.874,-0.214 -2.714,-0.628c-0.466,-0.23 -0.938,-0.57 -1.058,-1.078l-0.006,-0.404c-0.156,0.006 -0.312,0.008 -0.464,0.008c-0.084,0 -0.166,0 -0.248,-0.002c-2,-0.034 -4.002,-0.07 -6.002,-0.104c-0.686,-0.012 -1.388,-0.028 -2.022,-0.284c-0.174,-0.07 -0.344,-0.164 -0.5,-0.276c1.354,-0.432 2.854,-0.608 4.348,-0.608c0.454,-0 0.906,0.016 1.356,0.046c2.408,0.164 4.736,0.7 7.07,1.168c0.688,0.138 1.398,0.272 2.108,0.272l0.018,0c0.09,0.122 0.164,0.254 0.216,0.396c0.106,0.308 0.09,0.67 -0.1,0.932c-0.216,0.292 -0.596,0.406 -0.952,0.47c-0.346,0.062 -0.698,0.092 -1.05,0.092Z" style="fill:url(#_Radial33);"/>
    <path d="M160.92,21.394c-1.872,0 -3.798,-0.576 -5.6,-1.184c-2.382,-0.804 -4.756,-1.672 -6.942,-2.912c-2.186,-1.24 -4.19,-2.876 -5.566,-4.978c-0.334,-0.508 -0.632,-1.068 -0.786,-1.652c0.356,0.15 0.688,0.292 0.984,0.428c2.542,1.18 5.134,2.256 7.704,3.376c4.328,1.882 8.16,4.272 11.962,6.732c-0.576,0.132 -1.164,0.19 -1.756,0.19Zm0.826,-10.98c-0.812,-0.626 -1.65,-1.214 -2.51,-1.762c-1.066,-0.678 -2.212,-1.366 -3.404,-2.032c2.252,0.8 4.302,2.1 5.914,3.794Z" style="fill:url(#_Radial34);"/>
    <path d="M136.504,4.428c-0.708,-0.182 -1.392,-0.446 -1.944,-0.826c-0.952,-0.656 -0.914,-1.662 0.192,-1.996c0.978,-0.298 2.07,-0.432 3.184,-0.432c1.716,0 3.48,0.316 4.942,0.828c0.142,0.05 0.286,0.104 0.424,0.17c-2.494,0.072 -5.644,0.74 -6.798,2.256Z" style="fill:url(#_Radial35);"/>
    <path d="M174.308,29.04c-0.252,0 -0.51,-0.176 -0.712,-0.352c-0.616,-0.53 -1.19,-1.108 -1.718,-1.724c0.01,0.004 0.018,0.01 0.028,0.014c0.224,0.128 0.466,0.258 0.716,0.258c0.036,0 0.072,-0.004 0.108,-0.008c0.376,-0.06 0.632,-0.45 0.664,-0.83c0.034,-0.38 -0.108,-0.752 -0.252,-1.104c-0.214,-0.522 -0.442,-1.038 -0.684,-1.55c1.028,1.238 1.86,2.63 2.288,4.174c0.106,0.382 0.134,0.894 -0.222,1.072c-0.07,0.036 -0.142,0.05 -0.216,0.05Z" style="fill:url(#_Radial36);"/>
    <path d="M67.878,206.194c-2.468,0 -4.932,-0.474 -7.23,-1.374c-2.45,-0.96 -5.652,-2.564 -6.728,-5.14c-0.444,-1.062 -0.434,-2.362 0.234,-3.298c0.858,-1.202 2.492,-1.508 3.98,-1.508c0.052,0 0.104,0 0.156,0.002c3.666,0.048 7.292,1.29 10.268,3.43c-0.794,-0.17 -1.598,-0.266 -2.41,-0.266c-0.252,0 -0.504,0.01 -0.758,0.028c-1.036,0.076 -2.08,0.328 -2.948,0.902c-3.862,2.542 1.76,5.534 5.856,7.22c-0.14,0.004 -0.28,0.004 -0.42,0.004Z" style="fill:url(#_Radial37);"/>
    <path d="M50.722,197.398c-1.1,0 -2.414,-1.18 -3.076,-1.762c-0.852,-0.75 -1.572,-1.686 -1.896,-2.772c-0.146,-0.484 -0.174,-1.088 0.212,-1.414c0.176,-0.148 0.392,-0.202 0.622,-0.202c0.246,0 0.506,0.062 0.742,0.138c1.202,0.386 2.332,0.998 3.312,1.792c1.064,0.862 2.364,2.77 0.888,3.946c-0.242,0.192 -0.516,0.274 -0.804,0.274Z" style="fill:url(#_Radial38);"/>
    <path d="M84.58,207.816c-1.65,0 -4.674,-0.276 -3.146,-2.136c0.282,-0.342 0.676,-0.566 1.07,-0.77c2.24,-1.158 4.75,-1.884 7.262,-1.884c0.608,0 1.218,0.044 1.824,0.132c0.548,0.082 1.19,0.292 1.33,0.828c0.144,0.556 -0.348,1.058 -0.814,1.392c-1.952,1.404 -4.304,2.236 -6.7,2.412c-0.168,0.012 -0.464,0.026 -0.826,0.026Z" style="fill:url(#_Radial39);"/>
    <path d="M172.84,194.812c-0.316,0 -0.624,-0.072 -0.91,-0.242c-1.182,-0.698 -1.086,-2.422 -0.744,-3.754c1.91,-7.36 6.93,-13.864 13.572,-17.576c0.612,-0.342 1.22,-0.502 1.786,-0.502c1.582,0 2.818,1.262 2.796,3.338c-0.034,2.97 -2.626,6.072 -4.348,8.292c-2.486,3.2 -5.504,5.842 -8.552,8.482c-0.83,0.72 -2.29,1.962 -3.6,1.962Z" style="fill:url(#_Radial40);"/>
    <path d="M185.518,169.55c-2.744,0 -5.8,-4.158 -6.07,-6.398c-0.236,-1.962 0.846,-4.158 2.744,-4.712c0.332,-0.098 0.674,-0.142 1.018,-0.142c0.774,0 1.556,0.228 2.246,0.592c3.062,1.616 4.652,6.966 2.064,9.732c-0.61,0.654 -1.296,0.928 -2.002,0.928Z" style="fill:url(#_Radial41);"/>
    <path d="M170.312,160.26c-2.798,-2.436 -6.386,-3.118 -9.954,-3.668c-0.51,-0.08 -1.024,-0.152 -1.538,-0.218c-0.374,-0.458 -0.664,-0.972 -0.808,-1.552c-0.494,-2 1.076,-4.082 3.028,-4.742c0.654,-0.222 1.332,-0.318 2.018,-0.318c1.356,0 2.736,0.378 4.004,0.896c1.438,0.59 2.832,1.386 3.832,2.574c1.738,2.068 1.594,5.446 -0.582,7.028Z" style="fill:url(#_Radial42);"/>
    <path d="M167.89,161.046c-2.478,0 -5.424,-1.874 -7.178,-3.046c-0.688,-0.458 -1.372,-0.99 -1.892,-1.626c0.514,0.066 1.028,0.138 1.538,0.218c3.568,0.55 7.156,1.232 9.954,3.668c-0.312,0.228 -0.668,0.418 -1.066,0.562c-0.428,0.156 -0.884,0.224 -1.356,0.224Z" style="fill:url(#_Radial43);"/>
    <path d="M127.818,168.466c-0.294,0 -0.638,-0.11 -1.048,-0.37c-0.788,-0.5 -1.194,-1.44 -1.348,-2.362l-0.056,-0.436c-0.324,-3.632 2.84,-6.874 5.754,-8.576c0.726,-0.426 1.798,-0.646 2.852,-0.646c2.46,0 4.834,1.202 2.544,3.822c-0.658,0.75 -1.55,1.24 -2.374,1.798c-1.682,1.138 -3.256,2.66 -4.3,4.414c-0.552,0.922 -0.962,2.356 -2.024,2.356Z" style="fill:url(#_Radial44);"/>
    <path d="M137.154,154.306c-0.744,0 -1.386,-0.256 -1.65,-0.996c-0.614,-1.718 2.774,-2.602 3.972,-2.66c0.048,-0.002 0.096,-0.002 0.144,-0.002c0.726,0 1.548,0.252 1.734,0.938c0.2,0.726 -0.464,1.396 -1.114,1.778c-0.632,0.368 -1.972,0.942 -3.086,0.942Z" style="fill:url(#_Radial45);"/>
    <path d="M129.734,202.878c-0.2,0 -0.396,-0.038 -0.574,-0.136c-0.468,-0.258 -0.648,-0.868 -0.554,-1.392c0.094,-0.526 0.406,-0.982 0.728,-1.408c1.442,-1.92 3.284,-3.14 4.982,-4.77c0.51,-0.49 1.592,-1.388 2.348,-1.388c0.488,0 0.84,0.376 0.812,1.478c-0.014,0.556 -0.244,1.082 -0.496,1.578c-1.356,2.66 -3.588,4.988 -6.434,5.888c-0.26,0.082 -0.54,0.15 -0.812,0.15Z" style="fill:url(#_Radial46);"/>
    <path d="M137.682,191.298c-1.312,0 -0.774,-3.304 -0.706,-4.166c0.05,-0.644 0.256,-1.434 0.886,-1.556c0.05,-0.01 0.1,-0.014 0.15,-0.014c0.518,0 0.942,0.526 1.14,1.032c0.422,1.082 0.334,4.454 -1.348,4.696c-0.042,0.006 -0.084,0.008 -0.122,0.008Z" style="fill:url(#_Radial47);"/>
    <path d="M167.652,170.948c-0.12,0 -0.24,-0.016 -0.362,-0.054c-0.494,-0.148 -0.85,-0.598 -1.02,-1.086c-0.168,-0.49 -0.178,-1.014 -0.186,-1.532c-0.022,-1.166 -0.764,-5.272 0.852,-5.272c0.308,0 0.702,0.148 1.202,0.494c1.962,1.36 2.536,4.368 1.208,6.352c-0.39,0.58 -1.028,1.098 -1.694,1.098Z" style="fill:url(#_Radial48);"/>
    <path d="M179.208,51.714c-2.936,-4.358 -5.486,-5.238 -9.086,-6.638c-16.32,-6.364 -32.234,-13.81 -47.588,-22.254c-7.582,-4.176 -10.316,-8.812 -23.574,-7.774c2.544,-4.63 6.564,-8.164 11.276,-10.516c0.39,1.032 0.67,2.176 1.112,2.968c1.302,2.334 3.286,4.278 5.476,5.772c3.512,2.392 7.582,3.792 11.53,5.374c8.598,3.44 16.812,7.838 24.44,13.1c3.83,2.64 7.55,5.51 11.764,7.47c4.212,1.966 9.092,2.958 13.546,1.622c1.246,-0.376 2.694,-0.88 3.878,-0.624c0.44,4.102 -0.248,8.302 -2.774,11.5Z" style="fill:url(#_Radial49);"/>
    <path d="M54.184,30.61c-2.83,2.998 -2.894,7.79 -1.39,11.636c0.528,1.358 1.246,2.68 2.246,3.742c0.392,0.416 0.816,0.776 1.272,1.104c-2.998,-0.96 -6.908,-6.686 -7.694,-8.684c-1.062,-2.728 -1.422,-5.83 -0.424,-8.574c1.402,-3.854 5.256,-6.39 9.246,-7.316c3.622,-0.84 7.382,-0.576 11.09,-0.208c-3.486,1.51 -6.86,3.182 -9.938,4.87c-1.582,0.872 -3.166,2.112 -4.408,3.43Z" style="fill:url(#_Radial50);"/>
    <path d="M102.862,201.438c-1.694,2.558 -3.744,4.558 -6.046,6.102c-0.8,-0.742 -1.264,-1.822 -1.742,-2.83c-4.67,-9.932 -14.308,-17.378 -25.094,-19.4c-5.414,-1.016 -10.98,-0.738 -16.474,-1.048c-5.502,-0.312 -11.18,-1.304 -15.674,-4.494c-1.096,-0.786 -2.536,-2.52 -3.766,-4.558c-0.378,-2.464 -0.6,-4.952 -0.76,-7.438c4.662,5.526 6.796,6.454 11.34,7.622c4.54,1.168 9.29,1.102 13.976,1.278c8.966,0.344 18.042,1.646 26.182,5.422c8.132,3.774 14.956,10.924 18.058,19.344Z" style="fill:url(#_Radial51);"/>
    <path d="M171.878,26.964c-1.746,-0.992 -3.428,-2.036 -5.088,-3.096c-1.382,-0.884 -2.746,-1.778 -4.114,-2.664c0.288,-0.066 0.574,-0.152 0.856,-0.258c0.676,-0.252 1.35,-0.668 1.624,-1.336c0.17,-0.416 0.164,-0.884 0.13,-1.334c-0.228,-3.094 -1.554,-5.778 -3.54,-7.862c4.542,3.498 8.282,8.16 10.712,13.33c-0.434,-0.524 -0.904,-1.02 -1.392,-1.488c-0.248,-0.234 -0.51,-0.472 -0.832,-0.586c-0.224,-0.08 -0.406,-0.116 -0.55,-0.116c-1.244,0 0.304,2.704 0.574,3.158c0.474,0.794 1.018,1.548 1.62,2.252Zm-29.852,-16.296c-2.038,-0.854 -4.85,-1.962 -5.694,-3.8c-0.452,-0.982 -0.324,-1.788 0.172,-2.44c0.686,0.176 1.396,0.276 2.03,0.326c0.278,0.022 0.556,0.032 0.834,0.032c1.34,0 2.678,-0.254 3.914,-0.766c0.3,-0.126 0.616,-0.288 0.742,-0.584c0.136,-0.318 -0.004,-0.7 -0.246,-0.944c-0.136,-0.136 -0.3,-0.238 -0.476,-0.32c0.152,-0.004 0.302,-0.008 0.448,-0.008c0.86,0 1.616,0.076 2.146,0.214c3.246,0.844 6.758,2.464 9.936,4.242c-1.206,-0.43 -2.47,-0.716 -3.756,-0.846c-0.552,-0.054 -1.108,-0.082 -1.664,-0.082c-1.752,0 -3.506,0.276 -5.17,0.83c-1.462,0.49 -3.026,1.402 -3.288,2.92c-0.07,0.412 -0.034,0.824 0.072,1.226Z" style="fill:url(#_Radial52);"/>
    <path d="M162.676,21.204c-3.802,-2.46 -7.634,-4.85 -11.962,-6.732c-2.57,-1.12 -5.162,-2.196 -7.704,-3.376c-0.296,-0.136 -0.628,-0.278 -0.984,-0.428c-0.106,-0.402 -0.142,-0.814 -0.072,-1.226c0.262,-1.518 1.826,-2.43 3.288,-2.92c1.664,-0.554 3.418,-0.83 5.17,-0.83c0.556,0 1.112,0.028 1.664,0.082c1.286,0.13 2.55,0.416 3.756,0.846c1.192,0.666 2.338,1.354 3.404,2.032c0.86,0.548 1.698,1.136 2.51,1.762c1.986,2.084 3.312,4.768 3.54,7.862c0.034,0.45 0.04,0.918 -0.13,1.334c-0.274,0.668 -0.948,1.084 -1.624,1.336c-0.282,0.106 -0.568,0.192 -0.856,0.258Z" style="fill:url(#_Radial53);"/>
    <path d="M139.368,4.786c-0.278,0 -0.556,-0.01 -0.834,-0.032c-0.634,-0.05 -1.344,-0.15 -2.03,-0.326c1.154,-1.516 4.304,-2.184 6.798,-2.256c0.176,0.082 0.34,0.184 0.476,0.32c0.242,0.244 0.382,0.626 0.246,0.944c-0.126,0.296 -0.442,0.458 -0.742,0.584c-1.236,0.512 -2.574,0.766 -3.914,0.766Z" style="fill:url(#_Radial54);"/>
    <path d="M172.622,27.236c-0.25,0 -0.492,-0.13 -0.716,-0.258c-0.01,-0.004 -0.018,-0.01 -0.028,-0.014c-0.602,-0.704 -1.146,-1.458 -1.62,-2.252c-0.27,-0.454 -1.818,-3.158 -0.574,-3.158c0.144,0 0.326,0.036 0.55,0.116c0.322,0.114 0.584,0.352 0.832,0.586c0.488,0.468 0.958,0.964 1.392,1.488c0.242,0.512 0.47,1.028 0.684,1.55c0.144,0.352 0.286,0.724 0.252,1.104c-0.032,0.38 -0.288,0.77 -0.664,0.83c-0.036,0.004 -0.072,0.008 -0.108,0.008Z" style="fill:url(#_Radial55);"/>
    <path d="M55.138,59.478c-2.132,0 -4.274,-0.448 -6.214,-1.32c-0.644,-0.288 -1.264,-0.618 -1.86,-0.984c-0.108,-0.07 -0.218,-0.14 -0.328,-0.208c-3.486,-2.26 -6.124,-5.806 -7.57,-9.724c-1.876,-5.074 -1.464,-10.254 0.068,-15.324c0.398,-1.322 1.5,-2.656 2.812,-2.656c0.134,0 0.27,0.014 0.408,0.044c1.34,0.286 1.976,1.806 2.272,3.144c0.532,2.408 0.66,4.89 1.194,7.298c1.624,7.322 8.432,9.802 15.006,11.574c1.808,0.488 4.066,1.49 3.894,3.354c-0.086,0.95 -0.838,1.698 -1.606,2.264c-2.32,1.714 -5.188,2.538 -8.076,2.538Z" style="fill:url(#_Radial56);"/>
    <path d="M47.064,57.174c-0.11,-0.068 -0.22,-0.138 -0.328,-0.208c0.11,0.068 0.22,0.138 0.328,0.208Z" style="fill:url(#_Radial57);"/>
    <path d="M85.112,29.476c-0.262,-0.298 -0.634,-0.49 -1.03,-0.49c-0.228,0 -0.464,0.064 -0.692,0.206c-0.048,0.03 -0.096,0.064 -0.144,0.106c-0.024,-0.02 -0.048,-0.038 -0.07,-0.058c-0.618,-0.548 -0.156,-1.384 0.408,-1.964c2.424,-2.502 7.132,-4.632 11.502,-4.632c0.796,0 1.582,0.072 2.342,0.224c2.412,0.484 4.546,1.54 6.454,2.74c0.922,0.58 1.886,1.386 1.604,2.26c-0.212,0.654 -1.098,1.09 -1.99,1.19c-0.182,0.02 -0.362,0.03 -0.544,0.03c-0.102,-0.14 -0.224,-0.266 -0.354,-0.38c-0.66,-0.582 -1.666,-1.058 -2.646,-1.192c0.264,-0.626 0.21,-1.388 -0.096,-2.008c-0.384,-0.782 -1.092,-1.36 -1.856,-1.78c-1.1,-0.604 -2.442,-0.9 -3.816,-0.9c-2.346,0 -4.778,0.864 -6.208,2.53c-0.396,0.46 -0.736,1.032 -0.682,1.636c0.044,0.494 0.352,0.92 0.758,1.216c-0.44,0.14 -0.864,0.306 -1.268,0.504c-0.548,0.266 -1.062,0.588 -1.672,0.762Z" style="fill:url(#_Radial58);"/>
    <path d="M84.314,29.59c-0.4,0 -0.792,-0.088 -1.068,-0.292c0.048,-0.042 0.096,-0.076 0.144,-0.106c0.228,-0.142 0.464,-0.206 0.692,-0.206c0.396,0 0.768,0.192 1.03,0.49c-0.02,0.006 -0.04,0.012 -0.06,0.018c-0.232,0.062 -0.486,0.096 -0.738,0.096Z" style="fill:url(#_Radial59);"/>
    <path d="M102.934,29.088c-0.71,0 -1.42,-0.134 -2.108,-0.272c-2.334,-0.468 -4.662,-1.004 -7.07,-1.168c-0.45,-0.03 -0.902,-0.046 -1.356,-0.046c-1.494,-0 -2.994,0.176 -4.348,0.608c-0.406,-0.296 -0.714,-0.722 -0.758,-1.216c-0.054,-0.604 0.286,-1.176 0.682,-1.636c1.43,-1.666 3.862,-2.53 6.208,-2.53c1.374,0 2.716,0.296 3.816,0.9c0.764,0.42 1.472,0.998 1.856,1.78c0.306,0.62 0.36,1.382 0.096,2.008c0.98,0.134 1.986,0.61 2.646,1.192c0.13,0.114 0.252,0.24 0.354,0.38l-0.018,0Z" style="fill:url(#_Radial60);"/>
    <path d="M64.538,18.826c-2.29,0 -4.58,-0.126 -6.856,-0.38c-2.5,-0.278 -1.276,-1.676 -0.018,-2.584c0.312,-0.226 0.626,-0.422 0.888,-0.562c2.012,-1.088 4.262,-1.736 6.544,-1.868c0.292,-0.018 0.582,-0.026 0.874,-0.026c1.65,0 3.3,0.266 4.868,0.778c1.058,0.344 4.286,1.294 4.424,2.664c0.08,0.808 -0.944,1.21 -1.748,1.328c-2.972,0.432 -5.974,0.65 -8.976,0.65Z" style="fill:url(#_Radial61);"/>
    <path d="M187.598,70.262c-3.13,0 -6.12,-1.82 -8.914,-3.408c-1.502,-0.856 -3.032,-1.658 -4.588,-2.408c0.442,-0.336 0.816,-0.746 1.094,-1.252c0.766,-1.388 0.546,-3.166 -0.226,-4.552c-0.772,-1.388 -2.016,-2.448 -3.306,-3.372c-0.202,-0.142 -0.406,-0.286 -0.614,-0.426c4.414,1.922 8.644,4.3 12.612,7.124c-0.348,-0.148 -0.69,-0.234 -1.016,-0.234c-0.562,0 -1.07,0.26 -1.454,0.912c-1.768,3.014 2.382,4.568 4.624,4.78c0.152,0.014 0.308,0.026 0.462,0.026c0.26,0 0.518,-0.03 0.76,-0.12c0.388,-0.142 0.73,-0.466 0.79,-0.874c0.058,-0.408 -0.168,-0.802 -0.404,-1.138c-0.272,-0.386 -0.72,-0.936 -1.262,-1.488c1.33,1.04 2.628,2.132 3.89,3.276c0.372,0.338 0.762,0.722 0.832,1.218c0.144,0.988 -0.998,1.66 -1.98,1.826c-0.436,0.074 -0.868,0.11 -1.3,0.11Zm-68.422,-11.416c-0.246,0 -0.492,-0.022 -0.736,-0.074c-4.03,-0.856 0.122,-4.19 1.668,-5.246c3.308,-2.252 6.888,-3.294 10.826,-3.874c3.67,-0.54 7.35,-0.808 11.012,-0.808c4.174,-0 8.32,0.348 12.396,1.04c-2.036,0.178 -4.012,0.708 -5.828,1.682c-1.872,1.004 -3.292,3.146 -3.018,5.176c-1.624,-0.13 -3.254,-0.21 -4.882,-0.242c0.524,-0.276 0.998,-0.632 1.334,-1.116c0.642,-0.918 0.648,-2.234 0.016,-3.158c-0.832,-1.216 -2.586,-1.596 -4.434,-1.596c-1.906,0 -3.912,0.404 -5.108,0.712c-0.752,0.194 -1.508,0.442 -2.13,0.906c-0.622,0.464 -1.1,1.178 -1.112,1.954c-0.008,0.718 0.382,1.4 0.92,1.874c0.386,0.34 0.842,0.584 1.322,0.778c-3.434,0.33 -6.848,0.886 -10.21,1.67c-0.67,0.158 -1.356,0.322 -2.036,0.322Z" style="fill:url(#_Radial62);"/>
    <path d="M174.096,64.446c-8.942,-4.318 -18.698,-6.918 -28.6,-7.704c-0.274,-2.03 1.146,-4.172 3.018,-5.176c1.816,-0.974 3.792,-1.504 5.828,-1.682c5.754,0.976 11.364,2.634 16.702,4.96c0.208,0.14 0.412,0.284 0.614,0.426c1.29,0.924 2.534,1.984 3.306,3.372c0.772,1.386 0.992,3.164 0.226,4.552c-0.278,0.506 -0.652,0.916 -1.094,1.252Z" style="fill:url(#_Radial63);"/>
    <path d="M131.422,56.854c-0.48,-0.194 -0.936,-0.438 -1.322,-0.778c-0.538,-0.474 -0.928,-1.156 -0.92,-1.874c0.012,-0.776 0.49,-1.49 1.112,-1.954c0.622,-0.464 1.378,-0.712 2.13,-0.906c1.196,-0.308 3.202,-0.712 5.108,-0.712c1.848,0 3.602,0.38 4.434,1.596c0.632,0.924 0.626,2.24 -0.016,3.158c-0.336,0.484 -0.81,0.84 -1.334,1.116c-0.51,-0.008 -1.022,-0.014 -1.532,-0.014c-2.556,0 -5.116,0.122 -7.66,0.368Z" style="fill:url(#_Radial64);"/>
    <path d="M186.272,67.452c-0.154,0 -0.31,-0.012 -0.462,-0.026c-2.242,-0.212 -6.392,-1.766 -4.624,-4.78c0.384,-0.652 0.892,-0.912 1.454,-0.912c0.326,0 0.668,0.086 1.016,0.234c0.846,0.602 1.678,1.222 2.5,1.864c0.542,0.552 0.99,1.102 1.262,1.488c0.236,0.336 0.462,0.73 0.404,1.138c-0.06,0.408 -0.402,0.732 -0.79,0.874c-0.242,0.09 -0.5,0.12 -0.76,0.12Z" style="fill:url(#_Radial65);"/>
    <path d="M100.112,75.45c-0.526,0 -1.04,-0.134 -1.47,-0.44c-3.698,-2.636 1.266,-8.186 3.43,-10.026c1.488,-1.266 3.594,-2.766 5.614,-2.774l0.022,0c2.684,0 2.868,1.768 1.406,3.758c-1.564,2.13 -3.126,4.258 -4.69,6.388c-0.7,0.954 -1.426,1.932 -2.436,2.548c-0.558,0.342 -1.226,0.546 -1.876,0.546Z" style="fill:url(#_Radial66);"/>
    <path d="M65.292,136.75c-2.044,-0.31 -4.132,-0.51 -6.058,-1.12c-1.676,-0.532 -3.398,-1.036 -5.148,-1.036c-0.168,0 -0.336,0.004 -0.504,0.014c-1.276,0.072 -2.576,0.488 -3.58,1.254c-4.17,-0.854 -8.256,-2.294 -11.764,-4.5c-2.882,-1.814 -5.372,-4.148 -7.204,-7.104c-0.874,-1.412 -2,-3.284 -1.084,-4.912c0.734,-1.302 1.922,-1.734 3.206,-1.734c1.244,0 2.576,0.406 3.67,0.818c4.958,1.872 9.892,3.982 14.976,5.49c3.228,0.96 6.582,1.194 9.974,1.194c1.64,0 3.288,-0.054 4.936,-0.11c1.646,-0.054 3.292,-0.11 4.926,-0.11c0.794,0 1.586,0.014 2.374,0.046c1.892,0.076 4.1,0.372 5.036,2.02c0.68,1.19 0.404,2.746 -0.33,3.904c-2.718,4.292 -8.25,5.536 -13.426,5.886Z" style="fill:url(#_Radial67);"/>
    <path d="M60.646,136.878l-0.368,0c-3.298,-0.006 -6.816,-0.31 -10.276,-1.016c1.004,-0.766 2.304,-1.182 3.58,-1.254c0.168,-0.01 0.336,-0.014 0.504,-0.014c1.75,0 3.472,0.504 5.148,1.036c1.926,0.61 4.014,0.81 6.058,1.12c-1.616,0.106 -3.196,0.128 -4.646,0.128Z" style="fill:url(#_Radial68);"/>
    <path d="M184.558,154.656c-0.816,0 -1.748,-0.534 -2.476,-1.034c-8.356,-5.736 -19.154,-6.028 -29.286,-6.308c-2.07,-0.056 -5.748,-0.696 -6.286,-3.212c-0.652,-3.044 3.73,-4.878 6.076,-5.358c2.606,-0.53 5.746,-0.924 8.894,-0.924c3.704,0 7.42,0.546 10.294,2.054c4.996,2.618 9.85,6.46 13.276,10.97c0.77,1.012 1.45,2.552 0.524,3.424c-0.294,0.276 -0.644,0.388 -1.016,0.388Z" style="fill:url(#_Radial69);"/>
    <path d="M74.56,207.998c-1.06,0 -2.122,-0.296 -3.134,-0.638c-0.634,-0.214 -1.8,-0.624 -3.128,-1.17c0.354,-0.008 0.71,-0.026 1.062,-0.052c1.194,-0.094 2.544,-0.408 3.112,-1.462c0.352,-0.646 0.312,-1.452 0.044,-2.14c-0.266,-0.688 -0.74,-1.274 -1.238,-1.816c-0.82,-0.896 -1.734,-1.706 -2.72,-2.414c2.33,0.498 4.564,1.636 6.632,2.874c0.782,0.466 1.564,0.96 2.164,1.64c0.602,0.682 1.01,1.586 0.906,2.492c-0.162,1.358 -1.462,2.368 -2.81,2.61c-0.296,0.054 -0.592,0.076 -0.89,0.076Z" style="fill:url(#_Radial70);"/>
    <path d="M68.298,206.19c-4.096,-1.686 -9.718,-4.678 -5.856,-7.22c0.868,-0.574 1.912,-0.826 2.948,-0.902c0.254,-0.018 0.506,-0.028 0.758,-0.028c0.812,0 1.616,0.096 2.41,0.266c0.986,0.708 1.9,1.518 2.72,2.414c0.498,0.542 0.972,1.128 1.238,1.816c0.268,0.688 0.308,1.494 -0.044,2.14c-0.568,1.054 -1.918,1.368 -3.112,1.462c-0.352,0.026 -0.708,0.044 -1.062,0.052Z" style="fill:url(#_Radial71);"/>
    <path d="M87.178,129.328l-0.082,0c-4.478,-0.04 -4.076,-6.458 -0.128,-7.328c2.284,-0.502 4.784,-0.782 6.98,-1.586c1.97,-0.72 3.542,-2.216 5.488,-2.99c0.342,-0.136 0.796,-0.236 1.24,-0.236c0.69,0 1.352,0.244 1.506,0.99c0.096,0.482 -0.104,0.972 -0.334,1.408c-1.27,2.404 -3.594,4.144 -5.668,5.826c-2.526,2.048 -5.648,3.916 -9.002,3.916Z" style="fill:url(#_Radial72);"/>
    <defs>
        <radialGradient id="_Radial1" cx="0" cy="0" r="1" gradientUnits="userSpaceOnUse" gradientTransform="matrix(173.529,0,0,173.529,129.982,56.338)"><stop offset="0" style="stop-color:#ac4800;stop-opacity:1"/><stop offset="0.7" style="stop-color:#6c023d;stop-opacity:1"/><stop offset="0.8" style="stop-color:#720838;stop-opacity:1"/><stop offset="0.9" style="stop-color:#892221;stop-opacity:1"/><stop offset="1" style="stop-color:#ac4800;stop-opacity:1"/></radialGradient>
        <radialGradient id="_Radial2" cx="0" cy="0" r="1" gradientUnits="userSpaceOnUse" gradientTransform="matrix(257.332,0,0,257.332,157.338,47.762)"><stop offset="0" style="stop-color:#7b3d00;stop-opacity:1"/><stop offset="0.7" style="stop-color:#410246;stop-opacity:1"/><stop offset="0.8" style="stop-color:#460740;stop-opacity:1"/><stop offset="0.9" style="stop-color:#5b1d25;stop-opacity:1"/><stop offset="1" style="stop-color:#7b3d00;stop-opacity:1"/></radialGradient>
        <radialGradient id="_Radial3" cx="0" cy="0" r="1" gradientUnits="userSpaceOnUse" gradientTransform="matrix(250.65,0,0,250.65,168.368,32.246)"><stop offset="0" style="stop-color:#c6ac0d;stop-opacity:1"/><stop offset="1" style="stop-color:#0d5221;stop-opacity:1"/></radialGradient>
        <radialGradient id="_Radial4" cx="0" cy="0" r="1" gradientUnits="userSpaceOnUse" gradientTransform="matrix(143.852,0,0,143.852,91.8659,3.38802)"><stop offset="0" style="stop-color:#c6ac0d;stop-opacity:1"/><stop offset="1" style="stop-color:#0d5221;stop-opacity:1"/></radialGradient>
        <radialGradient id="_Radial5" cx="0" cy="0" r="1" gradientUnits="userSpaceOnUse" gradientTransform="matrix(83.7026,0,0,83.7026,79.0719,92.408)"><stop offset="0" style="stop-color:#c6ac0d;stop-opacity:1"/><stop offset="1" style="stop-color:#0d5221;stop-opacity:1"/></radialGradient>
        <radialGradient id="_Radial6" cx="0" cy="0" r="1" gradientUnits="userSpaceOnUse" gradientTransform="matrix(102.037,0,0,102.037,115.552,45.312)"><stop offset="0" style="stop-color:#c6ac0d;stop-opacity:1"/><stop offset="1" style="stop-color:#0d5221;stop-opacity:1"/></radialGradient>
        <radialGradient id="_Radial7" cx="0" cy="0" r="1" gradientUnits="userSpaceOnUse" gradientTransform="matrix(119.51,0,0,119.51,146.586,34.694)"><stop offset="0" style="stop-color:#c6ac0d;stop-opacity:1"/><stop offset="1" style="stop-color:#0d5221;stop-opacity:1"/></radialGradient>
        <radialGradient id="_Radial8" cx="0" cy="0" r="1" gradientUnits="userSpaceOnUse" gradientTransform="matrix(126.014,0,0,126.014,174.356,10.738)"><stop offset="0" style="stop-color:#c6ac0d;stop-opacity:1"/><stop offset="1" style="stop-color:#0d5221;stop-opacity:1"/></radialGradient>
        <radialGradient id="_Radial9" cx="0" cy="0" r="1" gradientUnits="userSpaceOnUse" gradientTransform="matrix(123.327,0,0,123.327,177.348,122.082)"><stop offset="0" style="stop-color:#c6ac0d;stop-opacity:1"/><stop offset="1" style="stop-color:#0d5221;stop-opacity:1"/></radialGradient>
        <radialGradient id="_Radial10" cx="0" cy="0" r="1" gradientUnits="userSpaceOnUse" gradientTransform="matrix(125.506,0,0,125.506,187.692,119.358)"><stop offset="0" style="stop-color:#c6ac0d;stop-opacity:1"/><stop offset="1" style="stop-color:#0d5221;stop-opacity:1"/></radialGradient>
        <radialGradient id="_Radial11" cx="0" cy="0" r="1" gradientUnits="userSpaceOnUse" gradientTransform="matrix(114.715,0,0,114.715,211.104,138.142)"><stop offset="0" style="stop-color:#c6ac0d;stop-opacity:1"/><stop offset="1" style="stop-color:#0d5221;stop-opacity:1"/></radialGradient>
        <radialGradient id="_Radial12" cx="0" cy="0" r="1" gradientUnits="userSpaceOnUse" gradientTransform="matrix(123.14,0,0,123.14,25.0319,255.202)"><stop offset="0" style="stop-color:#c6ac0d;stop-opacity:1"/><stop offset="1" style="stop-color:#0d5221;stop-opacity:1"/></radialGradient>
        <radialGradient id="_Radial13" cx="0" cy="0" r="1" gradientUnits="userSpaceOnUse" gradientTransform="matrix(121.616,0,0,121.616,100.172,2.84602)"><stop offset="0" style="stop-color:#c6ac0d;stop-opacity:1"/><stop offset="1" style="stop-color:#0d5221;stop-opacity:1"/></radialGradient>
        <radialGradient id="_Radial14" cx="0" cy="0" r="1" gradientUnits="userSpaceOnUse" gradientTransform="matrix(109.838,0,0,109.838,88.9399,-6.54798)"><stop offset="0" style="stop-color:#c6ac0d;stop-opacity:1"/><stop offset="1" style="stop-color:#0d5221;stop-opacity:1"/></radialGradient>
        <radialGradient id="_Radial15" cx="0" cy="0" r="1" gradientUnits="userSpaceOnUse" gradientTransform="matrix(250.65,0,0,250.65,168.368,32.246)"><stop offset="0" style="stop-color:#a19f02;stop-opacity:1"/><stop offset="1" style="stop-color:#0b4c06;stop-opacity:1"/></radialGradient>
        <radialGradient id="_Radial16" cx="0" cy="0" r="1" gradientUnits="userSpaceOnUse" gradientTransform="matrix(83.7026,0,0,83.7026,79.0719,92.408)"><stop offset="0" style="stop-color:#a19f02;stop-opacity:1"/><stop offset="1" style="stop-color:#0b4c06;stop-opacity:1"/></radialGradient>
        <radialGradient id="_Radial17" cx="0" cy="0" r="1" gradientUnits="userSpaceOnUse" gradientTransform="matrix(250.65,0,0,250.65,168.368,32.246)"><stop offset="0" style="stop-color:#a19f02;stop-opacity:1"/><stop offset="1" style="stop-color:#0b4c06;stop-opacity:1"/></radialGradient>
        <radialGradient id="_Radial18" cx="0" cy="0" r="1" gradientUnits="userSpaceOnUse" gradientTransform="matrix(83.7026,0,0,83.7026,79.0719,92.408)"><stop offset="0" style="stop-color:#a19f02;stop-opacity:1"/><stop offset="1" style="stop-color:#0b4c06;stop-opacity:1"/></radialGradient>
        <radialGradient id="_Radial19" cx="0" cy="0" r="1" gradientUnits="userSpaceOnUse" gradientTransform="matrix(250.65,0,0,250.65,168.368,32.246)"><stop offset="0" style="stop-color:#a19f02;stop-opacity:1"/><stop offset="1" style="stop-color:#0b4c06;stop-opacity:1"/></radialGradient>
        <radialGradient id="_Radial20" cx="0" cy="0" r="1" gradientUnits="userSpaceOnUse" gradientTransform="matrix(250.65,0,0,250.65,168.368,32.246)"><stop offset="0" style="stop-color:#a19f02;stop-opacity:1"/><stop offset="1" style="stop-color:#0b4c06;stop-opacity:1"/></radialGradient>
        <radialGradient id="_Radial21" cx="0" cy="0" r="1" gradientUnits="userSpaceOnUse" gradientTransform="matrix(83.7026,0,0,83.7026,79.0719,92.408)"><stop offset="0" style="stop-color:#a19f02;stop-opacity:1"/><stop offset="1" style="stop-color:#0b4c06;stop-opacity:1"/></radialGradient>
        <radialGradient id="_Radial22" cx="0" cy="0" r="1" gradientUnits="userSpaceOnUse" gradientTransform="matrix(83.7026,0,0,83.7026,79.0719,92.408)"><stop offset="0" style="stop-color:#a19f02;stop-opacity:1"/><stop offset="1" style="stop-color:#0b4c06;stop-opacity:1"/></radialGradient>
        <radialGradient id="_Radial23" cx="0" cy="0" r="1" gradientUnits="userSpaceOnUse" gradientTransform="matrix(250.65,0,0,250.65,168.368,32.246)"><stop offset="0" style="stop-color:#a19f02;stop-opacity:1"/><stop offset="1" style="stop-color:#0b4c06;stop-opacity:1"/></radialGradient>
        <radialGradient id="_Radial24" cx="0" cy="0" r="1" gradientUnits="userSpaceOnUse" gradientTransform="matrix(250.65,0,0,250.65,168.368,32.246)"><stop offset="0" style="stop-color:#a19f02;stop-opacity:1"/><stop offset="1" style="stop-color:#0b4c06;stop-opacity:1"/></radialGradient>
        <radialGradient id="_Radial25" cx="0" cy="0" r="1" gradientUnits="userSpaceOnUse" gradientTransform="matrix(250.65,0,0,250.65,168.368,32.246)"><stop offset="0" style="stop-color:#a19f02;stop-opacity:1"/><stop offset="1" style="stop-color:#0b4c06;stop-opacity:1"/></radialGradient>
        <radialGradient id="_Radial26" cx="0" cy="0" r="1" gradientUnits="userSpaceOnUse" gradientTransform="matrix(250.65,0,0,250.65,168.368,32.246)"><stop offset="0" style="stop-color:#a19f02;stop-opacity:1"/><stop offset="1" style="stop-color:#0b4c06;stop-opacity:1"/></radialGradient>
        <radialGradient id="_Radial27" cx="0" cy="0" r="1" gradientUnits="userSpaceOnUse" gradientTransform="matrix(121.616,0,0,121.616,100.172,2.84602)"><stop offset="0" style="stop-color:#a19f02;stop-opacity:1"/><stop offset="1" style="stop-color:#0b4c06;stop-opacity:1"/></radialGradient>
        <radialGradient id="_Radial28" cx="0" cy="0" r="1" gradientUnits="userSpaceOnUse" gradientTransform="matrix(109.838,0,0,109.838,88.9399,-6.54798)"><stop offset="0" style="stop-color:#a19f02;stop-opacity:1"/><stop offset="1" style="stop-color:#0b4c06;stop-opacity:1"/></radialGradient>
        <radialGradient id="_Radial29" cx="0" cy="0" r="1" gradientUnits="userSpaceOnUse" gradientTransform="matrix(121.616,0,0,121.616,100.172,2.84602)"><stop offset="0" style="stop-color:#a19f02;stop-opacity:1"/><stop offset="1" style="stop-color:#0b4c06;stop-opacity:1"/></radialGradient>
        <radialGradient id="_Radial30" cx="0" cy="0" r="1" gradientUnits="userSpaceOnUse" gradientTransform="matrix(121.616,0,0,121.616,100.172,2.84602)"><stop offset="0" style="stop-color:#a19f02;stop-opacity:1"/><stop offset="1" style="stop-color:#0b4c06;stop-opacity:1"/></radialGradient>
        <radialGradient id="_Radial31" cx="0" cy="0" r="1" gradientUnits="userSpaceOnUse" gradientTransform="matrix(109.838,0,0,109.838,88.9399,-6.54798)"><stop offset="0" style="stop-color:#a19f02;stop-opacity:1"/><stop offset="1" style="stop-color:#0b4c06;stop-opacity:1"/></radialGradient>
        <radialGradient id="_Radial32" cx="0" cy="0" r="1" gradientUnits="userSpaceOnUse" gradientTransform="matrix(121.616,0,0,121.616,100.172,2.84602)"><stop offset="0" style="stop-color:#a19f02;stop-opacity:1"/><stop offset="1" style="stop-color:#0b4c06;stop-opacity:1"/></radialGradient>
        <radialGradient id="_Radial33" cx="0" cy="0" r="1" gradientUnits="userSpaceOnUse" gradientTransform="matrix(121.616,0,0,121.616,100.172,2.84602)"><stop offset="0" style="stop-color:#a19f02;stop-opacity:1"/><stop offset="1" style="stop-color:#0b4c06;stop-opacity:1"/></radialGradient>
        <radialGradient id="_Radial34" cx="0" cy="0" r="1" gradientUnits="userSpaceOnUse" gradientTransform="matrix(126.014,0,0,126.014,174.356,10.738)"><stop offset="0" style="stop-color:#a19f02;stop-opacity:1"/><stop offset="1" style="stop-color:#0b4c06;stop-opacity:1"/></radialGradient>
        <radialGradient id="_Radial35" cx="0" cy="0" r="1" gradientUnits="userSpaceOnUse" gradientTransform="matrix(126.014,0,0,126.014,174.356,10.738)"><stop offset="0" style="stop-color:#a19f02;stop-opacity:1"/><stop offset="1" style="stop-color:#0b4c06;stop-opacity:1"/></radialGradient>
        <radialGradient id="_Radial36" cx="0" cy="0" r="1" gradientUnits="userSpaceOnUse" gradientTransform="matrix(126.014,0,0,126.014,174.356,10.738)"><stop offset="0" style="stop-color:#a19f02;stop-opacity:1"/><stop offset="1" style="stop-color:#0b4c06;stop-opacity:1"/></radialGradient>
        <radialGradient id="_Radial37" cx="0" cy="0" r="1" gradientUnits="userSpaceOnUse" gradientTransform="matrix(123.14,0,0,123.14,25.0319,255.202)"><stop offset="0" style="stop-color:#a19f02;stop-opacity:1"/><stop offset="1" style="stop-color:#0b4c06;stop-opacity:1"/></radialGradient>
        <radialGradient id="_Radial38" cx="0" cy="0" r="1" gradientUnits="userSpaceOnUse" gradientTransform="matrix(123.14,0,0,123.14,25.0319,255.202)"><stop offset="0" style="stop-color:#a19f02;stop-opacity:1"/><stop offset="1" style="stop-color:#0b4c06;stop-opacity:1"/></radialGradient>
        <radialGradient id="_Radial39" cx="0" cy="0" r="1" gradientUnits="userSpaceOnUse" gradientTransform="matrix(123.14,0,0,123.14,25.0319,255.202)"><stop offset="0" style="stop-color:#a19f02;stop-opacity:1"/><stop offset="1" style="stop-color:#0b4c06;stop-opacity:1"/></radialGradient>
        <radialGradient id="_Radial40" cx="0" cy="0" r="1" gradientUnits="userSpaceOnUse" gradientTransform="matrix(123.327,0,0,123.327,177.348,122.082)"><stop offset="0" style="stop-color:#a19f02;stop-opacity:1"/><stop offset="1" style="stop-color:#0b4c06;stop-opacity:1"/></radialGradient>
        <radialGradient id="_Radial41" cx="0" cy="0" r="1" gradientUnits="userSpaceOnUse" gradientTransform="matrix(123.327,0,0,123.327,177.348,122.082)"><stop offset="0" style="stop-color:#a19f02;stop-opacity:1"/><stop offset="1" style="stop-color:#0b4c06;stop-opacity:1"/></radialGradient>
        <radialGradient id="_Radial42" cx="0" cy="0" r="1" gradientUnits="userSpaceOnUse" gradientTransform="matrix(123.327,0,0,123.327,177.348,122.082)"><stop offset="0" style="stop-color:#a19f02;stop-opacity:1"/><stop offset="1" style="stop-color:#0b4c06;stop-opacity:1"/></radialGradient>
        <radialGradient id="_Radial43" cx="0" cy="0" r="1" gradientUnits="userSpaceOnUse" gradientTransform="matrix(114.715,0,0,114.715,211.104,138.142)"><stop offset="0" style="stop-color:#a19f02;stop-opacity:1"/><stop offset="1" style="stop-color:#0b4c06;stop-opacity:1"/></radialGradient>
        <radialGradient id="_Radial44" cx="0" cy="0" r="1" gradientUnits="userSpaceOnUse" gradientTransform="matrix(123.327,0,0,123.327,177.348,122.082)"><stop offset="0" style="stop-color:#a19f02;stop-opacity:1"/><stop offset="1" style="stop-color:#0b4c06;stop-opacity:1"/></radialGradient>
        <radialGradient id="_Radial45" cx="0" cy="0" r="1" gradientUnits="userSpaceOnUse" gradientTransform="matrix(123.327,0,0,123.327,177.348,122.082)"><stop offset="0" style="stop-color:#a19f02;stop-opacity:1"/><stop offset="1" style="stop-color:#0b4c06;stop-opacity:1"/></radialGradient>
        <radialGradient id="_Radial46" cx="0" cy="0" r="1" gradientUnits="userSpaceOnUse" gradientTransform="matrix(123.327,0,0,123.327,177.348,122.082)"><stop offset="0" style="stop-color:#a19f02;stop-opacity:1"/><stop offset="1" style="stop-color:#0b4c06;stop-opacity:1"/></radialGradient>
        <radialGradient id="_Radial47" cx="0" cy="0" r="1" gradientUnits="userSpaceOnUse" gradientTransform="matrix(123.327,0,0,123.327,177.348,122.082)"><stop offset="0" style="stop-color:#a19f02;stop-opacity:1"/><stop offset="1" style="stop-color:#0b4c06;stop-opacity:1"/></radialGradient>
        <radialGradient id="_Radial48" cx="0" cy="0" r="1" gradientUnits="userSpaceOnUse" gradientTransform="matrix(114.715,0,0,114.715,211.104,138.142)"><stop offset="0" style="stop-color:#a19f02;stop-opacity:1"/><stop offset="1" style="stop-color:#0b4c06;stop-opacity:1"/></radialGradient>
        <radialGradient id="_Radial49" cx="0" cy="0" r="1" gradientUnits="userSpaceOnUse" gradientTransform="matrix(102.195,0,0,102.195,179.798,0.39402)"><stop offset="0" style="stop-color:#c6ac0d;stop-opacity:1"/><stop offset="1" style="stop-color:#0d5221;stop-opacity:1"/></radialGradient>
        <radialGradient id="_Radial50" cx="0" cy="0" r="1" gradientUnits="userSpaceOnUse" gradientTransform="matrix(77.5482,0,0,77.5482,87.6479,-6.00398)"><stop offset="0" style="stop-color:#c6ac0d;stop-opacity:1"/><stop offset="1" style="stop-color:#0d5221;stop-opacity:1"/></radialGradient>
        <radialGradient id="_Radial51" cx="0" cy="0" r="1" gradientUnits="userSpaceOnUse" gradientTransform="matrix(99.2486,0,0,99.2486,31.9759,253.16)"><stop offset="0" style="stop-color:#c6ac0d;stop-opacity:1"/><stop offset="1" style="stop-color:#0d5221;stop-opacity:1"/></radialGradient>
        <radialGradient id="_Radial52" cx="0" cy="0" r="1" gradientUnits="userSpaceOnUse" gradientTransform="matrix(126.014,0,0,126.014,174.356,10.738)"><stop offset="0" style="stop-color:#ddcd52;stop-opacity:1"/><stop offset="1" style="stop-color:#719761;stop-opacity:1"/></radialGradient>
        <radialGradient id="_Radial53" cx="0" cy="0" r="1" gradientUnits="userSpaceOnUse" gradientTransform="matrix(126.014,0,0,126.014,174.356,10.738)"><stop offset="0" style="stop-color:#c8c54a;stop-opacity:1"/><stop offset="1" style="stop-color:#6f934d;stop-opacity:1"/></radialGradient>
        <radialGradient id="_Radial54" cx="0" cy="0" r="1" gradientUnits="userSpaceOnUse" gradientTransform="matrix(126.014,0,0,126.014,174.356,10.738)"><stop offset="0" style="stop-color:#c8c54a;stop-opacity:1"/><stop offset="1" style="stop-color:#6f934d;stop-opacity:1"/></radialGradient>
        <radialGradient id="_Radial55" cx="0" cy="0" r="1" gradientUnits="userSpaceOnUse" gradientTransform="matrix(126.014,0,0,126.014,174.356,10.738)"><stop offset="0" style="stop-color:#c8c54a;stop-opacity:1"/><stop offset="1" style="stop-color:#6f934d;stop-opacity:1"/></radialGradient>
        <radialGradient id="_Radial56" cx="0" cy="0" r="1" gradientUnits="userSpaceOnUse" gradientTransform="matrix(121.616,0,0,121.616,100.172,2.84602)"><stop offset="0" style="stop-color:#ddcd52;stop-opacity:1"/><stop offset="1" style="stop-color:#719761;stop-opacity:1"/></radialGradient>
        <radialGradient id="_Radial57" cx="0" cy="0" r="1" gradientUnits="userSpaceOnUse" gradientTransform="matrix(121.616,0,0,121.616,100.172,2.84602)"><stop offset="0" style="stop-color:#c8c54a;stop-opacity:1"/><stop offset="1" style="stop-color:#6f934d;stop-opacity:1"/></radialGradient>
        <radialGradient id="_Radial58" cx="0" cy="0" r="1" gradientUnits="userSpaceOnUse" gradientTransform="matrix(121.616,0,0,121.616,100.172,2.84602)"><stop offset="0" style="stop-color:#ddcd52;stop-opacity:1"/><stop offset="1" style="stop-color:#719761;stop-opacity:1"/></radialGradient>
        <radialGradient id="_Radial59" cx="0" cy="0" r="1" gradientUnits="userSpaceOnUse" gradientTransform="matrix(121.616,0,0,121.616,100.172,2.84602)"><stop offset="0" style="stop-color:#c8c54a;stop-opacity:1"/><stop offset="1" style="stop-color:#6f934d;stop-opacity:1"/></radialGradient>
        <radialGradient id="_Radial60" cx="0" cy="0" r="1" gradientUnits="userSpaceOnUse" gradientTransform="matrix(121.616,0,0,121.616,100.172,2.84602)"><stop offset="0" style="stop-color:#c8c54a;stop-opacity:1"/><stop offset="1" style="stop-color:#6f934d;stop-opacity:1"/></radialGradient>
        <radialGradient id="_Radial61" cx="0" cy="0" r="1" gradientUnits="userSpaceOnUse" gradientTransform="matrix(121.616,0,0,121.616,100.172,2.84602)"><stop offset="0" style="stop-color:#ddcd52;stop-opacity:1"/><stop offset="1" style="stop-color:#719761;stop-opacity:1"/></radialGradient>
        <radialGradient id="_Radial62" cx="0" cy="0" r="1" gradientUnits="userSpaceOnUse" gradientTransform="matrix(250.65,0,0,250.65,168.368,32.246)"><stop offset="0" style="stop-color:#ddcd52;stop-opacity:1"/><stop offset="1" style="stop-color:#719761;stop-opacity:1"/></radialGradient>
        <radialGradient id="_Radial63" cx="0" cy="0" r="1" gradientUnits="userSpaceOnUse" gradientTransform="matrix(250.65,0,0,250.65,168.368,32.246)"><stop offset="0" style="stop-color:#c8c54a;stop-opacity:1"/><stop offset="1" style="stop-color:#6f934d;stop-opacity:1"/></radialGradient>
        <radialGradient id="_Radial64" cx="0" cy="0" r="1" gradientUnits="userSpaceOnUse" gradientTransform="matrix(250.65,0,0,250.65,168.368,32.246)"><stop offset="0" style="stop-color:#c8c54a;stop-opacity:1"/><stop offset="1" style="stop-color:#6f934d;stop-opacity:1"/></radialGradient>
        <radialGradient id="_Radial65" cx="0" cy="0" r="1" gradientUnits="userSpaceOnUse" gradientTransform="matrix(250.65,0,0,250.65,168.368,32.246)"><stop offset="0" style="stop-color:#c8c54a;stop-opacity:1"/><stop offset="1" style="stop-color:#6f934d;stop-opacity:1"/></radialGradient>
        <radialGradient id="_Radial66" cx="0" cy="0" r="1" gradientUnits="userSpaceOnUse" gradientTransform="matrix(250.65,0,0,250.65,168.368,32.246)"><stop offset="0" style="stop-color:#ddcd52;stop-opacity:1"/><stop offset="1" style="stop-color:#719761;stop-opacity:1"/></radialGradient>
        <radialGradient id="_Radial67" cx="0" cy="0" r="1" gradientUnits="userSpaceOnUse" gradientTransform="matrix(250.65,0,0,250.65,168.368,32.246)"><stop offset="0" style="stop-color:#ddcd52;stop-opacity:1"/><stop offset="1" style="stop-color:#719761;stop-opacity:1"/></radialGradient>
        <radialGradient id="_Radial68" cx="0" cy="0" r="1" gradientUnits="userSpaceOnUse" gradientTransform="matrix(250.65,0,0,250.65,168.368,32.246)"><stop offset="0" style="stop-color:#c8c54a;stop-opacity:1"/><stop offset="1" style="stop-color:#6f934d;stop-opacity:1"/></radialGradient>
        <radialGradient id="_Radial69" cx="0" cy="0" r="1" gradientUnits="userSpaceOnUse" gradientTransform="matrix(123.327,0,0,123.327,177.348,122.082)"><stop offset="0" style="stop-color:#ddcd52;stop-opacity:1"/><stop offset="1" style="stop-color:#719761;stop-opacity:1"/></radialGradient>
        <radialGradient id="_Radial70" cx="0" cy="0" r="1" gradientUnits="userSpaceOnUse" gradientTransform="matrix(123.14,0,0,123.14,25.0319,255.202)"><stop offset="0" style="stop-color:#ddcd52;stop-opacity:1"/><stop offset="1" style="stop-color:#719761;stop-opacity:1"/></radialGradient>
        <radialGradient id="_Radial71" cx="0" cy="0" r="1" gradientUnits="userSpaceOnUse" gradientTransform="matrix(123.14,0,0,123.14,25.0319,255.202)"><stop offset="0" style="stop-color:#c8c54a;stop-opacity:1"/><stop offset="1" style="stop-color:#6f934d;stop-opacity:1"/></radialGradient>
        <radialGradient id="_Radial72" cx="0" cy="0" r="1" gradientUnits="userSpaceOnUse" gradientTransform="matrix(250.65,0,0,250.65,168.368,32.246)"><stop offset="0" style="stop-color:#ddcd52;stop-opacity:1"/><stop offset="1" style="stop-color:#719761;stop-opacity:1"/></radialGradient>
    </defs>
</svg>
